<svg width="36" height="36" viewBox="0 0 36 36" fill="none" xmlns="http://www.w3.org/2000/svg">
<path d="M36 18C36 27.9411 27.9411 36 18 36C8.05887 36 0 27.9411 0 18C0 8.05887 8.05887 0 18 0C27.9411 0 36 8.05887 36 18Z" fill="#FCF3F3"/>
<path d="M14.76 11.1V19.96C14.76 21.0133 15.0333 21.8067 15.58 22.34C16.14 22.8733 16.9133 23.14 17.9 23.14C18.9 23.14 19.6733 22.8733 20.22 22.34C20.78 21.8067 21.06 21.0133 21.06 19.96V11.1H23.34V19.92C23.34 21.0533 23.0933 22.0133 22.6 22.8C22.1067 23.5867 21.4467 24.1733 20.62 24.56C19.7933 24.9467 18.88 25.14 17.88 25.14C16.88 25.14 15.9667 24.9467 15.14 24.56C14.3267 24.1733 13.68 23.5867 13.2 22.8C12.72 22.0133 12.48 21.0533 12.48 19.92V11.1H14.76Z" fill="#850000"/>
</svg>
