<svg width="258" height="234" viewBox="0 0 258 234" fill="none" xmlns="http://www.w3.org/2000/svg">
<path d="M71.9519 196.993C70.4177 197.455 66.8438 196.993 66.8438 196.993C66.8438 196.993 67.8724 194.827 67.9537 194.699C68.9184 193.207 71.702 190.869 73.6953 191.359C74.0234 191.447 74.3286 191.6 74.591 191.808C74.8534 192.016 75.0672 192.275 75.2184 192.567C75.3697 192.86 75.455 193.179 75.4689 193.505C75.4829 193.831 75.425 194.157 75.2992 194.46C74.8052 195.762 73.2594 196.603 71.9519 196.993Z" fill="#263238"/>
<path d="M38.6638 196.035C38.6289 196.035 38.2744 193.691 38.2686 193.535C38.2163 191.782 39.1926 188.364 41.1277 187.707C41.4521 187.607 41.7949 187.573 42.1338 187.608C42.4728 187.643 42.8002 187.746 43.0947 187.91C43.3893 188.074 43.6443 188.297 43.8431 188.562C44.0418 188.827 44.18 189.13 44.2484 189.45C44.5913 190.797 43.7835 192.316 42.9234 193.346C41.9065 194.526 38.6638 196.035 38.6638 196.035Z" fill="#263238"/>
<path d="M39.2865 221.302C40.4836 221.446 42.8546 220.801 43.5171 220.611C43.6275 221.591 43.7554 222.554 43.9355 223.5C44.0169 223.907 44.075 224.33 44.1796 224.714C44.2842 225.098 44.3772 225.493 44.4701 225.877C44.6968 226.662 44.9002 227.392 45.1326 228.104C45.243 228.477 45.3593 228.817 45.4755 229.173C45.1907 228.616 44.7258 227.726 44.6735 227.648C43.7902 226.356 41.2972 224.358 39.5596 224.814C39.2733 224.897 39.0084 225.037 38.782 225.224C38.5557 225.411 38.373 225.642 38.2459 225.901C38.1188 226.161 38.05 226.443 38.044 226.729C38.0381 227.016 38.0951 227.3 38.2114 227.564C38.6705 228.677 40.0536 229.412 41.21 229.729C42.4827 230.08 45.2779 229.696 45.6266 229.646C45.9172 230.514 46.2077 231.361 46.4867 232.145C46.6726 232.663 46.8528 233.147 47.0271 233.621H48.1894C47.9569 233.064 47.7187 232.446 47.4688 231.8C47.2189 231.155 46.9225 230.347 46.6436 229.574C46.9574 229.446 49.3865 228.46 50.3628 227.553C51.1361 228.013 51.9375 228.427 52.7629 228.794C52.4955 229.674 52.2515 230.531 52.0364 231.333C51.8214 232.134 51.6238 232.897 51.4553 233.621H52.6176C52.7629 232.969 52.9198 232.301 53.0941 231.578C53.2684 230.854 53.4776 230.075 53.6752 229.284C54.0181 229.345 56.8017 229.841 58.086 229.54C59.2483 229.267 60.6662 228.605 61.166 227.486C61.2905 227.228 61.3574 226.948 61.3623 226.664C61.3673 226.379 61.3103 226.097 61.1948 225.835C61.0794 225.573 60.9082 225.337 60.6921 225.142C60.4759 224.947 60.2197 224.798 59.9398 224.703C58.1964 224.185 55.6453 226.083 54.7096 227.341C54.6515 227.425 54.0588 228.455 53.7682 228.978C53.8961 228.499 54.0297 228.026 54.175 227.531C54.3784 226.818 54.6167 226.067 54.8491 225.343L55.2501 224.23C55.3779 223.84 55.5523 223.489 55.7034 223.116C55.9358 222.56 56.2031 222.003 56.4705 221.446C57.2143 221.686 59.4168 222.365 60.579 222.27C61.7413 222.176 63.2755 221.714 63.9496 220.689C64.1175 220.451 64.2314 220.182 64.2837 219.899C64.336 219.617 64.3257 219.326 64.2534 219.048C64.181 218.769 64.0483 218.508 63.8638 218.282C63.6793 218.055 63.4472 217.868 63.1825 217.733C61.5611 216.971 58.7194 218.479 57.5978 219.587C57.5572 219.621 57.348 219.877 57.0981 220.188C57.377 219.632 57.6792 219.12 57.9523 218.591C58.8008 217.088 59.6957 215.585 60.6255 214.071L61.2067 213.124C61.8343 213.33 64.2169 214.082 65.4315 213.982C66.646 213.881 68.1279 213.425 68.802 212.401C68.9699 212.163 69.0836 211.895 69.1359 211.612C69.1882 211.33 69.1778 211.04 69.1055 210.762C69.0331 210.483 68.9004 210.223 68.7159 209.997C68.5315 209.771 68.2994 209.585 68.0349 209.45C66.4136 208.688 63.5718 210.191 62.4503 211.299C62.4096 211.337 62.1539 211.649 61.8691 211.994C62.3515 211.165 62.8222 210.324 63.2639 209.495C64.0266 208.054 64.6887 206.566 65.2455 205.042C65.4663 205.12 68.2383 206.06 69.5865 205.943C70.7895 205.843 72.283 205.387 72.9629 204.363C73.1305 204.125 73.244 203.856 73.2958 203.573C73.3477 203.29 73.3368 203 73.2639 202.722C73.191 202.444 73.0577 202.183 72.8726 201.958C72.6876 201.732 72.455 201.546 72.19 201.412C70.5745 200.65 67.7269 202.153 66.6053 203.26C66.524 203.338 65.6232 204.457 65.3152 204.869V204.819C65.8272 203.312 66.1948 201.764 66.4136 200.193C66.6214 198.795 66.7417 197.386 66.7739 195.974C66.8204 194.66 66.7739 193.463 66.7332 192.4C66.7041 191.843 66.6635 191.287 66.6228 190.808H66.6518C66.6518 190.808 67.4073 188.843 67.4364 188.715C67.7908 187.212 67.5526 184.106 66.001 183.221C65.739 183.082 65.4494 182.997 65.1511 182.973C64.8528 182.948 64.5525 182.984 64.2696 183.078C63.9868 183.172 63.7278 183.322 63.5094 183.518C63.2911 183.715 63.1183 183.953 63.0023 184.217C62.4677 185.33 62.8919 186.767 63.4614 187.785C64.0309 188.804 66.0358 190.346 66.5356 190.719C66.5705 191.231 66.5995 191.776 66.617 192.389C66.617 193.452 66.6518 194.649 66.5763 195.957C66.5763 196.302 66.524 196.675 66.4949 197.037C66.4078 196.419 66.2799 195.567 66.2567 195.489C65.8499 193.998 64.1414 191.342 62.3457 191.248C62.0439 191.239 61.7435 191.291 61.4644 191.401C61.1853 191.512 60.9339 191.678 60.7268 191.888C60.5197 192.099 60.3616 192.349 60.263 192.622C60.1644 192.896 60.1275 193.186 60.1548 193.474C60.2129 194.693 61.288 195.79 62.2817 196.441C63.2755 197.093 65.8847 197.594 66.4484 197.688C66.3729 198.49 66.2741 199.314 66.123 200.165C65.8791 201.713 65.4901 203.237 64.9608 204.719H64.862C64.862 204.162 64.8097 202.921 64.798 202.821C64.5598 201.29 63.1709 198.473 61.3926 198.189C61.0959 198.15 60.7939 198.171 60.5063 198.251C60.2186 198.331 59.9518 198.468 59.7232 198.654C59.4946 198.839 59.3093 199.068 59.1794 199.327C59.0495 199.586 58.9779 199.867 58.9693 200.154C58.8821 201.373 59.8294 202.57 60.7127 203.327C61.7645 204.19 64.6992 204.997 64.8097 205.036C64.2343 206.492 63.5607 207.911 62.7931 209.283C62.212 210.302 61.6309 211.315 60.9916 212.323C60.9916 211.916 60.9393 210.313 60.9219 210.196C60.6895 208.671 59.3006 205.854 57.5223 205.57C57.2294 205.537 56.9324 205.562 56.6501 205.644C56.3678 205.726 56.1063 205.864 55.8819 206.047C55.6576 206.231 55.4754 206.457 55.3466 206.711C55.2179 206.965 55.1454 207.242 55.1339 207.524C55.0525 208.738 55.9939 209.94 56.9063 210.692C57.9291 211.538 60.7418 212.328 60.9742 212.395C60.6895 212.852 60.3931 213.314 60.1141 213.77C59.1727 215.262 58.2197 216.748 57.3305 218.251C57.0225 218.769 56.7494 219.292 56.4472 219.815C56.4472 219.203 56.4007 218.09 56.3833 217.995C56.1508 216.47 54.7619 213.653 52.9837 213.364C52.6867 213.325 52.3844 213.346 52.0964 213.426C51.8085 213.506 51.5413 213.643 51.3123 213.828C51.0832 214.013 50.8974 214.243 50.7668 214.501C50.6363 214.76 50.564 215.042 50.5546 215.329C50.4732 216.548 51.4146 217.745 52.298 218.502C53.1813 219.259 55.5581 219.966 56.2206 220.172C55.7499 221.046 55.3024 221.92 54.9072 222.799C54.7387 223.183 54.5469 223.567 54.4133 223.946C54.2796 224.324 54.1285 224.697 53.9832 225.059C53.7217 225.833 53.4718 226.551 53.2452 227.286C53.129 227.653 53.0302 227.998 52.9198 228.36C53.0069 227.737 53.129 226.751 53.129 226.662C53.129 225.115 52.2108 222.131 50.4965 221.591C50.2095 221.509 49.9078 221.486 49.6108 221.523C49.3139 221.56 49.0284 221.656 48.7729 221.806C48.5175 221.955 48.2978 222.155 48.1282 222.391C47.9585 222.628 47.8428 222.896 47.7884 223.178C47.7547 223.326 47.7353 223.477 47.7303 223.628C46.9537 224.764 46.4917 226.071 46.3879 227.425C46.3879 227.52 46.4809 228.694 46.5448 229.29C46.3762 228.822 46.2135 228.355 46.0508 227.865C45.8067 227.163 45.5801 226.412 45.3535 225.683L45.0396 224.53C44.9234 224.141 44.8595 223.751 44.7723 223.361C44.6503 222.805 44.5515 222.176 44.4585 221.574C45.2198 221.385 47.4513 220.784 48.3637 220.094C49.2761 219.403 50.2931 218.212 50.264 216.993C50.2668 216.708 50.2072 216.425 50.089 216.163C49.9707 215.901 49.7965 215.666 49.5775 215.472C49.3585 215.279 49.0996 215.131 48.8174 215.039C48.5353 214.948 48.2362 214.913 47.9395 214.939C46.1496 215.151 44.6445 217.912 44.3423 219.431C44.3423 219.481 44.3074 219.804 44.2784 220.194C44.2028 219.604 44.1273 219.014 44.0692 218.413C43.9123 216.709 43.8077 214.972 43.6972 213.23C43.6972 212.868 43.6449 212.501 43.6217 212.117C44.2609 211.961 46.6842 211.332 47.6373 210.603C48.5903 209.873 49.5725 208.721 49.5434 207.502C49.5453 207.217 49.4851 206.935 49.3666 206.673C49.248 206.411 49.0737 206.176 48.8549 205.983C48.6361 205.79 48.3776 205.642 48.0959 205.55C47.8141 205.458 47.5154 205.423 47.2189 205.448C45.429 205.665 43.9239 208.426 43.6217 209.94C43.6217 209.996 43.581 210.386 43.5462 210.825C43.4706 209.879 43.3834 208.933 43.2672 208.003C43.0702 206.403 42.7635 204.817 42.349 203.255C42.5757 203.199 45.429 202.514 46.4867 201.707C47.4281 200.989 48.4218 199.826 48.3928 198.607C48.3947 198.322 48.3345 198.039 48.2159 197.778C48.0974 197.516 47.9231 197.281 47.7043 197.088C47.4855 196.894 47.227 196.747 46.9452 196.655C46.6635 196.563 46.3648 196.528 46.0683 196.553C44.2784 196.77 42.7732 199.531 42.4711 201.045C42.4711 201.156 42.3432 202.565 42.32 203.071C42.3227 203.053 42.3227 203.034 42.32 203.015C41.8809 201.483 41.2974 199.993 40.5766 198.562C39.9406 197.286 39.2286 196.047 38.4438 194.849C37.7232 193.736 36.9968 192.751 36.346 191.888C35.9915 191.42 35.6602 191.003 35.3406 190.619H35.3755C35.3755 190.619 34.8699 188.587 34.7944 188.464C34.2132 187.023 32.2374 184.568 30.4359 184.64C30.1371 184.663 29.8465 184.745 29.5831 184.882C29.3196 185.019 29.0892 185.208 28.9067 185.435C28.7243 185.663 28.5938 185.925 28.5239 186.204C28.4539 186.484 28.446 186.774 28.5007 187.056C28.6925 188.258 29.8838 189.238 30.9415 189.789C31.9991 190.34 34.5677 190.563 35.1953 190.607C35.5208 191.019 35.8578 191.459 36.2181 191.955C36.8457 192.829 37.5489 193.819 38.2404 194.944C38.4206 195.244 38.6066 195.578 38.7925 195.896C38.3625 195.423 37.7697 194.782 37.7 194.727C36.5029 193.697 33.5507 192.383 31.9991 193.257C31.7433 193.407 31.5232 193.607 31.3531 193.843C31.1831 194.08 31.0669 194.348 31.0121 194.631C30.9573 194.913 30.9651 195.203 31.035 195.483C31.1049 195.762 31.2354 196.024 31.418 196.252C32.1677 197.237 33.696 197.582 34.9048 197.605C36.1135 197.627 38.5717 196.658 39.1005 196.447C39.5015 197.154 39.8909 197.889 40.2628 198.673C40.943 200.108 41.4876 201.599 41.8899 203.127L41.797 203.166C41.4541 202.687 40.7161 201.691 40.6347 201.618C39.5596 200.466 36.7818 198.835 35.1314 199.553C34.8616 199.678 34.6221 199.855 34.4286 200.075C34.235 200.294 34.0917 200.549 34.0079 200.825C33.924 201.1 33.9016 201.39 33.942 201.674C33.9824 201.958 34.0847 202.231 34.2423 202.475C34.8699 203.533 36.3518 204.04 37.5431 204.184C38.9204 204.351 41.8318 203.477 41.9422 203.444C42.3112 204.971 42.5752 206.52 42.7326 208.081C42.8488 209.233 42.9185 210.397 42.9766 211.571C42.75 211.226 41.7795 209.901 41.6982 209.834C40.6231 208.682 37.8453 207.051 36.1949 207.769C35.9251 207.894 35.6856 208.072 35.4921 208.291C35.2985 208.51 35.1552 208.765 35.0713 209.041C34.9875 209.317 34.9651 209.606 35.0054 209.89C35.0458 210.175 35.1481 210.448 35.3057 210.692C35.9334 211.749 37.4152 212.256 38.6066 212.401C39.949 212.568 42.75 211.738 42.9825 211.666C42.9825 212.223 43.0406 212.729 43.058 213.264C43.1336 215.006 43.1975 216.754 43.3137 218.474C43.3544 219.075 43.4183 219.66 43.4822 220.25C43.1219 219.743 42.4478 218.836 42.3781 218.763C41.303 217.611 38.5252 215.98 36.8748 216.704C36.6045 216.827 36.3645 217.004 36.1705 217.222C35.9764 217.441 35.8327 217.696 35.7488 217.972C35.6649 218.247 35.6426 218.536 35.6834 218.82C35.7242 219.104 35.8272 219.377 35.9857 219.621C36.6133 220.65 38.0952 221.157 39.2865 221.302Z" fill="#263238"/>
<path d="M158.959 55.9903C157.409 55.2109 155.96 53.8007 154.612 51.7597C153.211 49.5891 152.502 47.074 152.572 44.5231C152.572 41.8363 153.32 39.8193 154.815 38.4722C156.31 37.1251 158.507 36.1046 161.405 35.4106L171.999 32.9557C176.532 31.8424 178.796 29.7605 178.792 26.71C178.792 25.0623 177.956 23.6298 176.282 22.4126C174.608 21.1954 171.732 20.5886 167.652 20.5923C164.116 20.5699 160.594 21.0291 157.192 21.9561C154.424 22.6652 151.772 23.7387 149.312 25.1458C147.759 24.0083 146.426 22.6199 145.372 21.0432C144.246 19.3067 143.678 17.2916 143.739 15.2484C143.71 13.1182 144.433 11.0412 145.79 9.35337C147.294 7.55335 149.227 6.12542 151.427 5.18956C154.151 4.01241 157.032 3.2013 159.987 2.77923C163.605 2.23778 167.262 1.97716 170.924 1.9999C181.605 1.98506 189.692 4.25066 195.186 8.79671C200.68 13.3428 203.419 19.3083 203.403 26.6933C203.403 40.5764 193.168 49.4699 172.696 53.374L158.959 55.9903ZM154.472 73.0407C154.472 69.4855 155.634 66.5575 157.959 64.2567C160.283 61.9558 163.478 60.8054 167.542 60.8054C171.614 60.8054 174.806 61.9558 177.119 64.2567C179.432 66.5575 180.594 69.4855 180.606 73.0407C180.606 76.6034 179.443 79.5314 177.119 81.8248C174.794 84.1183 171.602 85.2687 167.542 85.2761C163.462 85.2761 160.268 84.1257 157.959 81.8248C155.65 79.524 154.488 76.5959 154.472 73.0407Z" fill="#263238"/>
<path d="M167.519 85.5551C163.381 85.5551 160.086 84.3638 157.727 82.0203C155.367 79.6768 154.182 76.6597 154.182 73.0414C154.182 69.4231 155.373 66.406 157.727 64.0625C160.08 61.719 163.381 60.5277 167.519 60.5277C171.656 60.5277 174.951 61.719 177.305 64.0625C179.659 66.406 180.85 69.4287 180.85 73.0414C180.85 76.6541 179.659 79.6823 177.305 82.0203C174.951 84.3583 171.656 85.5551 167.519 85.5551ZM167.519 61.0621C163.544 61.0621 160.388 62.1754 158.145 64.4021C155.902 66.6287 154.763 69.5289 154.763 72.9913C154.763 76.4537 155.925 79.3484 158.145 81.5861C160.365 83.8239 163.544 84.9261 167.519 84.9261C171.494 84.9261 174.643 83.8128 176.887 81.5861C179.13 79.3595 180.269 76.4593 180.269 72.9913C180.269 69.5233 179.136 66.6899 176.887 64.4633C174.638 62.2366 171.494 61.0844 167.519 61.0844V61.0621ZM158.959 56.247C158.91 56.2466 158.862 56.2351 158.819 56.2136C157.244 55.4176 155.745 53.987 154.362 51.8884C152.942 49.6747 152.22 47.1155 152.282 44.5182C152.282 41.7627 153.066 39.6586 154.606 38.2613C156.146 36.8641 158.395 35.8399 161.33 35.1385L171.941 32.6836C176.358 31.5703 178.508 29.6276 178.508 26.7107C178.508 25.1631 177.706 23.7882 176.114 22.6359C174.521 21.4836 171.651 20.8713 167.658 20.8713C164.149 20.8509 160.655 21.3064 157.279 22.224C154.539 22.929 151.913 23.991 149.475 25.3802C149.425 25.4116 149.366 25.4283 149.306 25.4283C149.246 25.4283 149.188 25.4116 149.138 25.3802C147.563 24.2214 146.208 22.8109 145.134 21.2109C143.981 19.4249 143.401 17.3537 143.466 15.2546C143.429 13.0562 144.168 10.9104 145.564 9.16476C147.091 7.32547 149.056 5.86334 151.294 4.90075C154.042 3.71365 156.948 2.89508 159.929 2.46815C163.563 1.92505 167.235 1.66257 170.913 1.68326C181.623 1.68326 189.846 4.00453 195.361 8.58583C200.876 13.1671 203.677 19.2681 203.677 26.694C203.677 40.6605 193.269 49.7285 172.737 53.6474L159.011 56.247H158.959ZM167.676 20.2924C171.796 20.2924 174.76 20.9214 176.48 22.1683C178.2 23.4152 179.107 24.9516 179.107 26.6884C179.107 29.8502 176.753 32.0435 172.098 33.2013L161.481 35.7007C158.645 36.3798 156.466 37.3707 155.019 38.69C153.572 40.0092 152.869 41.9409 152.869 44.5405C152.806 47.0338 153.498 49.4912 154.862 51.6156C156.158 53.5639 157.552 54.9555 159.011 55.7015L172.633 53.1186C192.85 49.2609 203.101 40.3766 203.101 26.7107C203.101 19.4741 200.37 13.5011 194.966 9.02003C189.561 4.53892 181.466 2.25662 170.901 2.25662C167.255 2.23404 163.613 2.49467 160.011 3.03594C157.082 3.45381 154.227 4.25549 151.526 5.41845C149.37 6.33845 147.475 7.73944 146 9.50432C144.69 11.1552 144.002 13.1817 144.047 15.2546C143.988 17.2425 144.54 19.2032 145.634 20.8936C146.635 22.3821 147.891 23.6992 149.347 24.7902C151.785 23.4259 154.402 22.3776 157.128 21.6729C160.552 20.7467 164.095 20.2894 167.652 20.3146L167.676 20.2924Z" fill="#263238"/>
<path d="M110.974 144.578L112.124 233.721H157.644L153.902 145.68L110.974 144.578Z" fill="#263238"/>
<path d="M157.645 233.999H112.125C112.048 233.999 111.974 233.97 111.919 233.918C111.865 233.866 111.834 233.795 111.834 233.721L110.672 144.578C110.674 144.503 110.705 144.432 110.759 144.377C110.787 144.351 110.821 144.33 110.858 144.316C110.895 144.303 110.935 144.297 110.974 144.299L153.902 145.413C153.976 145.415 154.046 145.444 154.098 145.493C154.151 145.543 154.183 145.609 154.187 145.68L157.935 233.688C157.937 233.725 157.931 233.762 157.917 233.796C157.903 233.831 157.882 233.862 157.854 233.888C157.83 233.92 157.798 233.947 157.762 233.966C157.726 233.985 157.686 233.997 157.645 233.999ZM112.409 233.443H157.342L153.623 145.953L111.265 144.839L112.409 233.443Z" fill="#263238"/>
<path d="M110.974 112.731L112.124 201.874H157.644L153.902 113.833L110.974 112.731Z" fill="white"/>
<path d="M157.645 202.153H112.125C112.048 202.153 111.974 202.123 111.919 202.071C111.865 202.019 111.834 201.948 111.834 201.874L110.672 112.737C110.672 112.661 110.703 112.589 110.759 112.536C110.786 112.508 110.819 112.485 110.857 112.471C110.894 112.456 110.934 112.45 110.974 112.453L153.902 113.566C153.976 113.566 154.046 113.593 154.099 113.642C154.152 113.691 154.184 113.757 154.187 113.828L157.929 201.869C157.932 201.907 157.926 201.945 157.912 201.98C157.898 202.016 157.876 202.048 157.848 202.075C157.793 202.125 157.72 202.153 157.645 202.153ZM112.409 201.596H157.342L153.623 114.106L111.265 112.993L112.409 201.596Z" fill="#263238"/>
<path d="M126.81 122.345L131.552 129.915L123.26 187.051L135.766 199.035L143.931 184.028L134.58 130.294L139.322 124.115L134.057 116.038L126.81 122.345Z" fill="#263238"/>
<path d="M135.766 199.314C135.728 199.314 135.69 199.307 135.655 199.293C135.62 199.278 135.589 199.257 135.563 199.23L123.051 187.251C123.019 187.22 122.996 187.182 122.982 187.14C122.968 187.099 122.963 187.055 122.97 187.012L131.262 129.971L126.578 122.489C126.542 122.435 126.527 122.369 126.537 122.305C126.547 122.24 126.58 122.182 126.631 122.139L133.872 115.832C133.904 115.806 133.942 115.786 133.983 115.775C134.024 115.763 134.067 115.76 134.11 115.765C134.151 115.771 134.191 115.785 134.226 115.807C134.262 115.829 134.291 115.859 134.313 115.893L139.578 123.965C139.611 124.011 139.628 124.065 139.628 124.12C139.628 124.176 139.611 124.23 139.578 124.276L134.929 130.361L144.256 183.978C144.267 184.039 144.257 184.101 144.227 184.156L136.091 199.186C136.07 199.224 136.039 199.258 136.002 199.283C135.965 199.308 135.922 199.324 135.876 199.331L135.766 199.314ZM123.562 186.956L135.685 198.568L143.623 183.978L134.29 130.338C134.278 130.264 134.297 130.188 134.342 130.127L138.991 124.098L134.011 116.472L127.194 122.4L131.843 129.77C131.877 129.826 131.891 129.89 131.884 129.954L123.562 186.956Z" fill="#263238"/>
<path d="M131.552 129.915L131.372 131.167L136.66 127.582L139.322 124.114L136.782 120.218L128.85 125.595L131.552 129.915Z" fill="#850000"/>
<path d="M131.371 131.446C131.318 131.445 131.265 131.429 131.22 131.401C131.172 131.374 131.133 131.333 131.108 131.285C131.083 131.236 131.074 131.182 131.081 131.128L131.249 129.971L128.599 125.74C128.559 125.68 128.546 125.607 128.561 125.538C128.576 125.468 128.619 125.407 128.681 125.367L136.613 119.995C136.679 119.951 136.76 119.933 136.84 119.945C136.878 119.953 136.914 119.969 136.946 119.991C136.978 120.013 137.005 120.041 137.026 120.073L139.565 123.97C139.598 124.016 139.615 124.07 139.615 124.126C139.615 124.181 139.598 124.236 139.565 124.282L136.909 127.75C136.889 127.773 136.866 127.794 136.84 127.811L131.551 131.396C131.498 131.43 131.435 131.447 131.371 131.446ZM129.233 125.695L131.801 129.792C131.835 129.848 131.849 129.912 131.842 129.976L131.749 130.589L136.456 127.404L138.972 124.12L136.7 120.641L129.233 125.695Z" fill="#263238"/>
<path d="M128.809 148.825L136.857 143.369L135.724 136.856L129.977 140.748L128.809 148.825Z" fill="#850000"/>
<path d="M128.809 149.075C128.756 149.076 128.703 149.063 128.658 149.036C128.61 149.008 128.572 148.967 128.547 148.919C128.522 148.871 128.512 148.817 128.518 148.763L129.681 140.686C129.686 140.648 129.7 140.612 129.721 140.579C129.742 140.547 129.77 140.519 129.803 140.497L135.544 136.6C135.584 136.573 135.631 136.556 135.68 136.551C135.729 136.546 135.778 136.554 135.823 136.573C135.868 136.591 135.908 136.62 135.938 136.657C135.969 136.694 135.989 136.738 135.997 136.784L137.131 143.297C137.139 143.348 137.133 143.401 137.112 143.449C137.092 143.497 137.058 143.539 137.014 143.57L128.977 149.075C128.922 149.09 128.864 149.09 128.809 149.075ZM130.25 140.887L129.187 148.201L136.538 143.191L135.515 137.291L130.25 140.887Z" fill="#263238"/>
<path d="M135.998 198.607L142.268 187.079L131.151 194.616L135.603 198.88L135.998 198.607Z" fill="#850000"/>
<path d="M135.603 199.175C135.524 199.174 135.449 199.144 135.393 199.091L130.948 194.827C130.917 194.799 130.893 194.764 130.878 194.725C130.862 194.687 130.857 194.645 130.861 194.604C130.864 194.565 130.877 194.526 130.898 194.491C130.919 194.457 130.948 194.427 130.983 194.404L142.1 186.872C142.151 186.834 142.214 186.812 142.28 186.812C142.345 186.812 142.409 186.834 142.46 186.872C142.508 186.913 142.541 186.968 142.553 187.029C142.564 187.089 142.554 187.152 142.524 187.206L136.259 198.735C136.236 198.774 136.205 198.809 136.166 198.835L135.771 199.102C135.726 199.145 135.666 199.17 135.603 199.175ZM131.599 194.66L135.632 198.523L135.771 198.429L141.455 187.986L131.599 194.66Z" fill="#263238"/>
<path d="M138.2 151.096L127.414 158.405L126.246 166.476L139.333 157.609L138.2 151.096Z" fill="#850000"/>
<path d="M126.247 166.755C126.193 166.756 126.141 166.742 126.095 166.716C126.046 166.688 126.007 166.646 125.982 166.597C125.957 166.547 125.948 166.492 125.956 166.437L127.118 158.366C127.13 158.291 127.171 158.223 127.234 158.177L138.02 150.873C138.06 150.845 138.107 150.827 138.156 150.821C138.206 150.815 138.256 150.821 138.302 150.839C138.348 150.857 138.388 150.886 138.419 150.923C138.451 150.96 138.471 151.004 138.479 151.051L139.607 157.564C139.618 157.616 139.613 157.669 139.592 157.718C139.572 157.766 139.536 157.808 139.49 157.837L126.403 166.705C126.357 166.735 126.303 166.752 126.247 166.755ZM127.688 158.538L126.613 165.881L139.008 157.481L137.98 151.58L127.688 158.538Z" fill="#263238"/>
<path d="M141.217 168.425L124.3 179.886L123.26 187.051L123.76 187.529L142.35 174.938L141.217 168.425Z" fill="#850000"/>
<path d="M123.76 187.808C123.721 187.809 123.683 187.802 123.647 187.789C123.611 187.776 123.578 187.755 123.551 187.73L123.051 187.251C123.019 187.22 122.996 187.182 122.982 187.14C122.968 187.099 122.963 187.055 122.97 187.012L124.01 179.848C124.024 179.772 124.067 179.704 124.132 179.658L141.048 168.197C141.089 168.17 141.136 168.153 141.185 168.148C141.233 168.143 141.283 168.15 141.328 168.168C141.373 168.187 141.413 168.216 141.443 168.253C141.474 168.29 141.494 168.334 141.502 168.38L142.635 174.893C142.642 174.945 142.635 174.997 142.615 175.045C142.595 175.092 142.561 175.134 142.519 175.166L123.923 187.758C123.875 187.789 123.818 187.806 123.76 187.808ZM123.568 186.956L123.789 187.168L142.031 174.81L141.008 168.909L124.568 180.042L123.568 186.956Z" fill="#263238"/>
<path d="M133.528 118.687L121.94 130.672L117.988 115.158L119.226 110.404L133.528 118.687Z" fill="white"/>
<path d="M121.963 130.95H121.887C121.837 130.938 121.791 130.913 121.754 130.877C121.717 130.842 121.691 130.798 121.678 130.75L117.732 115.236C117.721 115.192 117.721 115.146 117.732 115.102L118.97 110.348C118.982 110.307 119.003 110.268 119.032 110.235C119.061 110.203 119.098 110.177 119.139 110.159C119.179 110.14 119.224 110.13 119.269 110.13C119.315 110.13 119.359 110.14 119.4 110.159L133.678 118.459C133.716 118.48 133.748 118.509 133.772 118.544C133.796 118.578 133.812 118.618 133.818 118.659C133.823 118.7 133.82 118.742 133.807 118.781C133.793 118.821 133.772 118.857 133.742 118.887L122.155 130.872C122.102 130.919 122.034 130.947 121.963 130.95ZM118.313 115.158L122.12 130.104L133.097 118.748L119.441 110.838L118.313 115.158Z" fill="#263238"/>
<path d="M133.528 118.687L142.35 129.787L146.563 114.529L145.116 110.994L133.528 118.687Z" fill="white"/>
<path d="M142.349 130.065C142.305 130.065 142.261 130.055 142.221 130.037C142.181 130.019 142.145 129.992 142.117 129.96L133.295 118.826C133.271 118.797 133.254 118.763 133.244 118.726C133.235 118.69 133.235 118.652 133.243 118.615C133.249 118.578 133.263 118.542 133.284 118.511C133.305 118.479 133.332 118.452 133.365 118.431L144.947 110.738C144.984 110.714 145.026 110.698 145.07 110.692C145.114 110.685 145.16 110.687 145.203 110.699C145.244 110.714 145.281 110.736 145.313 110.764C145.345 110.793 145.371 110.828 145.389 110.866L146.836 114.395C146.853 114.452 146.853 114.512 146.836 114.568L142.622 129.832C142.609 129.883 142.581 129.929 142.541 129.964C142.5 130 142.45 130.024 142.396 130.032L142.349 130.065ZM133.946 118.754L142.221 129.169L146.26 114.562L144.982 111.445L133.946 118.754Z" fill="#263238"/>
<path d="M50.8335 110.259C50.8335 110.259 46.8818 102.555 44.906 100.034C42.9301 97.512 40.9485 95.9923 38.7111 95.6137C36.4738 95.2352 34.8873 95.3632 33.173 94.7287C31.4587 94.0941 28.03 93.2145 27.1118 92.079C26.1936 90.9434 24.4735 91.7004 25.2638 93.5931C26.0542 95.4857 28.8261 96.7493 28.8261 96.7493L31.0635 97.7569C31.0635 97.7569 23.8168 98.77 23.288 99.1485C22.7592 99.5271 16.4307 100.034 16.4307 100.034C16.4307 100.034 19.2026 104.704 23.1543 106.853C27.106 109.001 39.5015 107.231 39.5015 107.231L43.1916 114.679L50.8335 110.259Z" fill="white"/>
<path d="M43.1914 114.958H43.1042C43.0659 114.946 43.0305 114.926 43.0005 114.9C42.9705 114.874 42.9464 114.843 42.9299 114.808L39.3269 107.571C37.5835 107.805 26.7687 109.169 23.0146 107.131C19.0339 104.932 16.2967 100.362 16.198 100.167C16.1751 100.126 16.1631 100.08 16.1631 100.034C16.1631 99.9872 16.1751 99.9413 16.198 99.9002C16.2206 99.8591 16.2539 99.8242 16.2946 99.7989C16.3352 99.7735 16.382 99.7586 16.4304 99.7554C19.4465 99.5161 22.7821 99.1376 23.1424 98.926C23.6015 98.592 27.7915 97.9463 30.116 97.6179L28.7445 97C28.6283 96.9499 25.8389 95.6696 25.0427 93.699C24.5372 92.4855 24.973 91.7173 25.5018 91.4278C25.8223 91.2726 26.1913 91.2355 26.5384 91.3238C26.8856 91.4121 27.1867 91.6195 27.3847 91.9066C28.0472 92.7248 30.2903 93.4652 31.9524 94.0052C32.4637 94.1722 32.9403 94.328 33.3238 94.4672C34.3375 94.8083 35.3954 95.0144 36.4677 95.0795C37.1767 95.1463 37.9147 95.2187 38.7574 95.3634C40.9889 95.7364 43.0112 97.1781 45.1498 99.889C47.1198 102.405 50.9611 109.842 51.1064 110.159C51.1387 110.222 51.1453 110.294 51.1248 110.361C51.1044 110.428 51.0584 110.485 50.9959 110.521L43.3541 114.941C43.3021 114.959 43.2462 114.965 43.1914 114.958ZM39.5012 106.953C39.5558 106.952 39.6095 106.967 39.6559 106.994C39.7022 107.022 39.7393 107.062 39.7627 107.109L43.3134 114.279L50.4846 110.154C49.8104 108.857 46.4167 102.433 44.6733 100.201C42.6393 97.6067 40.7332 96.2374 38.6586 95.8867C37.8334 95.7475 37.107 95.6807 36.4096 95.6139C35.2653 95.5559 34.1348 95.3461 33.0507 94.9904C32.673 94.8513 32.2081 94.6954 31.7025 94.534C29.8893 93.9384 27.6346 93.198 26.8617 92.2517C26.7488 92.0721 26.5715 91.9381 26.363 91.8745C26.1544 91.811 25.9289 91.8224 25.7285 91.9066C25.3972 92.0902 25.1473 92.6079 25.5193 93.4875C26.2573 95.2632 28.9014 96.4879 28.9305 96.499L31.1678 97.5065C31.2245 97.5328 31.2712 97.5753 31.3014 97.6282C31.3316 97.6811 31.3438 97.7417 31.3364 97.8016C31.3259 97.8609 31.2961 97.9155 31.2512 97.9575C31.2063 97.9995 31.1486 98.0268 31.0865 98.0354C27.6636 98.5141 23.8224 99.1487 23.4388 99.3714C22.939 99.7332 18.7898 100.117 16.9069 100.273C17.6566 101.386 20.0915 104.877 23.2993 106.608C27.1232 108.684 39.3327 106.97 39.4547 106.953H39.5012Z" fill="#263238"/>
<path d="M13.9378 98.7864C13.9378 98.7864 11.9039 94.6393 12.0724 93.7431C12.241 92.8468 14.025 93.4202 14.6178 94.6393C15.2105 95.8584 17.2503 98.7864 17.2503 98.7864H13.9378Z" fill="white"/>
<path d="M17.2502 99.0652H13.9378C13.8828 99.0642 13.8293 99.0485 13.7831 99.02C13.7369 98.9915 13.7 98.9513 13.6763 98.9038C13.3276 98.1968 11.6074 94.6287 11.7876 93.6935C11.8147 93.5201 11.9025 93.3607 12.0366 93.2413C12.1707 93.122 12.3431 93.0498 12.5256 93.0366C13.0253 93.0454 13.5122 93.1897 13.9298 93.4528C14.3474 93.7158 14.6786 94.0869 14.885 94.5229C15.4661 95.7142 17.471 98.6088 17.4943 98.6366C17.522 98.6791 17.5374 98.7278 17.5391 98.7779C17.5408 98.8279 17.5286 98.8775 17.5039 98.9216C17.4791 98.9657 17.4425 99.0027 17.398 99.0289C17.3535 99.0551 17.3025 99.0696 17.2502 99.0708V99.0652ZM14.1237 98.5086H16.7098C15.8595 97.2969 15.074 96.0446 14.3562 94.7567C14.2024 94.4296 13.9592 94.1483 13.6523 93.9425C13.3455 93.7368 12.9863 93.6142 12.6128 93.5877C12.4268 93.5877 12.3862 93.699 12.3687 93.7937C12.2525 94.3615 13.3566 96.9165 14.1237 98.5086Z" fill="#263238"/>
<path d="M10.3281 96.8105C10.3281 96.8105 13.4895 103.251 15.599 105.016C17.7085 106.78 21.9275 106.914 21.9275 106.914C21.9275 106.914 16.9181 101.859 15.8663 99.9667C14.8144 98.0741 10.9674 93.5262 10.3281 96.8105Z" fill="white"/>
<path d="M21.9276 107.192C21.7533 107.192 17.5808 107.042 15.419 105.227C13.2572 103.412 10.1888 97.1946 10.0784 96.9274C10.0585 96.8734 10.0585 96.8144 10.0784 96.7604C10.2411 95.931 10.6189 95.469 11.1942 95.3855C12.833 95.1461 15.3725 98.4304 16.157 99.8387C17.1798 101.676 22.1252 106.669 22.1717 106.719C22.2093 106.759 22.2341 106.809 22.2434 106.862C22.2526 106.915 22.2459 106.97 22.2239 107.019C22.202 107.069 22.1657 107.111 22.1195 107.142C22.0732 107.173 22.0187 107.19 21.9625 107.192H21.9276ZM10.6305 96.7771C11.0082 97.5342 13.879 103.207 15.7909 104.81C17.2786 106.057 19.9228 106.48 21.2012 106.58C19.8879 105.233 16.4767 101.659 15.605 100.1C14.7333 98.5417 12.4029 95.764 11.2465 95.9365C10.9676 95.9811 10.7525 96.2594 10.6305 96.7771Z" fill="#263238"/>
<path d="M12.874 97.3783C12.874 97.3783 16.0354 103.819 18.1449 105.589C20.2544 107.359 24.4734 107.482 24.4734 107.482C24.4734 107.482 19.464 102.433 18.4122 100.535C17.3603 98.6363 13.5307 94.0995 12.874 97.3783Z" fill="white"/>
<path d="M24.4735 107.76C24.2992 107.76 20.1325 107.61 17.9649 105.795C15.7973 103.98 12.7347 97.7624 12.6243 97.5007C12.6044 97.4448 12.6044 97.3841 12.6243 97.3282C12.7909 96.5006 13.1628 96.0441 13.7401 95.9588C15.3847 95.7139 17.9184 98.9981 18.7029 100.412C19.7257 102.249 24.6711 107.242 24.7176 107.298C24.7575 107.337 24.7844 107.386 24.7948 107.44C24.8051 107.493 24.7985 107.549 24.7757 107.599C24.7493 107.652 24.706 107.697 24.6518 107.726C24.5976 107.755 24.5352 107.767 24.4735 107.76ZM13.1764 97.3449C13.5541 98.1019 16.4249 103.774 18.3368 105.377C19.8303 106.624 22.4686 107.047 23.7529 107.148C22.4338 105.801 19.0225 102.232 18.1567 100.668C17.2908 99.1039 14.9488 96.3429 13.7924 96.5099C13.5018 96.5488 13.2926 96.8327 13.1764 97.3449Z" fill="#263238"/>
<path d="M41.4777 103.947C41.4777 103.947 40.8152 102.934 38.5721 101.548C36.3289 100.161 24.4681 103.691 24.4681 103.691C24.4681 103.691 19.0636 97.2557 18.2733 96.6211C17.4829 95.9865 16.0301 95.6135 15.7686 96.8771C15.5071 98.1408 19.0636 103.557 19.9876 104.453C20.9116 105.35 24.4681 107.482 24.4681 107.482C26.63 108.194 28.9061 108.535 31.1917 108.489C33.9921 108.296 36.7702 107.875 39.4961 107.231" fill="white"/>
<path d="M30.6328 108.779C28.5001 108.759 26.3847 108.409 24.3683 107.743L24.3334 107.716C24.1881 107.627 20.7362 105.545 19.8064 104.648C18.987 103.863 15.198 98.2858 15.506 96.8218C15.5343 96.6018 15.6251 96.3936 15.7686 96.2198C15.9121 96.0461 16.1027 95.9134 16.3196 95.8365C16.7002 95.7587 17.0947 95.7686 17.4705 95.8654C17.8463 95.9622 18.1928 96.143 18.4814 96.3931C19.2253 96.9887 23.7639 102.366 24.5949 103.357C26.4719 102.8 36.5545 99.9335 38.7512 101.297C40.9479 102.661 41.7091 103.741 41.7382 103.78C41.7593 103.811 41.7736 103.845 41.7804 103.882C41.7871 103.918 41.7861 103.955 41.7774 103.991C41.7687 104.027 41.7525 104.061 41.7298 104.091C41.7071 104.12 41.6783 104.145 41.6452 104.164C41.6135 104.184 41.5778 104.198 41.5404 104.204C41.503 104.211 41.4646 104.21 41.4276 104.201C41.3906 104.193 41.3557 104.177 41.3252 104.156C41.2947 104.134 41.2691 104.107 41.25 104.075C40.4643 103.142 39.5047 102.357 38.4199 101.759C36.6766 100.674 27.8202 102.962 24.56 103.936C24.5044 103.953 24.4448 103.954 24.3888 103.938C24.3328 103.922 24.2831 103.89 24.2462 103.847C22.3866 101.62 18.7022 97.3005 18.0921 96.8162C17.8808 96.6258 17.6272 96.4838 17.3504 96.4009C17.0736 96.318 16.7808 96.2963 16.494 96.3375C16.3757 96.384 16.2727 96.4603 16.196 96.5583C16.1192 96.6562 16.0716 96.7723 16.0581 96.8941C15.8373 97.9406 19.1904 103.251 20.1958 104.214C21.0442 105.027 24.2637 106.997 24.6007 107.192C26.721 107.876 28.9479 108.208 31.1849 108.172C33.9681 107.989 36.7304 107.584 39.4427 106.959C39.5198 106.941 39.6011 106.953 39.6686 106.993C39.7362 107.032 39.7845 107.096 39.803 107.17C39.8215 107.244 39.8087 107.322 39.7672 107.386C39.7258 107.451 39.6593 107.497 39.5822 107.515C36.8371 108.164 34.0396 108.588 31.2198 108.784C31.0106 108.779 30.8188 108.779 30.6328 108.779Z" fill="#263238"/>
<path d="M55.4359 116.867L50.688 108.823L39.1875 115.47L42.1048 122.294L55.4359 116.867Z" fill="white"/>
<path d="M42.1042 122.573C42.0676 122.578 42.0304 122.578 41.9938 122.573C41.9231 122.544 41.8669 122.49 41.8369 122.422L38.9312 115.598C38.9061 115.536 38.9045 115.467 38.9268 115.404C38.9491 115.341 38.9939 115.287 39.0532 115.253L50.5538 108.606C50.5896 108.591 50.6281 108.583 50.6671 108.583C50.7061 108.583 50.7447 108.591 50.7804 108.606C50.8554 108.625 50.9199 108.671 50.9606 108.734L55.7142 116.733C55.7299 116.768 55.738 116.806 55.738 116.845C55.738 116.883 55.7299 116.921 55.7142 116.956C55.7013 116.993 55.6801 117.028 55.652 117.057C55.6239 117.085 55.5896 117.108 55.5515 117.123L42.2204 122.55C42.1831 122.564 42.1439 122.571 42.1042 122.573ZM39.5472 115.587L42.2611 121.927L55.0459 116.733L50.6061 109.207L39.5472 115.587Z" fill="#263238"/>
<path d="M117.988 115.158L113.508 233.726H81.0051L87.5776 149.236C87.5776 149.236 69.8648 167.779 67.8541 168.825C65.8434 169.872 63.2923 166.554 63.2923 166.554L39.3672 121.593L53.6107 114.072L69.3011 138.565L71.6721 136.99L73.4969 137.864C73.4969 137.864 89.7685 110.404 91.0295 109.703C92.2906 109.001 98.3343 109.352 98.3343 109.352L114.025 110.576L119.342 109.463L117.988 115.158Z" fill="#850000"/>
<path d="M113.508 233.999H81.0058C80.9655 233.999 80.9257 233.991 80.8887 233.976C80.8517 233.96 80.8184 233.938 80.7908 233.91C80.7609 233.881 80.7377 233.846 80.7227 233.807C80.7077 233.769 80.7012 233.728 80.7036 233.687L87.2122 149.999C84.1206 153.228 69.8307 168.091 67.9827 169.054C65.7802 170.206 63.1535 166.827 63.0431 166.699L39.1064 121.721C39.073 121.656 39.067 121.58 39.0897 121.511C39.1124 121.442 39.1621 121.383 39.2284 121.348L53.4719 113.827C53.5373 113.793 53.6137 113.784 53.6859 113.802C53.758 113.819 53.8206 113.862 53.8613 113.922L69.4006 138.165L71.5276 136.756C71.5717 136.732 71.6218 136.719 71.6729 136.719C71.7239 136.719 71.774 136.732 71.8181 136.756L73.3988 137.513C75.6013 133.795 89.6239 110.176 90.9024 109.48C92.1809 108.784 97.7423 109.057 98.3699 109.09L114.06 110.315L119.331 109.202C119.379 109.191 119.428 109.192 119.475 109.204C119.522 109.217 119.564 109.241 119.599 109.274C119.633 109.308 119.658 109.35 119.671 109.396C119.684 109.441 119.685 109.489 119.674 109.536L118.303 115.197L113.828 233.726C113.826 233.765 113.817 233.802 113.8 233.837C113.783 233.871 113.759 233.902 113.729 233.928C113.699 233.953 113.664 233.973 113.626 233.985C113.588 233.997 113.548 234.002 113.508 233.999ZM81.3196 233.442H113.247L117.716 115.147C117.713 115.128 117.713 115.11 117.716 115.091L118.988 109.831L114.124 110.844H114.037L98.3467 109.619C96.7021 109.524 92.1983 109.391 91.2104 109.931C90.2341 110.565 80.2561 127.059 73.7765 137.992C73.7398 138.054 73.6794 138.1 73.608 138.121C73.5366 138.142 73.4596 138.135 73.393 138.103L71.7193 137.302L69.4878 138.782C69.4554 138.805 69.4185 138.82 69.3794 138.828C69.3404 138.835 69.3001 138.835 69.2612 138.827C69.2227 138.819 69.1864 138.803 69.1545 138.781C69.1225 138.759 69.0955 138.731 69.0752 138.699L53.5068 114.44L39.7573 121.704L63.5487 166.421C63.5487 166.421 65.9545 169.499 67.7154 168.575C69.2728 167.762 81.2499 155.443 87.3633 149.042C87.4043 148.999 87.4583 148.969 87.5177 148.957C87.5772 148.945 87.639 148.951 87.6946 148.975C87.7498 148.999 87.7962 149.038 87.8274 149.088C87.8585 149.138 87.873 149.195 87.8689 149.253L81.3196 233.442Z" fill="#263238"/>
<path d="M87.7587 146.604L88.8919 135.805L80.4365 156.401L87.5786 149.231L87.7587 146.604Z" fill="#263238"/>
<path d="M80.4366 156.679C80.3809 156.679 80.3265 156.663 80.2797 156.635C80.2231 156.6 80.1806 156.548 80.1594 156.487C80.1383 156.427 80.1397 156.361 80.1635 156.301L88.6247 135.704C88.6506 135.642 88.6986 135.59 88.7603 135.559C88.822 135.527 88.8933 135.518 88.9618 135.532C89.0304 135.547 89.0907 135.587 89.1313 135.642C89.172 135.697 89.1902 135.765 89.1826 135.832L88.0203 146.631L87.8402 149.248C87.8349 149.313 87.8062 149.374 87.7588 149.42L80.6458 156.59C80.6195 156.618 80.5872 156.641 80.5512 156.656C80.5151 156.671 80.4761 156.679 80.4366 156.679ZM88.3922 137.753L81.2502 155.198L87.2939 149.125L87.4682 146.604L88.3922 137.753Z" fill="#263238"/>
<path d="M86.8456 139.189C86.7761 139.189 86.7092 139.164 86.6569 139.12C86.6047 139.076 86.5706 139.016 86.5609 138.95C86.3749 137.731 85.1487 121.265 85.0964 120.58C85.0937 120.544 85.0986 120.507 85.1108 120.472C85.1229 120.437 85.142 120.405 85.1671 120.378C85.2178 120.322 85.2896 120.288 85.3666 120.282C85.4437 120.277 85.5198 120.302 85.5781 120.35C85.6364 120.399 85.6721 120.467 85.6775 120.541C85.6775 120.714 86.956 137.686 87.1362 138.911C87.1461 138.984 87.1253 139.058 87.0785 139.116C87.0316 139.175 86.9625 139.213 86.8863 139.223L86.8456 139.189Z" fill="#263238"/>
<path d="M85.3877 145.485C85.3181 145.486 85.2504 145.463 85.1971 145.42C85.1437 145.377 85.1083 145.317 85.0971 145.251L83.0922 133.005C83.0856 132.969 83.0866 132.932 83.095 132.896C83.1035 132.861 83.1193 132.827 83.1415 132.798C83.1637 132.768 83.1919 132.743 83.2243 132.724C83.2568 132.705 83.2929 132.693 83.3305 132.687C83.4075 132.676 83.486 132.694 83.5491 132.738C83.6122 132.782 83.6547 132.848 83.6676 132.921L85.6725 145.168C85.6791 145.204 85.6782 145.24 85.6697 145.276C85.6612 145.311 85.6454 145.345 85.6232 145.374C85.601 145.404 85.5728 145.429 85.5404 145.448C85.5079 145.467 85.4718 145.48 85.4342 145.485H85.3877Z" fill="#263238"/>
<path d="M64.3857 149.682C64.3438 149.692 64.2998 149.692 64.2578 149.682C64.1899 149.65 64.1378 149.593 64.1129 149.524C64.0879 149.456 64.0919 149.38 64.1242 149.315L68.872 139.851C68.8866 139.816 68.9087 139.783 68.9369 139.756C68.9651 139.729 68.9988 139.708 69.0359 139.694C69.073 139.68 69.1128 139.674 69.1527 139.675C69.1925 139.676 69.2317 139.686 69.2677 139.702C69.3037 139.718 69.3358 139.742 69.3619 139.771C69.3881 139.8 69.4078 139.833 69.4197 139.87C69.4316 139.906 69.4356 139.945 69.4314 139.983C69.4271 140.021 69.4147 140.058 69.395 140.091L64.6472 149.554C64.6203 149.596 64.5816 149.631 64.5355 149.654C64.4893 149.676 64.4374 149.686 64.3857 149.682Z" fill="#263238"/>
<path d="M69.4993 146.709C69.4551 146.709 69.4116 146.699 69.3715 146.682C69.3031 146.648 69.2509 146.59 69.226 146.521C69.2011 146.451 69.2053 146.375 69.2378 146.309L73.0733 138.961C73.0899 138.928 73.1133 138.898 73.1421 138.874C73.1709 138.85 73.2045 138.832 73.2408 138.82C73.2771 138.809 73.3155 138.805 73.3536 138.808C73.3917 138.811 73.4288 138.821 73.4626 138.838C73.497 138.854 73.5278 138.877 73.5531 138.904C73.5784 138.932 73.5979 138.963 73.6103 138.998C73.6227 139.033 73.6279 139.069 73.6255 139.106C73.6231 139.143 73.6131 139.178 73.5963 139.211L69.7608 146.554C69.7369 146.6 69.6997 146.64 69.6534 146.667C69.6072 146.695 69.5538 146.709 69.4993 146.709Z" fill="#263238"/>
<path d="M112.049 169.972C111.989 169.974 111.93 169.957 111.881 169.924C111.832 169.891 111.795 169.843 111.776 169.788C108.97 162.268 106.854 150.617 105.57 142.161C105.56 142.089 105.58 142.016 105.625 141.958C105.671 141.899 105.739 141.861 105.814 141.85C105.89 141.84 105.967 141.859 106.029 141.903C106.091 141.946 106.132 142.011 106.145 142.083C107.424 150.511 109.533 162.123 112.323 169.605C112.335 169.639 112.341 169.675 112.339 169.712C112.336 169.748 112.327 169.784 112.31 169.816C112.293 169.849 112.27 169.878 112.241 169.902C112.212 169.926 112.179 169.944 112.142 169.955C112.113 169.966 112.081 169.972 112.049 169.972Z" fill="#263238"/>
<path d="M105.285 138.443C105.215 138.442 105.147 138.418 105.094 138.374C105.041 138.33 105.005 138.27 104.994 138.204C104.646 135.665 104.454 134.056 104.454 134.045C104.448 133.993 104.458 133.941 104.482 133.894C104.505 133.847 104.542 133.807 104.588 133.778L111.259 129.62L103.054 128.34C103.002 128.332 102.954 128.312 102.914 128.281C102.874 128.249 102.844 128.208 102.827 128.161C102.809 128.115 102.805 128.064 102.814 128.016C102.823 127.967 102.846 127.921 102.879 127.883C102.879 127.883 104.716 125.768 106.511 123.185C108.307 120.602 114.118 112.052 114.176 111.996C114.219 111.934 114.286 111.89 114.362 111.874C114.438 111.859 114.517 111.873 114.583 111.913C114.647 111.953 114.691 112.017 114.706 112.089C114.722 112.161 114.707 112.235 114.664 112.297C114.606 112.386 108.801 120.903 106.994 123.497C105.628 125.456 104.251 127.143 103.64 127.866L112.084 129.191C112.142 129.2 112.196 129.226 112.239 129.264C112.281 129.303 112.31 129.353 112.323 129.408C112.333 129.463 112.327 129.52 112.304 129.572C112.281 129.623 112.243 129.667 112.195 129.698L105.041 134.151C105.099 134.624 105.273 136.072 105.558 138.131C105.568 138.204 105.547 138.278 105.5 138.337C105.454 138.395 105.385 138.433 105.308 138.443H105.285Z" fill="#263238"/>
<path d="M213.625 110.259C213.625 110.259 217.577 102.555 219.558 100.034C221.54 97.512 223.51 95.9923 225.753 95.6137C227.996 95.2352 229.571 95.3632 231.285 94.7287C233 94.0941 236.428 93.2145 237.352 92.079C238.276 90.9434 239.985 91.7004 239.195 93.5931C238.404 95.4857 235.638 96.7493 235.638 96.7493L233.395 97.7569C233.395 97.7569 240.647 98.77 241.17 99.1485C241.694 99.5271 248.028 100.034 248.028 100.034C248.028 100.034 245.256 104.704 241.304 106.853C237.352 109.001 224.963 107.231 224.963 107.231L221.273 114.679L213.625 110.259Z" fill="white"/>
<path d="M221.267 114.958C221.216 114.956 221.166 114.942 221.121 114.919L213.474 110.499C213.412 110.462 213.367 110.405 213.347 110.338C213.327 110.271 213.332 110.2 213.363 110.137C213.526 109.82 217.356 102.383 219.326 99.8665C221.447 97.1555 223.475 95.7138 225.718 95.3408C226.561 95.1961 227.299 95.1237 228.008 95.0569C229.095 95.0036 230.169 94.805 231.198 94.4669C231.588 94.3277 232.058 94.1719 232.57 94.0049C234.22 93.4482 236.475 92.7245 237.137 91.9062C237.334 91.6182 237.636 91.41 237.983 91.3217C238.331 91.2333 238.7 91.271 239.02 91.4275C239.549 91.717 239.991 92.4852 239.485 93.6987C238.66 95.6693 235.894 96.9496 235.778 96.9997L234.406 97.6176C236.684 97.946 240.897 98.5917 241.38 98.9257C241.734 99.1372 245.07 99.5158 248.086 99.7551C248.135 99.7581 248.182 99.773 248.223 99.7984C248.264 99.8238 248.297 99.8588 248.32 99.9002C248.343 99.9415 248.354 99.9878 248.353 100.035C248.351 100.081 248.337 100.127 248.312 100.167C248.202 100.362 245.459 104.932 241.484 107.092C237.73 109.129 226.886 107.765 225.166 107.532L221.569 114.768C221.551 114.804 221.526 114.835 221.495 114.861C221.464 114.887 221.428 114.907 221.389 114.919L221.267 114.958ZM214.003 110.154L221.145 114.278L224.695 107.109C224.723 107.055 224.768 107.011 224.823 106.983C224.878 106.955 224.941 106.944 225.003 106.953C225.125 106.953 237.341 108.684 241.159 106.608C244.349 104.876 246.79 101.414 247.551 100.273C245.686 100.117 241.519 99.7162 241.013 99.371C240.642 99.1428 236.795 98.5138 233.372 98.0351C233.31 98.0271 233.253 97.9999 233.208 97.9576C233.164 97.9154 233.136 97.8605 233.128 97.8013C233.118 97.7418 233.128 97.681 233.158 97.6278C233.187 97.5746 233.234 97.532 233.29 97.5062L235.528 96.4987C235.557 96.4987 238.207 95.2573 238.945 93.4872C239.311 92.6076 239.061 92.0899 238.735 91.9062C238.532 91.8155 238.3 91.8005 238.085 91.8643C237.87 91.928 237.688 92.066 237.573 92.2514C236.806 93.1977 234.546 93.9214 232.732 94.5337C232.233 94.6951 231.768 94.851 231.384 94.9901C230.306 95.3442 229.181 95.554 228.043 95.6136C227.345 95.6804 226.619 95.7472 225.794 95.8864C223.725 96.2371 221.813 97.6064 219.785 100.2C218.041 102.433 214.677 108.857 214.003 110.154Z" fill="#263238"/>
<path d="M250.521 98.7864C250.521 98.7864 252.555 94.6393 252.387 93.7431C252.218 92.8468 250.434 93.4202 249.841 94.6393C249.249 95.8584 247.209 98.7864 247.209 98.7864H250.521Z" fill="white"/>
<path d="M250.521 99.0652H247.209C247.156 99.0637 247.105 99.049 247.06 99.0226C247.015 98.9963 246.978 98.9591 246.953 98.9149C246.924 98.8726 246.909 98.8233 246.909 98.773C246.909 98.7226 246.924 98.6733 246.953 98.631C246.953 98.631 248.981 95.7086 249.562 94.5173C249.765 94.0862 250.091 93.7186 250.502 93.4567C250.913 93.1948 251.393 93.0492 251.887 93.0366C252.069 93.0498 252.242 93.122 252.376 93.2413C252.51 93.3607 252.598 93.5201 252.625 93.6935C252.805 94.6287 251.085 98.1968 250.736 98.9038C250.716 98.9453 250.687 98.9816 250.649 99.0097C250.612 99.0378 250.568 99.0568 250.521 99.0652ZM247.749 98.5086H250.335C251.108 96.9165 252.206 94.3615 252.078 93.7937C252.078 93.699 252.02 93.61 251.834 93.5877C251.461 93.6148 251.102 93.7376 250.795 93.9433C250.489 94.1489 250.245 94.4299 250.091 94.7567C249.377 96.0444 248.595 97.2966 247.749 98.5086Z" fill="#263238"/>
<path d="M254.13 96.8105C254.13 96.8105 250.968 103.251 248.859 105.016C246.749 106.78 242.53 106.914 242.53 106.914C242.53 106.914 247.54 101.859 248.597 99.9667C249.655 98.0741 253.473 93.5262 254.13 96.8105Z" fill="white"/>
<path d="M242.53 107.192C242.474 107.191 242.42 107.175 242.374 107.146C242.327 107.116 242.291 107.074 242.268 107.025C242.245 106.975 242.238 106.919 242.247 106.865C242.256 106.81 242.282 106.76 242.321 106.719C242.373 106.669 247.318 101.676 248.341 99.8388C249.126 98.4304 251.665 95.1406 253.304 95.3855C253.885 95.469 254.251 95.9422 254.414 96.7605C254.432 96.8149 254.432 96.8731 254.414 96.9275C254.28 97.1947 251.2 103.44 249.068 105.227C246.935 107.014 242.733 107.187 242.559 107.192H242.53ZM253.112 95.931C251.95 95.931 249.678 98.6197 248.853 100.1C248.027 101.581 244.57 105.233 243.256 106.58C244.535 106.457 247.179 106.057 248.667 104.81C250.579 103.207 253.449 97.5342 253.827 96.7772C253.711 96.2595 253.502 95.9811 253.217 95.9366L253.112 95.931Z" fill="#263238"/>
<path d="M251.585 97.3783C251.585 97.3783 248.423 103.819 246.314 105.589C244.204 107.359 239.985 107.482 239.985 107.482C239.985 107.482 244.995 102.433 246.052 100.535C247.11 98.6363 250.928 94.0995 251.585 97.3783Z" fill="white"/>
<path d="M239.985 107.76C239.929 107.759 239.875 107.743 239.828 107.713C239.782 107.684 239.746 107.642 239.723 107.593C239.698 107.544 239.69 107.489 239.699 107.435C239.708 107.381 239.735 107.331 239.776 107.292C239.828 107.237 244.767 102.244 245.79 100.407C246.575 98.9983 249.103 95.714 250.753 95.9533C251.334 96.0368 251.706 96.51 251.869 97.3227C251.889 97.3786 251.889 97.4393 251.869 97.4953C251.741 97.7569 248.655 104.008 246.528 105.789C244.401 107.571 240.194 107.749 240.02 107.755L239.985 107.76ZM250.567 96.4989C249.376 96.4989 247.127 99.1875 246.307 100.668C245.436 102.232 242.025 105.801 240.711 107.148C241.99 107.025 244.634 106.624 246.122 105.378C248.033 103.774 250.904 98.102 251.282 97.345C251.166 96.8329 250.956 96.549 250.666 96.51L250.567 96.4989Z" fill="#263238"/>
<path d="M222.981 103.947C222.981 103.947 223.644 102.934 225.887 101.548C228.13 100.161 239.991 103.691 239.991 103.691C239.991 103.691 245.396 97.2557 246.186 96.6211C246.976 95.9865 248.429 95.6135 248.691 96.8771C248.952 98.1408 245.396 103.557 244.472 104.453C243.548 105.35 239.991 107.482 239.991 107.482C237.829 108.194 235.553 108.535 233.267 108.489C230.469 108.296 227.693 107.875 224.969 107.231" fill="white"/>
<path d="M233.831 108.778C233.639 108.778 233.448 108.778 233.25 108.778C230.43 108.583 227.633 108.158 224.888 107.509C224.81 107.491 224.744 107.445 224.703 107.38C224.661 107.316 224.648 107.238 224.667 107.164C224.685 107.09 224.734 107.027 224.801 106.987C224.869 106.947 224.95 106.935 225.027 106.953C227.732 107.591 230.489 108.01 233.267 108.205C235.505 108.244 237.732 107.913 239.852 107.225C240.177 107.025 243.408 105.06 244.257 104.247C245.262 103.284 248.615 97.9736 248.394 96.9271C248.382 96.8049 248.335 96.6883 248.258 96.5901C248.181 96.4919 248.077 96.4159 247.958 96.3705C247.672 96.3297 247.379 96.3516 247.102 96.4345C246.825 96.5174 246.572 96.6592 246.36 96.8492C245.779 97.3335 242.072 101.659 240.206 103.88C240.169 103.923 240.12 103.955 240.064 103.971C240.008 103.987 239.948 103.986 239.892 103.969C236.632 103 227.782 100.712 226.032 101.792C223.894 103.117 223.231 104.097 223.226 104.102C223.185 104.165 223.12 104.21 223.044 104.227C222.969 104.243 222.89 104.231 222.825 104.192C222.759 104.152 222.712 104.09 222.695 104.018C222.678 103.946 222.691 103.87 222.732 103.807C222.732 103.768 223.452 102.733 225.719 101.325C227.985 99.9164 237.998 102.828 239.881 103.384C240.712 102.394 245.245 97.0162 245.988 96.4206C246.278 96.172 246.624 95.9921 247 95.8955C247.376 95.7988 247.769 95.788 248.15 95.8639C248.368 95.9398 248.559 96.0721 248.703 96.2461C248.846 96.4201 248.937 96.6289 248.964 96.8492C249.272 98.3132 245.477 103.891 244.669 104.676C243.734 105.572 240.282 107.654 240.136 107.743L240.084 107.771C238.07 108.427 235.958 108.767 233.831 108.778Z" fill="#263238"/>
<path d="M209.022 116.867L213.77 108.823L225.277 115.47L222.354 122.294L209.022 116.867Z" fill="white"/>
<path d="M222.354 122.573C222.315 122.578 222.276 122.578 222.238 122.573L208.906 117.145C208.869 117.131 208.835 117.108 208.807 117.079C208.78 117.05 208.76 117.016 208.75 116.978C208.732 116.943 208.724 116.905 208.724 116.867C208.724 116.828 208.732 116.79 208.75 116.756L213.497 108.706C213.538 108.643 213.603 108.597 213.678 108.578C213.713 108.563 213.752 108.556 213.791 108.556C213.83 108.556 213.868 108.563 213.904 108.578L225.405 115.23C225.463 115.266 225.507 115.32 225.528 115.383C225.549 115.446 225.547 115.514 225.521 115.575L222.615 122.4C222.585 122.468 222.529 122.522 222.458 122.55C222.425 122.562 222.39 122.57 222.354 122.573ZM209.435 116.733L222.22 121.927L224.934 115.587L213.893 109.207L209.435 116.733Z" fill="#263238"/>
<path d="M146.469 115.158L150.95 233.726H183.458L176.88 149.231C176.88 149.231 194.593 167.773 196.603 168.82C198.614 169.866 201.171 166.549 201.171 166.549L225.09 121.593L210.876 114.072L195.185 138.565L192.808 136.99L190.984 137.864C190.984 137.864 174.712 110.404 173.451 109.703C172.19 109.001 166.146 109.352 166.146 109.352L150.456 110.576L144.645 109.463L146.469 115.158Z" fill="#850000"/>
<path d="M183.458 233.999H150.95C150.874 233.998 150.802 233.969 150.748 233.918C150.694 233.867 150.662 233.799 150.659 233.726L146.179 115.203L144.296 109.553C144.281 109.506 144.279 109.456 144.29 109.408C144.302 109.36 144.326 109.316 144.36 109.28C144.393 109.243 144.436 109.216 144.484 109.2C144.532 109.185 144.583 109.181 144.633 109.191L150.444 110.304L166.106 109.079C166.739 109.046 172.266 108.745 173.579 109.469C174.892 110.193 188.88 133.784 191.083 137.502L192.663 136.745C192.709 136.721 192.76 136.708 192.811 136.708C192.863 136.708 192.914 136.721 192.96 136.745L195.081 138.154L210.626 113.911C210.666 113.852 210.727 113.809 210.798 113.792C210.869 113.774 210.945 113.783 211.01 113.817L225.253 121.337C225.319 121.372 225.369 121.431 225.392 121.5C225.414 121.57 225.408 121.645 225.375 121.71L201.45 166.666C201.316 166.844 198.695 170.212 196.487 169.054C194.645 168.091 180.355 153.228 177.258 149.999L183.749 233.687C183.751 233.726 183.745 233.765 183.731 233.801C183.717 233.838 183.696 233.871 183.667 233.899C183.642 233.929 183.61 233.954 183.574 233.971C183.538 233.988 183.499 233.998 183.458 233.999ZM151.229 233.443H183.144L176.589 149.253C176.585 149.195 176.6 149.136 176.632 149.086C176.664 149.036 176.713 148.997 176.769 148.975C176.824 148.951 176.885 148.945 176.944 148.957C177.002 148.969 177.055 148.999 177.095 149.042C183.214 155.443 195.185 167.762 196.743 168.558C198.486 169.482 200.909 166.399 200.939 166.365L224.707 121.688L210.951 114.423L195.389 138.688C195.369 138.721 195.342 138.749 195.31 138.771C195.278 138.793 195.241 138.809 195.203 138.816C195.164 138.824 195.124 138.825 195.085 138.817C195.046 138.809 195.009 138.794 194.976 138.772L192.745 137.291L191.071 138.092C191.005 138.124 190.929 138.131 190.859 138.11C190.788 138.089 190.729 138.043 190.693 137.981C184.219 127.048 174.241 110.554 173.259 109.92C172.277 109.363 167.774 109.514 166.117 109.608L150.427 110.833H150.345L144.999 109.82L146.742 115.063C146.746 115.087 146.746 115.112 146.742 115.136L151.229 233.443Z" fill="#263238"/>
<path d="M176.88 149.231L176.659 140.697L183.708 155.894L176.88 149.231Z" fill="#263238"/>
<path d="M183.709 156.173C183.671 156.173 183.633 156.166 183.598 156.152C183.563 156.137 183.531 156.116 183.505 156.089L176.677 149.41C176.625 149.359 176.594 149.291 176.59 149.22L176.369 140.726C176.369 140.662 176.391 140.599 176.432 140.549C176.473 140.498 176.531 140.462 176.596 140.447C176.661 140.431 176.731 140.438 176.791 140.467C176.852 140.495 176.9 140.544 176.927 140.603L183.976 155.8C184.004 155.859 184.008 155.926 183.989 155.988C183.97 156.05 183.928 156.104 183.872 156.14C183.822 156.167 183.765 156.178 183.709 156.173ZM177.171 149.115L182.791 154.603L176.979 142.089L177.171 149.115Z" fill="#263238"/>
<path d="M176.7 146.882C176.626 146.882 176.556 146.856 176.502 146.808C176.448 146.761 176.415 146.695 176.409 146.626L174.764 123.535C174.762 123.499 174.767 123.462 174.779 123.427C174.791 123.393 174.81 123.36 174.835 123.333C174.86 123.305 174.891 123.282 174.925 123.266C174.959 123.25 174.996 123.24 175.035 123.237C175.073 123.235 175.111 123.24 175.147 123.251C175.184 123.263 175.217 123.281 175.246 123.305C175.275 123.329 175.299 123.359 175.316 123.391C175.333 123.424 175.343 123.46 175.346 123.496L176.99 146.587C176.992 146.623 176.987 146.66 176.975 146.694C176.962 146.729 176.943 146.761 176.917 146.788C176.892 146.816 176.861 146.838 176.827 146.854C176.793 146.87 176.755 146.879 176.717 146.882H176.7Z" fill="#263238"/>
<path d="M177.612 139.189H177.572C177.497 139.178 177.429 139.139 177.383 139.081C177.338 139.023 177.318 138.95 177.328 138.877C177.502 137.675 178.38 127.989 178.385 127.895C178.395 127.821 178.434 127.754 178.493 127.707C178.552 127.659 178.628 127.635 178.705 127.639C178.781 127.646 178.851 127.681 178.9 127.737C178.949 127.794 178.973 127.866 178.967 127.939C178.932 128.34 178.083 137.736 177.903 138.955C177.891 139.021 177.855 139.08 177.802 139.123C177.749 139.165 177.682 139.189 177.612 139.189Z" fill="#263238"/>
<path d="M179.077 145.485H179.031C178.992 145.48 178.956 145.468 178.923 145.449C178.889 145.431 178.861 145.406 178.838 145.376C178.815 145.346 178.799 145.313 178.79 145.277C178.781 145.241 178.78 145.204 178.786 145.167L180.797 132.921C180.803 132.884 180.816 132.849 180.836 132.818C180.856 132.786 180.882 132.758 180.913 132.736C180.944 132.714 180.979 132.698 181.017 132.689C181.054 132.681 181.093 132.679 181.131 132.684C181.169 132.69 181.206 132.702 181.239 132.721C181.272 132.74 181.301 132.766 181.324 132.795C181.347 132.825 181.364 132.859 181.373 132.895C181.382 132.931 181.384 132.968 181.378 133.004L179.368 145.251C179.358 145.317 179.322 145.378 179.269 145.421C179.215 145.464 179.147 145.487 179.077 145.485Z" fill="#263238"/>
<path d="M196.249 145.301C196.181 145.3 196.115 145.276 196.063 145.233C196.011 145.19 195.976 145.132 195.964 145.067L195.04 140.007C195.034 139.971 195.035 139.933 195.044 139.897C195.052 139.861 195.068 139.827 195.09 139.797C195.113 139.766 195.141 139.741 195.174 139.721C195.207 139.701 195.243 139.688 195.281 139.682C195.32 139.676 195.359 139.677 195.396 139.685C195.434 139.693 195.47 139.708 195.501 139.73C195.533 139.751 195.56 139.778 195.58 139.81C195.601 139.841 195.615 139.876 195.621 139.913L196.551 144.973C196.563 145.046 196.545 145.12 196.5 145.18C196.456 145.241 196.389 145.282 196.313 145.296L196.249 145.301Z" fill="#263238"/>
<path d="M191.066 142.818C190.99 142.814 190.918 142.782 190.865 142.73C190.813 142.677 190.783 142.607 190.781 142.534L190.839 139.077C190.847 139.006 190.881 138.939 190.936 138.889C190.99 138.84 191.061 138.81 191.136 138.805C191.174 138.805 191.212 138.813 191.247 138.828C191.281 138.843 191.313 138.864 191.34 138.89C191.366 138.917 191.387 138.948 191.401 138.982C191.414 139.016 191.421 139.052 191.42 139.089L191.362 142.54C191.362 142.577 191.355 142.614 191.34 142.648C191.325 142.682 191.303 142.713 191.275 142.739C191.248 142.765 191.215 142.785 191.179 142.799C191.143 142.812 191.105 142.819 191.066 142.818Z" fill="#263238"/>
<path d="M152.415 169.972C152.383 169.981 152.348 169.981 152.316 169.972C152.244 169.948 152.185 169.898 152.151 169.832C152.117 169.766 152.112 169.691 152.136 169.621C152.578 168.441 153.019 167.105 153.449 165.647C153.46 165.61 153.477 165.576 153.501 165.546C153.526 165.516 153.556 165.491 153.59 165.472C153.624 165.453 153.662 165.441 153.701 165.436C153.74 165.431 153.78 165.434 153.818 165.444C153.856 165.453 153.892 165.47 153.924 165.494C153.955 165.517 153.981 165.545 154.001 165.578C154.02 165.611 154.033 165.647 154.038 165.685C154.043 165.722 154.041 165.76 154.03 165.797C153.595 167.267 153.147 168.619 152.705 169.805C152.681 169.858 152.64 169.903 152.588 169.933C152.536 169.963 152.475 169.977 152.415 169.972Z" fill="#263238"/>
<path d="M154.506 163.32H154.431C154.357 163.302 154.294 163.256 154.255 163.194C154.216 163.132 154.204 163.057 154.222 162.986C157.313 151.296 159.219 135.949 159.452 134.162L152.298 129.709C152.249 129.679 152.211 129.634 152.19 129.583C152.168 129.531 152.163 129.474 152.176 129.42C152.186 129.365 152.214 129.314 152.256 129.275C152.298 129.236 152.351 129.211 152.409 129.202L160.864 127.878C160.283 127.154 158.876 125.467 157.511 123.508C155.704 120.914 149.898 112.375 149.84 112.308C149.803 112.246 149.792 112.173 149.81 112.104C149.828 112.034 149.873 111.974 149.935 111.936C149.998 111.897 150.073 111.883 150.147 111.896C150.22 111.91 150.285 111.949 150.328 112.007C150.386 112.091 156.192 120.608 157.993 123.196C159.795 125.785 161.614 127.878 161.631 127.894C161.662 127.933 161.683 127.979 161.691 128.028C161.699 128.076 161.695 128.126 161.678 128.173C161.66 128.219 161.63 128.26 161.59 128.292C161.55 128.323 161.502 128.344 161.451 128.351L153.245 129.631L159.923 133.789C159.968 133.818 160.004 133.858 160.026 133.905C160.049 133.953 160.057 134.005 160.05 134.057C160.05 134.218 158.086 150.701 154.82 163.12C154.801 163.183 154.759 163.239 154.702 163.275C154.644 163.312 154.575 163.328 154.506 163.32Z" fill="#263238"/>
<path d="M119.174 98.5085L119.226 110.404L133.528 118.687L145.115 110.994L144.046 97.501C144.046 97.501 135.091 103.068 133.905 103.301C132.72 103.535 119.174 98.5085 119.174 98.5085Z" fill="white"/>
<path d="M133.528 118.965C133.475 118.966 133.422 118.953 133.377 118.926L119.058 110.665C119.015 110.64 118.979 110.605 118.954 110.563C118.929 110.521 118.915 110.474 118.913 110.426L118.86 98.5302C118.861 98.4853 118.873 98.4413 118.896 98.4017C118.918 98.3622 118.95 98.3282 118.988 98.3027C119.027 98.2772 119.071 98.2608 119.118 98.2548C119.164 98.2489 119.211 98.2536 119.256 98.2686C124.486 100.206 133.005 103.212 133.836 103.05C134.667 102.889 140.298 99.5044 143.884 97.2889C143.927 97.2644 143.976 97.2515 144.026 97.2515C144.076 97.2515 144.125 97.2644 144.169 97.2889C144.214 97.3105 144.252 97.3428 144.281 97.3828C144.309 97.4227 144.327 97.469 144.331 97.5171L145.383 111.011C145.387 111.059 145.377 111.108 145.354 111.152C145.332 111.196 145.298 111.234 145.255 111.261L133.673 118.954C133.627 118.969 133.577 118.973 133.528 118.965ZM119.517 110.248L133.516 118.358L144.814 110.855L143.808 97.9847C141.902 99.1648 135.091 103.34 133.987 103.551C132.883 103.763 122.44 99.9943 119.459 98.8921L119.517 110.248Z" fill="#263238"/>
<path d="M119.372 108.127L132.953 104.904L119.227 99.5381L119.372 108.127Z" fill="#263238"/>
<path d="M119.371 108.4C119.307 108.402 119.243 108.382 119.191 108.345C119.157 108.319 119.129 108.286 119.11 108.249C119.09 108.211 119.081 108.17 119.081 108.128L118.936 99.5328C118.936 99.4869 118.947 99.4416 118.969 99.4008C118.992 99.3601 119.024 99.3252 119.063 99.299C119.105 99.2771 119.152 99.2656 119.2 99.2656C119.248 99.2656 119.295 99.2771 119.337 99.299L133.063 104.665C133.12 104.687 133.168 104.726 133.2 104.776C133.232 104.826 133.247 104.885 133.243 104.944C133.237 105.002 133.213 105.057 133.173 105.102C133.134 105.146 133.081 105.179 133.022 105.194L119.441 108.412L119.371 108.4ZM119.528 99.9559L119.656 107.749L132.017 104.816L119.528 99.9559Z" fill="#263238"/>
<path d="M144.046 83.6236C144.046 83.6236 143.913 78.2017 145.493 75.1735C146 74.193 146.263 73.1138 146.263 72.02C146.263 70.9261 146 69.847 145.493 68.8665L146.952 68.36C146.158 67.7229 145.323 67.1336 144.453 66.5954C144.058 66.4673 144.715 63.0661 143.529 61.296C142.344 59.5258 141.158 59.1528 141.158 59.1528L140.501 61.424C140.501 61.424 136.945 57.3882 134.969 56.6311C132.993 55.8741 127.339 52.2168 127.194 54.1095C127.048 56.0021 127.856 56.7592 127.856 56.7592C127.856 56.7592 123.904 54.6105 120.883 55.3675C117.861 56.1246 114.955 57.8948 115.612 58.5238C116.268 59.1528 119.168 61.8025 119.168 61.8025C119.168 61.8025 112.456 62.053 111.666 62.8101C111.135 63.3985 110.739 64.0868 110.504 64.8307L114.322 66.7234C114.322 66.7234 110.899 66.4673 109.58 68.488C108.26 70.5087 107.999 71.2713 108.923 71.6387C109.836 72.0844 110.716 72.5903 111.555 73.1528C111.555 73.1528 110.631 74.6669 111.689 77.1886C112.747 79.7102 115.24 85.2657 115.24 85.2657C115.24 85.2657 116.164 76.181 116.82 74.4164C117.477 72.6518 125.648 68.488 126.828 68.1095C128.007 67.7309 136.312 69.8741 136.84 69.8741C137.369 69.8741 140.786 82.616 141.577 83.117C142.367 83.618 144.046 83.6236 144.046 83.6236Z" fill="#263238"/>
<path d="M115.222 85.5436C115.166 85.5422 115.111 85.5252 115.065 85.4946C115.018 85.4639 114.982 85.421 114.961 85.371C114.961 85.3154 112.445 79.8044 111.399 77.2939C110.533 75.2231 110.945 73.7925 111.172 73.2526C110.412 72.7464 109.616 72.2925 108.789 71.8943C108.634 71.844 108.493 71.7608 108.376 71.6509C108.26 71.541 108.17 71.4073 108.115 71.2597C107.918 70.653 108.365 69.8013 109.318 68.3373C110.213 66.9623 111.974 66.5671 113.154 66.4669L110.341 65.0752C110.28 65.0474 110.232 64.9993 110.205 64.9399C110.178 64.8806 110.175 64.8139 110.196 64.7524C110.45 63.9621 110.878 63.2332 111.451 62.6148C112.172 61.9246 116.565 61.6462 118.471 61.5516C117.617 60.7667 115.891 59.1858 115.403 58.7182C115.32 58.6444 115.262 58.5494 115.236 58.4447C115.209 58.3399 115.214 58.2299 115.252 58.1281C115.536 57.1206 118.419 55.6955 120.801 55.0999C123.079 54.5433 125.799 55.5118 127.153 56.1075C126.927 55.4591 126.842 54.7734 126.903 54.0924C126.904 53.9539 126.943 53.8181 127.017 53.6988C127.09 53.5795 127.195 53.481 127.322 53.4132C128.199 52.9512 130.181 53.9031 132.883 55.3059C133.743 55.7512 134.557 56.1743 135.074 56.3747C136.742 57.0093 139.397 59.7981 140.362 60.8279L140.873 59.0578C140.885 59.0213 140.903 58.9872 140.928 58.9576C140.953 58.928 140.984 58.9034 141.019 58.8852C141.054 58.8689 141.093 58.8605 141.132 58.8605C141.171 58.8605 141.21 58.8689 141.245 58.8852C141.298 58.8852 142.541 59.3138 143.767 61.1118C144.564 62.2975 144.575 64.1289 144.581 65.3424C144.573 65.6734 144.588 66.0044 144.628 66.3333C145.499 66.8767 146.335 67.4697 147.132 68.109C147.172 68.1411 147.203 68.1826 147.221 68.2294C147.24 68.2763 147.245 68.3268 147.237 68.3762C147.227 68.4244 147.204 68.4692 147.17 68.5062C147.136 68.5433 147.093 68.5714 147.045 68.5878L145.883 68.9886C146.347 69.9787 146.575 71.0553 146.551 72.1404C146.527 73.2255 146.251 74.2918 145.743 75.2621C144.215 78.1957 144.325 83.5285 144.325 83.5842C144.325 83.6594 144.294 83.7315 144.238 83.7846C144.212 83.8113 144.181 83.8325 144.146 83.8469C144.111 83.8613 144.073 83.8685 144.035 83.8681C143.959 83.8681 142.222 83.8681 141.373 83.3114C140.943 83.0386 140.316 81.2239 138.648 75.9078C137.898 73.5309 136.98 70.5973 136.666 70.1019C136.399 70.0685 135.812 69.9349 134.557 69.6566C132.308 69.15 127.63 68.0923 126.874 68.3317C125.642 68.7269 117.646 72.8629 117.047 74.455C116.414 76.1695 115.496 85.1428 115.484 85.2319C115.478 85.2937 115.451 85.352 115.407 85.3974C115.363 85.4427 115.304 85.4727 115.24 85.4824L115.222 85.5436ZM113.956 66.9902C113.096 66.9902 110.788 67.1349 109.806 68.6601C109.033 69.8514 108.539 70.7253 108.644 71.1206C108.644 71.1929 108.731 71.3043 108.999 71.4156C109.928 71.8663 110.824 72.3797 111.678 72.952C111.739 72.9917 111.782 73.0525 111.799 73.1219C111.815 73.1912 111.803 73.2639 111.765 73.3249C111.765 73.3249 110.934 74.7667 111.916 77.1158C112.689 78.9639 114.24 82.482 115.025 84.1965C115.292 81.7249 115.978 75.7798 116.507 74.3492C117.245 72.373 125.735 68.1814 126.7 67.8752C127.537 67.6025 130.959 68.3373 134.69 69.1778C135.696 69.4061 136.649 69.6176 136.8 69.6232C137.183 69.6232 137.329 69.8347 139.206 75.8132C140.106 78.6689 141.333 82.571 141.71 82.9217C142.346 83.2109 143.04 83.3629 143.744 83.3671C143.744 82.1814 143.826 77.7615 145.226 75.0784C145.706 74.1362 145.956 73.1015 145.956 72.053C145.956 71.0045 145.706 69.9698 145.226 69.0275C145.206 68.9923 145.194 68.9532 145.191 68.9132C145.188 68.8731 145.195 68.8329 145.21 68.7953C145.225 68.7578 145.248 68.7238 145.278 68.6956C145.308 68.6675 145.344 68.6459 145.383 68.6323L146.348 68.2983C145.712 67.7833 145.04 67.3109 144.337 66.8844C143.994 66.7786 143.994 66.3778 143.983 65.4037C143.983 64.257 143.983 62.5258 143.262 61.4737C142.782 60.7019 142.117 60.0511 141.321 59.5755L140.74 61.5238C140.726 61.5727 140.699 61.6173 140.661 61.6526C140.623 61.6879 140.576 61.7127 140.525 61.7242C140.473 61.7342 140.419 61.7307 140.369 61.7141C140.319 61.6975 140.274 61.6683 140.24 61.6295C140.205 61.5906 136.707 57.6383 134.824 56.9146C134.053 56.5804 133.301 56.2088 132.569 55.8013C130.826 54.9051 128.234 53.5747 127.566 53.9031C127.537 53.9031 127.461 53.9588 127.449 54.1313C127.333 55.8514 128.031 56.5584 128.031 56.5695C128.077 56.6194 128.102 56.6837 128.102 56.7504C128.102 56.8171 128.077 56.8814 128.031 56.9313C127.988 56.9841 127.927 57.0204 127.859 57.0337C127.79 57.047 127.719 57.0363 127.659 57.0037C127.624 57.0037 123.777 54.9274 120.894 55.6454C118.198 56.319 115.92 57.7106 115.757 58.284C116.408 58.952 119.285 61.5794 119.314 61.624C119.355 61.6619 119.383 61.7106 119.396 61.764C119.408 61.8174 119.404 61.8731 119.383 61.9242C119.363 61.9753 119.327 62.0195 119.281 62.0512C119.234 62.083 119.179 62.1009 119.122 62.1027C116.379 62.2029 112.299 62.5591 111.811 63.0323C111.355 63.5181 111.003 64.0856 110.777 64.7023L114.374 66.4836C114.433 66.514 114.479 66.5623 114.505 66.6209C114.531 66.6795 114.536 66.7448 114.519 66.8065C114.5 66.8681 114.46 66.9218 114.405 66.9591C114.35 66.9964 114.284 67.0151 114.217 67.0124C114.217 67.0124 114.153 66.9902 113.956 66.9902Z" fill="#263238"/>
<path d="M122.335 64.9584C122.335 64.9584 113.514 73.3083 113.38 74.6666C113.247 76.0248 117.198 97.6232 117.448 98.3803C117.698 99.1373 127.06 104.815 129.954 105.444C132.848 106.073 135.882 105.316 136.672 104.687C137.462 104.058 145.098 99.8944 145.889 96.4876C146.679 93.0809 141.722 69.8737 141.141 68.9942C140.56 68.1147 128.263 62.4312 122.335 64.9584Z" fill="white"/>
<path d="M132.261 105.956C131.47 105.959 130.681 105.879 129.908 105.717C127.148 105.116 117.518 99.4211 117.187 98.4804C116.827 97.445 112.962 76.0359 113.09 74.6554C113.218 73.2748 120.645 66.1719 122.132 64.7691C122.157 64.7444 122.186 64.7254 122.22 64.7134C128.077 62.2196 140.729 67.7083 141.397 68.8661C141.943 69.779 146.976 93.0641 146.168 96.5599C145.494 99.4712 140.113 102.845 137.817 104.286C137.346 104.581 136.98 104.81 136.852 104.915C136.196 105.444 134.324 105.956 132.261 105.956ZM122.504 65.1922C119.116 68.3874 113.758 73.7591 113.671 74.6943C113.555 75.9468 117.408 97.3448 117.739 98.2911C118.146 99.0259 127.13 104.542 130.036 105.171C132.941 105.8 135.801 105.038 136.504 104.476C136.655 104.353 136.998 104.136 137.521 103.808C139.758 102.405 145 99.1205 145.622 96.4263C146.383 93.1531 141.437 70.0741 140.914 69.15C140.426 68.4319 128.356 62.793 122.504 65.1922Z" fill="#263238"/>
<path d="M122.336 64.9585C122.336 64.9585 125.393 66.4058 126.654 66.9458C127.915 67.4857 129.309 65.6042 129.309 65.6042C129.309 65.6042 140.136 69.1613 141.165 68.9943C142.193 68.8273 138.259 64.9306 134.191 63.4555C130.123 61.9804 122.359 62.164 122.336 64.9585Z" fill="#263238"/>
<path d="M141.106 69.2725C139.705 69.2725 131.552 66.634 129.413 65.9326C129.007 66.4113 127.763 67.7195 126.508 67.2018C125.253 66.6841 122.213 65.2201 122.184 65.2034C122.135 65.1804 122.094 65.1448 122.065 65.1005C122.037 65.0562 122.021 65.005 122.021 64.9529C122.033 64.6244 122.132 64.3041 122.307 64.0219C122.483 63.7396 122.731 63.5046 123.027 63.3385C125.351 61.83 131.075 62.0248 134.295 63.1994C137.863 64.4964 141.698 67.8531 141.594 68.8606C141.586 68.962 141.541 69.0577 141.468 69.1316C141.395 69.2055 141.298 69.2533 141.193 69.267L141.106 69.2725ZM129.309 65.3258C129.342 65.3205 129.375 65.3205 129.408 65.3258C133.423 66.6451 139.961 68.6658 141.03 68.7047C140.786 67.9421 137.648 64.9863 134.115 63.6948C131.046 62.5815 125.491 62.3978 123.387 63.7783C123.197 63.8836 123.032 64.0264 122.904 64.1972C122.776 64.368 122.687 64.563 122.643 64.7692C123.312 65.0809 125.706 66.2165 126.775 66.6674C127.629 67.0292 128.728 65.888 129.1 65.4205C129.125 65.3913 129.157 65.3677 129.194 65.3514C129.23 65.3351 129.269 65.3263 129.309 65.3258Z" fill="#263238"/>
<path d="M130.414 88.8336C130.338 88.8395 130.263 88.8395 130.187 88.8336L129.449 88.7167C128.927 88.7984 128.398 88.8394 127.868 88.8392C127.518 88.8164 127.186 88.6852 126.92 88.4652C126.655 88.2453 126.472 87.9486 126.398 87.6201C126.382 87.5486 126.396 87.474 126.436 87.4118C126.476 87.3496 126.539 87.3045 126.613 87.2861C126.687 87.2692 126.765 87.2807 126.83 87.3181C126.895 87.3556 126.943 87.416 126.962 87.4865C126.962 87.5199 127.188 88.2881 127.868 88.2881C128.379 88.2898 128.888 88.2489 129.391 88.1656H129.519L130.309 88.2881C131.012 88.405 132.529 87.6813 132.634 87.364C132.738 87.0467 131.977 83.8237 131.471 81.4913C130.89 78.7525 130.518 77.038 130.518 76.7096C130.518 75.8857 132.122 74.199 132.442 73.8706C132.497 73.8192 132.571 73.7905 132.648 73.7905C132.725 73.7905 132.799 73.8192 132.854 73.8706C132.882 73.8965 132.903 73.9273 132.918 73.9612C132.933 73.9951 132.94 74.0315 132.94 74.0682C132.94 74.105 132.933 74.1413 132.918 74.1752C132.903 74.2092 132.882 74.2399 132.854 74.2658C132.122 75.0173 131.111 76.2809 131.111 76.7263C131.111 77.038 131.611 79.3537 132.053 81.3966C132.988 85.733 133.285 87.2248 133.215 87.5199C133.006 88.1211 131.344 88.8336 130.414 88.8336Z" fill="#263238"/>
<path d="M133.337 87.7262C133.161 87.7248 132.986 87.7099 132.814 87.6817C132.776 87.6744 132.741 87.6601 132.709 87.6396C132.677 87.6192 132.65 87.5929 132.629 87.5624C132.608 87.5319 132.594 87.4978 132.586 87.4619C132.579 87.426 132.579 87.3891 132.587 87.3533C132.594 87.3171 132.608 87.2826 132.629 87.2519C132.651 87.2212 132.678 87.195 132.71 87.1747C132.742 87.1544 132.778 87.1405 132.816 87.1339C132.854 87.1273 132.892 87.1281 132.93 87.1362C133.256 87.2055 133.597 87.1763 133.906 87.0527C133.974 87.0061 134.019 86.9362 134.034 86.8578L134.162 86.1008C134.176 86.0282 134.219 85.9638 134.282 85.9212C134.345 85.8786 134.423 85.8612 134.499 85.8725C134.536 85.8779 134.573 85.8905 134.605 85.9095C134.637 85.9284 134.666 85.9534 134.688 85.983C134.71 86.0126 134.726 86.0461 134.734 86.0817C134.743 86.1172 134.744 86.154 134.737 86.1898L134.603 86.9469C134.584 87.0584 134.542 87.1651 134.479 87.2607C134.416 87.3563 134.334 87.4389 134.237 87.5036C133.966 87.6608 133.653 87.7382 133.337 87.7262Z" fill="#263238"/>
<path d="M129.443 88.6942C129.385 88.6946 129.328 88.6771 129.28 88.6441C128.959 88.4059 128.724 88.076 128.61 87.7019C128.496 87.3278 128.509 86.9288 128.647 86.5622C128.655 86.5238 128.672 86.4875 128.697 86.4557C128.721 86.424 128.752 86.3975 128.788 86.3781C128.823 86.3587 128.863 86.3467 128.904 86.343C128.945 86.3393 128.986 86.344 129.025 86.3566C129.064 86.3693 129.099 86.3897 129.129 86.4166C129.159 86.4434 129.183 86.476 129.199 86.5123C129.215 86.5485 129.223 86.5876 129.222 86.6269C129.221 86.6662 129.211 86.7049 129.193 86.7404C129.095 86.9945 129.083 87.2718 129.159 87.5327C129.236 87.7936 129.396 88.0248 129.617 88.1933C129.666 88.2283 129.702 88.2772 129.72 88.3329C129.739 88.3887 129.738 88.4485 129.719 88.5039C129.699 88.5593 129.662 88.6075 129.613 88.6417C129.563 88.6759 129.504 88.6942 129.443 88.6942Z" fill="#263238"/>
<path d="M127.077 96.3876C127.005 96.3877 126.935 96.3641 126.879 96.3208C126.826 96.2678 126.796 96.197 126.796 96.1232C126.796 96.0494 126.826 95.9785 126.879 95.9256C126.926 95.8755 131.418 91.1327 136.555 93.0755C136.591 93.089 136.623 93.1091 136.651 93.1346C136.678 93.1601 136.7 93.1905 136.715 93.2241C136.73 93.2577 136.738 93.2938 136.739 93.3304C136.739 93.367 136.732 93.4033 136.718 93.4373C136.704 93.4713 136.683 93.5023 136.656 93.5285C136.63 93.5547 136.598 93.5757 136.563 93.5902C136.528 93.6046 136.49 93.6124 136.452 93.6129C136.414 93.6134 136.376 93.6067 136.34 93.5932C131.581 91.7952 127.356 96.2484 127.315 96.2985C127.285 96.3298 127.248 96.3541 127.207 96.3695C127.166 96.385 127.121 96.3911 127.077 96.3876Z" fill="#263238"/>
<path d="M117.989 79.0081C117.919 79.0087 117.849 78.9955 117.785 78.9692C117.642 78.9167 117.527 78.8125 117.464 78.6792C117.401 78.5458 117.395 78.394 117.448 78.2566C118.068 76.8244 119.105 75.5934 120.435 74.7107C122.655 73.2912 126.502 74.9723 126.665 75.0447C126.734 75.0758 126.797 75.1197 126.848 75.1738C126.9 75.228 126.94 75.2914 126.966 75.3604C126.993 75.4294 127.004 75.5026 127.001 75.576C126.997 75.6493 126.979 75.7213 126.947 75.7879C126.914 75.8544 126.868 75.9141 126.812 75.9637C126.755 76.0133 126.689 76.0517 126.617 76.0768C126.545 76.1018 126.469 76.1131 126.392 76.1098C126.315 76.1066 126.24 76.0889 126.171 76.0578C125.229 75.6348 122.469 74.7441 121.08 75.6348C119.955 76.392 119.074 77.435 118.535 78.6463C118.493 78.7528 118.419 78.8446 118.321 78.9093C118.223 78.974 118.107 79.0085 117.989 79.0081Z" fill="#263238"/>
<path d="M141.036 76.6152C140.929 76.616 140.825 76.5889 140.734 76.5369C140.643 76.4849 140.568 76.4099 140.518 76.3202C139.86 75.2458 138.854 74.4057 137.653 73.9266C137.135 73.7466 136.577 73.7002 136.035 73.7921C135.492 73.8839 134.984 74.1107 134.562 74.4498C134.505 74.4995 134.439 74.538 134.366 74.5629C134.294 74.5879 134.217 74.5989 134.141 74.5953C134.064 74.5917 133.989 74.5735 133.919 74.5418C133.85 74.5102 133.788 74.4657 133.737 74.4109C133.634 74.3015 133.58 74.1575 133.588 74.0104C133.595 73.8632 133.663 73.725 133.777 73.626C134.358 73.1493 135.061 72.8295 135.814 72.6994C136.567 72.5692 137.342 72.6335 138.06 72.8856C139.526 73.4576 140.753 74.4797 141.547 75.7914C141.584 75.856 141.606 75.9269 141.614 76.0001C141.622 76.0732 141.615 76.1471 141.593 76.2175C141.57 76.2879 141.534 76.3533 141.485 76.4101C141.436 76.4669 141.376 76.514 141.309 76.5484C141.225 76.5918 141.131 76.6148 141.036 76.6152Z" fill="#263238"/>
<path d="M123.852 82.2371C124.398 82.2371 124.84 81.6439 124.84 80.9123C124.84 80.1806 124.398 79.5874 123.852 79.5874C123.307 79.5874 122.864 80.1806 122.864 80.9123C122.864 81.6439 123.307 82.2371 123.852 82.2371Z" fill="#263238"/>
<path d="M136.625 79.0197C136.625 79.7489 136.178 80.3445 135.637 80.3445C135.097 80.3445 134.649 79.7489 134.649 79.0197C134.649 78.2904 135.091 77.6948 135.637 77.6948C136.184 77.6948 136.625 78.2904 136.625 79.0197Z" fill="#263238"/>
<path d="M114.99 83.874C114.99 83.874 112.492 80.4728 111.306 83.1169C110.121 85.7611 111.306 87.9098 112.468 89.6799C113.631 91.4501 116.153 92.3296 116.153 92.3296L114.99 83.874Z" fill="white"/>
<path d="M116.152 92.6077C116.12 92.6134 116.086 92.6134 116.054 92.6077C115.949 92.5743 113.444 91.6725 112.224 89.8244C110.893 87.8427 109.83 85.6494 111.015 83.0053C111.105 82.7094 111.278 82.4431 111.516 82.2358C111.754 82.0285 112.048 81.8883 112.363 81.8307C113.683 81.7027 115.054 83.5007 115.205 83.7122C115.234 83.7476 115.252 83.79 115.258 83.8347L116.42 92.2848C116.425 92.3329 116.418 92.3816 116.399 92.4263C116.379 92.471 116.349 92.5104 116.309 92.5409C116.265 92.5775 116.21 92.6007 116.152 92.6077ZM112.503 82.3874H112.422C112.073 82.4208 111.782 82.7047 111.55 83.2224C110.417 85.7496 111.55 87.7981 112.712 89.5238C113.509 90.5514 114.573 91.3613 115.798 91.8729L114.688 83.9739C114.304 83.484 113.293 82.3874 112.497 82.3874H112.503Z" fill="#263238"/>
<path d="M144.325 79.7154C144.325 79.7154 144.586 77.3162 145.644 77.5667C146.702 77.8172 148.672 79.7154 147.486 82.3595C146.301 85.0036 145.115 87.7869 145.115 87.7869L144.046 82.6156L144.325 79.7154Z" fill="white"/>
<path d="M145.116 88.0652C145.053 88.058 144.995 88.032 144.949 87.991C144.903 87.95 144.872 87.896 144.86 87.837L143.808 82.6656C143.805 82.6397 143.805 82.6135 143.808 82.5877L144.07 79.6875C144.07 79.5093 144.285 77.9284 145.023 77.433C145.127 77.3624 145.246 77.3143 145.371 77.2922C145.496 77.2701 145.625 77.2744 145.749 77.305C146.191 77.4568 146.597 77.6916 146.943 77.9956C147.29 78.2995 147.569 78.6665 147.765 79.0751C148.034 79.6052 148.173 80.1866 148.173 80.7757C148.173 81.3648 148.034 81.9463 147.765 82.4763C146.603 85.0926 145.406 87.8704 145.394 87.8982C145.372 87.9502 145.333 87.9943 145.283 88.0242C145.233 88.0541 145.174 88.0684 145.116 88.0652ZM144.354 82.5988L145.214 86.8238C145.662 85.794 146.441 83.9849 147.219 82.2537C147.448 81.7958 147.567 81.2945 147.567 80.7869C147.567 80.2792 147.448 79.7779 147.219 79.3201C146.898 78.6391 146.309 78.1071 145.58 77.8393C145.537 77.8268 145.491 77.8243 145.447 77.832C145.403 77.8398 145.361 77.8576 145.325 77.8839C144.935 78.1455 144.686 79.1586 144.622 79.7376L144.354 82.5988Z" fill="#263238"/>
<path d="M257.71 233.999H14.1294C14.0524 233.999 13.9785 233.97 13.924 233.918C13.8695 233.865 13.8389 233.795 13.8389 233.721C13.8389 233.647 13.8695 233.576 13.924 233.524C13.9785 233.472 14.0524 233.442 14.1294 233.442H257.71C257.787 233.442 257.861 233.472 257.915 233.524C257.969 233.576 258 233.647 258 233.721C257.999 233.794 257.968 233.864 257.913 233.916C257.859 233.968 257.786 233.998 257.71 233.999Z" fill="#263238"/>
</svg>
