<svg width="24" height="24" viewBox="0 0 24 24" fill="none" xmlns="http://www.w3.org/2000/svg">
<mask id="mask0_1509_5053" style="mask-type:alpha" maskUnits="userSpaceOnUse" x="0" y="0" width="24" height="24">
<rect width="24" height="24" fill="#D9D9D9"/>
</mask>
<g mask="url(#mask0_1509_5053)">
<path d="M12 13C11.0167 13 10.1875 12.6625 9.5125 11.9875C8.8375 11.3125 8.5 10.4833 8.5 9.5C8.5 8.51667 8.8375 7.6875 9.5125 7.0125C10.1875 6.3375 11.0167 6 12 6C12.9833 6 13.8125 6.3375 14.4875 7.0125C15.1625 7.6875 15.5 8.51667 15.5 9.5C15.5 10.4833 15.1625 11.3125 14.4875 11.9875C13.8125 12.6625 12.9833 13 12 13ZM12 11C12.4333 11 12.7917 10.8583 13.075 10.575C13.3583 10.2917 13.5 9.93333 13.5 9.5C13.5 9.06667 13.3583 8.70833 13.075 8.425C12.7917 8.14167 12.4333 8 12 8C11.5667 8 11.2083 8.14167 10.925 8.425C10.6417 8.70833 10.5 9.06667 10.5 9.5C10.5 9.93333 10.6417 10.2917 10.925 10.575C11.2083 10.8583 11.5667 11 12 11ZM12 22C9.68333 21.4167 7.77083 20.0875 6.2625 18.0125C4.75417 15.9375 4 13.6333 4 11.1V5L12 2L20 5V11.1C20 13.6333 19.2458 15.9375 17.7375 18.0125C16.2292 20.0875 14.3167 21.4167 12 22ZM12 4.125L6 6.375V11.1C6 12 6.125 12.875 6.375 13.725C6.625 14.575 6.96667 15.375 7.4 16.125C8.1 15.775 8.83333 15.5 9.6 15.3C10.3667 15.1 11.1667 15 12 15C12.8333 15 13.6333 15.1 14.4 15.3C15.1667 15.5 15.9 15.775 16.6 16.125C17.0333 15.375 17.375 14.575 17.625 13.725C17.875 12.875 18 12 18 11.1V6.375L12 4.125ZM12 17C11.4 17 10.8167 17.0667 10.25 17.2C9.68333 17.3333 9.14167 17.5167 8.625 17.75C9.10833 18.25 9.63333 18.6833 10.2 19.05C10.7667 19.4167 11.3667 19.7 12 19.9C12.6333 19.7 13.2333 19.4167 13.8 19.05C14.3667 18.6833 14.8917 18.25 15.375 17.75C14.8583 17.5167 14.3167 17.3333 13.75 17.2C13.1833 17.0667 12.6 17 12 17Z" fill="#570000"/>
</g>
</svg>
