<svg width="20" height="20" viewBox="0 0 20 20" fill="none" xmlns="http://www.w3.org/2000/svg">
<mask id="mask0_1179_236" style="mask-type:alpha" maskUnits="userSpaceOnUse" x="0" y="0" width="20" height="20">
<rect width="20" height="20" fill="#D9D9D9"/>
</mask>
<g mask="url(#mask0_1179_236)">
<path d="M3.33268 17.5C2.87435 17.5 2.48199 17.3368 2.1556 17.0104C1.82921 16.684 1.66602 16.2917 1.66602 15.8334V6.66669C1.66602 6.20835 1.82921 5.81599 2.1556 5.4896C2.48199 5.16322 2.87435 5.00002 3.33268 5.00002H6.66602V3.33335C6.66602 2.87502 6.82921 2.48266 7.1556 2.15627C7.48199 1.82988 7.87435 1.66669 8.33268 1.66669H11.666C12.1243 1.66669 12.5167 1.82988 12.8431 2.15627C13.1695 2.48266 13.3327 2.87502 13.3327 3.33335V5.00002H16.666C17.1243 5.00002 17.5167 5.16322 17.8431 5.4896C18.1695 5.81599 18.3327 6.20835 18.3327 6.66669V15.8334C18.3327 16.2917 18.1695 16.684 17.8431 17.0104C17.5167 17.3368 17.1243 17.5 16.666 17.5H3.33268ZM3.33268 15.8334H16.666V6.66669H3.33268V15.8334ZM8.33268 5.00002H11.666V3.33335H8.33268V5.00002Z" fill="#570000"/>
</g>
</svg>
