<svg width="20" height="20" viewBox="0 0 20 20" fill="none" xmlns="http://www.w3.org/2000/svg">
<mask id="mask0_1179_210" style="mask-type:alpha" maskUnits="userSpaceOnUse" x="0" y="0" width="20" height="20">
<rect width="20" height="20" fill="#D9D9D9"/>
</mask>
<g mask="url(#mask0_1179_210)">
<path d="M5.00065 11.6667C5.00065 12.3889 5.14648 13.0729 5.43815 13.7188C5.72982 14.3646 6.14648 14.9306 6.68815 15.4167C6.67426 15.3472 6.66732 15.2847 6.66732 15.2292V15.0417C6.66732 14.5972 6.75065 14.1806 6.91732 13.7917C7.08398 13.4028 7.32704 13.0486 7.64648 12.7292L10.0007 10.4167L12.3548 12.7292C12.6743 13.0486 12.9173 13.4028 13.084 13.7917C13.2507 14.1806 13.334 14.5972 13.334 15.0417V15.2292C13.334 15.2847 13.327 15.3472 13.3132 15.4167C13.8548 14.9306 14.2715 14.3646 14.5632 13.7188C14.8548 13.0729 15.0007 12.3889 15.0007 11.6667C15.0007 10.9722 14.8722 10.316 14.6152 9.69792C14.3583 9.07986 13.9868 8.52778 13.5007 8.04167C13.2229 8.22222 12.9312 8.35764 12.6257 8.44792C12.3201 8.53819 12.0076 8.58333 11.6882 8.58333C10.827 8.58333 10.0805 8.29861 9.44857 7.72917C8.81662 7.15972 8.45204 6.45833 8.35482 5.625C7.81315 6.08333 7.33398 6.55903 6.91732 7.05208C6.50065 7.54514 6.14996 8.04514 5.86523 8.55208C5.58051 9.05903 5.36523 9.57639 5.2194 10.1042C5.07357 10.6319 5.00065 11.1528 5.00065 11.6667ZM10.0007 12.75L8.81315 13.9167C8.66037 14.0694 8.54232 14.2431 8.45898 14.4375C8.37565 14.6319 8.33398 14.8333 8.33398 15.0417C8.33398 15.4861 8.49718 15.8681 8.82357 16.1875C9.14996 16.5069 9.54232 16.6667 10.0007 16.6667C10.459 16.6667 10.8513 16.5069 11.1777 16.1875C11.5041 15.8681 11.6673 15.4861 11.6673 15.0417C11.6673 14.8194 11.6257 14.6146 11.5423 14.4271C11.459 14.2396 11.3409 14.0694 11.1882 13.9167L10.0007 12.75ZM10.0007 2.5V5.25C10.0007 5.72222 10.1638 6.11806 10.4902 6.4375C10.8166 6.75694 11.2159 6.91667 11.6882 6.91667C11.9382 6.91667 12.1708 6.86458 12.3861 6.76042C12.6013 6.65625 12.7923 6.5 12.959 6.29167L13.334 5.83333C14.3618 6.41667 15.1743 7.22917 15.7715 8.27083C16.3687 9.3125 16.6673 10.4444 16.6673 11.6667C16.6673 13.5278 16.0215 15.1042 14.7298 16.3958C13.4382 17.6875 11.8618 18.3333 10.0007 18.3333C8.13954 18.3333 6.56315 17.6875 5.27148 16.3958C3.97982 15.1042 3.33398 13.5278 3.33398 11.6667C3.33398 9.875 3.93468 8.17361 5.13607 6.5625C6.33746 4.95139 7.95898 3.59722 10.0007 2.5Z" fill="#570000"/>
</g>
</svg>
