<svg width="20" height="20" viewBox="0 0 20 20" fill="none" xmlns="http://www.w3.org/2000/svg">
<mask id="mask0_1179_252" style="mask-type:alpha" maskUnits="userSpaceOnUse" x="0" y="0" width="20" height="20">
<rect width="20" height="20" fill="#D9D9D9"/>
</mask>
<g mask="url(#mask0_1179_252)">
<path d="M7.70833 18.3334L7.375 15.6667C7.19444 15.5972 7.02431 15.5139 6.86458 15.4167C6.70486 15.3195 6.54861 15.2153 6.39583 15.1042L3.91667 16.1459L1.625 12.1875L3.77083 10.5625C3.75694 10.4653 3.75 10.3715 3.75 10.2813V9.71877C3.75 9.62849 3.75694 9.53474 3.77083 9.43752L1.625 7.81252L3.91667 3.85419L6.39583 4.89585C6.54861 4.78474 6.70833 4.68058 6.875 4.58335C7.04167 4.48613 7.20833 4.4028 7.375 4.33335L7.70833 1.66669H12.2917L12.625 4.33335C12.8056 4.4028 12.9757 4.48613 13.1354 4.58335C13.2951 4.68058 13.4514 4.78474 13.6042 4.89585L16.0833 3.85419L18.375 7.81252L16.2292 9.43752C16.2431 9.53474 16.25 9.62849 16.25 9.71877V10.2813C16.25 10.3715 16.2361 10.4653 16.2083 10.5625L18.3542 12.1875L16.0625 16.1459L13.6042 15.1042C13.4514 15.2153 13.2917 15.3195 13.125 15.4167C12.9583 15.5139 12.7917 15.5972 12.625 15.6667L12.2917 18.3334H7.70833ZM9.16667 16.6667H10.8125L11.1042 14.4584C11.5347 14.3472 11.934 14.184 12.3021 13.9688C12.6701 13.7535 13.0069 13.4931 13.3125 13.1875L15.375 14.0417L16.1875 12.625L14.3958 11.2709C14.4653 11.0764 14.5139 10.8715 14.5417 10.6563C14.5694 10.441 14.5833 10.2222 14.5833 10C14.5833 9.7778 14.5694 9.55905 14.5417 9.34377C14.5139 9.12849 14.4653 8.92363 14.3958 8.72919L16.1875 7.37502L15.375 5.95835L13.3125 6.83335C13.0069 6.51391 12.6701 6.24655 12.3021 6.03127C11.934 5.81599 11.5347 5.6528 11.1042 5.54169L10.8333 3.33335H9.1875L8.89583 5.54169C8.46528 5.6528 8.06597 5.81599 7.69792 6.03127C7.32986 6.24655 6.99306 6.50697 6.6875 6.81252L4.625 5.95835L3.8125 7.37502L5.60417 8.70835C5.53472 8.91669 5.48611 9.12502 5.45833 9.33335C5.43056 9.54169 5.41667 9.76391 5.41667 10C5.41667 10.2222 5.43056 10.4375 5.45833 10.6459C5.48611 10.8542 5.53472 11.0625 5.60417 11.2709L3.8125 12.625L4.625 14.0417L6.6875 13.1667C6.99306 13.4861 7.32986 13.7535 7.69792 13.9688C8.06597 14.184 8.46528 14.3472 8.89583 14.4584L9.16667 16.6667ZM10.0417 12.9167C10.8472 12.9167 11.5347 12.632 12.1042 12.0625C12.6736 11.4931 12.9583 10.8056 12.9583 10C12.9583 9.19447 12.6736 8.50697 12.1042 7.93752C11.5347 7.36808 10.8472 7.08335 10.0417 7.08335C9.22222 7.08335 8.53125 7.36808 7.96875 7.93752C7.40625 8.50697 7.125 9.19447 7.125 10C7.125 10.8056 7.40625 11.4931 7.96875 12.0625C8.53125 12.632 9.22222 12.9167 10.0417 12.9167Z" fill="#570000"/>
</g>
</svg>
