<svg width="20" height="20" viewBox="0 0 20 20" fill="none" xmlns="http://www.w3.org/2000/svg">
<mask id="mask0_1179_228" style="mask-type:alpha" maskUnits="userSpaceOnUse" x="0" y="0" width="20" height="20">
<rect width="20" height="20" fill="#D9D9D9"/>
</mask>
<g mask="url(#mask0_1179_228)">
<path d="M10.0007 18.3333C9.63954 18.3333 9.31315 18.2465 9.02148 18.0729C8.72982 17.8993 8.50065 17.6666 8.33398 17.375C7.87565 17.375 7.48329 17.2118 7.1569 16.8854C6.83051 16.559 6.66732 16.1666 6.66732 15.7083V12.75C5.84787 12.2083 5.19162 11.493 4.69857 10.6041C4.20551 9.71524 3.95898 8.74996 3.95898 7.70829C3.95898 6.02774 4.54579 4.60065 5.7194 3.42704C6.89301 2.25343 8.3201 1.66663 10.0007 1.66663C11.6812 1.66663 13.1083 2.25343 14.2819 3.42704C15.4555 4.60065 16.0423 6.02774 16.0423 7.70829C16.0423 8.77774 15.7958 9.74996 15.3027 10.625C14.8097 11.5 14.1534 12.2083 13.334 12.75V15.7083C13.334 16.1666 13.1708 16.559 12.8444 16.8854C12.518 17.2118 12.1257 17.375 11.6673 17.375C11.5007 17.6666 11.2715 17.8993 10.9798 18.0729C10.6882 18.2465 10.3618 18.3333 10.0007 18.3333ZM8.33398 15.7083H11.6673V14.9583H8.33398V15.7083ZM8.33398 14.125H11.6673V13.3333H8.33398V14.125ZM8.16732 11.6666H9.37565V9.41663L7.54232 7.58329L8.41732 6.70829L10.0007 8.29163L11.584 6.70829L12.459 7.58329L10.6257 9.41663V11.6666H11.834C12.584 11.3055 13.1951 10.7743 13.6673 10.0729C14.1395 9.37149 14.3757 8.58329 14.3757 7.70829C14.3757 6.48607 13.952 5.45135 13.1048 4.60413C12.2576 3.7569 11.2229 3.33329 10.0007 3.33329C8.77843 3.33329 7.74371 3.7569 6.89648 4.60413C6.04926 5.45135 5.62565 6.48607 5.62565 7.70829C5.62565 8.58329 5.86176 9.37149 6.33398 10.0729C6.80621 10.7743 7.41732 11.3055 8.16732 11.6666Z" fill="#570000"/>
</g>
</svg>
