<svg width="20" height="20" viewBox="0 0 20 20" fill="none" xmlns="http://www.w3.org/2000/svg">
<mask id="mask0_1303_2088" style="mask-type:alpha" maskUnits="userSpaceOnUse" x="0" y="0" width="20" height="20">
<rect width="20" height="20" fill="#D9D9D9"/>
</mask>
<g mask="url(#mask0_1303_2088)">
<path d="M8.83398 13.3333C8.83398 12.2083 8.93468 11.3993 9.13607 10.9063C9.33746 10.4132 9.76454 9.875 10.4173 9.29167C10.9868 8.79167 11.4208 8.35764 11.7194 7.98958C12.018 7.62153 12.1673 7.20139 12.1673 6.72917C12.1673 6.15972 11.9763 5.6875 11.5944 5.3125C11.2125 4.9375 10.6812 4.75 10.0007 4.75C9.29232 4.75 8.75412 4.96528 8.38607 5.39583C8.01801 5.82639 7.7576 6.26389 7.60482 6.70833L5.45898 5.79167C5.75065 4.90278 6.28537 4.13194 7.06315 3.47917C7.84093 2.82639 8.8201 2.5 10.0007 2.5C11.459 2.5 12.5805 2.90625 13.3652 3.71875C14.15 4.53125 14.5423 5.50694 14.5423 6.64583C14.5423 7.34028 14.393 7.93403 14.0944 8.42708C13.7958 8.92014 13.327 9.47917 12.6882 10.1042C12.0076 10.7569 11.5944 11.2535 11.4486 11.5938C11.3027 11.934 11.2298 12.5139 11.2298 13.3333H8.83398ZM10.0007 18.3333C9.54232 18.3333 9.14996 18.1701 8.82357 17.8438C8.49718 17.5174 8.33398 17.125 8.33398 16.6667C8.33398 16.2083 8.49718 15.816 8.82357 15.4896C9.14996 15.1632 9.54232 15 10.0007 15C10.459 15 10.8513 15.1632 11.1777 15.4896C11.5041 15.816 11.6673 16.2083 11.6673 16.6667C11.6673 17.125 11.5041 17.5174 11.1777 17.8438C10.8513 18.1701 10.459 18.3333 10.0007 18.3333Z" fill="#570000"/>
</g>
</svg>
