<svg width="20" height="20" viewBox="0 0 20 20" fill="none" xmlns="http://www.w3.org/2000/svg">
<mask id="mask0_1303_2093" style="mask-type:alpha" maskUnits="userSpaceOnUse" x="0" y="0" width="20" height="20">
<rect width="20" height="20" fill="#D9D9D9"/>
</mask>
<g mask="url(#mask0_1303_2093)">
<path d="M9.1665 17.5V15.8333H15.8332V9.91667C15.8332 8.29167 15.2672 6.91319 14.1353 5.78125C13.0033 4.64931 11.6248 4.08333 9.99984 4.08333C8.37484 4.08333 6.99637 4.64931 5.86442 5.78125C4.73248 6.91319 4.1665 8.29167 4.1665 9.91667V15H3.33317C2.87484 15 2.48248 14.8368 2.15609 14.5104C1.8297 14.184 1.6665 13.7917 1.6665 13.3333V11.6667C1.6665 11.375 1.73942 11.1007 1.88525 10.8438C2.03109 10.5868 2.23595 10.3819 2.49984 10.2292L2.56234 9.125C2.67345 8.18056 2.94775 7.30556 3.38525 6.5C3.82275 5.69444 4.37137 4.99306 5.03109 4.39583C5.69081 3.79861 6.44775 3.33333 7.30192 3C8.15609 2.66667 9.05539 2.5 9.99984 2.5C10.9443 2.5 11.8401 2.66667 12.6873 3C13.5346 3.33333 14.2915 3.79514 14.9582 4.38542C15.6248 4.97569 16.1735 5.67361 16.604 6.47917C17.0346 7.28472 17.3123 8.15972 17.4373 9.10417L17.4998 10.1875C17.7637 10.3125 17.9686 10.5 18.1144 10.75C18.2603 11 18.3332 11.2639 18.3332 11.5417V13.4583C18.3332 13.7361 18.2603 14 18.1144 14.25C17.9686 14.5 17.7637 14.6875 17.4998 14.8125V15.8333C17.4998 16.2917 17.3366 16.684 17.0103 17.0104C16.6839 17.3368 16.2915 17.5 15.8332 17.5H9.1665ZM7.49984 11.6667C7.26373 11.6667 7.06581 11.5868 6.90609 11.4271C6.74637 11.2674 6.6665 11.0694 6.6665 10.8333C6.6665 10.5972 6.74637 10.3993 6.90609 10.2396C7.06581 10.0799 7.26373 10 7.49984 10C7.73595 10 7.93387 10.0799 8.09359 10.2396C8.25331 10.3993 8.33317 10.5972 8.33317 10.8333C8.33317 11.0694 8.25331 11.2674 8.09359 11.4271C7.93387 11.5868 7.73595 11.6667 7.49984 11.6667ZM12.4998 11.6667C12.2637 11.6667 12.0658 11.5868 11.9061 11.4271C11.7464 11.2674 11.6665 11.0694 11.6665 10.8333C11.6665 10.5972 11.7464 10.3993 11.9061 10.2396C12.0658 10.0799 12.2637 10 12.4998 10C12.7359 10 12.9339 10.0799 13.0936 10.2396C13.2533 10.3993 13.3332 10.5972 13.3332 10.8333C13.3332 11.0694 13.2533 11.2674 13.0936 11.4271C12.9339 11.5868 12.7359 11.6667 12.4998 11.6667ZM5.02067 10.375C4.92345 8.90278 5.36789 7.63889 6.354 6.58333C7.34012 5.52778 8.56928 5 10.0415 5C11.2776 5 12.3644 5.39236 13.3019 6.17708C14.2394 6.96181 14.8054 7.96528 14.9998 9.1875C13.7359 9.17361 12.5728 8.83333 11.5103 8.16667C10.4478 7.5 9.63178 6.59722 9.06234 5.45833C8.84012 6.56944 8.37137 7.55903 7.65609 8.42708C6.94081 9.29514 6.06234 9.94444 5.02067 10.375Z" fill="#570000"/>
</g>
</svg>
