<svg width="36" height="36" viewBox="0 0 36 36" fill="none" xmlns="http://www.w3.org/2000/svg">
<mask id="mask0_1268_5697" style="mask-type:alpha" maskUnits="userSpaceOnUse" x="0" y="0" width="36" height="36">
<rect width="36" height="36" fill="#D9D9D9"/>
</mask>
<g mask="url(#mask0_1268_5697)">
<path d="M6 28.5V25.5H9V15C9 12.925 9.625 11.0813 10.875 9.46875C12.125 7.85625 13.75 6.8 15.75 6.3V5.25C15.75 4.625 15.9687 4.09375 16.4062 3.65625C16.8438 3.21875 17.375 3 18 3C18.625 3 19.1562 3.21875 19.5938 3.65625C20.0313 4.09375 20.25 4.625 20.25 5.25V6.3C22.25 6.8 23.875 7.85625 25.125 9.46875C26.375 11.0813 27 12.925 27 15V25.5H30V28.5H6ZM18 33C17.175 33 16.4688 32.7063 15.8813 32.1188C15.2938 31.5313 15 30.825 15 30H21C21 30.825 20.7063 31.5313 20.1188 32.1188C19.5313 32.7063 18.825 33 18 33Z" fill="#570000"/>
</g>
</svg>
