<svg width="136" height="32" viewBox="0 0 136 32" fill="none" xmlns="http://www.w3.org/2000/svg">
<path d="M18.0392 17.9789C18.258 18.0883 17.4009 18.4896 17.1638 18.4713C17.4702 18.7777 18.0209 18.526 18.258 18.3619C18.5644 18.7412 18.9693 18.5929 19.1334 18.4713C18.5863 18.526 18.2033 18.0336 18.3127 17.9789C18.4222 17.9242 19.1401 17.6027 18.9146 17.3771C18.8051 17.2677 17.7215 17.2984 17.6015 17.3224C17.3279 17.3771 17.4191 17.5595 17.5468 17.6507C17.5468 17.6507 17.8203 17.8695 18.0392 17.9789Z" fill="#850000"/>
<path d="M16.3431 16.064C16.3431 15.4513 14.8477 14.6051 14.1 14.2586C14.5377 16.0093 15.6684 16.1552 16.179 16.0093C16.2228 16.0969 16.3067 16.0823 16.3431 16.064Z" fill="#850000"/>
<path d="M19.9541 16.1187C19.9541 15.506 21.4495 14.6598 22.1972 14.3133C21.7595 16.064 20.6288 16.2099 20.1182 16.064C20.0744 16.1516 19.9905 16.137 19.9541 16.1187Z" fill="#850000"/>
<path d="M8.35532 27.8816C8.5304 29.8074 7.62584 31.3102 7.15168 31.8208C10.6532 32.8275 14.3188 29.2494 13.8264 29.5777C13.334 29.9059 9.85076 28.5199 8.35532 27.8816Z" fill="#850000"/>
<path d="M22.885 30.248C31.0106 29.8595 37.1299 26.7105 38.2897 17.3015C39.3097 9.0268 31.4213 1.33927 20.8706 0.154528C10.32 -1.03021 1.01281 4.72592 0.0824502 13.0112C-0.738021 20.3179 4.62061 28.0728 13.6719 29.8029C13.5928 29.7344 13.6186 29.6752 13.7717 29.6324C14.0697 29.5489 13.9359 29.0668 13.8812 28.9208C11.8241 25.3756 12.5864 22.3008 13.2247 21.2066C13.8374 20.4625 13.6624 20.24 13.4982 20.2218C13.4372 20.2174 13.3685 20.2145 13.2935 20.2112C12.4277 20.1738 10.7234 20.1001 10.2703 17.4315C9.87635 15.1118 11.3827 12.5987 12.1852 11.6321C11.5833 10.8115 12.1305 8.89659 12.5134 8.56833C12.8198 8.30571 13.0788 8.4589 13.17 8.56833C13.345 9.09355 14.483 9.84492 15.0301 10.1549C18.5806 9.41887 20.1436 9.84786 20.9124 10.0589C21.115 10.1145 21.2625 10.1549 21.3766 10.1549C21.8143 10.1549 22.6167 9.35252 22.9633 8.9513C23.1383 8.38231 23.4739 8.34948 23.6198 8.40419C24.6702 9.41088 24.4587 11.0486 24.2216 11.7416C24.6155 12.1355 25.0787 12.8905 25.2611 13.2188C25.8629 13.9847 26.5195 17.5957 25.48 19.1276C24.6616 20.3336 23.504 20.251 22.9952 20.2147C22.8578 20.2049 22.7677 20.1985 22.7444 20.2218C22.6569 20.3093 22.7079 20.4042 22.7444 20.4406C23.576 21.4473 23.8204 22.6473 23.8386 23.1215C24.145 25.1786 23.1639 27.6625 22.635 28.6473C22.8478 28.564 23.0433 28.4917 23.2265 28.424C24.1263 28.0913 24.7257 27.8697 25.5894 27.006C26.4798 26.1156 25.7646 24.4224 25.3348 23.4049C25.2628 23.2344 25.1988 23.0829 25.1517 22.9573C24.8234 22.082 25.4252 19.8935 27.176 19.3464C28.9268 18.7993 30.8963 20.1124 31.2793 20.6595C31.6623 21.2066 31.0058 21.9178 30.4039 21.6443C30.2338 21.5669 30.068 21.4459 29.8881 21.3145C29.4316 20.981 28.8838 20.581 27.942 20.6595C26.6289 20.7689 26.41 21.9725 26.5195 22.6838C26.5608 22.9527 26.6413 23.0652 26.7431 23.2075C26.9107 23.4417 27.136 23.7567 27.3401 24.9817C27.8872 27.7715 25.5383 28.9462 24.1675 29.6318L24.1669 29.6321C23.5819 29.9246 23.1794 30.1188 22.885 30.248Z" fill="#850000"/>
<path d="M45.1005 6.47V17H42.5355V6.47H45.1005ZM52.3593 8.54C53.3393 8.54 54.1193 8.86 54.6993 9.5C55.2893 10.13 55.5843 11 55.5843 12.11V17H53.0343V12.455C53.0343 11.895 52.8893 11.46 52.5993 11.15C52.3093 10.84 51.9193 10.685 51.4293 10.685C50.9393 10.685 50.5493 10.84 50.2593 11.15C49.9693 11.46 49.8243 11.895 49.8243 12.455V17H47.2593V8.63H49.8243V9.74C50.0843 9.37 50.4343 9.08 50.8743 8.87C51.3143 8.65 51.8093 8.54 52.3593 8.54ZM57.1567 12.815C57.1567 11.945 57.3317 11.185 57.6817 10.535C58.0417 9.885 58.5367 9.385 59.1667 9.035C59.8067 8.685 60.5367 8.51 61.3567 8.51C62.4067 8.51 63.2817 8.785 63.9817 9.335C64.6917 9.885 65.1567 10.66 65.3767 11.66H62.6467C62.4167 11.02 61.9717 10.7 61.3117 10.7C60.8417 10.7 60.4667 10.885 60.1867 11.255C59.9067 11.615 59.7667 12.135 59.7667 12.815C59.7667 13.495 59.9067 14.02 60.1867 14.39C60.4667 14.75 60.8417 14.93 61.3117 14.93C61.9717 14.93 62.4167 14.61 62.6467 13.97H65.3767C65.1567 14.95 64.6917 15.72 63.9817 16.28C63.2717 16.84 62.3967 17.12 61.3567 17.12C60.5367 17.12 59.8067 16.945 59.1667 16.595C58.5367 16.245 58.0417 15.745 57.6817 15.095C57.3317 14.445 57.1567 13.685 57.1567 12.815ZM70.8587 17.12C70.0387 17.12 69.2987 16.945 68.6387 16.595C67.9887 16.245 67.4737 15.745 67.0937 15.095C66.7237 14.445 66.5387 13.685 66.5387 12.815C66.5387 11.955 66.7287 11.2 67.1087 10.55C67.4887 9.89 68.0087 9.385 68.6687 9.035C69.3287 8.685 70.0687 8.51 70.8887 8.51C71.7087 8.51 72.4487 8.685 73.1087 9.035C73.7687 9.385 74.2887 9.89 74.6688 10.55C75.0488 11.2 75.2388 11.955 75.2388 12.815C75.2388 13.675 75.0438 14.435 74.6537 15.095C74.2737 15.745 73.7487 16.245 73.0787 16.595C72.4188 16.945 71.6788 17.12 70.8587 17.12ZM70.8587 14.9C71.3487 14.9 71.7637 14.72 72.1037 14.36C72.4537 14 72.6287 13.485 72.6287 12.815C72.6287 12.145 72.4587 11.63 72.1187 11.27C71.7887 10.91 71.3787 10.73 70.8887 10.73C70.3887 10.73 69.9737 10.91 69.6437 11.27C69.3137 11.62 69.1487 12.135 69.1487 12.815C69.1487 13.485 69.3087 14 69.6287 14.36C69.9587 14.72 70.3687 14.9 70.8587 14.9ZM80.0795 8.51C80.6695 8.51 81.1845 8.63 81.6245 8.87C82.0745 9.11 82.4195 9.425 82.6595 9.815V8.63H85.2245V16.985C85.2245 17.755 85.0695 18.45 84.7595 19.07C84.4595 19.7 83.9945 20.2 83.3645 20.57C82.7445 20.94 81.9695 21.125 81.0395 21.125C79.7995 21.125 78.7945 20.83 78.0245 20.24C77.2545 19.66 76.8145 18.87 76.7045 17.87H79.2395C79.3195 18.19 79.5095 18.44 79.8095 18.62C80.1095 18.81 80.4795 18.905 80.9195 18.905C81.4495 18.905 81.8695 18.75 82.1795 18.44C82.4995 18.14 82.6595 17.655 82.6595 16.985V15.8C82.4095 16.19 82.0645 16.51 81.6245 16.76C81.1845 17 80.6695 17.12 80.0795 17.12C79.3895 17.12 78.7645 16.945 78.2045 16.595C77.6445 16.235 77.1995 15.73 76.8695 15.08C76.5495 14.42 76.3895 13.66 76.3895 12.8C76.3895 11.94 76.5495 11.185 76.8695 10.535C77.1995 9.885 77.6445 9.385 78.2045 9.035C78.7645 8.685 79.3895 8.51 80.0795 8.51ZM82.6595 12.815C82.6595 12.175 82.4795 11.67 82.1195 11.3C81.7695 10.93 81.3395 10.745 80.8295 10.745C80.3195 10.745 79.8845 10.93 79.5245 11.3C79.1745 11.66 78.9995 12.16 78.9995 12.8C78.9995 13.44 79.1745 13.95 79.5245 14.33C79.8845 14.7 80.3195 14.885 80.8295 14.885C81.3395 14.885 81.7695 14.7 82.1195 14.33C82.4795 13.96 82.6595 13.455 82.6595 12.815ZM92.4802 8.54C93.4602 8.54 94.2402 8.86 94.8202 9.5C95.4102 10.13 95.7052 11 95.7052 12.11V17H93.1552V12.455C93.1552 11.895 93.0102 11.46 92.7202 11.15C92.4302 10.84 92.0402 10.685 91.5502 10.685C91.0602 10.685 90.6702 10.84 90.3802 11.15C90.0902 11.46 89.9452 11.895 89.9452 12.455V17H87.3802V8.63H89.9452V9.74C90.2052 9.37 90.5552 9.08 90.9952 8.87C91.4352 8.65 91.9302 8.54 92.4802 8.54ZM99.0776 7.76C98.6276 7.76 98.2576 7.63 97.9676 7.37C97.6876 7.1 97.5476 6.77 97.5476 6.38C97.5476 5.98 97.6876 5.65 97.9676 5.39C98.2576 5.12 98.6276 4.985 99.0776 4.985C99.5176 4.985 99.8776 5.12 100.158 5.39C100.448 5.65 100.593 5.98 100.593 6.38C100.593 6.77 100.448 7.1 100.158 7.37C99.8776 7.63 99.5176 7.76 99.0776 7.76ZM100.353 8.63V17H97.7876V8.63H100.353ZM110.086 6.47V8.525H107.296V17H104.731V8.525H101.941V6.47H110.086ZM111.164 12.8C111.164 11.94 111.324 11.185 111.644 10.535C111.974 9.885 112.419 9.385 112.979 9.035C113.539 8.685 114.164 8.51 114.854 8.51C115.444 8.51 115.959 8.63 116.399 8.87C116.849 9.11 117.194 9.425 117.434 9.815V8.63H119.999V17H117.434V15.815C117.184 16.205 116.834 16.52 116.384 16.76C115.944 17 115.429 17.12 114.839 17.12C114.159 17.12 113.539 16.945 112.979 16.595C112.419 16.235 111.974 15.73 111.644 15.08C111.324 14.42 111.164 13.66 111.164 12.8ZM117.434 12.815C117.434 12.175 117.254 11.67 116.894 11.3C116.544 10.93 116.114 10.745 115.604 10.745C115.094 10.745 114.659 10.93 114.299 11.3C113.949 11.66 113.774 12.16 113.774 12.8C113.774 13.44 113.949 13.95 114.299 14.33C114.659 14.7 115.094 14.885 115.604 14.885C116.114 14.885 116.544 14.7 116.894 14.33C117.254 13.96 117.434 13.455 117.434 12.815ZM124.719 5.9V17H122.154V5.9H124.719ZM131.993 17L129.443 13.49V17H126.878V5.9H129.443V12.035L131.978 8.63H135.143L131.663 12.83L135.173 17H131.993Z" fill="black"/>
<path d="M41.8455 26.25C41.8455 25.9067 41.9205 25.6 42.0705 25.33C42.2205 25.0567 42.4255 24.845 42.6855 24.695C42.9455 24.5417 43.2355 24.465 43.5555 24.465C43.9455 24.465 44.2788 24.5583 44.5555 24.745C44.8355 24.9283 45.0388 25.1883 45.1655 25.525H44.7555C44.6555 25.2883 44.5021 25.1033 44.2955 24.97C44.0921 24.8367 43.8455 24.77 43.5555 24.77C43.2988 24.77 43.0671 24.83 42.8605 24.95C42.6571 25.07 42.4971 25.2433 42.3805 25.47C42.2638 25.6933 42.2055 25.9533 42.2055 26.25C42.2055 26.5467 42.2638 26.8067 42.3805 27.03C42.4971 27.2533 42.6571 27.425 42.8605 27.545C43.0671 27.665 43.2988 27.725 43.5555 27.725C43.8455 27.725 44.0921 27.66 44.2955 27.53C44.5021 27.3967 44.6555 27.2133 44.7555 26.98H45.1655C45.0388 27.3133 44.8355 27.5717 44.5555 27.755C44.2755 27.9383 43.9421 28.03 43.5555 28.03C43.2355 28.03 42.9455 27.955 42.6855 27.805C42.4255 27.6517 42.2205 27.44 42.0705 27.17C41.9205 26.9 41.8455 26.5933 41.8455 26.25ZM47.1079 28.04C46.8512 28.04 46.6196 27.9833 46.4129 27.87C46.2096 27.7533 46.0479 27.59 45.9279 27.38C45.8112 27.1667 45.7529 26.9183 45.7529 26.635C45.7529 26.3517 45.8129 26.105 45.9329 25.895C46.0529 25.6817 46.2162 25.5183 46.4229 25.405C46.6296 25.2883 46.8612 25.23 47.1179 25.23C47.3746 25.23 47.6062 25.2883 47.8129 25.405C48.0229 25.5183 48.1862 25.6817 48.3029 25.895C48.4229 26.105 48.4829 26.3517 48.4829 26.635C48.4829 26.915 48.4229 27.1617 48.3029 27.375C48.1829 27.5883 48.0179 27.7533 47.8079 27.87C47.5979 27.9833 47.3646 28.04 47.1079 28.04ZM47.1079 27.735C47.2879 27.735 47.4546 27.695 47.6079 27.615C47.7612 27.5317 47.8846 27.4083 47.9779 27.245C48.0746 27.0783 48.1229 26.875 48.1229 26.635C48.1229 26.395 48.0762 26.1933 47.9829 26.03C47.8896 25.8633 47.7662 25.74 47.6129 25.66C47.4596 25.5767 47.2929 25.535 47.1129 25.535C46.9329 25.535 46.7662 25.5767 46.6129 25.66C46.4596 25.74 46.3362 25.8633 46.2429 26.03C46.1529 26.1933 46.1079 26.395 46.1079 26.635C46.1079 26.875 46.1529 27.0783 46.2429 27.245C46.3362 27.4083 46.4579 27.5317 46.6079 27.615C46.7612 27.695 46.9279 27.735 47.1079 27.735ZM50.4509 25.22C50.7776 25.22 51.0442 25.3217 51.2509 25.525C51.4576 25.725 51.5609 26.0167 51.5609 26.4V28H51.2159V26.44C51.2159 26.1433 51.1409 25.9167 50.9909 25.76C50.8442 25.6033 50.6426 25.525 50.3859 25.525C50.1226 25.525 49.9126 25.6083 49.7559 25.775C49.5992 25.9417 49.5209 26.1867 49.5209 26.51V28H49.1709V25.27H49.5209V25.735C49.6076 25.5683 49.7326 25.4417 49.8959 25.355C50.0592 25.265 50.2442 25.22 50.4509 25.22ZM53.665 25.22C53.9916 25.22 54.2583 25.3217 54.465 25.525C54.6716 25.725 54.775 26.0167 54.775 26.4V28H54.43V26.44C54.43 26.1433 54.355 25.9167 54.205 25.76C54.0583 25.6033 53.8566 25.525 53.6 25.525C53.3366 25.525 53.1266 25.6083 52.97 25.775C52.8133 25.9417 52.735 26.1867 52.735 26.51V28H52.385V25.27H52.735V25.735C52.8216 25.5683 52.9466 25.4417 53.11 25.355C53.2733 25.265 53.4583 25.22 53.665 25.22ZM58.069 26.495C58.069 26.615 58.0657 26.7067 58.059 26.77H55.794C55.804 26.9767 55.854 27.1533 55.944 27.3C56.034 27.4467 56.1524 27.5583 56.299 27.635C56.4457 27.7083 56.6057 27.745 56.779 27.745C57.0057 27.745 57.1957 27.69 57.349 27.58C57.5057 27.47 57.609 27.3217 57.659 27.135H58.029C57.9624 27.4017 57.819 27.62 57.599 27.79C57.3824 27.9567 57.109 28.04 56.779 28.04C56.5224 28.04 56.2924 27.9833 56.089 27.87C55.8857 27.7533 55.7257 27.59 55.609 27.38C55.4957 27.1667 55.439 26.9183 55.439 26.635C55.439 26.3517 55.4957 26.1033 55.609 25.89C55.7224 25.6767 55.8807 25.5133 56.084 25.4C56.2874 25.2867 56.519 25.23 56.779 25.23C57.039 25.23 57.2657 25.2867 57.459 25.4C57.6557 25.5133 57.8057 25.6667 57.909 25.86C58.0157 26.05 58.069 26.2617 58.069 26.495ZM57.714 26.485C57.7174 26.2817 57.6757 26.1083 57.589 25.965C57.5057 25.8217 57.3907 25.7133 57.244 25.64C57.0974 25.5667 56.9374 25.53 56.764 25.53C56.504 25.53 56.2824 25.6133 56.099 25.78C55.9157 25.9467 55.814 26.1817 55.794 26.485H57.714ZM58.5994 26.635C58.5994 26.3517 58.656 26.105 58.7694 25.895C58.8827 25.6817 59.0394 25.5183 59.2394 25.405C59.4394 25.2883 59.6677 25.23 59.9244 25.23C60.261 25.23 60.5377 25.3133 60.7544 25.48C60.9744 25.6467 61.116 25.8733 61.1794 26.16H60.8044C60.7577 25.9633 60.656 25.81 60.4994 25.7C60.346 25.5867 60.1544 25.53 59.9244 25.53C59.741 25.53 59.576 25.5717 59.4294 25.655C59.2827 25.7383 59.166 25.8633 59.0794 26.03C58.996 26.1933 58.9544 26.395 58.9544 26.635C58.9544 26.875 58.996 27.0783 59.0794 27.245C59.166 27.4117 59.2827 27.5367 59.4294 27.62C59.576 27.7033 59.741 27.745 59.9244 27.745C60.1544 27.745 60.346 27.69 60.4994 27.58C60.656 27.4667 60.7577 27.31 60.8044 27.11H61.1794C61.116 27.39 60.9744 27.615 60.7544 27.785C60.5344 27.955 60.2577 28.04 59.9244 28.04C59.6677 28.04 59.4394 27.9833 59.2394 27.87C59.0394 27.7533 58.8827 27.59 58.7694 27.38C58.656 27.1667 58.5994 26.9183 58.5994 26.635ZM62.3308 25.565V27.26C62.3308 27.4267 62.3624 27.5417 62.4258 27.605C62.4891 27.6683 62.6008 27.7 62.7608 27.7H63.0808V28H62.7058C62.4591 28 62.2758 27.9433 62.1558 27.83C62.0358 27.7133 61.9758 27.5233 61.9758 27.26V25.565H61.5958V25.27H61.9758V24.585H62.3308V25.27H63.0808V25.565H62.3308ZM63.883 24.755C63.813 24.755 63.753 24.73 63.703 24.68C63.653 24.63 63.628 24.5683 63.628 24.495C63.628 24.4217 63.653 24.3617 63.703 24.315C63.753 24.265 63.813 24.24 63.883 24.24C63.953 24.24 64.013 24.265 64.063 24.315C64.113 24.3617 64.138 24.4217 64.138 24.495C64.138 24.5683 64.113 24.63 64.063 24.68C64.013 24.73 63.953 24.755 63.883 24.755ZM64.058 25.27V28H63.708V25.27H64.058ZM66.1806 25.22C66.5073 25.22 66.7739 25.3217 66.9806 25.525C67.1873 25.725 67.2906 26.0167 67.2906 26.4V28H66.9456V26.44C66.9456 26.1433 66.8706 25.9167 66.7206 25.76C66.5739 25.6033 66.3723 25.525 66.1156 25.525C65.8523 25.525 65.6423 25.6083 65.4856 25.775C65.3289 25.9417 65.2506 26.1867 65.2506 26.51V28H64.9006V25.27H65.2506V25.735C65.3373 25.5683 65.4623 25.4417 65.6256 25.355C65.7889 25.265 65.9739 25.22 66.1806 25.22ZM69.2596 25.23C69.5163 25.23 69.7396 25.29 69.9296 25.41C70.1196 25.53 70.2563 25.6817 70.3396 25.865V25.27H70.6896V28.07C70.6896 28.32 70.6346 28.5417 70.5246 28.735C70.418 28.9283 70.268 29.0767 70.0746 29.18C69.8813 29.2867 69.6613 29.34 69.4146 29.34C69.0646 29.34 68.773 29.2567 68.5396 29.09C68.3096 28.9233 68.1663 28.6967 68.1096 28.41H68.4546C68.5146 28.6 68.628 28.7517 68.7946 28.865C68.9646 28.9783 69.1713 29.035 69.4146 29.035C69.5913 29.035 69.7496 28.9967 69.8896 28.92C70.0296 28.8467 70.1396 28.7367 70.2196 28.59C70.2996 28.4433 70.3396 28.27 70.3396 28.07V27.395C70.253 27.5817 70.1146 27.7367 69.9246 27.86C69.738 27.98 69.5163 28.04 69.2596 28.04C69.0096 28.04 68.7846 27.9817 68.5846 27.865C68.388 27.7483 68.233 27.5833 68.1196 27.37C68.0096 27.1567 67.9546 26.91 67.9546 26.63C67.9546 26.35 68.0096 26.105 68.1196 25.895C68.233 25.6817 68.388 25.5183 68.5846 25.405C68.7846 25.2883 69.0096 25.23 69.2596 25.23ZM70.3396 26.635C70.3396 26.415 70.2946 26.2217 70.2046 26.055C70.1146 25.8883 69.9913 25.76 69.8346 25.67C69.6813 25.58 69.5113 25.535 69.3246 25.535C69.1313 25.535 68.958 25.5783 68.8046 25.665C68.6513 25.7517 68.5296 25.8783 68.4396 26.045C68.353 26.2083 68.3096 26.4033 68.3096 26.63C68.3096 26.8533 68.353 27.05 68.4396 27.22C68.5296 27.3867 68.6513 27.515 68.8046 27.605C68.958 27.6917 69.1313 27.735 69.3246 27.735C69.5113 27.735 69.6813 27.69 69.8346 27.6C69.9913 27.51 70.1146 27.3817 70.2046 27.215C70.2946 27.0483 70.3396 26.855 70.3396 26.635ZM76.2107 25.22C76.5307 25.22 76.7907 25.3217 76.9907 25.525C77.1941 25.725 77.2957 26.0167 77.2957 26.4V28H76.9507V26.44C76.9507 26.1433 76.8791 25.9167 76.7357 25.76C76.5924 25.6033 76.3974 25.525 76.1507 25.525C75.8941 25.525 75.6891 25.61 75.5357 25.78C75.3824 25.95 75.3057 26.1967 75.3057 26.52V28H74.9607V26.44C74.9607 26.1433 74.8891 25.9167 74.7457 25.76C74.6024 25.6033 74.4057 25.525 74.1557 25.525C73.8991 25.525 73.6941 25.61 73.5407 25.78C73.3874 25.95 73.3107 26.1967 73.3107 26.52V28H72.9607V25.27H73.3107V25.74C73.3974 25.57 73.5207 25.4417 73.6807 25.355C73.8407 25.265 74.0191 25.22 74.2157 25.22C74.4524 25.22 74.6591 25.2767 74.8357 25.39C75.0157 25.5033 75.1457 25.67 75.2257 25.89C75.2991 25.6733 75.4241 25.5083 75.6007 25.395C75.7807 25.2783 75.9841 25.22 76.2107 25.22ZM78.298 24.755C78.228 24.755 78.168 24.73 78.118 24.68C78.068 24.63 78.043 24.5683 78.043 24.495C78.043 24.4217 78.068 24.3617 78.118 24.315C78.168 24.265 78.228 24.24 78.298 24.24C78.368 24.24 78.428 24.265 78.478 24.315C78.528 24.3617 78.553 24.4217 78.553 24.495C78.553 24.5683 78.528 24.63 78.478 24.68C78.428 24.73 78.368 24.755 78.298 24.755ZM78.473 25.27V28H78.123V25.27H78.473ZM80.5956 25.22C80.9223 25.22 81.189 25.3217 81.3956 25.525C81.6023 25.725 81.7056 26.0167 81.7056 26.4V28H81.3606V26.44C81.3606 26.1433 81.2856 25.9167 81.1356 25.76C80.989 25.6033 80.7873 25.525 80.5306 25.525C80.2673 25.525 80.0573 25.6083 79.9006 25.775C79.744 25.9417 79.6656 26.1867 79.6656 26.51V28H79.3156V25.27H79.6656V25.735C79.7523 25.5683 79.8773 25.4417 80.0406 25.355C80.204 25.265 80.389 25.22 80.5956 25.22ZM82.3697 26.63C82.3697 26.35 82.4264 26.105 82.5397 25.895C82.653 25.6817 82.808 25.5183 83.0047 25.405C83.2047 25.2883 83.4297 25.23 83.6797 25.23C83.9197 25.23 84.1364 25.2883 84.3297 25.405C84.523 25.5217 84.6647 25.6733 84.7547 25.86V24.3H85.1047V28H84.7547V27.39C84.6714 27.58 84.5347 27.7367 84.3447 27.86C84.1547 27.98 83.9314 28.04 83.6747 28.04C83.4247 28.04 83.1997 27.9817 82.9997 27.865C82.803 27.7483 82.648 27.5833 82.5347 27.37C82.4247 27.1567 82.3697 26.91 82.3697 26.63ZM84.7547 26.635C84.7547 26.415 84.7097 26.2217 84.6197 26.055C84.5297 25.8883 84.4064 25.76 84.2497 25.67C84.0964 25.58 83.9264 25.535 83.7397 25.535C83.5464 25.535 83.373 25.5783 83.2197 25.665C83.0664 25.7517 82.9447 25.8783 82.8547 26.045C82.768 26.2083 82.7247 26.4033 82.7247 26.63C82.7247 26.8533 82.768 27.05 82.8547 27.22C82.9447 27.3867 83.0664 27.515 83.2197 27.605C83.373 27.6917 83.5464 27.735 83.7397 27.735C83.9264 27.735 84.0964 27.69 84.2497 27.6C84.4064 27.51 84.5297 27.3817 84.6197 27.215C84.7097 27.0483 84.7547 26.855 84.7547 26.635ZM86.8937 28.04C86.5804 28.04 86.3237 27.9683 86.1237 27.825C85.927 27.6783 85.817 27.48 85.7937 27.23H86.1537C86.1704 27.3833 86.242 27.5083 86.3687 27.605C86.4987 27.6983 86.672 27.745 86.8887 27.745C87.0787 27.745 87.227 27.7 87.3337 27.61C87.4437 27.52 87.4987 27.4083 87.4987 27.275C87.4987 27.1817 87.4687 27.105 87.4087 27.045C87.3487 26.985 87.272 26.9383 87.1787 26.905C87.0887 26.8683 86.9654 26.83 86.8087 26.79C86.6054 26.7367 86.4404 26.6833 86.3137 26.63C86.187 26.5767 86.0787 26.4983 85.9887 26.395C85.902 26.2883 85.8587 26.1467 85.8587 25.97C85.8587 25.8367 85.8987 25.7133 85.9787 25.6C86.0587 25.4867 86.172 25.3967 86.3187 25.33C86.4654 25.2633 86.632 25.23 86.8187 25.23C87.112 25.23 87.3487 25.305 87.5287 25.455C87.7087 25.6017 87.8054 25.805 87.8187 26.065H87.4687C87.4587 25.905 87.3954 25.7767 87.2787 25.68C87.1654 25.58 87.0087 25.53 86.8087 25.53C86.632 25.53 86.4887 25.5717 86.3787 25.655C86.2687 25.7383 86.2137 25.8417 86.2137 25.965C86.2137 26.0717 86.2454 26.16 86.3087 26.23C86.3754 26.2967 86.457 26.35 86.5537 26.39C86.6504 26.4267 86.7804 26.4683 86.9437 26.515C87.1404 26.5683 87.297 26.62 87.4137 26.67C87.5304 26.72 87.6304 26.7933 87.7137 26.89C87.797 26.9867 87.8404 27.115 87.8437 27.275C87.8437 27.4217 87.8037 27.5533 87.7237 27.67C87.6437 27.7833 87.532 27.8733 87.3887 27.94C87.2454 28.0067 87.0804 28.04 86.8937 28.04ZM88.8725 27.42L88.3525 28.73H88.1125L88.4825 27.42H88.8725ZM90.7289 26.635C90.7289 26.3517 90.7855 26.105 90.8989 25.895C91.0122 25.6817 91.1689 25.5183 91.3689 25.405C91.5689 25.2883 91.7972 25.23 92.0539 25.23C92.3905 25.23 92.6672 25.3133 92.8839 25.48C93.1039 25.6467 93.2455 25.8733 93.3089 26.16H92.9339C92.8872 25.9633 92.7855 25.81 92.6289 25.7C92.4755 25.5867 92.2839 25.53 92.0539 25.53C91.8705 25.53 91.7055 25.5717 91.5589 25.655C91.4122 25.7383 91.2955 25.8633 91.2089 26.03C91.1255 26.1933 91.0839 26.395 91.0839 26.635C91.0839 26.875 91.1255 27.0783 91.2089 27.245C91.2955 27.4117 91.4122 27.5367 91.5589 27.62C91.7055 27.7033 91.8705 27.745 92.0539 27.745C92.2839 27.745 92.4755 27.69 92.6289 27.58C92.7855 27.4667 92.8872 27.31 92.9339 27.11H93.3089C93.2455 27.39 93.1039 27.615 92.8839 27.785C92.6639 27.955 92.3872 28.04 92.0539 28.04C91.7972 28.04 91.5689 27.9833 91.3689 27.87C91.1689 27.7533 91.0122 27.59 90.8989 27.38C90.7855 27.1667 90.7289 26.9183 90.7289 26.635ZM95.2003 28.04C94.9436 28.04 94.7119 27.9833 94.5053 27.87C94.3019 27.7533 94.1403 27.59 94.0203 27.38C93.9036 27.1667 93.8453 26.9183 93.8453 26.635C93.8453 26.3517 93.9053 26.105 94.0253 25.895C94.1453 25.6817 94.3086 25.5183 94.5153 25.405C94.7219 25.2883 94.9536 25.23 95.2103 25.23C95.4669 25.23 95.6986 25.2883 95.9053 25.405C96.1153 25.5183 96.2786 25.6817 96.3953 25.895C96.5153 26.105 96.5753 26.3517 96.5753 26.635C96.5753 26.915 96.5153 27.1617 96.3953 27.375C96.2753 27.5883 96.1103 27.7533 95.9003 27.87C95.6903 27.9833 95.4569 28.04 95.2003 28.04ZM95.2003 27.735C95.3803 27.735 95.5469 27.695 95.7003 27.615C95.8536 27.5317 95.9769 27.4083 96.0703 27.245C96.1669 27.0783 96.2153 26.875 96.2153 26.635C96.2153 26.395 96.1686 26.1933 96.0753 26.03C95.9819 25.8633 95.8586 25.74 95.7053 25.66C95.5519 25.5767 95.3853 25.535 95.2053 25.535C95.0253 25.535 94.8586 25.5767 94.7053 25.66C94.5519 25.74 94.4286 25.8633 94.3353 26.03C94.2453 26.1933 94.2003 26.395 94.2003 26.635C94.2003 26.875 94.2453 27.0783 94.3353 27.245C94.4286 27.4083 94.5503 27.5317 94.7003 27.615C94.8536 27.695 95.0203 27.735 95.2003 27.735ZM98.5433 25.22C98.8699 25.22 99.1366 25.3217 99.3433 25.525C99.5499 25.725 99.6533 26.0167 99.6533 26.4V28H99.3083V26.44C99.3083 26.1433 99.2333 25.9167 99.0833 25.76C98.9366 25.6033 98.7349 25.525 98.4783 25.525C98.2149 25.525 98.0049 25.6083 97.8483 25.775C97.6916 25.9417 97.6133 26.1867 97.6133 26.51V28H97.2633V25.27H97.6133V25.735C97.6999 25.5683 97.8249 25.4417 97.9883 25.355C98.1516 25.265 98.3366 25.22 98.5433 25.22ZM100.317 26.635C100.317 26.3517 100.374 26.105 100.487 25.895C100.601 25.6817 100.757 25.5183 100.957 25.405C101.157 25.2883 101.386 25.23 101.642 25.23C101.979 25.23 102.256 25.3133 102.472 25.48C102.692 25.6467 102.834 25.8733 102.897 26.16H102.522C102.476 25.9633 102.374 25.81 102.217 25.7C102.064 25.5867 101.872 25.53 101.642 25.53C101.459 25.53 101.294 25.5717 101.147 25.655C101.001 25.7383 100.884 25.8633 100.797 26.03C100.714 26.1933 100.672 26.395 100.672 26.635C100.672 26.875 100.714 27.0783 100.797 27.245C100.884 27.4117 101.001 27.5367 101.147 27.62C101.294 27.7033 101.459 27.745 101.642 27.745C101.872 27.745 102.064 27.69 102.217 27.58C102.374 27.4667 102.476 27.31 102.522 27.11H102.897C102.834 27.39 102.692 27.615 102.472 27.785C102.252 27.955 101.976 28.04 101.642 28.04C101.386 28.04 101.157 27.9833 100.957 27.87C100.757 27.7533 100.601 27.59 100.487 27.38C100.374 27.1667 100.317 26.9183 100.317 26.635ZM106.064 26.495C106.064 26.615 106.06 26.7067 106.054 26.77H103.789C103.799 26.9767 103.849 27.1533 103.939 27.3C104.029 27.4467 104.147 27.5583 104.294 27.635C104.44 27.7083 104.6 27.745 104.774 27.745C105 27.745 105.19 27.69 105.344 27.58C105.5 27.47 105.604 27.3217 105.654 27.135H106.024C105.957 27.4017 105.814 27.62 105.594 27.79C105.377 27.9567 105.104 28.04 104.774 28.04C104.517 28.04 104.287 27.9833 104.084 27.87C103.88 27.7533 103.72 27.59 103.604 27.38C103.49 27.1667 103.434 26.9183 103.434 26.635C103.434 26.3517 103.49 26.1033 103.604 25.89C103.717 25.6767 103.875 25.5133 104.079 25.4C104.282 25.2867 104.514 25.23 104.774 25.23C105.034 25.23 105.26 25.2867 105.454 25.4C105.65 25.5133 105.8 25.6667 105.904 25.86C106.01 26.05 106.064 26.2617 106.064 26.495ZM105.709 26.485C105.712 26.2817 105.67 26.1083 105.584 25.965C105.5 25.8217 105.385 25.7133 105.239 25.64C105.092 25.5667 104.932 25.53 104.759 25.53C104.499 25.53 104.277 25.6133 104.094 25.78C103.91 25.9467 103.809 26.1817 103.789 26.485H105.709ZM106.594 26.63C106.594 26.35 106.649 26.105 106.759 25.895C106.872 25.6817 107.027 25.5183 107.224 25.405C107.424 25.2883 107.649 25.23 107.899 25.23C108.159 25.23 108.382 25.29 108.569 25.41C108.759 25.53 108.896 25.6833 108.979 25.87V25.27H109.329V28H108.979V27.395C108.892 27.5817 108.754 27.7367 108.564 27.86C108.377 27.98 108.154 28.04 107.894 28.04C107.647 28.04 107.424 27.9817 107.224 27.865C107.027 27.7483 106.872 27.5833 106.759 27.37C106.649 27.1567 106.594 26.91 106.594 26.63ZM108.979 26.635C108.979 26.415 108.934 26.2217 108.844 26.055C108.754 25.8883 108.631 25.76 108.474 25.67C108.321 25.58 108.151 25.535 107.964 25.535C107.771 25.535 107.597 25.5783 107.444 25.665C107.291 25.7517 107.169 25.8783 107.079 26.045C106.992 26.2083 106.949 26.4033 106.949 26.63C106.949 26.8533 106.992 27.05 107.079 27.22C107.169 27.3867 107.291 27.515 107.444 27.605C107.597 27.6917 107.771 27.735 107.964 27.735C108.151 27.735 108.321 27.69 108.474 27.6C108.631 27.51 108.754 27.3817 108.844 27.215C108.934 27.0483 108.979 26.855 108.979 26.635ZM110.528 24.3V28H110.178V24.3H110.528ZM111.546 24.755C111.476 24.755 111.416 24.73 111.366 24.68C111.316 24.63 111.291 24.5683 111.291 24.495C111.291 24.4217 111.316 24.3617 111.366 24.315C111.416 24.265 111.476 24.24 111.546 24.24C111.616 24.24 111.676 24.265 111.726 24.315C111.776 24.3617 111.801 24.4217 111.801 24.495C111.801 24.5683 111.776 24.63 111.726 24.68C111.676 24.73 111.616 24.755 111.546 24.755ZM111.721 25.27V28H111.371V25.27H111.721ZM113.843 25.22C114.17 25.22 114.437 25.3217 114.643 25.525C114.85 25.725 114.953 26.0167 114.953 26.4V28H114.608V26.44C114.608 26.1433 114.533 25.9167 114.383 25.76C114.237 25.6033 114.035 25.525 113.778 25.525C113.515 25.525 113.305 25.6083 113.148 25.775C112.992 25.9417 112.913 26.1867 112.913 26.51V28H112.563V25.27H112.913V25.735C113 25.5683 113.125 25.4417 113.288 25.355C113.452 25.265 113.637 25.22 113.843 25.22ZM116.922 25.23C117.179 25.23 117.402 25.29 117.592 25.41C117.782 25.53 117.919 25.6817 118.002 25.865V25.27H118.352V28.07C118.352 28.32 118.297 28.5417 118.187 28.735C118.081 28.9283 117.931 29.0767 117.737 29.18C117.544 29.2867 117.324 29.34 117.077 29.34C116.727 29.34 116.436 29.2567 116.202 29.09C115.972 28.9233 115.829 28.6967 115.772 28.41H116.117C116.177 28.6 116.291 28.7517 116.457 28.865C116.627 28.9783 116.834 29.035 117.077 29.035C117.254 29.035 117.412 28.9967 117.552 28.92C117.692 28.8467 117.802 28.7367 117.882 28.59C117.962 28.4433 118.002 28.27 118.002 28.07V27.395C117.916 27.5817 117.777 27.7367 117.587 27.86C117.401 27.98 117.179 28.04 116.922 28.04C116.672 28.04 116.447 27.9817 116.247 27.865C116.051 27.7483 115.896 27.5833 115.782 27.37C115.672 27.1567 115.617 26.91 115.617 26.63C115.617 26.35 115.672 26.105 115.782 25.895C115.896 25.6817 116.051 25.5183 116.247 25.405C116.447 25.2883 116.672 25.23 116.922 25.23ZM118.002 26.635C118.002 26.415 117.957 26.2217 117.867 26.055C117.777 25.8883 117.654 25.76 117.497 25.67C117.344 25.58 117.174 25.535 116.987 25.535C116.794 25.535 116.621 25.5783 116.467 25.665C116.314 25.7517 116.192 25.8783 116.102 26.045C116.016 26.2083 115.972 26.4033 115.972 26.63C115.972 26.8533 116.016 27.05 116.102 27.22C116.192 27.3867 116.314 27.515 116.467 27.605C116.621 27.6917 116.794 27.735 116.987 27.735C117.174 27.735 117.344 27.69 117.497 27.6C117.654 27.51 117.777 27.3817 117.867 27.215C117.957 27.0483 118.002 26.855 118.002 26.635ZM121.698 25.565H121.063V28H120.713V25.565H120.333V25.27H120.713V25.08C120.713 24.7833 120.788 24.565 120.938 24.425C121.092 24.285 121.338 24.215 121.678 24.215V24.515C121.452 24.515 121.292 24.5583 121.198 24.645C121.108 24.7317 121.063 24.8767 121.063 25.08V25.27H121.698V25.565ZM122.139 26.63C122.139 26.35 122.194 26.105 122.304 25.895C122.418 25.6817 122.573 25.5183 122.769 25.405C122.969 25.2883 123.194 25.23 123.444 25.23C123.704 25.23 123.928 25.29 124.114 25.41C124.304 25.53 124.441 25.6833 124.524 25.87V25.27H124.874V28H124.524V27.395C124.438 27.5817 124.299 27.7367 124.109 27.86C123.923 27.98 123.699 28.04 123.439 28.04C123.193 28.04 122.969 27.9817 122.769 27.865C122.573 27.7483 122.418 27.5833 122.304 27.37C122.194 27.1567 122.139 26.91 122.139 26.63ZM124.524 26.635C124.524 26.415 124.479 26.2217 124.389 26.055C124.299 25.8883 124.176 25.76 124.019 25.67C123.866 25.58 123.696 25.535 123.509 25.535C123.316 25.535 123.143 25.5783 122.989 25.665C122.836 25.7517 122.714 25.8783 122.624 26.045C122.538 26.2083 122.494 26.4033 122.494 26.63C122.494 26.8533 122.538 27.05 122.624 27.22C122.714 27.3867 122.836 27.515 122.989 27.605C123.143 27.6917 123.316 27.735 123.509 27.735C123.696 27.735 123.866 27.69 124.019 27.6C124.176 27.51 124.299 27.3817 124.389 27.215C124.479 27.0483 124.524 26.855 124.524 26.635ZM125.563 26.635C125.563 26.3517 125.62 26.105 125.733 25.895C125.847 25.6817 126.003 25.5183 126.203 25.405C126.403 25.2883 126.632 25.23 126.888 25.23C127.225 25.23 127.502 25.3133 127.718 25.48C127.938 25.6467 128.08 25.8733 128.143 26.16H127.768C127.722 25.9633 127.62 25.81 127.463 25.7C127.31 25.5867 127.118 25.53 126.888 25.53C126.705 25.53 126.54 25.5717 126.393 25.655C126.247 25.7383 126.13 25.8633 126.043 26.03C125.96 26.1933 125.918 26.395 125.918 26.635C125.918 26.875 125.96 27.0783 126.043 27.245C126.13 27.4117 126.247 27.5367 126.393 27.62C126.54 27.7033 126.705 27.745 126.888 27.745C127.118 27.745 127.31 27.69 127.463 27.58C127.62 27.4667 127.722 27.31 127.768 27.11H128.143C128.08 27.39 127.938 27.615 127.718 27.785C127.498 27.955 127.222 28.04 126.888 28.04C126.632 28.04 126.403 27.9833 126.203 27.87C126.003 27.7533 125.847 27.59 125.733 27.38C125.62 27.1667 125.563 26.9183 125.563 26.635ZM131.31 26.495C131.31 26.615 131.307 26.7067 131.3 26.77H129.035C129.045 26.9767 129.095 27.1533 129.185 27.3C129.275 27.4467 129.393 27.5583 129.54 27.635C129.687 27.7083 129.847 27.745 130.02 27.745C130.247 27.745 130.437 27.69 130.59 27.58C130.747 27.47 130.85 27.3217 130.9 27.135H131.27C131.203 27.4017 131.06 27.62 130.84 27.79C130.623 27.9567 130.35 28.04 130.02 28.04C129.763 28.04 129.533 27.9833 129.33 27.87C129.127 27.7533 128.967 27.59 128.85 27.38C128.737 27.1667 128.68 26.9183 128.68 26.635C128.68 26.3517 128.737 26.1033 128.85 25.89C128.963 25.6767 129.122 25.5133 129.325 25.4C129.528 25.2867 129.76 25.23 130.02 25.23C130.28 25.23 130.507 25.2867 130.7 25.4C130.897 25.5133 131.047 25.6667 131.15 25.86C131.257 26.05 131.31 26.2617 131.31 26.495ZM130.955 26.485C130.958 26.2817 130.917 26.1083 130.83 25.965C130.747 25.8217 130.632 25.7133 130.485 25.64C130.338 25.5667 130.178 25.53 130.005 25.53C129.745 25.53 129.523 25.6133 129.34 25.78C129.157 25.9467 129.055 26.1817 129.035 26.485H130.955ZM132.94 28.04C132.627 28.04 132.37 27.9683 132.17 27.825C131.974 27.6783 131.864 27.48 131.84 27.23H132.2C132.217 27.3833 132.289 27.5083 132.415 27.605C132.545 27.6983 132.719 27.745 132.935 27.745C133.125 27.745 133.274 27.7 133.38 27.61C133.49 27.52 133.545 27.4083 133.545 27.275C133.545 27.1817 133.515 27.105 133.455 27.045C133.395 26.985 133.319 26.9383 133.225 26.905C133.135 26.8683 133.012 26.83 132.855 26.79C132.652 26.7367 132.487 26.6833 132.36 26.63C132.234 26.5767 132.125 26.4983 132.035 26.395C131.949 26.2883 131.905 26.1467 131.905 25.97C131.905 25.8367 131.945 25.7133 132.025 25.6C132.105 25.4867 132.219 25.3967 132.365 25.33C132.512 25.2633 132.679 25.23 132.865 25.23C133.159 25.23 133.395 25.305 133.575 25.455C133.755 25.6017 133.852 25.805 133.865 26.065H133.515C133.505 25.905 133.442 25.7767 133.325 25.68C133.212 25.58 133.055 25.53 132.855 25.53C132.679 25.53 132.535 25.5717 132.425 25.655C132.315 25.7383 132.26 25.8417 132.26 25.965C132.26 26.0717 132.292 26.16 132.355 26.23C132.422 26.2967 132.504 26.35 132.6 26.39C132.697 26.4267 132.827 26.4683 132.99 26.515C133.187 26.5683 133.344 26.62 133.46 26.67C133.577 26.72 133.677 26.7933 133.76 26.89C133.844 26.9867 133.887 27.115 133.89 27.275C133.89 27.4217 133.85 27.5533 133.77 27.67C133.69 27.7833 133.579 27.8733 133.435 27.94C133.292 28.0067 133.127 28.04 132.94 28.04ZM134.659 28.025C134.586 28.025 134.524 28 134.474 27.95C134.427 27.9 134.404 27.8383 134.404 27.765C134.404 27.6917 134.427 27.6317 134.474 27.585C134.524 27.535 134.586 27.51 134.659 27.51C134.729 27.51 134.787 27.535 134.834 27.585C134.884 27.6317 134.909 27.6917 134.909 27.765C134.909 27.8383 134.884 27.9 134.834 27.95C134.787 28 134.729 28.025 134.659 28.025Z" fill="black"/>
</svg>
