<svg width="39" height="32" viewBox="0 0 39 32" fill="none" xmlns="http://www.w3.org/2000/svg">
<path d="M18.0392 17.9789C18.258 18.0883 17.4009 18.4896 17.1638 18.4713C17.4702 18.7777 18.0209 18.526 18.258 18.3619C18.5644 18.7412 18.9693 18.5929 19.1334 18.4713C18.5863 18.526 18.2033 18.0336 18.3127 17.9789C18.4222 17.9242 19.1401 17.6027 18.9146 17.3771C18.8051 17.2677 17.7215 17.2984 17.6015 17.3224C17.3279 17.3771 17.4191 17.5595 17.5468 17.6507C17.5468 17.6507 17.8203 17.8695 18.0392 17.9789Z" fill="#850000"/>
<path d="M16.3431 16.064C16.3431 15.4513 14.8477 14.6051 14.1 14.2586C14.5377 16.0093 15.6684 16.1552 16.179 16.0093C16.2228 16.0969 16.3067 16.0823 16.3431 16.064Z" fill="#850000"/>
<path d="M19.9541 16.1187C19.9541 15.506 21.4495 14.6598 22.1972 14.3133C21.7595 16.064 20.6288 16.2099 20.1182 16.064C20.0744 16.1516 19.9905 16.137 19.9541 16.1187Z" fill="#850000"/>
<path d="M8.35532 27.8816C8.5304 29.8074 7.62584 31.3102 7.15168 31.8208C10.6532 32.8275 14.3188 29.2494 13.8264 29.5777C13.334 29.9059 9.85076 28.5199 8.35532 27.8816Z" fill="#850000"/>
<path d="M22.885 30.248C31.0106 29.8595 37.1299 26.7105 38.2897 17.3015C39.3097 9.0268 31.4213 1.33927 20.8706 0.154528C10.32 -1.03021 1.01281 4.72592 0.0824502 13.0112C-0.738021 20.3179 4.62061 28.0728 13.6719 29.8029C13.5928 29.7344 13.6186 29.6752 13.7717 29.6324C14.0697 29.5489 13.9359 29.0668 13.8812 28.9208C11.8241 25.3756 12.5864 22.3008 13.2247 21.2066C13.8374 20.4625 13.6624 20.24 13.4982 20.2218C13.4372 20.2174 13.3685 20.2145 13.2935 20.2112C12.4277 20.1738 10.7234 20.1001 10.2703 17.4315C9.87635 15.1118 11.3827 12.5987 12.1852 11.6321C11.5833 10.8115 12.1305 8.89659 12.5134 8.56833C12.8198 8.30571 13.0788 8.4589 13.17 8.56833C13.345 9.09355 14.483 9.84492 15.0301 10.1549C18.5806 9.41887 20.1436 9.84786 20.9124 10.0589C21.115 10.1145 21.2625 10.1549 21.3766 10.1549C21.8143 10.1549 22.6167 9.35252 22.9633 8.9513C23.1383 8.38231 23.4739 8.34948 23.6198 8.40419C24.6702 9.41088 24.4587 11.0486 24.2216 11.7416C24.6155 12.1355 25.0787 12.8905 25.2611 13.2188C25.8629 13.9847 26.5195 17.5957 25.48 19.1276C24.6616 20.3336 23.504 20.251 22.9952 20.2147C22.8578 20.2049 22.7677 20.1985 22.7444 20.2218C22.6569 20.3093 22.7079 20.4042 22.7444 20.4406C23.576 21.4473 23.8204 22.6473 23.8386 23.1215C24.145 25.1786 23.1639 27.6625 22.635 28.6473C22.8478 28.564 23.0433 28.4917 23.2265 28.424C24.1263 28.0913 24.7257 27.8697 25.5894 27.006C26.4798 26.1156 25.7646 24.4224 25.3348 23.4049C25.2628 23.2344 25.1988 23.0829 25.1517 22.9573C24.8234 22.082 25.4252 19.8935 27.176 19.3464C28.9268 18.7993 30.8963 20.1124 31.2793 20.6595C31.6623 21.2066 31.0058 21.9178 30.4039 21.6443C30.2338 21.5669 30.068 21.4459 29.8881 21.3145C29.4316 20.981 28.8838 20.581 27.942 20.6595C26.6289 20.7689 26.41 21.9725 26.5195 22.6838C26.5608 22.9527 26.6413 23.0652 26.7431 23.2075C26.9107 23.4417 27.136 23.7567 27.3401 24.9817C27.8872 27.7715 25.5383 28.9462 24.1675 29.6318L24.1669 29.6321C23.5819 29.9246 23.1794 30.1188 22.885 30.248Z" fill="#850000"/>
</svg>
