<svg width="36" height="37" viewBox="0 0 36 37" fill="none" xmlns="http://www.w3.org/2000/svg">
<mask id="mask0_652_5892" style="mask-type:alpha" maskUnits="userSpaceOnUse" x="0" y="0" width="36" height="37">
<rect y="0.5" width="36" height="36" fill="#D9D9D9"/>
</mask>
<g mask="url(#mask0_652_5892)">
<path d="M6 29V26H9V15.5C9 13.425 9.625 11.5813 10.875 9.96875C12.125 8.35625 13.75 7.3 15.75 6.8V5.75C15.75 5.125 15.9688 4.59375 16.4062 4.15625C16.8438 3.71875 17.375 3.5 18 3.5C18.625 3.5 19.1562 3.71875 19.5938 4.15625C20.0312 4.59375 20.25 5.125 20.25 5.75V6.8C22.25 7.3 23.875 8.35625 25.125 9.96875C26.375 11.5813 27 13.425 27 15.5V26H30V29H6ZM18 33.5C17.175 33.5 16.4688 33.2063 15.8813 32.6188C15.2937 32.0312 15 31.325 15 30.5H21C21 31.325 20.7063 32.0312 20.1188 32.6188C19.5313 33.2063 18.825 33.5 18 33.5ZM12 26H24V15.5C24 13.85 23.4125 12.4375 22.2375 11.2625C21.0625 10.0875 19.65 9.5 18 9.5C16.35 9.5 14.9375 10.0875 13.7625 11.2625C12.5875 12.4375 12 13.85 12 15.5V26Z" fill="#570000"/>
</g>
</svg>
