<svg width="20" height="20" viewBox="0 0 20 20" fill="none" xmlns="http://www.w3.org/2000/svg">
<g clip-path="url(#clip0_206_1995)">
<path d="M0.733575 11.7417L3.95857 15C4.03604 15.0781 4.12821 15.1401 4.22976 15.1824C4.33131 15.2248 4.44023 15.2465 4.55024 15.2465C4.66025 15.2465 4.76917 15.2248 4.87072 15.1824C4.97227 15.1401 5.06444 15.0781 5.14191 15C5.22002 14.9226 5.28201 14.8304 5.32432 14.7289C5.36662 14.6273 5.38841 14.5184 5.38841 14.4084C5.38841 14.2984 5.36662 14.1894 5.32432 14.0879C5.28201 13.9863 5.22002 13.8942 5.14191 13.8167L2.17524 10.8334H19.1669C19.3879 10.8334 19.5999 10.7456 19.7562 10.5893C19.9124 10.433 20.0002 10.2211 20.0002 10C20.0002 9.77903 19.9124 9.56706 19.7562 9.41078C19.5999 9.2545 19.3879 9.16671 19.1669 9.16671H2.12524L5.14191 6.15004C5.28965 5.99506 5.37207 5.78916 5.37207 5.57504C5.37207 5.36092 5.28965 5.15502 5.14191 5.00004C5.06444 4.92193 4.97227 4.85994 4.87072 4.81763C4.76917 4.77532 4.66025 4.75354 4.55024 4.75354C4.44023 4.75354 4.33131 4.77532 4.22976 4.81763C4.12821 4.85994 4.03604 4.92193 3.95857 5.00004L0.733575 8.20837C0.265407 8.67712 0.00244141 9.31254 0.00244141 9.97504C0.00244141 10.6375 0.265407 11.273 0.733575 11.7417Z" fill="#374957"/>
</g>
<defs>
<clipPath id="clip0_206_1995">
<rect width="20" height="20" fill="white"/>
</clipPath>
</defs>
</svg>
