<svg width="20" height="20" viewBox="0 0 20 20" fill="none" xmlns="http://www.w3.org/2000/svg">
<mask id="mask0_869_5929" style="mask-type:alpha" maskUnits="userSpaceOnUse" x="0" y="0" width="20" height="20">
<rect width="20" height="20" fill="#D9D9D9"/>
</mask>
<g mask="url(#mask0_869_5929)">
<path d="M10 6.25004C9.59722 6.25004 9.25347 6.10768 8.96875 5.82296C8.68403 5.53824 8.54167 5.19449 8.54167 4.79171C8.54167 4.38893 8.68403 4.04518 8.96875 3.76046C9.25347 3.47574 9.59722 3.33337 10 3.33337C10.4028 3.33337 10.7465 3.47574 11.0313 3.76046C11.316 4.04518 11.4583 4.38893 11.4583 4.79171C11.4583 5.19449 11.316 5.53824 11.0313 5.82296C10.7465 6.10768 10.4028 6.25004 10 6.25004ZM8.33333 16.6667V12.5H7.5V8.75004C7.5 8.29171 7.66319 7.89935 7.98958 7.57296C8.31597 7.24657 8.70833 7.08337 9.16667 7.08337H10.8333C11.2917 7.08337 11.684 7.24657 12.0104 7.57296C12.3368 7.89935 12.5 8.29171 12.5 8.75004V12.5H11.6667V16.6667H8.33333Z" fill="#570000"/>
</g>
</svg>
