<svg width="709" height="529" viewBox="0 0 709 529" fill="none" xmlns="http://www.w3.org/2000/svg">
<path d="M709 464.253H0V464.608H709V464.253Z" fill="#EBEBEB"/>
<path d="M637.958 487.069H590.994V487.423H637.958V487.069Z" fill="#EBEBEB"/>
<path d="M469.67 490.926H457.347V491.28H469.67V490.926Z" fill="#EBEBEB"/>
<path d="M589.576 473.91H562.365V474.264H589.576V473.91Z" fill="#EBEBEB"/>
<path d="M135.632 476.292H74.3887V476.647H135.632V476.292Z" fill="#EBEBEB"/>
<path d="M157.243 476.292H148.267V476.647H157.243V476.292Z" fill="#EBEBEB"/>
<path d="M319.263 482.276H186.424V482.63H319.263V482.276Z" fill="#EBEBEB"/>
<path d="M336.066 401.01H62.2642C60.1193 401.007 58.0635 400.152 56.5481 398.634C55.0327 397.116 54.1816 395.059 54.1816 392.914V8.02588C54.2003 5.89324 55.0597 3.85409 56.573 2.35135C58.0864 0.848614 60.1315 0.00365332 62.2642 0H336.066C338.213 0 340.273 0.853052 341.791 2.37149C343.31 3.88993 344.163 5.94938 344.163 8.09678V392.914C344.163 395.061 343.31 397.121 341.791 398.639C340.273 400.157 338.213 401.01 336.066 401.01ZM62.2642 0.283601C60.2133 0.287357 58.2477 1.10471 56.7988 2.55627C55.3499 4.00782 54.5361 5.97495 54.5361 8.02588V392.914C54.5361 394.965 55.3499 396.932 56.7988 398.383C58.2477 399.835 60.2133 400.652 62.2642 400.656H336.066C338.118 400.652 340.085 399.835 341.536 398.384C342.987 396.933 343.804 394.966 343.808 392.914V8.02588C343.804 5.97365 342.987 4.00655 341.536 2.5554C340.085 1.10425 338.118 0.287349 336.066 0.283601H62.2642Z" fill="#EBEBEB"/>
<path d="M642.793 401.01H368.978C366.831 401.007 364.774 400.152 363.257 398.635C361.739 397.117 360.885 395.06 360.881 392.914V8.02588C360.903 5.89195 361.766 3.85282 363.281 2.35047C364.797 0.848118 366.844 0.00361348 368.978 0H642.793C644.924 0.00737998 646.965 0.853989 648.476 2.35633C649.986 3.85867 650.843 5.89569 650.862 8.02588V392.914C650.862 395.056 650.013 397.111 648.5 398.629C646.988 400.147 644.936 401.003 642.793 401.01ZM368.978 0.283601C366.925 0.287349 364.958 1.10425 363.507 2.5554C362.056 4.00655 361.239 5.97365 361.235 8.02588V392.914C361.239 394.966 362.056 396.933 363.507 398.384C364.958 399.835 366.925 400.652 368.978 400.656H642.793C644.846 400.652 646.813 399.835 648.264 398.384C649.715 396.933 650.532 394.966 650.536 392.914V8.02588C650.532 5.97365 649.715 4.00655 648.264 2.5554C646.813 1.10425 644.846 0.287349 642.793 0.283601H368.978Z" fill="#EBEBEB"/>
<path d="M598.524 102.748H371.63V252.758H598.524V102.748Z" fill="#E0E0E0"/>
<path d="M590.739 110.873H379.4V244.648H590.739V110.873Z" fill="#EBEBEB"/>
<path d="M433.284 119.935H393.197V175.548H433.284V119.935Z" fill="#F5F5F5"/>
<path d="M485.069 125.167H440.303V186.793H485.069V125.167Z" fill="#F5F5F5"/>
<path d="M533.991 119.935H496.924V173.223H533.991V119.935Z" fill="#F5F5F5"/>
<path d="M575.949 123.891H543.321V183.787H575.949V123.891Z" fill="#F5F5F5"/>
<path d="M575.949 195.33H504.638V239.075H575.949V195.33Z" fill="#F5F5F5"/>
<path d="M422.578 201.058H395.877V227.759H422.578V201.058Z" fill="#F5F5F5"/>
<path d="M459.46 206.971H432.433V233.998H459.46V206.971Z" fill="#F5F5F5"/>
<path d="M349.296 100.55H170.77V463.246H349.296V100.55Z" fill="#E0E0E0"/>
<path d="M237.118 134.157H202.334V168.94H237.118V134.157Z" fill="#F0F0F0"/>
<path d="M277.418 134.157H242.634V168.94H277.418V134.157Z" fill="#F0F0F0"/>
<path d="M317.717 134.157H282.933V168.94H317.717V134.157Z" fill="#F0F0F0"/>
<path d="M237.118 174.612H202.334V209.396H237.118V174.612Z" fill="#F0F0F0"/>
<path d="M277.418 174.612H242.634V209.396H277.418V174.612Z" fill="#F0F0F0"/>
<path d="M317.717 174.612H282.933V209.396H317.717V174.612Z" fill="#F0F0F0"/>
<path d="M335.059 266.697C335.059 268.024 334.666 269.321 333.929 270.424C333.192 271.527 332.144 272.386 330.919 272.894C329.693 273.402 328.345 273.535 327.044 273.276C325.743 273.017 324.548 272.378 323.609 271.44C322.671 270.502 322.033 269.307 321.774 268.006C321.515 266.705 321.648 265.356 322.156 264.131C322.663 262.905 323.523 261.858 324.626 261.121C325.729 260.384 327.026 259.99 328.352 259.99C329.233 259.988 330.107 260.161 330.921 260.497C331.736 260.833 332.476 261.327 333.099 261.951C333.722 262.574 334.216 263.314 334.553 264.129C334.889 264.943 335.061 265.816 335.059 266.697Z" fill="#F0F0F0"/>
<path d="M163.269 100.777H95.8428V132.555H163.269V100.777Z" fill="#E0E0E0"/>
<path d="M163.269 141.474H108.775V160.206H163.269V141.474Z" fill="#E0E0E0"/>
<path d="M163.269 100.777H102.139V132.555H163.269V100.777Z" fill="#EBEBEB"/>
<path d="M163.268 141.474H113.851V160.206H163.268V141.474Z" fill="#EBEBEB"/>
<path d="M269.049 83.6097C280.004 79.0724 285.205 66.514 280.668 55.5598C276.131 44.6056 263.572 39.4037 252.618 43.9411C241.664 48.4785 236.462 61.0369 240.999 71.9911C245.537 82.9453 258.095 88.1471 269.049 83.6097Z" fill="#F0F0F0"/>
<path d="M267.242 79.2473C275.787 75.7079 279.844 65.9117 276.305 57.3669C272.766 48.822 262.969 44.7643 254.424 48.3037C245.88 51.8431 241.822 61.6393 245.361 70.1842C248.901 78.729 258.697 82.7867 267.242 79.2473Z" fill="#FAFAFA"/>
<path d="M255.467 68.9714L254.573 67.8654L260.132 63.4271V52.4801H261.55V64.1077L255.467 68.9714Z" fill="#F0F0F0"/>
<path d="M482.234 418.466C482.234 417.984 483.879 369.942 491.692 362.342C499.292 354.954 508.013 362.072 508.382 362.342L509.161 361.406C509.076 361.321 499.235 353.295 490.841 361.406C482.673 369.347 481.085 416.367 481.014 418.367L482.234 418.466Z" fill="#E0E0E0"/>
<path d="M481.567 427.91C481.567 427.328 486.913 370.24 466.054 346.304L465.132 347.112C485.637 370.637 480.404 427.215 480.347 427.782L481.567 427.91Z" fill="#E0E0E0"/>
<path d="M482.332 421.869L483.552 421.784C483.552 421.132 479.482 356.868 494.768 342.802L493.946 341.908C478.22 356.372 482.12 419.203 482.332 421.869Z" fill="#E0E0E0"/>
<path d="M480.348 421.827H481.567C481.567 420.054 481.071 378.408 469.245 371.63C468.12 370.903 466.838 370.457 465.506 370.329C464.173 370.2 462.83 370.394 461.587 370.892C454.497 373.842 450.896 386.575 450.74 387.114L451.917 387.44C451.917 387.313 455.462 374.678 462.055 372.027C463.126 371.604 464.281 371.444 465.426 371.56C466.571 371.676 467.671 372.065 468.635 372.693C479.851 379.131 480.348 421.401 480.348 421.827Z" fill="#E0E0E0"/>
<path d="M484.956 421.855L486.175 421.784C486.175 421.458 484.389 388.886 493.18 377.415C495.307 374.579 497.619 373.303 500.072 373.473C505.829 373.884 510.65 382.307 510.707 382.392L511.77 381.796C511.558 381.414 506.566 372.707 500.157 372.253C497.321 372.055 494.612 373.544 492.216 376.663C483.141 388.532 484.871 420.508 484.956 421.855Z" fill="#E0E0E0"/>
<path d="M483.027 426.293C483.268 423.131 488.77 348.757 479.085 335.641L478.093 336.378C487.522 349.14 481.865 425.428 481.808 426.194L483.027 426.293Z" fill="#E0E0E0"/>
<path d="M458.95 378.422C458.95 378.422 464.764 380.577 463.034 385.625C461.304 390.673 442.927 399.011 442.927 399.011C442.927 399.011 435.227 391.921 442.303 380.478C449.379 369.035 458.794 374.806 458.95 378.422Z" fill="#EBEBEB"/>
<path d="M484.219 368.793C484.219 368.793 478.037 368.538 477.682 373.87C477.328 379.202 491.096 393.963 491.096 393.963C491.096 393.963 500.909 390.418 498.81 377.103C496.712 363.788 485.765 365.518 484.219 368.793Z" fill="#EBEBEB"/>
<path d="M489.465 343.255C489.465 343.255 485.339 342.816 485.665 340.306C485.991 337.796 501.717 331.316 510.99 341.724C510.99 341.724 505.049 351.919 496.47 352.047C487.891 352.174 489.465 343.255 489.465 343.255Z" fill="#EBEBEB"/>
<path d="M481.779 337.158C481.779 337.158 485.509 338.959 486.558 336.647C487.607 334.336 477.695 320.539 464.295 324.523C464.295 324.523 463.941 336.307 471.144 340.958C478.348 345.609 481.779 337.158 481.779 337.158Z" fill="#EBEBEB"/>
<path d="M501.319 376.394C501.319 376.394 498.483 374.097 501.546 372.976C504.609 371.856 519.697 372.168 519.853 387.156C519.853 387.156 502.284 390.078 500.114 384.32C497.945 378.563 501.319 376.394 501.319 376.394Z" fill="#EBEBEB"/>
<path d="M465.487 342.887C465.487 342.887 468.323 340.589 465.26 339.455C462.197 338.321 447.11 338.661 446.954 353.635C446.954 353.635 464.523 356.556 466.692 350.87C468.862 345.184 465.487 342.887 465.487 342.887Z" fill="#EBEBEB"/>
<path d="M474.775 354.925C474.775 354.925 475.03 352.089 472.776 353.224C470.521 354.358 462.651 362.795 470.805 370.849C470.805 370.849 481.78 362.724 479.795 358.485C477.809 354.245 474.775 354.925 474.775 354.925Z" fill="#EBEBEB"/>
<path d="M503.858 358.896C503.858 358.896 502.157 356.67 504.652 356.4C507.148 356.131 518.322 359.108 515.713 370.254C515.713 370.254 502.1 369.233 501.533 364.582C500.965 359.931 503.858 358.896 503.858 358.896Z" fill="#EBEBEB"/>
<path d="M457.858 463.246H504.581L509.615 412.099H452.824L457.858 463.246Z" fill="#F0F0F0"/>
<path d="M450.329 417.743H512.111V406.456H450.329V417.743Z" fill="#E6E6E6"/>
<path d="M354.499 528.29C506.342 528.29 629.436 521.103 629.436 512.238C629.436 503.373 506.342 496.187 354.499 496.187C202.657 496.187 79.5635 503.373 79.5635 512.238C79.5635 521.103 202.657 528.29 354.499 528.29Z" fill="#F5F5F5"/>
<path d="M353.536 62.0658H312.811C309.483 62.0658 306.291 63.388 303.937 65.7414C301.584 68.0949 300.262 71.2868 300.262 74.6151V110.065C300.262 113.393 301.584 116.585 303.937 118.939C306.291 121.292 309.483 122.614 312.811 122.614H328.976L336.066 133.802L337.484 122.614H353.607C355.254 122.614 356.885 122.29 358.407 121.659C359.929 121.028 361.311 120.103 362.476 118.938C363.64 117.772 364.563 116.389 365.192 114.866C365.821 113.344 366.144 111.712 366.142 110.065V74.6151C366.142 72.9623 365.816 71.3258 365.181 69.7996C364.547 68.2733 363.618 66.8874 362.446 65.7213C361.275 64.5552 359.885 63.6321 358.356 63.0047C356.827 62.3774 355.189 62.0583 353.536 62.0658Z" fill="#850000"/>
<path opacity="0.7" d="M353.536 62.0658H312.811C309.483 62.0658 306.291 63.388 303.937 65.7414C301.584 68.0949 300.262 71.2868 300.262 74.6151V110.065C300.262 113.393 301.584 116.585 303.937 118.939C306.291 121.292 309.483 122.614 312.811 122.614H328.976L336.066 133.802L337.484 122.614H353.607C355.254 122.614 356.885 122.29 358.407 121.659C359.929 121.028 361.311 120.103 362.476 118.938C363.64 117.772 364.563 116.389 365.192 114.866C365.821 113.344 366.144 111.712 366.142 110.065V74.6151C366.142 72.9623 365.816 71.3258 365.181 69.7996C364.547 68.2733 363.618 66.8874 362.446 65.7213C361.275 64.5552 359.885 63.6321 358.356 63.0047C356.827 62.3774 355.189 62.0583 353.536 62.0658Z" fill="white"/>
<path d="M347.474 106.48C355.37 98.5829 355.37 85.7799 347.474 77.8832C339.577 69.9865 326.774 69.9865 318.877 77.8832C310.981 85.7799 310.981 98.5829 318.877 106.48C326.774 114.376 339.577 114.376 347.474 106.48Z" fill="#850000"/>
<path d="M331.046 101.217C330.777 101.219 330.51 101.162 330.264 101.05C330.019 100.937 329.802 100.771 329.628 100.565L321.688 91.2199C321.368 90.8439 321.211 90.3562 321.251 89.8642C321.291 89.3723 321.524 88.9163 321.9 88.5966C322.276 88.277 322.764 88.1198 323.256 88.1597C323.748 88.1996 324.204 88.4333 324.524 88.8093L331.032 96.4949L341.795 83.818C342.118 83.4612 342.568 83.244 343.048 83.212C343.528 83.1801 344.002 83.3359 344.37 83.6467C344.738 83.9574 344.971 84.3988 345.019 84.8779C345.068 85.3569 344.929 85.8361 344.631 86.2144L332.45 100.565C332.277 100.768 332.062 100.931 331.82 101.044C331.577 101.156 331.314 101.215 331.046 101.217Z" fill="white"/>
<path d="M584.117 255.013L581.409 254.886C581.409 254.886 576.786 288.336 573.723 290.959C570.661 293.583 525.724 284.89 523.101 282.99C523.011 282.912 522.947 282.808 522.916 282.693C520.945 277.772 528.744 222.272 531.609 219.691C534.473 217.11 543.222 219.691 543.222 219.691C543.222 219.691 562.153 224.129 573 227.079C575.47 227.662 577.892 228.43 580.246 229.376C583.082 231.049 584.117 255.013 584.117 255.013Z" fill="#263238"/>
<path opacity="0.2" d="M574.05 252.489C574.05 252.489 569.413 285.94 566.364 288.563C563.982 290.605 536.387 285.826 522.916 282.693C520.945 277.772 528.744 222.272 531.609 219.691C534.473 217.11 543.222 219.691 543.222 219.691C543.222 219.691 562.153 224.129 573 227.079C575.709 229.333 574.05 252.489 574.05 252.489Z" fill="white"/>
<path d="M495.237 164.8L492.925 155.385L503.447 157.568C503.447 157.568 505.007 166.076 500.611 166.714L495.237 164.8Z" fill="#EEC1BB"/>
<path d="M495.818 146.238L504.227 151.187L503.447 157.568L492.925 155.384L495.818 146.238Z" fill="#EEC1BB"/>
<path d="M532.275 220.655C530.631 221.454 528.94 222.155 527.213 222.754C525.965 222.286 524.746 221.804 523.54 221.336C522.93 221.08 522.307 220.839 521.711 220.57C519.499 219.662 517.329 218.684 515.174 217.649L512.607 216.401C511.898 216.032 511.189 215.678 510.466 215.295C508.85 214.416 507.233 213.551 505.631 212.601C504.525 211.963 503.419 211.282 502.327 210.573C501.235 209.864 500.087 209.056 498.952 208.205L498.286 207.709C496.834 206.626 495.477 205.421 494.23 204.107C493.476 203.34 492.788 202.51 492.174 201.625C491.798 201.1 491.457 200.55 491.153 199.981C491.068 199.81 490.969 199.626 490.884 199.427C490.671 198.945 490.472 198.449 490.345 198.009C489.729 196.045 489.409 193.999 489.395 191.94C489.361 189.154 489.56 186.37 489.99 183.617C489.99 183.135 490.132 182.638 490.203 182.199C490.793 178.762 491.564 175.359 492.514 172.003C493.223 169.489 494.032 166.984 494.939 164.488L501.916 166.019C501.802 168.317 501.66 170.614 501.575 172.911C501.419 176.371 501.306 179.802 501.306 183.149V184.567C501.306 186.538 501.434 188.466 501.646 190.239C501.646 190.48 501.717 190.735 501.746 190.976C501.866 191.853 502.099 192.711 502.44 193.529C502.511 193.67 502.44 193.529 502.525 193.614C502.611 193.699 502.525 193.685 502.724 193.812C502.923 193.94 503.206 194.309 503.575 194.62C505.457 196.148 507.474 197.5 509.601 198.662H509.729C512.012 199.938 514.423 201.2 516.918 202.377L517.443 202.618C520.931 204.291 524.533 205.922 528.205 207.453C529.623 208.049 531.041 208.644 532.36 209.198C532.36 209.198 536.969 210.46 538.599 213.636C539.918 216.302 535.891 218.911 532.275 220.655Z" fill="#850000"/>
<path opacity="0.2" d="M532.275 220.655C530.63 221.454 528.94 222.155 527.213 222.754C525.965 222.286 524.745 221.804 523.54 221.336C522.93 221.08 522.306 220.839 521.711 220.57C519.499 219.662 517.329 218.684 515.174 217.649C522.944 213.976 529.028 217.691 532.275 220.655Z" fill="black"/>
<path d="M481.78 495.066L472.833 491.819L477.753 470.251L486.715 473.499L481.78 495.066Z" fill="#EEC1BB"/>
<path d="M552.396 506.963H542.896L540.188 484.956H549.688L552.396 506.963Z" fill="#EEC1BB"/>
<path d="M541.676 505.857H553.261C553.45 505.859 553.632 505.924 553.779 506.043C553.925 506.161 554.028 506.326 554.069 506.51L556.04 515.018C556.081 515.225 556.074 515.439 556.021 515.643C555.968 515.848 555.87 516.038 555.734 516.2C555.598 516.361 555.428 516.491 555.235 516.578C555.043 516.666 554.834 516.709 554.622 516.705C550.893 516.634 548.171 516.421 543.477 516.421C540.641 516.421 531.878 516.719 527.879 516.719C523.88 516.719 523.341 512.777 525.043 512.465C532.346 510.863 537.805 508.651 540.159 506.538C540.566 506.136 541.105 505.895 541.676 505.857Z" fill="#263238"/>
<path d="M472.506 490.004L482.673 492.174C482.857 492.217 483.022 492.319 483.143 492.465C483.263 492.611 483.332 492.793 483.34 492.982L483.481 501.632C483.485 501.842 483.442 502.049 483.355 502.241C483.268 502.432 483.14 502.601 482.98 502.737C482.82 502.872 482.632 502.971 482.429 503.025C482.227 503.079 482.015 503.088 481.808 503.05C478.15 502.199 472.889 500.838 468.28 499.859C462.892 498.696 459.546 497.605 453.221 496.258C449.393 495.435 449.123 491.351 450.796 491.337C458.411 491.337 463.02 492.755 470.11 490.288C470.864 489.964 471.697 489.865 472.506 490.004Z" fill="#263238"/>
<path opacity="0.2" d="M477.753 470.251L475.214 481.368L484.176 484.63L486.714 473.513L477.753 470.251Z" fill="black"/>
<path opacity="0.2" d="M549.702 484.956H540.188L541.591 496.3H551.092L549.702 484.956Z" fill="black"/>
<path d="M472.591 478.093L487.792 483.538C487.792 483.538 499.632 431.398 505.928 402.485C508.696 391.061 512.109 379.803 516.152 368.765C521.909 352.543 528.772 335.074 534.316 321.418C540.173 307.04 544.526 296.887 544.526 296.887L511.742 290.251C511.742 290.251 486.742 362.214 481.113 390.659C475.328 420.239 472.591 478.093 472.591 478.093Z" fill="#263238"/>
<g opacity="0.3">
<path d="M472.591 478.093L487.792 483.538C487.792 483.538 499.632 431.398 505.928 402.485C508.696 391.061 512.109 379.803 516.152 368.765C521.909 352.543 528.772 335.074 534.316 321.418C540.173 307.04 544.526 296.887 544.526 296.887L511.742 290.251C511.742 290.251 486.742 362.214 481.113 390.659C475.328 420.239 472.591 478.093 472.591 478.093Z" fill="white"/>
</g>
<path opacity="0.2" d="M516.152 368.765C521.909 352.543 528.772 335.073 534.316 321.418L531.778 313.577C522.462 322.255 516.606 352.16 516.152 368.765Z" fill="black"/>
<path d="M529.481 293.838C529.481 293.838 523.639 375.883 523.284 403.775C522.887 434.305 537.167 494.102 537.167 494.102H554.58C554.58 494.102 547.617 440.147 549.943 409.901C552.524 376.068 561.656 300.347 561.656 300.347L529.481 293.838Z" fill="#263238"/>
<g opacity="0.3">
<path d="M529.482 293.838C529.482 293.838 523.639 375.883 523.285 403.775C522.888 434.305 537.167 494.102 537.167 494.102H554.58C554.58 494.102 547.618 440.147 549.943 409.901C552.524 376.068 561.656 300.347 561.656 300.347L529.482 293.838Z" fill="white"/>
</g>
<path d="M535.096 494.485H555.586L555.529 488.359L534.132 487.126L535.096 494.485Z" fill="#263238"/>
<path d="M470.563 477.894L488.714 484.19L490.699 478.334L470.847 471.102L470.563 477.894Z" fill="#263238"/>
<path d="M538.514 507.516C537.867 507.57 537.222 507.4 536.685 507.034C536.517 506.888 536.385 506.703 536.301 506.496C536.218 506.29 536.184 506.066 536.203 505.843C536.2 505.711 536.234 505.582 536.302 505.469C536.37 505.356 536.468 505.264 536.586 505.205C537.621 504.666 540.712 506.623 541.067 506.765C541.102 506.79 541.13 506.825 541.148 506.865C541.165 506.905 541.171 506.949 541.166 506.992C541.161 507.037 541.141 507.079 541.111 507.112C541.08 507.145 541.04 507.167 540.996 507.176C540.184 507.381 539.351 507.495 538.514 507.516ZM537.096 505.56C537.003 505.536 536.906 505.536 536.813 505.56C536.742 505.56 536.671 505.645 536.671 505.815C536.651 505.967 536.67 506.122 536.724 506.265C536.779 506.408 536.867 506.536 536.983 506.637C538.045 507.123 539.252 507.184 540.358 506.807C539.358 506.182 538.245 505.758 537.082 505.56H537.096Z" fill="#850000"/>
<path d="M540.953 507.19H540.839C539.847 506.651 537.933 504.567 538.117 503.518C538.149 503.352 538.237 503.203 538.366 503.095C538.495 502.986 538.657 502.925 538.826 502.922C538.997 502.901 539.172 502.915 539.337 502.964C539.503 503.012 539.657 503.095 539.79 503.206C540.896 504.113 541.208 506.85 541.208 506.978C541.213 507.017 541.207 507.057 541.189 507.092C541.171 507.127 541.143 507.157 541.109 507.176C541.086 507.192 541.06 507.202 541.033 507.204C541.005 507.207 540.978 507.202 540.953 507.19ZM538.996 503.39H538.84C538.556 503.39 538.528 503.56 538.514 503.617C538.401 504.255 539.634 505.829 540.613 506.566C540.536 505.481 540.136 504.444 539.464 503.589C539.334 503.473 539.17 503.403 538.996 503.39Z" fill="#850000"/>
<path d="M471.315 491.082C469.755 491.082 467.061 490.855 466.182 489.735C466.056 489.572 465.971 489.381 465.937 489.178C465.902 488.975 465.918 488.767 465.984 488.572C466.012 488.454 466.072 488.345 466.157 488.258C466.242 488.171 466.348 488.108 466.466 488.076C467.728 487.679 471.088 490.373 471.457 490.685C471.496 490.713 471.524 490.754 471.537 490.8C471.55 490.846 471.547 490.896 471.528 490.94C471.515 490.985 471.486 491.024 471.447 491.05C471.409 491.076 471.362 491.087 471.315 491.082ZM466.664 488.487H466.522C466.475 488.498 466.433 488.522 466.4 488.558C466.367 488.593 466.345 488.638 466.338 488.685C466.291 488.812 466.277 488.949 466.297 489.083C466.317 489.217 466.37 489.343 466.451 489.451C466.919 490.089 468.437 490.501 470.564 490.6C469.358 489.593 467.416 488.388 466.664 488.487Z" fill="#850000"/>
<path d="M471.315 491.082C471.291 491.096 471.265 491.103 471.237 491.103C471.21 491.103 471.183 491.096 471.159 491.082C470.138 490.344 468.323 487.849 468.706 486.828C468.805 486.587 469.046 486.317 469.656 486.388C469.88 486.412 470.098 486.481 470.295 486.591C470.492 486.701 470.666 486.849 470.805 487.026C471.44 488.216 471.688 489.574 471.514 490.912C471.513 490.952 471.501 490.991 471.478 491.024C471.456 491.056 471.423 491.082 471.386 491.096L471.315 491.082ZM469.372 486.828C469.322 486.83 469.273 486.846 469.231 486.873C469.188 486.9 469.154 486.939 469.131 486.984C468.905 487.594 470.096 489.508 471.102 490.43C471.213 489.347 470.985 488.257 470.45 487.31C470.353 487.176 470.227 487.065 470.083 486.985C469.939 486.904 469.778 486.855 469.614 486.842L469.372 486.828Z" fill="#850000"/>
<path d="M580.16 219.861C578.704 223.387 577.367 226.937 576.147 230.51C575.821 231.46 575.509 232.396 575.197 233.346C574.233 236.31 573.34 239.273 572.517 242.209C572.234 243.244 571.95 244.279 571.68 245.3C571.241 246.916 570.83 248.519 570.433 250.107C570.22 251 570.007 251.879 569.809 252.744C569.312 254.843 568.859 256.899 568.391 258.927C567.923 260.955 567.597 262.784 567.242 264.599C566.888 266.414 566.476 268.555 566.15 270.455C565.824 272.355 565.512 274.185 565.229 275.971C564.945 277.758 564.619 279.857 564.364 281.643C564.037 283.926 563.74 286.067 563.484 288.024C562.662 293.909 562.066 298.234 561.627 300.29L511.784 290.194C511.784 286.28 511.784 282.522 511.954 278.85C512.054 276.425 512.167 274.057 512.337 271.76C512.422 270.242 512.536 268.754 512.663 267.293C512.862 265.067 513.075 262.911 513.316 260.813C513.585 258.459 513.883 256.19 514.223 254.006C514.819 249.965 515.514 246.222 516.251 242.747C517.158 238.493 518.123 234.736 519.087 231.333C520.321 227.079 521.583 223.42 522.745 220.428C524.122 216.686 525.82 213.071 527.822 209.623C531.889 209.4 535.967 209.428 540.031 209.708C540.882 209.708 541.761 209.864 542.64 209.949C549.806 210.958 556.907 212.378 563.91 214.203C565.229 214.543 566.576 214.926 567.88 215.309C574.446 217.436 580.16 219.861 580.16 219.861Z" fill="#850000"/>
<path d="M566.378 190.012C563.727 196.563 559.983 208.786 563.883 214.302C561.354 216.074 558.472 217.277 555.435 217.83C552.397 218.383 549.276 218.273 546.285 217.507C540.443 216.188 540.939 212.019 542.683 210.02C550.638 209.736 551.532 204.05 551.191 198.492L566.378 190.012Z" fill="#EEC1BB"/>
<path opacity="0.2" d="M560.195 193.529L551.233 198.52C551.317 199.82 551.293 201.124 551.163 202.419C554.14 202.59 558.749 200.207 559.671 197.23C560.072 196.039 560.25 194.784 560.195 193.529Z" fill="black"/>
<path d="M549.078 166.346C546.483 169.182 543.888 176.272 549.546 176.201C555.203 176.13 553.53 161.482 549.078 166.346Z" fill="#263238"/>
<path d="M570.873 181.958C567.413 190.721 565.825 196.024 559.827 199.101C550.794 203.724 541.109 195.911 541.889 186.339C542.584 177.647 548.142 164.786 558.04 164.176C560.223 164.047 562.404 164.47 564.379 165.408C566.355 166.346 568.062 167.768 569.342 169.541C570.622 171.314 571.433 173.382 571.701 175.553C571.969 177.724 571.684 179.927 570.873 181.958Z" fill="#EEC1BB"/>
<path d="M572.234 165.098H565.782L568.873 170.926C569.923 171.082 567.838 174.641 568.746 174.655C568.746 174.655 564.492 182.397 567.143 187.63C576.672 186.864 583.408 179.377 579.083 173.975C581.848 169.238 577.013 165.722 572.234 165.098Z" fill="#263238"/>
<path d="M571.894 190.537C571.211 191.487 570.344 192.292 569.346 192.903C568.348 193.514 567.237 193.92 566.08 194.096C562.989 194.55 561.826 191.671 562.975 188.934C564.038 186.467 566.917 183.262 569.88 184.071C570.525 184.257 571.114 184.6 571.594 185.07C572.073 185.539 572.429 186.121 572.628 186.761C572.828 187.402 572.865 188.083 572.737 188.742C572.609 189.401 572.319 190.017 571.894 190.537Z" fill="#EEC1BB"/>
<path d="M550.794 178.37C549.198 180.225 547.351 181.848 545.307 183.191C545.697 183.695 546.19 184.11 546.752 184.411C547.314 184.711 547.932 184.89 548.568 184.936L550.794 178.37Z" fill="#D4827D"/>
<path d="M559.926 178.101C559.845 178.085 559.769 178.048 559.707 177.993C559.644 177.938 559.598 177.868 559.572 177.789C559.403 177.248 559.11 176.755 558.716 176.349C558.322 175.942 557.838 175.634 557.303 175.449C557.245 175.434 557.191 175.408 557.143 175.372C557.096 175.336 557.056 175.292 557.025 175.24C556.995 175.189 556.975 175.132 556.967 175.073C556.959 175.014 556.962 174.954 556.977 174.896C556.992 174.838 557.018 174.784 557.054 174.737C557.09 174.689 557.134 174.649 557.186 174.618C557.237 174.588 557.294 174.568 557.353 174.56C557.412 174.552 557.472 174.555 557.53 174.57C558.199 174.803 558.805 175.19 559.298 175.7C559.79 176.209 560.156 176.828 560.366 177.505C560.407 177.618 560.402 177.743 560.351 177.852C560.301 177.961 560.209 178.045 560.096 178.087C560.041 178.099 559.983 178.104 559.926 178.101Z" fill="#263238"/>
<path d="M545.689 173.109C545.6 173.096 545.52 173.051 545.462 172.982C545.378 172.897 545.331 172.782 545.331 172.663C545.331 172.543 545.378 172.429 545.462 172.344C545.942 171.816 546.541 171.412 547.21 171.165C547.879 170.918 548.598 170.836 549.305 170.926C549.424 170.95 549.53 171.02 549.599 171.12C549.668 171.221 549.695 171.344 549.674 171.465C549.65 171.58 549.581 171.682 549.483 171.748C549.385 171.815 549.265 171.84 549.149 171.819C548.588 171.741 548.016 171.802 547.484 171.997C546.953 172.193 546.477 172.516 546.1 172.939C546.054 173.003 545.991 173.052 545.919 173.082C545.846 173.112 545.767 173.122 545.689 173.109Z" fill="#263238"/>
<path d="M547.532 186.666C548.196 188.164 548.75 189.709 549.191 191.288L550.042 191.189C553.927 190.707 555.572 189.204 556.225 187.687C556.528 186.936 556.645 186.124 556.565 185.318C556.535 184.863 556.439 184.414 556.281 183.986C554.381 185.404 550.794 186.183 548.851 186.495C548.043 186.623 547.532 186.666 547.532 186.666Z" fill="#263238"/>
<path d="M548.852 186.495L549.376 187.842C553.035 187.389 555.545 186.566 556.565 185.318C556.535 184.863 556.44 184.414 556.282 183.986C554.438 185.46 550.794 186.183 548.852 186.495Z" fill="white"/>
<path d="M550.042 191.189C553.928 190.707 555.573 189.204 556.225 187.687C554.734 187.902 553.293 188.382 551.971 189.105C551.13 189.585 550.456 190.313 550.042 191.189Z" fill="#DE5753"/>
<path d="M577.338 167.012C577.338 167.012 571.78 158.419 558.706 157.88C545.632 157.341 545.235 166.048 549.659 169.04L550.042 167.764C551.101 169.044 552.434 170.071 553.941 170.77V169.04C555.788 170.745 557.912 172.121 560.223 173.11V170.926C560.223 170.926 563.626 173.762 570.702 174.556C577.778 175.35 580.571 172.471 577.338 167.012Z" fill="#263238"/>
<path d="M556.579 180.398C556.508 180.399 556.438 180.378 556.38 180.337C556.321 180.296 556.277 180.238 556.253 180.171C556.204 179.97 556.111 179.782 555.981 179.62C555.852 179.458 555.688 179.327 555.502 179.235C555.266 179.138 555 179.138 554.764 179.235C554.683 179.278 554.588 179.289 554.498 179.265C554.409 179.242 554.332 179.185 554.282 179.108C554.251 179.028 554.249 178.939 554.278 178.859C554.306 178.778 554.363 178.71 554.438 178.668C554.636 178.552 554.856 178.481 555.083 178.459C555.311 178.437 555.541 178.465 555.757 178.54C556.051 178.669 556.312 178.864 556.519 179.11C556.725 179.356 556.872 179.646 556.948 179.958C556.976 180.047 556.97 180.143 556.931 180.227C556.891 180.311 556.821 180.377 556.735 180.412L556.579 180.398Z" fill="#263238"/>
<path d="M548.525 178.285C548.454 178.284 548.385 178.262 548.327 178.222C548.269 178.181 548.224 178.124 548.199 178.058C548.149 177.857 548.057 177.669 547.927 177.507C547.797 177.345 547.633 177.214 547.447 177.122C547.206 177.052 546.947 177.078 546.724 177.193C546.641 177.241 546.543 177.254 546.45 177.23C546.357 177.206 546.278 177.147 546.228 177.066C546.188 176.983 546.179 176.889 546.202 176.801C546.226 176.713 546.28 176.635 546.355 176.584C546.554 176.471 546.774 176.402 547.001 176.38C547.228 176.358 547.458 176.384 547.674 176.456C547.968 176.585 548.229 176.779 548.436 177.025C548.642 177.271 548.789 177.562 548.865 177.874C548.893 177.963 548.887 178.058 548.848 178.143C548.808 178.227 548.739 178.293 548.652 178.328L548.525 178.285Z" fill="#263238"/>
<path d="M571.808 216.117C571.808 216.117 562.45 244.889 569.455 271.419L567.654 273.093C567.654 273.093 556.04 244.874 565.81 214.884L571.808 216.117Z" fill="#263238"/>
<path d="M538.84 209.595C538.84 209.595 517.144 237.317 513.089 263.096L513.486 257.112C513.486 257.112 513.344 234.112 532.345 209.297L538.84 209.595Z" fill="#263238"/>
<path d="M568.803 268.725L572.475 275.064L570.036 283.331C568.289 279.042 567.093 274.549 566.477 269.959L568.803 268.725Z" fill="#263238"/>
<path d="M583.336 293.625L559.755 283.699L558.238 303.551C558.238 303.551 584.811 304.048 585.18 304.204C585.548 304.36 583.336 293.625 583.336 293.625Z" fill="#263238"/>
<path opacity="0.4" d="M583.336 293.625L559.755 283.699L558.238 303.551C558.238 303.551 584.811 304.048 585.18 304.204C585.548 304.36 583.336 293.625 583.336 293.625Z" fill="white"/>
<path d="M559.728 302.389L561.287 285.358L565.286 278.963L581.054 292.661L578.317 302.062L559.728 302.389Z" fill="#263238"/>
<path opacity="0.7" d="M559.728 302.389L561.287 285.358L565.286 278.963L581.054 292.661L578.317 302.062L559.728 302.389Z" fill="white"/>
<path d="M563.853 277.106L563.569 299L558.238 303.636L589.561 316.71L594.978 311.109L595.205 291.357L563.853 277.106Z" fill="#263238"/>
<path opacity="0.5" d="M563.853 277.106L563.569 299L558.238 303.636L589.561 316.71L594.978 311.109L595.205 291.357L563.853 277.106Z" fill="white"/>
<path d="M583.55 298.815L582.699 308.458L573.454 302.984C573.454 302.984 574.744 294.476 579.126 295.27L583.55 298.815Z" fill="#EEC1BB"/>
<path d="M576.999 316.186L570.646 308.769L573.454 302.984L582.699 308.458L576.999 316.186Z" fill="#EEC1BB"/>
<path opacity="0.2" d="M575.197 233.346C574.233 236.31 573.34 239.273 572.517 242.209C572.234 243.244 571.95 244.279 571.681 245.3C569.696 241.188 570.646 234.254 570.646 234.254L575.197 233.346Z" fill="black"/>
<path d="M586.06 224.172C588.898 227.023 591.488 230.112 593.802 233.403C597.283 238.266 600.383 243.391 603.076 248.731C604.931 252.315 606.468 256.054 607.67 259.905C608.132 261.363 608.408 262.873 608.493 264.4C608.592 267.605 605.657 273.064 601.757 278.765C599.559 282.012 597.064 285.344 594.667 288.393C589.406 295.072 584.741 300.375 584.741 300.375L577.651 295.412C577.651 295.412 581.154 289.031 584.741 282.14C586.656 278.495 588.584 274.695 590.002 271.632C591.002 269.774 591.765 267.796 592.271 265.747C592.291 265.12 592.243 264.493 592.129 263.876C591.59 260.884 582.813 242.251 570.76 234.254L575.014 218.656C577.977 217.819 581.948 220.13 586.06 224.172Z" fill="#850000"/>
<path d="M442.09 260.161C447.861 263.933 436.559 280.013 423.471 277.758C410.383 275.503 411.943 265.067 414.311 261.21C416.679 257.353 428.732 251.426 442.09 260.161Z" fill="#850000"/>
<path opacity="0.3" d="M442.09 260.161C447.861 263.933 436.559 280.013 423.471 277.758C410.383 275.503 411.943 265.067 414.311 261.21C416.679 257.353 428.732 251.426 442.09 260.161Z" fill="black"/>
<path d="M424.79 256.389C424.79 256.389 440.303 267.818 441.99 277.758C443.678 287.698 424.322 295.497 410.298 293.838C396.274 292.179 383.923 267.421 383.923 267.421C383.923 267.421 411.22 268.002 424.79 256.389Z" fill="#850000"/>
<path opacity="0.2" d="M424.79 256.389C424.79 256.389 440.303 267.818 441.99 277.758C443.678 287.698 424.322 295.497 410.298 293.838C396.274 292.179 383.923 267.421 383.923 267.421C383.923 267.421 411.22 268.002 424.79 256.389Z" fill="black"/>
<path d="M422.564 262.997C422.564 262.997 421.657 249.185 442.118 260.161C442.118 260.161 432.731 253.78 423.911 254.971C415.091 256.162 405.903 265.563 396.203 264.641C386.504 263.72 391.581 275.22 391.581 275.22C391.581 275.22 413.191 273.561 422.564 262.997Z" fill="#850000"/>
<path d="M381.06 197.414C385.64 187.225 389.506 176.731 392.63 166.005C393.552 162.177 393.027 158.135 392.63 154.037C392.021 148.89 391.085 143.488 390.121 138.227L396.728 135.83C400.932 143.583 403.808 151.985 405.236 160.688C405.714 164.055 405.575 167.481 404.825 170.798C402.596 182.126 398.932 193.124 393.921 203.526L381.159 197.414H381.06Z" fill="#FFB573"/>
<path d="M375.77 198.265C382.08 193.855 387.426 182.128 387.426 182.128L400.401 190.083C400.401 190.083 394.403 203.597 393.098 212.36C392.361 217.677 375.77 198.265 375.77 198.265Z" fill="#263238"/>
<path opacity="0.2" d="M386.689 209.666C389.993 212.643 392.843 214.487 393.169 212.346C393.422 210.696 393.773 209.062 394.219 207.454C392.312 205.368 390.045 203.643 387.526 202.363C386.867 204.739 386.585 207.203 386.689 209.666Z" fill="black"/>
<path d="M369.531 466.394L378.861 466.919L383.867 445.536L374.55 445.011L369.531 466.394Z" fill="#FFB573"/>
<path d="M378.974 464.792L371.261 457.702C371.124 457.585 370.951 457.521 370.771 457.521C370.592 457.521 370.418 457.585 370.282 457.702L363.774 463.005C363.616 463.145 363.49 463.317 363.404 463.508C363.318 463.7 363.273 463.908 363.273 464.119C363.273 464.329 363.318 464.537 363.404 464.729C363.49 464.921 363.616 465.092 363.774 465.232C366.496 467.671 367.942 468.706 371.331 471.84C373.43 473.754 379.216 479.497 382.108 482.163C385.001 484.828 387.78 482.163 386.802 480.745C382.548 474.619 380.166 469.528 379.712 466.338C379.66 465.751 379.398 465.202 378.974 464.792Z" fill="#263238"/>
<g opacity="0.2">
<path d="M383.867 445.536L381.286 456.568L371.956 456.043L374.536 445.025L383.867 445.536Z" fill="black"/>
</g>
<path d="M384.278 199.158C384.278 199.158 397.366 215.479 398.018 255.793C383.413 259.451 368.24 260.387 361.15 262.174C358.017 247.044 355.819 237.77 340.958 208.829C345.792 206.484 350.792 204.498 355.918 202.887C361.378 201.074 366.96 199.652 372.622 198.633C376.495 197.893 380.487 198.073 384.278 199.158Z" fill="#FFB573"/>
<path d="M352.897 183.674C355.293 188.779 358.824 198.364 355.96 202.888C355.96 202.888 358.796 207.978 368.722 205.468C379.711 202.717 372.607 198.705 372.607 198.705C366.255 198.775 365.29 194.295 365.29 189.856L352.897 183.674Z" fill="#FFB573"/>
<path d="M355.918 202.902C361.376 201.082 366.959 199.66 372.622 198.648L373.742 198.492C375.713 200.675 377.018 204.476 375.26 210.984C375.26 210.984 359.123 208.758 353.749 203.54C354.5 203.355 355.237 203.114 355.918 202.902Z" fill="#FFB573"/>
<path opacity="0.2" d="M357.974 186.198L365.347 189.842C365.321 190.882 365.397 191.922 365.574 192.947C363.192 193.188 359.42 191.529 358.569 189.119C358.199 188.188 357.997 187.199 357.974 186.198Z" fill="black"/>
<path d="M398.089 256.772C398.089 256.772 404.456 328.806 403.449 357.279C402.4 386.887 383.044 454.2 383.044 454.2L370.41 454.015C370.41 454.015 380.889 388.319 380.18 359.222C379.4 327.487 370.254 256.389 370.254 256.389L398.089 256.772Z" fill="#850000"/>
<path opacity="0.2" d="M398.089 256.772C398.089 256.772 404.456 328.806 403.449 357.279C402.4 386.887 383.044 454.2 383.044 454.2L370.41 454.015C370.41 454.015 380.889 388.319 380.18 359.222C379.4 327.487 370.254 256.389 370.254 256.389L398.089 256.772Z" fill="white"/>
<path d="M369.304 454.455L384.122 454.668L385.284 449.946L368.694 449.152L369.304 454.455Z" fill="#850000"/>
<path opacity="0.2" d="M381.442 274.44C390.489 293.313 382.576 327.388 379.102 340.065C377.684 320.936 375.16 297.525 373.175 280.367C374.763 270.696 377.301 265.733 381.442 274.44Z" fill="black"/>
<path d="M289.414 381.995L292.448 390.829L314.016 387.057L310.996 378.223L289.414 381.995Z" fill="#FFB573"/>
<path d="M294.944 391.141L294.348 380.662C294.337 380.474 294.265 380.294 294.142 380.151C294.019 380.007 293.852 379.908 293.668 379.868L285.245 378.067C285.042 378.02 284.831 378.022 284.629 378.074C284.428 378.126 284.242 378.226 284.087 378.365C283.933 378.504 283.814 378.679 283.742 378.874C283.669 379.069 283.645 379.279 283.671 379.485C283.926 383.144 284.252 384.916 284.507 389.525C284.663 392.361 284.819 400.486 285.046 404.4C285.273 408.313 289.173 408.795 289.442 407.236C290.605 400.046 292.505 395.055 294.448 392.744C294.633 392.523 294.773 392.268 294.858 391.993C294.943 391.717 294.972 391.428 294.944 391.141Z" fill="#263238"/>
<g opacity="0.2">
<path d="M314.017 387.058L302.9 389L299.865 380.166L310.982 378.223L314.017 387.058Z" fill="black"/>
</g>
<path d="M387.596 256.658C387.596 256.658 376.252 330.763 368.793 358.598C361.094 387.54 306.586 389.269 306.586 389.269L301.197 377.84C301.197 377.84 333.116 369.829 347.112 350.898C353.479 319.702 359.874 256.275 359.874 256.275L387.596 256.658Z" fill="#850000"/>
<path opacity="0.2" d="M387.596 256.658C387.596 256.658 376.252 330.763 368.793 358.598C361.094 387.54 306.586 389.269 306.586 389.269L301.197 377.84C301.197 377.84 333.116 369.829 347.112 350.898C353.479 319.702 359.874 256.275 359.874 256.275L387.596 256.658Z" fill="white"/>
<path d="M300.574 376.734L305.239 390.801L310.273 390.929L305.608 375.061L300.574 376.734Z" fill="#850000"/>
<path d="M293.526 394.516C293.502 395.341 293.746 396.152 294.221 396.827C294.358 396.984 294.529 397.109 294.72 397.192C294.911 397.275 295.118 397.315 295.327 397.309C295.445 397.311 295.562 397.28 295.665 397.22C295.767 397.16 295.851 397.073 295.908 396.969C296.475 395.877 294.348 392.02 294.107 391.581C294.083 391.539 294.048 391.505 294.005 391.482C293.963 391.459 293.914 391.449 293.866 391.453C293.824 391.456 293.785 391.473 293.754 391.501C293.723 391.53 293.702 391.568 293.696 391.609C293.547 392.57 293.49 393.544 293.526 394.516ZM295.554 396.331C295.595 396.46 295.595 396.599 295.554 396.728C295.535 396.771 295.503 396.808 295.462 396.831C295.421 396.854 295.373 396.863 295.327 396.856C295.191 396.868 295.055 396.847 294.929 396.795C294.803 396.743 294.691 396.662 294.604 396.558C294.051 395.948 293.88 394.417 294.107 392.304C294.814 393.556 295.308 394.917 295.568 396.331H295.554Z" fill="#850000"/>
<path d="M293.71 391.652C293.703 391.685 293.703 391.718 293.71 391.751C294.277 392.9 296.433 395.239 297.482 395.154C297.737 395.154 298.035 394.97 298.063 394.36C298.074 394.133 298.039 393.905 297.961 393.691C297.883 393.477 297.764 393.28 297.61 393.112C296.568 392.213 295.287 391.637 293.923 391.453C293.887 391.445 293.849 391.448 293.813 391.46C293.778 391.473 293.748 391.495 293.724 391.524C293.712 391.543 293.705 391.564 293.702 391.586C293.7 391.608 293.702 391.631 293.71 391.652ZM297.638 394.204V394.332C297.638 394.729 297.454 394.743 297.411 394.743C296.773 394.743 295.1 393.197 294.334 392.02C295.437 392.201 296.465 392.693 297.298 393.438C297.491 393.65 297.611 393.919 297.638 394.204Z" fill="#850000"/>
<path d="M380.449 468.38C380.992 468.968 381.716 469.358 382.506 469.486C382.706 469.489 382.904 469.442 383.082 469.351C383.26 469.259 383.412 469.126 383.526 468.961C383.608 468.87 383.663 468.759 383.686 468.639C383.708 468.519 383.697 468.395 383.654 468.28C383.243 467.047 379.216 465.912 378.748 465.799C378.704 465.785 378.657 465.786 378.613 465.801C378.57 465.816 378.532 465.846 378.507 465.884C378.483 465.922 378.47 465.966 378.47 466.012C378.47 466.057 378.483 466.101 378.507 466.139C379.085 466.943 379.735 467.693 380.449 468.38ZM382.988 468.082C383.1 468.169 383.184 468.287 383.229 468.422C383.256 468.462 383.27 468.509 383.27 468.557C383.27 468.605 383.256 468.652 383.229 468.692C383.154 468.8 383.055 468.888 382.939 468.95C382.823 469.011 382.694 469.044 382.562 469.046C381.797 469.046 380.605 468.053 379.315 466.409C380.625 466.755 381.867 467.321 382.988 468.082Z" fill="#850000"/>
<path d="M378.606 466.168C378.617 466.174 378.629 466.177 378.641 466.177C378.654 466.177 378.666 466.174 378.677 466.168C379.839 466.565 382.831 466.565 383.413 465.671C383.555 465.459 383.64 465.118 383.228 464.65C383.082 464.484 382.904 464.349 382.704 464.254C382.504 464.159 382.287 464.106 382.066 464.097C380.762 464.286 379.551 464.881 378.606 465.799C378.589 465.832 378.581 465.868 378.581 465.905C378.581 465.942 378.589 465.979 378.606 466.012C378.595 466.036 378.59 466.063 378.59 466.09C378.59 466.116 378.595 466.143 378.606 466.168ZM382.86 464.891C382.896 464.921 382.93 464.954 382.959 464.991C383.228 465.289 383.129 465.43 383.101 465.473C382.746 466.012 380.577 466.168 379.272 465.898C380.057 465.176 381.049 464.72 382.108 464.594C382.347 464.624 382.57 464.728 382.746 464.891H382.86Z" fill="#850000"/>
<path d="M359.435 257.509L359.094 260.799C359.009 261.068 359.378 261.295 359.818 261.267L398.742 258.431C399.082 258.431 399.337 258.218 399.323 258.019L399.039 254.772C399.039 254.545 398.685 254.375 398.316 254.403L360.03 257.239C359.916 257.223 359.799 257.24 359.693 257.288C359.588 257.335 359.498 257.412 359.435 257.509Z" fill="#850000"/>
<path opacity="0.7" d="M359.435 257.509L359.094 260.799C359.009 261.068 359.378 261.295 359.818 261.267L398.742 258.431C399.082 258.431 399.337 258.218 399.323 258.019L399.039 254.772C399.039 254.545 398.685 254.375 398.316 254.403L360.03 257.239C359.916 257.223 359.799 257.24 359.693 257.288C359.588 257.335 359.498 257.412 359.435 257.509Z" fill="white"/>
<path d="M362.753 261.323L361.732 261.394C361.519 261.394 361.349 261.323 361.335 261.196L361.009 256.942C361.009 256.814 361.151 256.701 361.363 256.686H362.384C362.583 256.686 362.767 256.686 362.767 256.885L363.107 261.139C363.122 261.196 363.008 261.309 362.753 261.323Z" fill="#850000"/>
<g opacity="0.2">
<path d="M362.753 261.323L361.732 261.394C361.519 261.394 361.349 261.323 361.335 261.196L361.009 256.942C361.009 256.814 361.151 256.701 361.363 256.686H362.384C362.583 256.686 362.767 256.686 362.767 256.885L363.107 261.139C363.122 261.196 363.008 261.309 362.753 261.323Z" fill="#850000"/>
</g>
<path d="M393.311 259.069L392.275 259.154C392.077 259.154 391.907 259.069 391.893 258.955L391.552 254.701C391.552 254.574 391.708 254.46 391.907 254.446L392.942 254.375C393.14 254.375 393.325 254.446 393.325 254.56L393.665 258.814C393.665 258.941 393.509 259.055 393.311 259.069Z" fill="#850000"/>
<path opacity="0.2" d="M393.311 259.069L392.275 259.154C392.077 259.154 391.907 259.069 391.893 258.955L391.552 254.701C391.552 254.574 391.708 254.46 391.907 254.446L392.942 254.375C393.14 254.375 393.325 254.446 393.325 254.56L393.665 258.814C393.665 258.941 393.509 259.055 393.311 259.069Z" fill="#850000"/>
<path d="M378.024 260.203L377.003 260.274C376.805 260.274 376.621 260.203 376.621 260.076L376.28 255.822C376.28 255.694 376.436 255.58 376.635 255.566L377.656 255.495C377.868 255.495 378.039 255.566 378.053 255.694L378.379 259.948C378.393 260.076 378.237 260.189 378.024 260.203Z" fill="#850000"/>
<path opacity="0.2" d="M378.024 260.203L377.003 260.274C376.805 260.274 376.621 260.203 376.621 260.076L376.28 255.822C376.28 255.694 376.436 255.58 376.635 255.566L377.656 255.495C377.868 255.495 378.039 255.566 378.053 255.694L378.379 259.948C378.393 260.076 378.237 260.189 378.024 260.203Z" fill="#850000"/>
<g opacity="0.2">
<path d="M362.753 261.323L361.732 261.394C361.519 261.394 361.349 261.323 361.335 261.196L361.009 256.942C361.009 256.814 361.151 256.701 361.363 256.686H362.384C362.583 256.686 362.767 256.686 362.767 256.885L363.107 261.139C363.122 261.196 363.008 261.309 362.753 261.323Z" fill="white"/>
<g opacity="0.2">
<path d="M362.753 261.323L361.732 261.394C361.519 261.394 361.349 261.323 361.335 261.196L361.009 256.942C361.009 256.814 361.151 256.701 361.363 256.686H362.384C362.583 256.686 362.767 256.686 362.767 256.885L363.107 261.139C363.122 261.196 363.008 261.309 362.753 261.323Z" fill="white"/>
</g>
<path d="M393.311 259.069L392.276 259.154C392.077 259.154 391.907 259.069 391.893 258.955L391.553 254.701C391.553 254.574 391.709 254.46 391.907 254.446L392.942 254.375C393.141 254.375 393.325 254.446 393.325 254.56L393.666 258.814C393.666 258.941 393.51 259.055 393.311 259.069Z" fill="white"/>
<path opacity="0.2" d="M393.311 259.069L392.276 259.154C392.077 259.154 391.907 259.069 391.893 258.955L391.553 254.701C391.553 254.574 391.709 254.46 391.907 254.446L392.942 254.375C393.141 254.375 393.325 254.446 393.325 254.56L393.666 258.814C393.666 258.941 393.51 259.055 393.311 259.069Z" fill="white"/>
<path d="M378.025 260.203L377.004 260.274C376.805 260.274 376.621 260.203 376.621 260.075L376.281 255.821C376.281 255.694 376.437 255.58 376.635 255.566L377.656 255.495C377.869 255.495 378.039 255.566 378.053 255.694L378.379 259.948C378.394 260.075 378.238 260.189 378.025 260.203Z" fill="white"/>
<path opacity="0.2" d="M378.025 260.203L377.004 260.274C376.805 260.274 376.621 260.203 376.621 260.075L376.281 255.821C376.281 255.694 376.437 255.58 376.635 255.566L377.656 255.495C377.869 255.495 378.039 255.566 378.053 255.694L378.379 259.948C378.394 260.075 378.238 260.189 378.025 260.203Z" fill="white"/>
</g>
<path d="M348.473 157.242C342.589 160.659 333.074 170.387 343.312 181.49C353.55 192.593 374.323 180.894 370.75 167.211C367.177 153.527 356.882 152.364 348.473 157.242Z" fill="#263238"/>
<path d="M344.758 175.832C349.012 184.071 350.628 187.658 356.811 190.126C366.127 193.827 375.316 186.807 373.614 177.463C372.097 169.054 365.404 157.001 355.634 157.27C353.479 157.322 351.374 157.923 349.517 159.017C347.66 160.111 346.114 161.662 345.024 163.521C343.934 165.38 343.338 167.487 343.292 169.642C343.245 171.797 343.75 173.927 344.758 175.832Z" fill="#FFB573"/>
<path d="M346.403 166.998C350.189 168.629 351.011 177.803 347.821 181.49C341.227 181.504 335.116 162.12 346.403 166.998Z" fill="#263238"/>
<path d="M365.191 170.983C366.499 172.284 367.978 173.4 369.587 174.301C369.349 174.709 369.023 175.059 368.633 175.326C368.243 175.593 367.799 175.771 367.333 175.846L365.191 170.983Z" fill="#ED893E"/>
<path d="M345.879 184.581C347.135 185.864 348.848 186.598 350.643 186.623C353.011 186.623 353.578 184.354 352.387 182.369C351.196 180.384 348.814 178.569 346.715 179.533C346.249 179.736 345.841 180.053 345.528 180.454C345.215 180.855 345.008 181.328 344.925 181.83C344.842 182.332 344.885 182.846 345.052 183.327C345.219 183.807 345.503 184.239 345.879 184.581Z" fill="#FFB573"/>
<path d="M355.436 171.904C355.526 171.878 355.606 171.824 355.664 171.751C355.723 171.677 355.757 171.587 355.762 171.493C355.89 170.782 356.165 170.105 356.571 169.507C356.976 168.908 357.503 168.402 358.116 168.019C358.214 167.955 358.282 167.855 358.306 167.74C358.33 167.626 358.307 167.507 358.243 167.409C358.179 167.311 358.079 167.243 357.965 167.219C357.851 167.195 357.731 167.218 357.634 167.282C356.889 167.731 356.249 168.336 355.76 169.056C355.27 169.775 354.942 170.592 354.798 171.45C354.794 171.568 354.836 171.683 354.915 171.771C354.995 171.858 355.105 171.911 355.223 171.918L355.436 171.904Z" fill="#263238"/>
<path d="M367.815 164.063C367.888 164.039 367.955 163.999 368.009 163.945C368.063 163.89 368.104 163.824 368.127 163.751C368.158 163.636 368.142 163.514 368.084 163.411C368.026 163.307 367.929 163.231 367.815 163.198C367.144 162.994 366.433 162.953 365.742 163.079C365.052 163.204 364.401 163.493 363.845 163.921C363.801 163.959 363.765 164.006 363.739 164.058C363.714 164.11 363.698 164.166 363.694 164.224C363.69 164.282 363.698 164.34 363.716 164.395C363.735 164.45 363.764 164.501 363.802 164.545C363.84 164.589 363.887 164.624 363.939 164.65C363.991 164.676 364.048 164.691 364.105 164.695C364.163 164.699 364.222 164.692 364.277 164.673C364.332 164.655 364.382 164.626 364.426 164.587C364.87 164.253 365.387 164.03 365.935 163.937C366.482 163.843 367.044 163.881 367.574 164.049C367.652 164.074 367.735 164.079 367.815 164.063Z" fill="#263238"/>
<path d="M368.51 178.073C368.21 179.394 368.002 180.735 367.886 182.086H367.177C363.944 182.312 362.37 181.348 361.604 180.214C361.244 179.65 361.025 179.008 360.966 178.342C360.909 177.966 360.909 177.584 360.966 177.208C363.021 177.953 365.21 178.252 367.39 178.087C368.085 178.115 368.51 178.073 368.51 178.073Z" fill="#263238"/>
<path d="M367.404 178.143L367.191 179.32C364.157 179.519 361.973 179.249 360.966 178.399C360.909 178.023 360.909 177.64 360.966 177.264C363.025 178.011 365.22 178.311 367.404 178.143Z" fill="white"/>
<path d="M367.177 182.142C363.944 182.369 362.37 181.405 361.604 180.271C362.836 180.21 364.069 180.364 365.248 180.724C366.023 180.984 366.698 181.48 367.177 182.142Z" fill="#DE5753"/>
<path d="M360.782 170.983L361.718 170.203C361.718 170.203 361.491 171.521 360.626 171.479C360.16 171.369 359.67 171.441 359.256 171.681C358.842 171.921 358.535 172.31 358.4 172.769C358.357 170.472 360.172 170.798 360.782 170.983Z" fill="#263238"/>
<path d="M368.127 167.806L369.063 167.026C369.063 167.026 368.836 168.345 367.971 168.303C367.505 168.196 367.016 168.27 366.603 168.509C366.19 168.749 365.883 169.136 365.744 169.593C365.702 167.324 367.503 167.622 368.127 167.806Z" fill="#263238"/>
<path d="M349.31 173.677C349.31 173.677 352.288 167.806 349.65 162.659C351.163 164.276 352.091 166.352 352.288 168.558C353.468 167.047 354.841 165.698 356.372 164.545C356.039 162.602 355.341 160.74 354.315 159.057C355.147 159.66 355.845 160.428 356.365 161.314C356.885 162.2 357.216 163.184 357.336 164.205C357.459 162.371 357.013 160.543 356.06 158.972C357.618 160.006 358.774 161.542 359.335 163.325L362.497 162.148C362.497 162.148 361.788 159.227 360.314 158.433C361.727 159.217 363.005 160.223 364.1 161.411C364.1 161.411 367.063 161.198 367.744 162.078C367.127 160.708 366.202 159.498 365.041 158.544C363.88 157.59 362.515 156.916 361.051 156.576C363.63 156.788 366.112 157.662 368.254 159.114C368.254 159.114 364.27 152.52 353.408 155.328C342.546 158.136 340.32 165.906 340.192 169.168C340.065 172.429 349.31 173.677 349.31 173.677Z" fill="#263238"/>
<path d="M343.312 163.07C340.863 161.342 338.006 160.281 335.022 159.993C332.038 159.704 329.031 160.198 326.296 161.425C316.2 165.537 321.432 187.148 333.031 195.982C344.631 204.816 350.927 199.385 350.927 199.385C350.927 199.385 344.659 201.966 338.845 194.975C340.583 196.187 342.563 197.008 344.648 197.382C346.734 197.757 348.875 197.676 350.927 197.145L347.594 196.308L350.927 195.074C349.465 195.315 347.971 195.257 346.533 194.904C345.095 194.551 343.743 193.909 342.56 193.018C342.56 193.018 346.46 194.139 348.998 193.018C348.998 193.018 336.023 192.451 332.464 180.497C328.905 168.544 341.724 170.316 341.724 170.316L343.312 163.07Z" fill="#263238"/>
<path d="M389.454 136.766L385.313 130.229L394.772 131.108C394.772 131.108 397.182 136.596 394.772 139.616L393.864 139.503C392.972 139.401 392.114 139.103 391.352 138.63C390.589 138.157 389.941 137.52 389.454 136.766Z" fill="#FFB573"/>
<path d="M384.859 123.309L392.814 122.827L394.771 131.108L385.313 130.229L384.859 123.309Z" fill="#FFB573"/>
<path d="M400.939 248.405L358.839 260.161C356.442 251.284 353.467 242.573 349.934 234.084C347.963 229.22 346.063 224.909 344.503 221.322C344.503 221.18 344.39 221.038 344.319 220.896C341.483 214.189 339.781 209.907 340.972 208.872C343.808 206.418 353.819 202.746 353.819 202.746C353.819 202.746 366.156 209.949 373.388 206.901C378.223 204.859 374.806 198.393 374.806 198.393C380.279 193.983 382.661 194.266 385.341 197.372C386.845 199.287 388.085 201.395 389.028 203.639C394.785 216.401 399.38 239.869 400.627 246.605C400.713 247.044 400.783 247.427 400.826 247.711C400.826 247.867 400.826 247.994 400.826 248.093C400.826 248.193 400.939 248.405 400.939 248.405Z" fill="#263238"/>
<path opacity="0.7" d="M400.94 248.405L358.839 260.161C356.442 251.283 353.467 242.573 349.934 234.083C347.963 229.22 346.063 224.909 344.503 221.321C344.491 221.159 344.448 221 344.375 220.854L350.246 221.208L351.749 221.293C351.749 221.293 352.416 208.758 354.826 205.468C354.826 205.468 366.709 211.254 373.6 208.304C380.492 205.355 377.287 199.413 377.287 199.413C381.46 199.885 385.46 201.343 388.957 203.667H389.028C395.438 217.521 399.961 243.017 400.755 247.625C400.755 247.781 400.755 247.909 400.755 248.008C400.755 248.107 400.94 248.405 400.94 248.405Z" fill="white"/>
<path opacity="0.2" d="M349.934 234.084C347.963 229.22 346.063 224.909 344.503 221.322C344.503 221.18 344.39 221.038 344.319 220.896C346 219.932 347.931 219.492 349.863 219.634C349.863 219.634 350.033 220.23 350.232 221.265C351.106 225.505 351.004 229.888 349.934 234.084Z" fill="black"/>
<path d="M351.664 219.109C345.17 229.39 336.945 238.791 325.771 244.166C324.781 244.644 323.703 244.916 322.604 244.965C321.505 245.014 320.407 244.839 319.378 244.45C318.348 244.062 317.409 243.468 316.616 242.705C315.824 241.941 315.195 241.025 314.768 240.011C312.556 235.402 312.102 231.092 311.45 226.469C310.829 220.967 310.597 215.427 310.755 209.892L317.731 209.113C319.149 214.217 320.567 219.393 321.985 224.342C322.992 227.547 323.971 231.29 325.601 233.842C325.686 233.942 325.715 233.942 325.672 233.842C324.951 233.066 323.998 232.543 322.956 232.351C321.913 232.159 320.837 232.309 319.887 232.779C327.742 227.986 334.265 219.421 339.569 211.693L351.678 219.081L351.664 219.109Z" fill="#FFB573"/>
<path d="M341.809 208.446C338.065 209.779 331.514 220.003 331.514 220.003L343.397 233.686C343.397 233.686 352.217 225.547 351.806 220.386C351.395 215.224 346.063 206.886 341.809 208.446Z" fill="#263238"/>
<path d="M349.778 203.852C349.778 203.852 405.52 222.484 426.463 259.154L424.592 264.641C424.592 264.641 413.446 230.609 347.594 205.227L349.778 203.852Z" fill="#850000"/>
<path opacity="0.3" d="M349.778 203.852C349.778 203.852 405.52 222.484 426.463 259.154L424.592 264.641C424.592 264.641 413.446 230.609 347.594 205.227L349.778 203.852Z" fill="black"/>
<path d="M308.642 191.388L334.421 201.441L333.187 225.193L303.551 213.593L305.778 191.983L308.642 191.388Z" fill="#850000"/>
<path opacity="0.2" d="M308.642 191.388L334.421 201.441L333.187 225.193L303.551 213.593L305.778 191.983L308.642 191.388Z" fill="black"/>
<path d="M333.244 202.42L331.471 222.995L325.346 224.782L324.665 201.966L333.244 202.42Z" fill="#850000"/>
<path opacity="0.7" d="M333.244 202.42L331.471 222.995L325.346 224.782L324.665 201.966L333.244 202.42Z" fill="white"/>
<path d="M334.421 201.441L330.351 203.412L328.352 225.618L301.467 214.799L305.778 191.983L308.642 191.388L334.421 201.441Z" fill="#850000"/>
<path d="M323.8 230.014C323.148 228.227 322.524 226.299 321.957 224.342C320.539 219.393 319.121 214.217 317.703 209.113L310.726 209.892C310.568 215.427 310.801 220.967 311.421 226.469C311.746 229.334 312.253 232.176 312.938 234.977C313.348 236.699 313.952 238.368 314.739 239.954C315.032 240.533 315.379 241.084 315.774 241.599C316.409 242.463 317.198 243.203 318.1 243.783L318.582 244.066L319.192 244.364L319.83 244.605C320.081 244.689 320.337 244.76 320.595 244.818C321.665 245.052 322.773 245.052 323.843 244.818C324.328 244.709 324.802 244.557 325.261 244.364L325.771 244.123L326.324 243.868C326.849 243.612 327.345 243.343 327.841 243.088C327.827 243.13 325.175 228.908 323.8 230.014Z" fill="#FFB573"/>
<path d="M310.698 211.041L309.762 199.839L318.638 205.312C318.638 205.312 318.326 211.892 314.469 213.721L310.698 211.041Z" fill="#FFB573"/>
<path d="M314.002 192.338L321.191 197.329L318.638 205.312L309.762 199.853L314.002 192.338Z" fill="#FFB573"/>
<path d="M236.536 285.018C236.536 285.018 213.721 294.32 202.306 292.633C190.891 290.945 187.729 319.575 202.306 325.927C216.883 332.28 233.814 330.692 239.897 326.722C245.98 322.751 236.536 285.018 236.536 285.018Z" fill="#850000"/>
<path opacity="0.2" d="M236.536 285.018C236.536 285.018 213.721 294.32 202.306 292.633C190.891 290.945 187.729 319.575 202.306 325.927C216.883 332.28 233.814 330.692 239.897 326.722C245.98 322.751 236.536 285.018 236.536 285.018Z" fill="black"/>
<path d="M236.536 285.018C236.536 285.018 255.409 301.609 256.544 306.657C257.678 311.705 244.009 327.785 237.472 326.665C230.935 325.545 233.218 286.72 233.218 286.72L236.536 285.018Z" fill="#850000"/>
<path opacity="0.2" d="M236.536 285.018C236.536 285.018 255.409 301.609 256.544 306.657C257.678 311.705 244.009 327.785 237.472 326.665C230.935 325.545 233.218 286.72 233.218 286.72L236.536 285.018Z" fill="white"/>
<path d="M190.579 225.689C200.802 218.018 211.849 210.687 221.931 203.001C224.767 199.343 225.759 194.706 226.979 190.111C228.397 184.255 229.489 178.03 230.396 171.933L237.032 172.046C237.642 178.616 237.642 185.229 237.032 191.799C236.153 198.818 234.976 207.142 229.545 212.459C219.641 221.073 209.259 229.121 198.449 236.565L190.65 225.646L190.579 225.689Z" fill="#DC897C"/>
<path d="M197.101 244.336C205.865 244.69 224.384 222.796 224.384 222.796L212.075 210.729C205.133 214.377 198.689 218.905 192.904 224.2C184.339 232.552 187.36 243.896 197.101 244.336Z" fill="#263238"/>
<path opacity="0.2" d="M197.101 244.336C205.865 244.69 224.384 222.796 224.384 222.796L212.075 210.729C205.133 214.377 198.689 218.905 192.904 224.2C184.339 232.552 187.36 243.896 197.101 244.336Z" fill="white"/>
<path opacity="0.1" d="M198.194 244.293C195.499 241.344 195.684 237.076 201.03 231.205C206.343 225.761 212.483 221.19 219.223 217.663L224.469 222.796C224.469 222.796 207.297 243.187 198.194 244.293Z" fill="black"/>
<path d="M230.17 178.668L227.901 165.764L239.344 165.608C239.344 165.608 242.18 174.4 236.295 179.221L230.17 178.668Z" fill="#E4897B"/>
<path d="M230.779 156.944L239.344 158.859V165.651L227.901 165.807L230.779 156.944Z" fill="#E4897B"/>
<path d="M174.569 498.215L162.644 498.413C162.45 498.416 162.262 498.484 162.113 498.608C161.963 498.732 161.86 498.903 161.822 499.094L160.021 507.857C159.98 508.044 159.977 508.238 160.013 508.427C160.049 508.615 160.123 508.795 160.23 508.954C160.338 509.113 160.476 509.248 160.638 509.352C160.799 509.456 160.98 509.526 161.169 509.559C161.278 509.572 161.387 509.572 161.495 509.559C165.352 509.431 168.146 509.161 172.995 509.076C175.973 509.076 184.977 509.204 189.104 509.076C193.23 508.949 193.684 504.936 191.94 504.596C184.354 503.064 178.625 500.866 176.172 498.739C175.719 498.375 175.15 498.188 174.569 498.215Z" fill="#263238"/>
<path d="M275.091 498.215L263.18 498.413C262.984 498.412 262.793 498.48 262.64 498.604C262.488 498.728 262.383 498.901 262.343 499.094L260.557 507.857C260.516 508.043 260.513 508.236 260.548 508.424C260.583 508.612 260.656 508.79 260.762 508.949C260.868 509.108 261.004 509.244 261.164 509.349C261.324 509.453 261.503 509.525 261.691 509.559C261.799 509.572 261.909 509.572 262.017 509.559C265.874 509.431 268.682 509.161 273.517 509.076C276.495 509.076 285.499 509.204 289.626 509.076C293.752 508.949 294.22 504.936 292.462 504.596C284.876 503.064 279.147 500.866 276.694 498.739C276.241 498.375 275.672 498.188 275.091 498.215Z" fill="#263238"/>
<path d="M159.993 498.824H176.229C176.229 498.824 196.903 430.675 198.676 413.29C200.448 395.906 201.1 352.316 201.1 352.316V352.401C201.809 353.337 207.935 361.959 214.997 371.984C224.228 385.101 235.062 400.613 237.345 404.414C244.038 415.616 260.43 498.767 260.43 498.767H276.652C276.652 498.767 272.568 424.337 264.23 399.805C255.892 375.274 219.846 321.702 218.287 318.823C216.287 315.151 211.381 303.495 211.381 303.495L162.729 310.258C162.729 310.258 161.935 318.497 161.992 325.701C162.219 352.728 167.324 389.255 168.146 399.082C169.749 417.814 159.993 498.824 159.993 498.824Z" fill="#850000"/>
<path d="M199.937 225.023C199.937 225.023 214.5 250.986 211.409 303.551L162.771 310.315C161.353 302.899 161.027 265.818 148.932 231.63C154.167 229.871 159.509 228.45 164.927 227.376C171.757 226.03 178.66 225.083 185.601 224.54C190.385 224.33 195.178 224.491 199.937 225.023Z" fill="#263238"/>
<path opacity="0.2" d="M211.452 303.551L162.8 310.315C161.935 305.678 161.467 289.4 158.277 269.477C157.426 264.159 156.377 258.572 155.058 252.9C153.424 245.702 151.388 238.601 148.96 231.63C154.193 229.863 159.536 228.442 164.955 227.376C171.791 226.03 178.699 225.083 185.644 224.54C190.431 224.372 195.223 224.566 199.98 225.122C199.98 225.122 214.529 250.986 211.452 303.551Z" fill="white"/>
<path d="M162.077 203.71C164.813 209.992 168.755 221.719 165.125 227.107C172.003 228.397 176.937 229.192 183.318 232.779C184.325 228.327 185.516 222.584 185.516 222.584C177.816 222.456 176.795 216.912 177.008 211.608L162.077 203.71Z" fill="#E4897B"/>
<path opacity="0.2" d="M168.146 206.943L176.938 211.622C176.894 212.877 176.95 214.134 177.108 215.38C174.272 215.593 169.72 213.381 168.77 210.516C168.341 209.375 168.129 208.163 168.146 206.943Z" fill="black"/>
<path opacity="0.5" d="M159.993 498.824H176.229C176.229 498.824 196.903 430.675 198.676 413.29C200.448 395.906 201.1 352.316 201.1 352.316V352.401C201.809 353.337 207.935 361.959 214.997 371.984C224.228 385.101 235.062 400.613 237.345 404.414C244.038 415.616 260.43 498.767 260.43 498.767H276.652C276.652 498.767 272.568 424.337 264.23 399.805C255.892 375.274 219.846 321.702 218.287 318.823C216.287 315.151 211.381 303.495 211.381 303.495L162.729 310.258C162.729 310.258 161.935 318.497 161.992 325.701C162.219 352.728 167.324 389.255 168.146 399.082C169.749 417.814 159.993 498.824 159.993 498.824Z" fill="white"/>
<path d="M158.872 228.681L162.913 223.633L176.002 226.157L182.652 233.772L183.489 224.98L185.942 222.045L191.316 224.356V229.858L187.487 228.61L184.183 236.296L173.733 231.999L171.407 234.963L158.872 228.681Z" fill="#263238"/>
<path opacity="0.3" d="M158.872 228.681L162.913 223.633L176.002 226.157L182.652 233.772L183.489 224.98L185.942 222.045L191.316 224.356V229.858L187.487 228.61L184.183 236.296L173.733 231.999L171.407 234.963L158.872 228.681Z" fill="white"/>
<path opacity="0.1" d="M184.184 236.296L185.446 227.107L191.316 229.858L187.488 228.61L184.184 236.296Z" fill="black"/>
<path opacity="0.1" d="M184.183 236.296L174.498 229.163L171.407 234.963L173.733 231.999L184.183 236.296Z" fill="black"/>
<path opacity="0.1" d="M158.276 269.42C157.426 264.103 156.376 258.516 155.058 252.844C156.627 250.897 158.858 249.595 161.325 249.185C161.325 249.185 162.658 262.117 158.276 269.42Z" fill="black"/>
<path opacity="0.2" d="M201.1 352.345V352.43C201.809 353.366 207.935 361.987 214.996 372.012C215.695 366.587 214.773 361.075 212.345 356.172C209.918 351.27 206.094 347.195 201.355 344.461L201.1 352.345Z" fill="black"/>
<path d="M176.484 177.321C181.361 178.569 186.112 190.82 180.851 194.578C175.59 198.336 167.323 174.981 176.484 177.321Z" fill="#263238"/>
<path d="M158.333 194.706C161.85 203.214 163.467 208.432 169.436 211.566C171.367 212.602 173.544 213.091 175.732 212.98C177.921 212.869 180.037 212.163 181.853 210.937C183.669 209.71 185.115 208.011 186.036 206.023C186.957 204.035 187.316 201.832 187.076 199.654C186.296 191.246 180.695 178.668 170.883 177.817C168.765 177.573 166.62 177.89 164.664 178.737C162.707 179.584 161.008 180.93 159.736 182.641C158.465 184.353 157.666 186.368 157.42 188.486C157.173 190.603 157.489 192.748 158.333 194.706Z" fill="#E4897B"/>
<path d="M164.828 182.312L162.871 174.641C161.082 175.925 158.933 176.61 156.731 176.598C147.145 176.158 141.218 183.362 146.45 187.701C142.466 190.395 145.968 195.883 149.584 199.13C154.59 203.639 159.34 205.312 161.864 202.377C164.26 200.59 162.984 191.345 161.467 188.098C159.198 183.234 164.828 182.312 164.828 182.312Z" fill="#263238"/>
<path d="M157.937 204.348C159.681 205.834 161.885 206.671 164.176 206.716C167.012 206.716 167.239 203.979 165.367 201.725C163.68 199.697 160.149 197.258 157.767 198.364C155.384 199.47 155.725 202.49 157.937 204.348Z" fill="#E4897B"/>
<path d="M172.528 193.103C172.769 193.812 173.35 194.28 173.818 194.139C174.286 193.997 174.47 193.302 174.229 192.593C173.988 191.884 173.407 191.43 172.939 191.572C172.471 191.714 172.287 192.394 172.528 193.103Z" fill="#263238"/>
<path d="M180.639 190.664C180.88 191.373 181.461 191.827 181.929 191.685C182.397 191.544 182.581 190.849 182.34 190.14C182.099 189.431 181.518 188.977 181.05 189.119C180.582 189.261 180.398 190.012 180.639 190.664Z" fill="#263238"/>
<path d="M178.186 191.785C179.782 193.7 181.628 195.393 183.673 196.818C183.295 197.316 182.811 197.723 182.257 198.012C181.704 198.302 181.093 198.465 180.469 198.492L178.186 191.785Z" fill="#DE5753"/>
<path d="M169.138 191.274C169.069 191.295 168.995 191.295 168.926 191.274C168.87 191.255 168.82 191.225 168.776 191.186C168.732 191.147 168.697 191.1 168.672 191.047C168.647 190.994 168.633 190.937 168.63 190.879C168.627 190.82 168.636 190.762 168.656 190.707C168.869 190.051 169.239 189.456 169.733 188.974C170.227 188.492 170.831 188.138 171.492 187.942C171.549 187.929 171.608 187.928 171.665 187.939C171.722 187.949 171.777 187.971 171.826 188.002C171.875 188.034 171.917 188.075 171.949 188.123C171.982 188.171 172.005 188.225 172.017 188.282C172.039 188.395 172.018 188.511 171.957 188.609C171.897 188.706 171.801 188.777 171.691 188.807C171.169 188.965 170.694 189.248 170.306 189.631C169.919 190.014 169.63 190.485 169.465 191.005C169.437 191.073 169.393 191.134 169.336 191.181C169.279 191.228 169.211 191.26 169.138 191.274Z" fill="#263238"/>
<path d="M183.191 186.85C183.12 186.859 183.047 186.852 182.979 186.83C182.91 186.808 182.847 186.771 182.794 186.722C182.411 186.309 181.938 185.988 181.413 185.784C180.887 185.58 180.322 185.498 179.76 185.545C179.645 185.566 179.527 185.54 179.431 185.474C179.335 185.407 179.27 185.306 179.249 185.191C179.233 185.075 179.262 184.957 179.331 184.861C179.399 184.766 179.502 184.701 179.618 184.68C180.318 184.604 181.026 184.692 181.686 184.938C182.346 185.184 182.939 185.582 183.418 186.098C183.459 186.139 183.492 186.188 183.514 186.241C183.536 186.295 183.548 186.352 183.548 186.41C183.548 186.468 183.536 186.526 183.514 186.579C183.492 186.633 183.459 186.681 183.418 186.722C183.358 186.788 183.279 186.833 183.191 186.85Z" fill="#263238"/>
<path d="M156.362 177.69C156.362 177.69 161.283 164.375 173.676 165.41C172.53 165.811 171.471 166.427 170.556 167.225C170.556 167.225 180.979 164.984 185.19 171.975L183.021 171.053C183.021 171.053 186.466 176.839 183.829 181.277L182.992 179.32C182.992 179.32 179.348 185.205 172.712 184.496L174.796 183.078C174.796 183.078 163.665 184.127 160.616 181.66C159.054 180.501 157.627 179.169 156.362 177.69Z" fill="#263238"/>
<path d="M182.595 200.746C178.816 200.462 175.018 200.533 171.251 200.959C172.428 203.398 174.414 205.298 178.682 204.915C179.219 204.921 179.752 204.814 180.246 204.603C180.74 204.392 181.185 204.081 181.553 203.689C181.921 203.298 182.204 202.834 182.383 202.327C182.562 201.821 182.635 201.282 182.595 200.746Z" fill="#263238"/>
<path d="M176.527 203.1C178.16 202.873 179.824 203.171 181.277 203.951C180.527 204.533 179.616 204.869 178.668 204.915C177.039 205.149 175.378 204.851 173.932 204.064C174.676 203.483 175.583 203.146 176.527 203.1Z" fill="#A02724"/>
<path d="M182.212 200.704C182.167 201.03 182.03 201.337 181.816 201.589C181.603 201.84 181.322 202.025 181.007 202.122C178.534 202.322 176.049 202.322 173.577 202.122C173.181 202.119 172.792 202.018 172.446 201.827C172.099 201.636 171.806 201.362 171.591 201.03C175.119 200.657 178.669 200.548 182.212 200.704Z" fill="white"/>
<path d="M173.18 270.838L161.51 257.339L153.285 284.791C153.285 284.791 157.794 294.859 157.965 294.363C158.135 293.866 173.18 270.838 173.18 270.838Z" fill="#850000"/>
<path d="M171.649 271.108L161.51 259.778L155.739 258.431L154.08 282.069L160.758 286.72L171.649 271.108Z" fill="#850000"/>
<path opacity="0.7" d="M171.649 271.108L161.51 259.778L155.739 258.431L154.08 282.069L160.758 286.72L171.649 271.108Z" fill="white"/>
<path d="M155.554 255.836L165.976 269.179L173.179 270.767L162.204 307.21L151.796 308.316L145.216 293.172L155.554 255.836Z" fill="#850000"/>
<path opacity="0.2" d="M155.554 255.836L165.976 269.179L173.179 270.767L162.204 307.21L151.796 308.316L145.216 293.172L155.554 255.836Z" fill="white"/>
<path d="M165.579 271.363L152.817 258.828L146.776 286.847C146.776 286.847 152.08 296.518 152.207 296.008C152.335 295.497 165.579 271.363 165.579 271.363Z" fill="#850000"/>
<path opacity="0.4" d="M165.579 271.363L152.817 258.828L146.776 286.847C146.776 286.847 152.08 296.518 152.207 296.008C152.335 295.497 165.579 271.363 165.579 271.363Z" fill="black"/>
<path d="M164.09 271.831L153.086 261.323L147.23 260.444L147.428 284.139L154.462 288.251L164.09 271.831Z" fill="#850000"/>
<path opacity="0.7" d="M164.09 271.831L153.086 261.323L147.23 260.444L147.428 284.139L154.462 288.251L164.09 271.831Z" fill="white"/>
<path d="M146.848 257.863L158.291 270.356L165.579 271.363L157.525 308.571L147.231 310.471L139.474 295.908L146.848 257.863Z" fill="#850000"/>
<path opacity="0.2" d="M146.848 257.863L158.291 270.356L165.579 271.363L157.525 308.571L147.231 310.471L139.474 295.908L146.848 257.863Z" fill="black"/>
<path d="M155.852 243.896C147.826 252.305 138.921 260.657 132.37 270.243C132.1 270.682 131.817 271.207 131.703 271.42C131.751 271.152 131.751 270.879 131.703 270.611C131.703 270.342 131.505 270.299 131.547 270.427C132.072 271.731 134.383 273.362 135.801 274.341C140.501 277.227 145.417 279.744 150.506 281.87L148.889 288.237C142.678 287.516 136.603 285.902 130.852 283.444C123.025 280.154 116.531 273.149 121.65 264.287C125.163 258.142 129.348 252.407 134.128 247.186C138.113 242.662 142.168 238.394 146.55 234.211L155.894 243.825L155.852 243.896Z" fill="#DC897C"/>
<path d="M155.725 230.68C141.842 227.844 125.011 254.106 125.011 254.106L138.964 265.166C146.122 260.642 152.912 255.559 159.27 249.965C168.047 241.854 164.956 232.552 155.725 230.68Z" fill="#263238"/>
<path opacity="0.2" d="M155.725 230.68C141.842 227.844 125.011 254.106 125.011 254.106L138.964 265.166C146.122 260.642 152.912 255.559 159.27 249.965C168.047 241.854 164.956 232.552 155.725 230.68Z" fill="white"/>
<path d="M146.947 280.509L159.978 279.091L159.34 290.534C159.34 290.534 150.378 292.775 145.968 286.535L146.947 280.509Z" fill="#E4897B"/>
<path d="M168.628 282.636L166.104 291.045L159.34 290.577L159.978 279.133L168.628 282.636Z" fill="#E4897B"/>
<path d="M189.6 223.449C189.6 223.449 218.357 250.561 233.558 287.585L236.479 285.018C236.479 285.018 218.371 246.449 194.577 222.853L189.6 223.449Z" fill="#850000"/>
</svg>
