<svg width="809" height="603" viewBox="0 0 809 603" fill="none" xmlns="http://www.w3.org/2000/svg">
<path d="M809 529.733H0V530.138H809V529.733Z" fill="#EBEBEB"/>
<path d="M510.755 540.752H469.561V541.156H510.755V540.752Z" fill="#EBEBEB"/>
<path d="M736.901 549.505H639.287V549.91H736.901V549.505Z" fill="#EBEBEB"/>
<path d="M460.79 540.946H359.94V541.35H460.79V540.946Z" fill="#EBEBEB"/>
<path d="M294.542 553.049H273.443V553.453H294.542V553.049Z" fill="#EBEBEB"/>
<path d="M411.118 553.049H315.041V553.453H411.118V553.049Z" fill="#EBEBEB"/>
<path d="M147.092 546.221H84.8799V546.625H147.092V546.221Z" fill="#EBEBEB"/>
<path d="M383.466 457.57H71.0468C68.5993 457.566 66.2536 456.591 64.5245 454.859C62.7954 453.127 61.8242 450.779 61.8242 448.332V9.15788C61.8455 6.72445 62.8261 4.39769 64.5529 2.683C66.2797 0.968305 68.6133 0.0041686 71.0468 0H383.466C385.917 0 388.267 0.973369 389.999 2.70598C391.732 4.43858 392.705 6.7885 392.705 9.23878V448.332C392.705 450.782 391.732 453.132 389.999 454.864C388.267 456.597 385.917 457.57 383.466 457.57ZM71.0468 0.323601C68.7066 0.327887 66.4637 1.26053 64.8105 2.91681C63.1572 4.5731 62.2287 6.81768 62.2287 9.15788V448.332C62.2287 450.672 63.1572 452.916 64.8105 454.573C66.4637 456.229 68.7066 457.162 71.0468 457.166H383.466C385.808 457.162 388.053 456.229 389.708 454.574C391.364 452.918 392.296 450.673 392.301 448.332V9.15788C392.296 6.8162 391.364 4.57165 389.708 2.91582C388.053 1.26 385.808 0.327878 383.466 0.323601H71.0468Z" fill="#EBEBEB"/>
<path d="M733.456 457.57H421.02C418.571 457.566 416.224 456.591 414.492 454.86C412.76 453.128 411.786 450.781 411.781 448.332V9.15788C411.807 6.72297 412.791 4.39623 414.52 2.68198C416.25 0.96774 418.585 0.00412313 421.02 0H733.456C735.887 0.00842087 738.216 0.974439 739.939 2.68868C741.663 4.40291 742.641 6.72724 742.662 9.15788V448.332C742.662 450.776 741.693 453.121 739.968 454.853C738.242 456.585 735.9 457.562 733.456 457.57ZM421.02 0.323601C418.678 0.327878 416.434 1.26 414.778 2.91582C413.122 4.57165 412.19 6.8162 412.186 9.15788V448.332C412.19 450.673 413.122 452.918 414.778 454.574C416.434 456.229 418.678 457.162 421.02 457.166H733.456C735.797 457.162 738.042 456.229 739.698 454.574C741.354 452.918 742.286 450.673 742.29 448.332V9.15788C742.286 6.8162 741.354 4.57165 739.698 2.91582C738.042 1.26 735.797 0.327878 733.456 0.323601H421.02Z" fill="#EBEBEB"/>
<path d="M317.064 389.404H209.629L203.108 314.167H310.544L317.064 389.404Z" fill="#E6E6E6"/>
<path d="M322.63 389.404H215.194L208.674 314.167H316.109L322.63 389.404Z" fill="#F0F0F0"/>
<path d="M229.885 373.24L226.293 330.315H301.417L305.009 373.24H229.885Z" fill="white"/>
<path d="M341.22 389.404H328.616V529.733H341.22V389.404Z" fill="#E6E6E6"/>
<path d="M345.201 389.404H336.447V529.733H345.201V389.404Z" fill="#F0F0F0"/>
<path d="M223.187 404.888H345.2V389.404H223.187V404.888Z" fill="#F0F0F0"/>
<path d="M227.49 404.888H214.886V529.733H227.49V404.888Z" fill="#E6E6E6"/>
<path d="M231.47 404.888H222.717V529.733H231.47V404.888Z" fill="#F0F0F0"/>
<path d="M137.773 404.888H125.169V529.733H137.773V404.888Z" fill="#E6E6E6"/>
<path d="M141.753 404.888H133V529.733H141.753V404.888Z" fill="#F0F0F0"/>
<path d="M261.453 404.888H248.849V529.733H261.453V404.888Z" fill="#E6E6E6"/>
<path d="M265.417 404.888H256.664V529.733H265.417V404.888Z" fill="#F0F0F0"/>
<path d="M223.187 389.404H125.169V404.888H223.187V389.404Z" fill="#E6E6E6"/>
<path d="M588.693 39.4954H209.547V250.58H588.693V39.4954Z" fill="#E0E0E0"/>
<path d="M609.517 39.4954H211.457V250.58H609.517V39.4954Z" fill="#F5F5F5"/>
<path d="M603.014 244.075V45.9998L217.962 45.9998V244.075L603.014 244.075Z" fill="white"/>
<path d="M373.871 244.075L446.568 45.9998H326.593L253.896 244.075H373.871Z" fill="#F5F5F5"/>
<path d="M489.348 244.075L562.045 45.9998H471.534L398.837 244.075H489.348Z" fill="#F5F5F5"/>
<path d="M708.861 328.13H676.631V529.733H708.861V328.13Z" fill="#E6E6E6"/>
<path d="M700.384 529.733H708.862V514.217H691.501L700.384 529.733Z" fill="#FAFAFA"/>
<path d="M411.699 328.13H379.469V529.733H411.699V328.13Z" fill="#E6E6E6"/>
<path d="M708.862 328.13H404.306V525.543H708.862V328.13Z" fill="#FAFAFA"/>
<path d="M703.102 391.831H410.082V336.075H703.102V391.831ZM411.7 390.213H701.484V337.693H411.7V390.213Z" fill="#E6E6E6"/>
<path d="M651.52 363.144H467.343C458.8 363.144 450.564 356.251 444.691 344.213L444.141 343.065H674.706L674.156 344.213C668.234 356.251 660.144 363.144 651.52 363.144ZM446.794 344.634C452.263 355.361 459.738 361.477 467.343 361.477H651.52C659.157 361.477 666.599 355.361 672.068 344.634H446.794Z" fill="#E6E6E6"/>
<path d="M412.784 529.733H404.306V514.217H421.667L412.784 529.733Z" fill="#FAFAFA"/>
<path d="M703.102 454.658H410.082V398.966H703.102V454.658ZM411.7 453.04H701.484V400.584H411.7V453.04Z" fill="#E6E6E6"/>
<path d="M651.52 426.036H467.343C458.8 426.036 450.564 419.127 444.691 407.105L444.141 405.94H674.706L674.156 407.105C668.234 419.062 660.144 426.036 651.52 426.036ZM446.794 407.558C452.263 418.285 459.738 424.418 467.343 424.418H651.52C659.157 424.418 666.599 418.285 672.068 407.558H446.794Z" fill="#E6E6E6"/>
<path d="M703.102 517.598H410.082V461.842H703.102V517.598ZM411.7 515.98H701.484V463.46H411.7V515.98Z" fill="#E6E6E6"/>
<path d="M651.52 488.911H467.343C458.8 488.911 450.564 482.018 444.691 469.997L444.141 468.832H674.706L674.156 469.997C668.234 482.018 660.144 488.911 651.52 488.911ZM446.794 470.45C452.263 481.177 459.738 487.293 467.343 487.293H651.52C659.157 487.293 666.599 481.177 672.068 470.45H446.794Z" fill="#E6E6E6"/>
<path d="M195.744 354.795V358.711H193.253L191.182 389.404H160.699L158.644 358.711H156.136V354.795H195.744Z" fill="#E6E6E6"/>
<path d="M185.714 278.636C183.223 260.352 158.548 255.142 127.24 254.463C97.4524 253.832 87.9062 243.299 87.9062 243.299C87.9062 243.299 88.0033 285.965 130.929 301.433C171.686 316.092 188.222 296.952 185.714 278.636Z" fill="#E6E6E6"/>
<path d="M170.505 320.073C171.023 312.565 183.028 298.748 211.909 305.025C232.782 309.572 240.548 298.747 240.548 298.747C240.548 298.747 238.606 329.295 207.217 338.469C177.397 347.19 169.583 333.308 170.505 320.073Z" fill="#E6E6E6"/>
<path d="M177.09 366.315C177.252 366.317 177.413 366.283 177.562 366.216C177.71 366.149 177.841 366.05 177.947 365.927C180.035 363.451 178.32 357.529 175.957 349.326C172.915 338.809 169.129 325.703 172.333 316.206C174.109 311.189 176.183 306.283 178.546 301.514C183.076 291.936 186.992 283.716 183.724 275.011C183.673 274.873 183.595 274.746 183.494 274.638C183.394 274.53 183.273 274.442 183.139 274.381C183.005 274.32 182.859 274.286 182.712 274.281C182.564 274.277 182.418 274.301 182.28 274.353C182.142 274.406 182.015 274.485 181.908 274.587C181.801 274.688 181.715 274.81 181.655 274.945C181.596 275.08 181.563 275.225 181.56 275.373C181.557 275.52 181.583 275.667 181.636 275.804C184.565 283.554 181.022 291.062 176.524 300.576C174.131 305.421 172.024 310.402 170.213 315.494C166.799 325.655 170.683 339.133 173.805 349.941C175.65 356.413 177.559 362.885 176.248 364.503C176.144 364.615 176.065 364.747 176.015 364.891C175.964 365.035 175.945 365.188 175.957 365.34C175.969 365.493 176.013 365.641 176.085 365.775C176.158 365.909 176.257 366.027 176.378 366.121C176.585 366.268 176.837 366.337 177.09 366.315Z" fill="#E6E6E6"/>
<path d="M404.5 602.802C577.76 602.802 718.214 594.602 718.214 584.486C718.214 574.371 577.76 566.171 404.5 566.171C231.241 566.171 90.7861 574.371 90.7861 584.486C90.7861 594.602 231.241 602.802 404.5 602.802Z" fill="#F5F5F5"/>
<path d="M404.436 495.189H174.68L162.108 125.686H391.864L404.436 495.189Z" fill="#850000"/>
<path d="M415.908 483.717H186.152L173.563 114.215H403.319L415.908 483.717Z" fill="#850000"/>
<path opacity="0.3" d="M415.908 483.717H186.152L173.563 114.215H403.319L415.908 483.717Z" fill="white"/>
<path d="M338.929 266.264C363.529 241.24 362.483 200.32 336.591 174.868C310.7 149.415 269.768 149.069 245.168 174.093C220.568 199.118 221.614 240.038 247.506 265.49C273.397 290.943 314.329 291.289 338.929 266.264Z" fill="#850000"/>
<path d="M345.396 220.194C345.727 228.998 343.806 237.742 339.814 245.596C335.506 254.061 328.924 261.158 320.807 266.091C312.691 271.023 303.36 273.597 293.863 273.523C284.142 273.47 274.606 270.863 266.211 265.961C257.816 261.059 250.858 254.036 246.035 245.596C241.537 237.862 239.025 229.135 238.721 220.194C238.423 213.261 239.537 206.339 241.996 199.85C244.455 193.361 248.208 187.44 253.026 182.446C257.845 177.452 263.628 173.49 270.025 170.8C276.422 168.11 283.299 166.749 290.238 166.8C304.534 166.901 318.241 172.505 328.512 182.448C338.784 192.391 344.83 205.909 345.396 220.194Z" fill="white"/>
<path opacity="0.6" d="M339.78 245.596C335.472 254.061 328.89 261.158 320.774 266.091C312.657 271.023 303.327 273.597 293.829 273.523C284.108 273.47 274.572 270.862 266.177 265.961C257.783 261.059 250.824 254.036 246.001 245.596C259.685 236.267 275.876 231.308 292.438 231.374C309.266 231.41 325.718 236.353 339.78 245.596Z" fill="#850000"/>
<path opacity="0.6" d="M308.669 218.863C317.715 209.661 317.33 194.615 307.81 185.256C298.289 175.897 283.238 175.769 274.192 184.971C265.147 194.173 265.531 209.219 275.052 218.579C284.572 227.938 299.623 228.065 308.669 218.863Z" fill="#850000"/>
<path d="M369.746 349.909H223.187L222.2 320.785H368.759L369.746 349.909Z" fill="white"/>
<path d="M371.526 401.96H224.952L223.965 372.836H370.539L371.526 401.96Z" fill="white"/>
<path d="M314.961 376.848L279.64 381.702C279.303 381.741 278.977 381.848 278.684 382.019C278.391 382.189 278.136 382.418 277.935 382.692C277.735 382.965 277.593 383.277 277.519 383.608C277.444 383.939 277.439 384.282 277.504 384.615L282.148 408.286C282.3 408.981 282.706 409.593 283.287 410.004C283.868 410.414 284.581 410.592 285.287 410.503L320.608 405.649C320.944 405.606 321.268 405.495 321.559 405.322C321.851 405.15 322.104 404.919 322.303 404.644C322.501 404.37 322.642 404.057 322.715 403.726C322.788 403.395 322.792 403.053 322.727 402.72L318.1 379.049C317.948 378.355 317.541 377.744 316.959 377.337C316.378 376.929 315.665 376.755 314.961 376.848ZM304.816 400.827L298.344 401.685L297.713 394.048C297.046 393.759 296.458 393.315 295.999 392.752C295.54 392.188 295.223 391.523 295.076 390.812C294.957 390.261 294.955 389.691 295.07 389.139C295.185 388.587 295.415 388.065 295.744 387.608C296.074 387.15 296.495 386.767 296.982 386.483C297.469 386.199 298.01 386.02 298.57 385.958C299.72 385.81 300.883 386.098 301.829 386.766C302.776 387.435 303.438 388.433 303.683 389.566C303.824 390.25 303.781 390.958 303.559 391.62C303.337 392.282 302.945 392.874 302.421 393.336L304.816 400.827Z" fill="#850000"/>
<path d="M311.467 375.57C310.842 375.65 310.211 375.493 309.696 375.131C309.181 374.768 308.82 374.227 308.684 373.612L308.231 371.299C307.584 368.141 305.814 365.325 303.25 363.373C300.685 361.422 297.499 360.466 294.284 360.685C292.661 360.777 291.077 361.218 289.64 361.977C288.203 362.735 286.945 363.795 285.954 365.082C284.962 366.37 284.26 367.856 283.893 369.44C283.527 371.023 283.506 372.667 283.831 374.26L284.349 376.929C284.409 377.225 284.407 377.53 284.343 377.825C284.278 378.12 284.153 378.398 283.975 378.642C283.796 378.886 283.569 379.09 283.308 379.24C283.046 379.391 282.756 379.486 282.456 379.518C281.83 379.605 281.195 379.452 280.678 379.088C280.162 378.725 279.802 378.179 279.673 377.56L279.236 375.311C278.792 373.209 278.777 371.039 279.193 368.932C279.609 366.824 280.446 364.822 281.655 363.046C282.864 361.27 284.42 359.757 286.229 358.598C288.037 357.438 290.062 356.657 292.18 356.3C296.774 355.528 301.488 356.555 305.344 359.167C309.2 361.779 311.903 365.776 312.891 370.328L313.408 372.981C313.469 373.281 313.465 373.59 313.398 373.888C313.33 374.186 313.201 374.466 313.017 374.711C312.834 374.955 312.601 375.158 312.334 375.306C312.067 375.454 311.771 375.544 311.467 375.57Z" fill="#850000"/>
<path d="M347.337 442.749H251.924L251.293 423.787H346.69L347.337 442.749Z" fill="#850000"/>
<path d="M301.305 335.347C301.333 336.038 301.221 336.729 300.975 337.376C300.728 338.023 300.353 338.613 299.872 339.11C299.391 339.608 298.814 340.003 298.176 340.271C297.538 340.539 296.852 340.675 296.159 340.67C294.733 340.659 293.365 340.1 292.338 339.11C291.311 338.119 290.704 336.772 290.642 335.347C290.614 334.655 290.726 333.965 290.972 333.318C291.218 332.671 291.593 332.081 292.074 331.583C292.555 331.085 293.133 330.69 293.771 330.422C294.409 330.154 295.095 330.018 295.787 330.023C297.215 330.031 298.585 330.588 299.613 331.579C300.64 332.571 301.246 333.92 301.305 335.347Z" fill="#263238"/>
<path d="M278.298 335.347C278.329 336.039 278.218 336.73 277.973 337.378C277.728 338.026 277.353 338.617 276.871 339.116C276.39 339.614 275.812 340.009 275.172 340.276C274.533 340.543 273.846 340.677 273.153 340.67C271.728 340.659 270.362 340.1 269.338 339.109C268.314 338.118 267.71 336.771 267.652 335.347C267.623 334.655 267.736 333.965 267.982 333.318C268.228 332.671 268.603 332.081 269.084 331.583C269.565 331.085 270.142 330.69 270.781 330.422C271.419 330.154 272.105 330.018 272.797 330.023C274.223 330.031 275.592 330.588 276.617 331.58C277.642 332.572 278.244 333.921 278.298 335.347Z" fill="#263238"/>
<path d="M255.434 335.347C255.462 336.038 255.35 336.729 255.104 337.376C254.858 338.023 254.483 338.613 254.002 339.11C253.521 339.608 252.943 340.003 252.305 340.271C251.667 340.539 250.981 340.675 250.289 340.67C248.862 340.663 247.494 340.105 246.469 339.113C245.444 338.121 244.842 336.772 244.788 335.347C244.759 334.655 244.871 333.965 245.118 333.318C245.364 332.671 245.739 332.081 246.22 331.583C246.701 331.085 247.278 330.69 247.916 330.422C248.555 330.154 249.241 330.018 249.933 330.023C251.359 330.031 252.727 330.588 253.752 331.58C254.777 332.572 255.38 333.921 255.434 335.347Z" fill="#263238"/>
<path d="M324.232 335.347C324.26 336.038 324.148 336.729 323.902 337.376C323.655 338.023 323.28 338.613 322.799 339.111C322.318 339.608 321.741 340.003 321.103 340.271C320.465 340.539 319.779 340.675 319.086 340.67C317.66 340.663 316.292 340.105 315.267 339.113C314.242 338.121 313.639 336.772 313.585 335.347C313.561 334.657 313.677 333.97 313.927 333.326C314.176 332.683 314.553 332.097 315.036 331.604C315.519 331.11 316.096 330.72 316.734 330.457C317.372 330.194 318.057 330.063 318.747 330.072C320.162 330.083 321.519 330.636 322.54 331.617C323.56 332.598 324.165 333.933 324.232 335.347Z" fill="#263238"/>
<path d="M347.16 335.347C347.19 336.039 347.08 336.73 346.834 337.378C346.589 338.026 346.214 338.617 345.733 339.116C345.251 339.614 344.673 340.009 344.034 340.276C343.394 340.543 342.707 340.677 342.014 340.67C340.589 340.659 339.223 340.1 338.199 339.109C337.175 338.118 336.571 336.771 336.513 335.347C336.485 334.655 336.597 333.965 336.843 333.318C337.089 332.671 337.464 332.081 337.945 331.583C338.426 331.085 339.004 330.69 339.642 330.422C340.28 330.154 340.966 330.018 341.658 330.023C343.085 330.031 344.453 330.588 345.478 331.58C346.503 332.572 347.105 333.921 347.16 335.347Z" fill="#263238"/>
<path d="M540.266 192.995C542.418 196.458 544.214 199.758 546.059 203.205C547.903 206.651 549.57 210.113 551.204 213.657C554.539 220.832 557.298 228.26 559.456 235.872C559.747 236.827 559.958 237.846 560.2 238.833L560.556 240.338L560.734 241.082L560.945 242.312C561.309 245.101 561.139 247.935 560.443 250.661C559.326 254.893 557.627 258.949 555.395 262.715C551.402 269.557 546.576 275.878 541.027 281.532L534.215 276.387C537.634 270.101 540.676 263.618 543.324 256.971C544.504 254.042 545.335 250.984 545.8 247.861C545.949 246.908 545.905 245.934 545.671 244.998L545.023 243.024C544.765 242.215 544.522 241.406 544.214 240.58C541.753 233.905 538.906 227.379 535.688 221.035C532.452 214.563 528.973 208.091 525.494 201.91L540.266 192.995Z" fill="#FF8B7B"/>
<path d="M535.947 274.138L528.504 278.069L537.047 288.069C537.047 288.069 542.386 284.461 542.629 278.959L535.947 274.138Z" fill="#FF8B7B"/>
<path d="M518.521 284.234L527.663 291.499L537.048 288.069L528.505 278.069L518.521 284.234Z" fill="#FF8B7B"/>
<path d="M487.262 140.054C487.084 140.96 486.453 141.591 485.871 141.478C485.288 141.365 484.949 140.523 485.126 139.633C485.304 138.743 485.936 138.015 486.534 138.209C487.133 138.404 487.44 139.148 487.262 140.054Z" fill="#263238"/>
<path d="M486.534 141.607C484.905 144.142 482.934 146.439 480.677 148.435C481.21 148.988 481.856 149.418 482.571 149.698C483.286 149.977 484.053 150.098 484.819 150.053L486.534 141.607Z" fill="#FF5652"/>
<path d="M483.622 173.352V162.738L497.666 164.356C497.666 164.356 497.44 173.482 489.576 176.168L483.622 173.352Z" fill="#FF8B7B"/>
<path d="M487.666 155.101L497.552 157.949L497.73 164.437L483.686 162.738L487.666 155.101Z" fill="#FF8B7B"/>
<path opacity="0.2" d="M497.552 157.949L487.666 155.101L485.74 158.79C485.845 161.697 486.754 164.518 488.364 166.94C489.975 169.362 492.226 171.29 494.866 172.511C496.564 170.139 497.557 167.334 497.73 164.421L497.552 157.949Z" fill="black"/>
<path d="M491.566 135.734C491.669 135.731 491.77 135.699 491.856 135.642C491.943 135.584 492.011 135.503 492.053 135.408C492.095 135.314 492.11 135.209 492.095 135.106C492.081 135.003 492.037 134.907 491.97 134.828C491.402 134.186 490.688 133.69 489.889 133.38C489.089 133.07 488.227 132.957 487.375 133.048C487.236 133.072 487.111 133.15 487.029 133.265C486.947 133.38 486.915 133.524 486.938 133.663C486.962 133.803 487.039 133.929 487.154 134.014C487.269 134.098 487.412 134.135 487.553 134.116C488.228 134.05 488.909 134.146 489.54 134.396C490.17 134.647 490.732 135.044 491.177 135.556C491.227 135.61 491.287 135.654 491.353 135.684C491.42 135.715 491.492 135.732 491.566 135.734Z" fill="#263238"/>
<path d="M512.244 156.428C510.626 164.761 509.622 176.297 515.48 181.847C515.48 181.847 513.214 190.293 497.682 190.293C480.676 190.293 489.511 182.883 489.511 182.883C496.581 180.682 496.517 172.641 494.899 166.169L512.244 156.428Z" fill="#FF8B7B"/>
<path d="M518.636 187.413C520.157 185.277 520.092 178.498 518.474 177.3C515.869 175.375 504.689 174.922 489.658 178.384C491.276 184.954 487.797 188.384 487.797 188.384L518.636 187.413Z" fill="#850000"/>
<path d="M569.215 571.542C568.753 571.705 568.264 571.774 567.775 571.746C567.286 571.719 566.808 571.594 566.367 571.38C566.201 571.225 566.086 571.022 566.04 570.799C565.993 570.576 566.017 570.343 566.109 570.135C566.159 569.96 566.248 569.798 566.368 569.661C566.489 569.524 566.637 569.415 566.804 569.342C568.341 568.597 571.869 570.038 572.03 570.102C572.079 570.122 572.12 570.155 572.149 570.199C572.178 570.242 572.193 570.293 572.192 570.345C572.192 570.397 572.178 570.448 572.153 570.493C572.127 570.538 572.091 570.576 572.047 570.604C571.134 571.005 570.186 571.319 569.215 571.542ZM567.354 569.714C567.248 569.739 567.144 569.777 567.047 569.827C566.946 569.864 566.855 569.924 566.782 570.003C566.709 570.082 566.656 570.177 566.626 570.28C566.481 570.766 566.626 570.927 566.723 570.976C567.338 571.494 569.603 570.976 571.205 570.377C569.987 569.873 568.671 569.646 567.354 569.714Z" fill="#850000"/>
<path d="M571.98 570.62H571.851C570.556 570.248 567.806 568.29 567.773 567.012C567.772 566.809 567.841 566.611 567.967 566.452C568.094 566.293 568.271 566.182 568.469 566.138C568.661 566.066 568.866 566.038 569.071 566.055C569.275 566.071 569.473 566.133 569.65 566.235C571.171 567.012 572.142 570.151 572.174 570.296C572.197 570.336 572.209 570.38 572.209 570.426C572.209 570.471 572.197 570.516 572.174 570.555C572.149 570.58 572.119 570.6 572.085 570.611C572.051 570.622 572.015 570.625 571.98 570.62ZM568.744 566.591H568.615C568.291 566.704 568.291 566.866 568.291 566.947C568.291 567.707 570.136 569.245 571.527 569.859C571.187 568.953 570.443 567.157 569.456 566.623C569.237 566.524 568.988 566.512 568.76 566.591H568.744Z" fill="#850000"/>
<path d="M485.175 573.451C483.719 573.451 482.311 573.241 481.842 572.594C481.719 572.421 481.653 572.215 481.653 572.003C481.653 571.792 481.719 571.585 481.842 571.413C481.934 571.255 482.058 571.117 482.205 571.009C482.353 570.9 482.521 570.823 482.699 570.782C484.592 570.264 488.573 572.529 488.734 572.626C488.784 572.651 488.824 572.691 488.848 572.741C488.871 572.791 488.877 572.848 488.864 572.901C488.858 572.957 488.834 573.009 488.796 573.049C488.758 573.09 488.708 573.118 488.654 573.128C487.506 573.338 486.342 573.447 485.175 573.451ZM483.379 571.235C483.207 571.207 483.033 571.207 482.861 571.235C482.752 571.257 482.648 571.302 482.556 571.366C482.464 571.43 482.386 571.512 482.327 571.607C482.133 571.947 482.214 572.108 482.327 572.206C482.861 572.95 485.725 572.966 487.845 572.659C486.461 571.902 484.945 571.419 483.379 571.235Z" fill="#850000"/>
<path d="M488.638 573.128H488.525C487.149 572.513 484.431 570.054 484.641 568.759C484.641 568.452 484.9 568.08 485.645 568.015C485.911 567.984 486.18 568.008 486.436 568.086C486.692 568.164 486.93 568.294 487.133 568.468C488.17 569.708 488.792 571.241 488.913 572.853C488.913 572.899 488.902 572.945 488.883 572.986C488.863 573.028 488.835 573.066 488.8 573.096C488.75 573.121 488.694 573.132 488.638 573.128ZM485.855 568.517H485.693C485.208 568.517 485.175 568.743 485.175 568.808C485.046 569.584 486.89 571.526 488.298 572.367C488.174 571.069 487.648 569.841 486.793 568.856C486.528 568.63 486.188 568.509 485.839 568.517H485.855Z" fill="#850000"/>
<path d="M501.127 572.869H489.753L488.62 546.512H499.995L501.127 572.869Z" fill="#FF8B7B"/>
<path d="M584.665 567.594L573.55 570.005L562.369 545.46L573.501 543.049L584.665 567.594Z" fill="#FF8B7B"/>
<path d="M572.466 568.889L584.973 566.187C585.191 566.14 585.419 566.169 585.619 566.269C585.819 566.369 585.979 566.534 586.073 566.737L590.409 576.154C590.525 576.382 590.584 576.634 590.584 576.889C590.583 577.145 590.521 577.397 590.405 577.624C590.288 577.851 590.119 578.048 589.912 578.197C589.704 578.346 589.464 578.445 589.212 578.483C584.843 579.341 582.659 579.551 577.174 580.732C573.792 581.477 566.155 583.337 561.479 584.341C556.803 585.344 555.201 580.862 557.03 580.037C565.201 576.299 568.599 573.015 570.815 569.957C571.216 569.411 571.803 569.031 572.466 568.889Z" fill="#263238"/>
<path d="M489.834 571.542H502.261C502.486 571.544 502.705 571.621 502.881 571.762C503.057 571.903 503.18 572.099 503.231 572.319L505.48 582.431C505.546 582.676 505.554 582.932 505.503 583.18C505.452 583.428 505.343 583.661 505.186 583.859C505.028 584.057 504.827 584.216 504.597 584.322C504.367 584.428 504.115 584.479 503.862 584.47C499.38 584.389 492.908 584.13 487.278 584.13C480.676 584.13 474.997 584.486 467.263 584.486C462.587 584.486 461.293 579.762 463.251 579.325C472.15 577.383 479.431 577.173 487.116 572.432C487.923 571.892 488.864 571.584 489.834 571.542Z" fill="#263238"/>
<path d="M535.833 184.452C546.496 186.895 555.249 214.126 555.249 214.126L533.94 230.419C528.409 224.506 524.507 217.258 522.614 209.385C518.844 195.115 524.928 181.928 535.833 184.452Z" fill="#850000"/>
<path opacity="0.4" d="M535.833 184.452C546.496 186.895 555.249 214.126 555.249 214.126L533.94 230.419C528.409 224.506 524.507 217.258 522.614 209.385C518.844 195.115 524.928 181.928 535.833 184.452Z" fill="black"/>
<path d="M479.738 216.925C477.084 219.789 474.431 222.346 471.648 225.015C470.273 226.31 468.881 227.604 467.457 228.85L465.305 230.743L464.772 231.212L463.849 231.956C462.9 232.715 461.849 233.336 460.727 233.801C459.478 234.331 458.135 234.606 456.779 234.61C455.619 234.615 454.469 234.412 453.381 234.011C452.174 233.552 451.074 232.853 450.145 231.956C448.959 230.798 448.091 229.355 447.621 227.766C447.375 226.982 447.218 226.174 447.151 225.355C447.067 224.397 447.067 223.433 447.151 222.475C447.232 221.698 447.329 221.019 447.459 220.388C447.902 218.182 448.529 216.017 449.336 213.916C450.064 211.919 450.901 209.963 451.844 208.059C452.879 206.004 453.866 204.499 454.853 202.784C458.862 196.217 463.437 190.012 468.525 184.242C473.563 178.505 479.114 173.241 485.11 168.515L491.064 174.647C486.89 180.245 482.78 186.248 478.978 192.154C475.193 198.026 471.736 204.103 468.622 210.356C467.927 211.877 467.004 213.592 466.567 214.822C465.989 216.25 465.486 217.709 465.063 219.19C464.655 220.525 464.347 221.888 464.14 223.268C464.13 223.483 464.13 223.699 464.14 223.915C464.14 224.044 464.14 224.109 464.14 223.769C464.114 223.406 464.043 223.048 463.93 222.701C463.58 221.554 462.939 220.518 462.069 219.692C461.296 218.981 460.388 218.431 459.4 218.074C458.531 217.745 457.61 217.575 456.682 217.572C455.788 217.562 454.902 217.732 454.077 218.074C453.797 218.188 453.527 218.323 453.268 218.478L453.882 217.912L455.84 216.132L459.707 212.508C462.264 210.097 464.836 207.525 467.263 205.13L479.738 216.925Z" fill="#FF8B7B"/>
<path opacity="0.2" d="M526.691 204.45C532.484 210.178 534.377 220.63 534.781 229.691L533.843 230.419C528.312 224.506 524.409 217.258 522.517 209.385C522.307 208.544 522.112 207.767 521.967 206.845L526.691 204.45Z" fill="black"/>
<path d="M468.429 195.778C466.099 208.075 464.643 233.332 471.39 283.328H532.324C532.744 273.992 526.871 228.397 535.883 184.371C529.15 183.078 522.34 182.219 515.496 181.798C506.874 181.304 498.231 181.304 489.608 181.798C486.761 182.057 483.945 182.478 481.518 182.915C478.291 183.481 475.311 185.014 472.973 187.311C470.636 189.608 469.051 192.561 468.429 195.778Z" fill="#850000"/>
<path opacity="0.4" d="M468.429 195.778C466.099 208.075 464.643 233.332 471.39 283.328H532.324C532.744 273.992 526.871 228.397 535.883 184.371C529.15 183.078 522.34 182.219 515.496 181.798C506.874 181.304 498.231 181.304 489.608 181.798C486.761 182.057 483.945 182.478 481.518 182.915C478.291 183.481 475.311 185.014 472.973 187.311C470.636 189.608 469.051 192.561 468.429 195.778Z" fill="black"/>
<path opacity="0.2" d="M477.747 214.013L466.745 211.375C466.405 218.042 466.373 226.293 466.858 236.503C471.922 230.743 478.394 221.747 477.747 214.013Z" fill="black"/>
<path opacity="0.2" d="M488.62 546.512L489.203 560.103H500.593L500.011 546.512H488.62Z" fill="black"/>
<path opacity="0.2" d="M573.501 543.049L562.369 545.46L568.129 558.113L579.261 555.702L573.501 543.049Z" fill="black"/>
<path d="M517.647 144.261C514.734 155.166 513.569 161.703 506.838 166.233C496.726 173.126 484.106 165.23 483.782 153.71C483.426 143.306 488.264 127.207 499.962 125.007C502.533 124.524 505.184 124.704 507.666 125.53C510.148 126.356 512.378 127.8 514.147 129.726C515.917 131.652 517.166 133.998 517.779 136.54C518.391 139.083 518.345 141.74 517.647 144.261Z" fill="#FF8B7B"/>
<path d="M492.117 144.665C491.567 143.209 489.059 131.932 491.421 129.003C493.783 126.074 520.723 128.194 524.703 132.11C531.321 138.582 526.726 144.406 519.493 151.898C514.057 157.528 513.847 163.871 511.096 164.842C506.242 166.46 498.832 164.939 497.343 159.81C495.854 154.681 492.117 144.665 492.117 144.665Z" fill="#263238"/>
<path d="M521.433 119.279C511.919 115.234 494.073 119.716 484.43 117.386C484.307 120.972 485.486 124.481 487.749 127.264C490.013 130.048 493.207 131.919 496.743 132.53C504.742 134.055 512.869 134.808 521.013 134.779C531.594 134.294 529.523 122.725 521.433 119.279Z" fill="#263238"/>
<path d="M522.923 132.449C526.398 132.791 529.898 132.123 533.003 130.524C534.783 134.828 524.994 136.009 522.923 132.449Z" fill="#263238"/>
<path d="M497.294 145.118C497.076 147.924 495.938 150.58 494.058 152.674C491.566 155.409 488.978 153.694 488.541 150.377C488.152 147.367 488.961 142.287 492.003 140.831C495.045 139.374 497.504 141.737 497.294 145.118Z" fill="#FF8B7B"/>
<path d="M492.989 283.376C492.989 283.376 505.933 370.344 513.004 402.93C520.754 438.607 562.401 556.64 562.401 556.64L582.772 552.223C582.772 552.223 553.648 456.017 547.176 406.134C542.16 367.82 532.307 283.344 532.307 283.344L492.989 283.376Z" fill="#850000"/>
<path d="M557.516 549.861C557.435 549.861 561.318 557.239 561.318 557.239L584.229 552.272L582.304 545.379L557.516 549.861Z" fill="#263238"/>
<path opacity="0.3" d="M501.16 314.361C516.094 317.29 514.509 372.981 512.713 401.636C508.409 381.379 502.099 342.417 497.795 314.766C498.838 314.251 500.025 314.108 501.16 314.361Z" fill="black"/>
<path d="M471.389 283.376C471.389 283.376 469.771 368.467 471.065 403.108C472.36 439.206 484.964 557.401 484.964 557.401H504.251C504.251 557.401 504.946 441.309 505.869 405.859C506.807 367.221 511.467 283.312 511.467 283.312L471.389 283.376Z" fill="#850000"/>
<path d="M481.259 549.796C481.162 549.796 482.343 557.789 482.343 557.789H505.787L506.435 550.654L481.259 549.796Z" fill="#263238"/>
<path d="M492.277 199.564C497.73 214.272 465.677 231.6 465.677 231.6L451.795 213.802C451.795 213.802 461.131 195.325 472.457 187.008C486.452 176.75 488.119 188.368 492.277 199.564Z" fill="#850000"/>
<path opacity="0.4" d="M492.277 199.564C497.73 214.272 465.677 231.6 465.677 231.6L451.795 213.802C451.795 213.802 461.131 195.325 472.457 187.008C486.452 176.75 488.119 188.368 492.277 199.564Z" fill="black"/>
<path d="M617.864 87.906C650.114 87.906 676.258 71.2447 676.258 50.692C676.258 30.1392 650.114 13.478 617.864 13.478C585.614 13.478 559.471 30.1392 559.471 50.692C559.471 71.2447 585.614 87.906 617.864 87.906Z" fill="#850000"/>
<path d="M596.798 69.4284C592.952 69.416 589.232 68.0483 586.294 65.5656C583.356 63.0829 581.386 59.6441 580.732 55.8534C580.088 51.7473 581.014 47.5495 583.326 44.0955C585.638 40.6415 589.165 38.1846 593.207 37.214C596.523 36.4498 599.995 36.7444 603.136 38.0562C606.276 39.3681 608.926 41.6312 610.713 44.5274L648.202 36.7933C649.643 36.4778 651.15 36.7174 652.421 37.4643C653.693 38.2111 654.636 39.4103 655.063 40.8222C655.259 41.5645 655.302 42.339 655.188 43.0984C655.075 43.8578 654.808 44.5861 654.404 45.2388C653.999 45.8915 653.466 46.4549 652.837 46.8945C652.207 47.3342 651.495 47.6408 650.743 47.7957L649.772 47.9899C649.628 48.0158 649.491 48.0745 649.373 48.1615C649.256 48.2484 649.159 48.3614 649.092 48.4915C649.032 48.6237 649.001 48.7671 649.001 48.9122C649.001 49.0573 649.032 49.2007 649.092 49.3328L649.756 51.0479C649.978 51.6038 649.999 52.2199 649.816 52.7899C649.633 53.3599 649.257 53.8482 648.752 54.1707C648.355 54.4164 648.018 54.7496 647.769 55.145C647.519 55.5403 647.363 55.9873 647.312 56.452C647.265 56.9854 647.05 57.4901 646.698 57.894C646.347 58.2979 645.876 58.5804 645.355 58.7011L644.594 58.8629C644.067 58.9603 643.523 58.8873 643.04 58.6546C642.557 58.4219 642.161 58.0415 641.908 57.5685C641.572 57.0041 641.069 56.5586 640.468 56.2941C639.867 56.0296 639.198 55.9592 638.555 56.0928C637.912 56.2264 637.327 56.5573 636.881 57.0393C636.435 57.5214 636.151 58.1306 636.067 58.782C636.022 59.3119 635.81 59.8139 635.461 60.2152C635.112 60.6166 634.644 60.8966 634.126 61.0148L633.365 61.1766C632.838 61.2715 632.295 61.1974 631.812 60.9649C631.33 60.7324 630.934 60.3535 630.679 59.8822C630.437 59.4809 630.11 59.1371 629.722 58.8745C629.334 58.6119 628.893 58.4368 628.43 58.3613C627.808 58.2864 627.235 57.987 626.818 57.5193C626.401 57.0516 626.169 56.4477 626.165 55.821V53.9765C626.159 53.8322 626.121 53.691 626.055 53.5626C625.989 53.4342 625.896 53.3216 625.782 53.2325C625.668 53.1434 625.537 53.0799 625.396 53.0463C625.256 53.0128 625.11 53.01 624.968 53.0381L613.011 55.4974C612.523 58.81 611.027 61.892 608.725 64.3238C606.423 66.7557 603.429 68.4194 600.148 69.0886C599.046 69.314 597.923 69.4278 596.798 69.4284ZM593.562 38.6864C589.893 39.5436 586.684 41.7595 584.582 44.8878C582.481 48.0161 581.643 51.8244 582.236 55.546C582.873 59.0083 584.727 62.1285 587.464 64.3423C590.201 66.556 593.64 67.7171 597.159 67.6155C600.678 67.5138 604.044 66.1561 606.649 63.7881C609.254 61.42 610.925 58.1979 611.36 54.7046V54.1221L624.547 51.4524C624.925 51.3609 625.319 51.3548 625.7 51.4345C626.081 51.5142 626.44 51.6777 626.749 51.9132C627.059 52.1487 627.313 52.4503 627.492 52.796C627.67 53.1416 627.77 53.5228 627.783 53.9118V55.7563C627.787 55.9759 627.866 56.1876 628.007 56.3556C628.149 56.5236 628.344 56.6376 628.56 56.6786C629.267 56.7799 629.942 57.0409 630.534 57.4418C631.125 57.8426 631.618 58.3729 631.974 58.9923C632.06 59.1669 632.198 59.3105 632.369 59.4033C632.54 59.4961 632.735 59.5334 632.928 59.5101L633.673 59.3483C633.861 59.2997 634.029 59.1916 634.152 59.0401C634.274 58.8885 634.344 58.7016 634.352 58.5069C634.454 57.4997 634.874 56.551 635.55 55.7978C636.227 55.0447 637.125 54.5262 638.116 54.3173C639.107 54.1084 640.138 54.2199 641.061 54.6356C641.984 55.0513 642.751 55.7498 643.251 56.63C643.334 56.8033 643.469 56.9464 643.638 57.0392C643.806 57.132 643.999 57.17 644.19 57.1478L644.966 56.986C645.152 56.9345 645.316 56.8252 645.436 56.6739C645.555 56.5226 645.623 56.3372 645.63 56.1446C645.71 55.4342 645.951 54.7515 646.335 54.1486C646.719 53.5457 647.236 53.0386 647.846 52.6659C648.025 52.5373 648.155 52.3529 648.216 52.1418C648.278 51.9308 648.267 51.7053 648.186 51.501L647.523 49.7859C647.386 49.4323 647.327 49.053 647.352 48.6746C647.377 48.2961 647.483 47.9276 647.665 47.5948C647.847 47.262 648.099 46.9729 648.405 46.7477C648.71 46.5225 649.06 46.3666 649.432 46.291L650.419 46.0807C650.953 45.9668 651.459 45.7463 651.906 45.4325C652.353 45.1186 652.732 44.7179 653.02 44.2541C653.309 43.7904 653.501 43.2732 653.585 42.7336C653.669 42.194 653.643 41.6429 653.509 41.1134C653.194 40.0952 652.504 39.234 651.58 38.7028C650.656 38.1717 649.565 38.0097 648.526 38.2495L609.985 46.2586L609.694 45.7571C608.145 43.0004 605.742 40.8227 602.846 39.553C599.95 38.2832 596.72 37.9904 593.643 38.7188L593.562 38.6864ZM596.798 63.4095C594.789 63.4318 592.816 62.8697 591.119 61.7915C589.113 60.4742 587.625 58.5019 586.911 56.2107C586.196 53.9195 586.298 51.4513 587.199 49.2268C588.1 47.0023 589.745 45.1593 591.853 44.012C593.961 42.8646 596.402 42.4839 598.76 42.9348C601.117 43.3857 603.245 44.6403 604.781 46.4846C606.317 48.329 607.166 50.6489 607.182 53.049C607.199 55.4491 606.383 57.7807 604.873 59.6463C603.363 61.512 601.253 62.7962 598.902 63.28C598.213 63.4046 597.514 63.4589 596.815 63.4418L596.798 63.4095ZM596.798 44.3009C596.196 44.3043 595.594 44.3639 595.002 44.4788C593.875 44.7189 592.806 45.1787 591.857 45.8319C590.907 46.4851 590.096 47.3189 589.469 48.2857C588.841 49.2525 588.411 50.3335 588.201 51.4667C587.991 52.6 588.007 53.7635 588.247 54.8907C588.487 56.0179 588.947 57.0867 589.6 58.0363C590.254 58.9858 591.087 59.7973 592.054 60.4246C593.021 61.0519 594.102 61.4826 595.235 61.6921C596.369 61.9017 597.532 61.8859 598.659 61.6458C600.351 61.2936 601.901 60.4482 603.114 59.2163C604.326 57.9845 605.147 56.4212 605.472 54.7237C605.797 53.0262 605.613 51.2703 604.942 49.6775C604.271 48.0846 603.143 46.7262 601.701 45.7732C600.269 44.8206 598.583 44.319 596.863 44.3332L596.798 44.3009Z" fill="white"/>
<path opacity="0.6" d="M570.344 109.733C580.942 109.733 589.533 104.256 589.533 97.5008C589.533 90.7452 580.942 85.2687 570.344 85.2687C559.746 85.2687 551.154 90.7452 551.154 97.5008C551.154 104.256 559.746 109.733 570.344 109.733Z" fill="#850000"/>
<path opacity="0.3" d="M539.812 114.749C544.164 114.749 547.692 112.503 547.692 109.733C547.692 106.963 544.164 104.717 539.812 104.717C535.46 104.717 531.933 106.963 531.933 109.733C531.933 112.503 535.46 114.749 539.812 114.749Z" fill="#850000"/>
</svg>
