<svg width="800" height="671" viewBox="0 0 800 671" fill="none" xmlns="http://www.w3.org/2000/svg">
<g clip-path="url(#clip0_437_1167)">
<path d="M800 589.32H0V589.77H800V589.32Z" fill="#EBEBEB"/>
<path d="M719.84 618.282H666.848V618.732H719.84V618.282Z" fill="#EBEBEB"/>
<path d="M529.952 623.178H516.048V623.628H529.952V623.178Z" fill="#EBEBEB"/>
<path d="M665.248 601.578H634.544V602.028H665.248V601.578Z" fill="#EBEBEB"/>
<path d="M153.04 604.602H83.936V605.052H153.04V604.602Z" fill="#EBEBEB"/>
<path d="M177.424 604.602H167.296V605.052H177.424V604.602Z" fill="#EBEBEB"/>
<path d="M360.24 612.198H210.352V612.648H360.24V612.198Z" fill="#EBEBEB"/>
<path d="M379.2 509.04H70.256C67.8357 509.035 65.5161 507.95 63.8062 506.023C62.0963 504.096 61.136 501.485 61.136 498.762V10.188C61.1571 7.48085 62.1267 4.89236 63.8343 2.98479C65.5419 1.07722 67.8495 0.0046375 70.256 0H379.2C381.623 0 383.947 1.08286 385.66 3.01036C387.373 4.93786 388.336 7.5521 388.336 10.278V498.762C388.336 501.488 387.373 504.102 385.66 506.03C383.947 507.957 381.623 509.04 379.2 509.04ZM70.256 0.360001C67.9418 0.36477 65.7239 1.40232 64.089 3.24491C62.4542 5.0875 61.536 7.58457 61.536 10.188V498.762C61.536 501.365 62.4542 503.863 64.089 505.705C65.7239 507.548 67.9418 508.585 70.256 508.59H379.2C381.516 508.585 383.735 507.548 385.373 505.706C387.01 503.864 387.932 501.367 387.936 498.762V10.188C387.932 7.58291 387.01 5.08589 385.373 3.24381C383.735 1.40173 381.516 0.36476 379.2 0.360001H70.256Z" fill="#EBEBEB"/>
<path d="M725.296 509.04H416.336C413.914 509.035 411.593 507.951 409.881 506.024C408.168 504.098 407.204 501.486 407.2 498.762V10.188C407.225 7.4792 408.198 4.89074 409.909 2.98367C411.619 1.0766 413.928 0.00458692 416.336 0H725.296C727.7 0.00936809 730.003 1.08405 731.707 2.99111C733.411 4.89817 734.379 7.48395 734.4 10.188V498.762C734.4 501.482 733.442 504.09 731.735 506.017C730.029 507.943 727.713 509.03 725.296 509.04ZM416.336 0.360001C414.02 0.36476 411.801 1.40173 410.163 3.24381C408.526 5.08589 407.604 7.58291 407.6 10.188V498.762C407.604 501.367 408.526 503.864 410.163 505.706C411.801 507.548 414.02 508.585 416.336 508.59H725.296C727.612 508.585 729.831 507.548 731.469 505.706C733.106 503.864 734.028 501.367 734.032 498.762V10.188C734.028 7.58291 733.106 5.08589 731.469 3.24381C729.831 1.40173 727.612 0.36476 725.296 0.360001H416.336Z" fill="#EBEBEB"/>
<path d="M101.44 394.866L698.576 394.866V34.758L101.44 34.758V394.866Z" fill="#FAFAFA"/>
<path d="M524.688 143.514C529.952 133.704 543.68 125.766 555.472 125.766C557.968 125.721 560.452 126.16 562.816 127.062C571.293 119.546 581.692 115.293 592.48 114.93C604.864 114.93 611.392 122.13 608.88 131.85C620.176 132.48 625.152 140.562 619.952 150.426C614.544 160.722 600.176 169.056 587.856 169.056H516.896C508.176 169.056 504.192 163.152 508.032 155.862C510.992 150.228 517.744 145.422 524.688 143.514Z" fill="white"/>
<path d="M381.536 96.93C384.736 90.936 393.136 86.13 400.32 86.13C401.843 86.0946 403.36 86.3627 404.8 86.922C409.979 82.3256 416.334 79.7255 422.928 79.506C430.48 79.506 434.464 83.934 432.928 89.838C439.824 90.216 442.864 95.238 439.696 101.178C436.528 107.118 427.616 112.554 420.096 112.554H376.784C371.456 112.554 369.024 108.954 371.36 104.49C373.792 100.626 377.423 97.9288 381.536 96.93Z" fill="white"/>
<path d="M173.552 132.372C176.752 126.378 185.152 121.572 192.336 121.572C193.856 121.551 195.367 121.831 196.8 122.4C201.972 117.802 208.323 115.201 214.912 114.984C222.464 114.984 226.448 119.394 224.912 125.316C231.808 125.694 234.848 130.716 231.68 136.656C228.512 142.596 219.6 148.014 212.08 148.014H168.8C163.472 148.014 161.04 144.414 163.392 139.968C165.817 136.098 169.441 133.389 173.552 132.372Z" fill="white"/>
<path d="M262.336 105.858H212.96V361.872H262.336V105.858Z" fill="#E6E6E6"/>
<path d="M301.344 361.89H256.8V157.248L301.344 207.162V361.89Z" fill="#E6E6E6"/>
<path d="M197.728 190.422H148.352V361.872H197.728V190.422Z" fill="#E6E6E6"/>
<path d="M340.736 169.056H315.568V361.89H340.736V169.056Z" fill="#E6E6E6"/>
<path d="M376.608 218.304H351.44V361.872H376.608V218.304Z" fill="#E6E6E6"/>
<path d="M395.648 265.464H370.48V361.872H395.648V265.464Z" fill="#E6E6E6"/>
<path d="M500.096 265.464H474.928V361.872H500.096V265.464Z" fill="#E6E6E6"/>
<path d="M476.016 295.902H450.848V361.89H476.016V295.902Z" fill="#E6E6E6"/>
<path d="M141.44 265.464H116.272V361.872H141.44V265.464Z" fill="#E6E6E6"/>
<path d="M358.56 249.444H130.72V361.89H358.56V249.444Z" fill="#E6E6E6"/>
<path d="M500.096 316.818H272.256V361.89H500.096V316.818Z" fill="#E6E6E6"/>
<path d="M469.776 394.866H546.256V138.852H469.776V394.866Z" fill="#F0F0F0"/>
<path d="M409.328 394.866H478.352V190.242L409.328 240.138V394.866Z" fill="#F0F0F0"/>
<path d="M569.872 394.866H646.352V223.416H569.872V394.866Z" fill="#F0F0F0"/>
<path d="M348.32 394.866H387.312V202.032H348.32V394.866Z" fill="#F0F0F0"/>
<path d="M292.72 394.866H331.712V266.202H292.72V394.866Z" fill="#F0F0F0"/>
<path d="M263.264 394.866H302.256V298.458H263.264V394.866Z" fill="#F0F0F0"/>
<path d="M101.44 394.866H140.432V298.458H101.44V394.866Z" fill="#F0F0F0"/>
<path d="M138.736 394.866H177.728V328.878H138.736V394.866Z" fill="#F0F0F0"/>
<path d="M657.072 394.866H696.064V298.458H657.072V394.866Z" fill="#F0F0F0"/>
<path d="M320.704 394.884L673.664 394.884V282.438L320.704 282.438V394.884Z" fill="#F0F0F0"/>
<path d="M101.44 394.884L454.4 394.884V349.812L101.44 349.812V394.884Z" fill="#F0F0F0"/>
<path d="M696.064 394.866H698.576V34.758H696.064V394.866Z" fill="#EBEBEB"/>
<path d="M145.84 542.358C145.01 542.35 144.206 542.034 143.552 541.458C142.788 540.772 142.296 539.773 142.185 538.68C142.074 537.586 142.353 536.488 142.96 535.626C145.056 532.656 139.968 525.78 134.592 518.49C123.12 502.992 105.792 479.538 129.456 452.664C144.384 435.69 144.064 428.67 143.232 426.438C141.76 422.514 134.944 421.65 132.56 421.65C131.58 421.65 130.64 421.212 129.947 420.432C129.254 419.652 128.864 418.595 128.864 417.492C128.864 416.389 129.254 415.332 129.947 414.552C130.64 413.772 131.58 413.334 132.56 413.334C133.936 413.334 146.48 413.46 150.16 423.198C153.36 431.64 148.336 443.178 134.848 458.514C115.904 480.024 128.928 497.646 140.416 513.18C147.76 523.134 154.704 532.53 148.88 540.774C148.522 541.291 148.059 541.704 147.53 541.98C147.002 542.255 146.422 542.385 145.84 542.358Z" fill="#E0E0E0"/>
<path d="M92.4319 504.936H171.184L153.744 589.32H109.872L92.4319 504.936Z" fill="#F5F5F5"/>
<path d="M91.6161 508.698H172C172.888 508.698 173.741 508.302 174.37 507.597C175 506.892 175.356 505.935 175.36 504.936C175.356 503.935 175.001 502.976 174.371 502.268C173.742 501.561 172.89 501.161 172 501.156H91.6161C90.7263 501.161 89.8741 501.561 89.2449 502.268C88.6157 502.976 88.2603 503.935 88.2561 504.936C88.2603 505.935 88.6162 506.892 89.2459 507.597C89.8755 508.302 90.7277 508.698 91.6161 508.698Z" fill="#EBEBEB"/>
<path d="M159.488 416.052L85.0721 443.7C85.0721 443.7 58.1121 423.216 77.6961 414C68.3841 396.126 67.2001 361.278 97.1681 351.162C127.136 341.046 125.04 390.312 125.04 390.312C125.04 390.312 161.984 346.338 160.24 398.574C167.296 396.396 197.2 404.352 159.488 416.052Z" fill="#E0E0E0"/>
<path d="M97.376 453.906H187.616C187.616 453.906 211.424 435.006 186.496 435.906C191.44 411.804 177.488 385.398 146 384.39C114.512 383.382 125.584 422.676 125.584 422.676C125.584 422.676 72.688 408.492 88.784 437.796C62.48 439.2 76.048 446.814 97.376 453.906Z" fill="#E6E6E6"/>
<path d="M169.424 459.36L98.5439 462.24C96.6924 462.265 94.8654 461.762 93.234 460.776C91.6026 459.791 90.2201 458.356 89.2159 456.606C86.5279 452.322 85.8399 447.012 97.2159 445.446C93.5839 432.846 101.6 410.868 130.912 409.176C160.224 407.484 145.52 437.976 145.52 437.976C145.52 437.976 189.856 416.196 174.72 448.578C181.504 448.29 206.032 457.884 169.424 459.36Z" fill="#E0E0E0"/>
<path d="M626.624 435.69H254.784V443.7H626.624V435.69Z" fill="#F0F0F0"/>
<path d="M626.624 443.7H666.848V435.69H626.624V443.7Z" fill="#E6E6E6"/>
<path d="M260.384 447.714L660.64 447.714V443.7L260.384 443.7V447.714Z" fill="#E0E0E0"/>
<path d="M260.368 445.716V589.32H264.304V445.716H260.368Z" fill="#E0E0E0"/>
<path d="M622.672 445.698V589.302H626.608V445.698H622.672Z" fill="#E0E0E0"/>
<path d="M656.688 445.716V589.32H660.624V445.716H656.688Z" fill="#E0E0E0"/>
<path d="M294.368 445.716V589.32H298.304V445.716H294.368Z" fill="#E0E0E0"/>
<path d="M400 670.608C571.332 670.608 710.224 661.485 710.224 650.232C710.224 638.979 571.332 629.856 400 629.856C228.668 629.856 89.7759 638.979 89.7759 650.232C89.7759 661.485 228.668 670.608 400 670.608Z" fill="#F5F5F5"/>
<path d="M631.376 359.244H389.312V366.948H631.376V359.244Z" fill="#850000"/>
<path opacity="0.2" d="M631.376 359.244H575.2V366.948H631.376V359.244Z" fill="black"/>
<path d="M582.144 654.732L569.504 366.93H572.672L585.312 654.732H582.144Z" fill="#850000"/>
<path opacity="0.7" d="M582.144 654.732L569.504 366.93H572.672L585.312 654.732H582.144Z" fill="white"/>
<path d="M638.32 654.732L625.664 366.93H628.848L641.488 654.732H638.32Z" fill="#850000"/>
<path d="M638.32 654.732L625.664 366.93H628.848L641.488 654.732H638.32Z" fill="#850000"/>
<path opacity="0.7" d="M638.32 654.732L625.664 366.93H628.848L641.488 654.732H638.32Z" fill="white"/>
<path d="M438.528 654.732L451.184 366.93H448L435.36 654.732H438.528Z" fill="#850000"/>
<path opacity="0.7" d="M438.528 654.732L451.184 366.93H448L435.36 654.732H438.528Z" fill="white"/>
<path d="M382.368 654.732L395.008 366.93H391.84L379.184 654.732H382.368Z" fill="#850000"/>
<path opacity="0.7" d="M382.368 654.732L395.008 366.93H391.84L379.184 654.732H382.368Z" fill="white"/>
<path d="M531.84 300.6H609.6C610.175 300.583 610.747 300.711 611.272 300.975C611.797 301.24 612.263 301.634 612.635 302.128C613.007 302.622 613.275 303.204 613.42 303.831C613.565 304.457 613.583 305.113 613.472 305.748L606.928 354.168C606.709 355.575 606.066 356.855 605.107 357.792C604.149 358.729 602.933 359.267 601.664 359.316H523.904C523.328 359.333 522.757 359.204 522.231 358.94C521.705 358.676 521.238 358.282 520.865 357.788C520.493 357.294 520.223 356.713 520.076 356.087C519.929 355.46 519.908 354.804 520.016 354.168L526.56 305.748C526.786 304.341 527.432 303.063 528.393 302.126C529.353 301.19 530.57 300.651 531.84 300.6Z" fill="#850000"/>
<path d="M530.64 300.6H608.464C609.039 300.583 609.611 300.711 610.136 300.975C610.661 301.24 611.127 301.634 611.499 302.128C611.871 302.622 612.139 303.204 612.284 303.831C612.429 304.457 612.447 305.113 612.336 305.748L605.792 354.168C605.573 355.575 604.93 356.855 603.971 357.792C603.013 358.729 601.797 359.267 600.528 359.316H522.704C522.128 359.333 521.557 359.204 521.031 358.94C520.505 358.676 520.038 358.282 519.665 357.788C519.293 357.294 519.023 356.713 518.876 356.087C518.729 355.46 518.708 354.804 518.816 354.168L525.36 305.748C525.583 304.339 526.229 303.059 527.19 302.122C528.151 301.185 529.369 300.648 530.64 300.6Z" fill="#850000"/>
<path opacity="0.2" d="M530.64 300.6H608.464C609.039 300.583 609.611 300.711 610.136 300.975C610.661 301.24 611.127 301.634 611.499 302.128C611.871 302.622 612.139 303.204 612.284 303.831C612.429 304.457 612.447 305.113 612.336 305.748L605.792 354.168C605.573 355.575 604.93 356.855 603.971 357.792C603.013 358.729 601.797 359.267 600.528 359.316H522.704C522.128 359.333 521.557 359.204 521.031 358.94C520.505 358.676 520.038 358.282 519.665 357.788C519.293 357.294 519.023 356.713 518.876 356.087C518.729 355.46 518.708 354.804 518.816 354.168L525.36 305.748C525.583 304.339 526.229 303.059 527.19 302.122C528.151 301.185 529.369 300.648 530.64 300.6Z" fill="white"/>
<path opacity="0.8" d="M522.704 357.696C522.334 357.708 521.966 357.628 521.627 357.463C521.287 357.299 520.983 357.052 520.736 356.742C520.492 356.41 520.315 356.022 520.219 355.606C520.122 355.189 520.107 354.754 520.176 354.33L526.72 306C526.895 304.958 527.377 304.013 528.089 303.318C528.8 302.622 529.699 302.216 530.64 302.166H608.464C608.834 302.154 609.202 302.234 609.542 302.398C609.882 302.563 610.186 302.809 610.432 303.12C610.673 303.453 610.847 303.842 610.941 304.258C611.035 304.675 611.047 305.11 610.976 305.532L604.448 353.952C604.273 354.994 603.791 355.939 603.08 356.634C602.368 357.33 601.47 357.736 600.528 357.786L522.704 357.696Z" fill="white"/>
<path d="M499.984 357.318H603.2C603.416 357.311 603.63 357.358 603.827 357.457C604.024 357.556 604.199 357.703 604.339 357.888C604.479 358.073 604.58 358.291 604.635 358.525C604.69 358.76 604.697 359.006 604.656 359.244H498C498.084 358.716 498.327 358.236 498.688 357.885C499.05 357.535 499.507 357.334 499.984 357.318Z" fill="#850000"/>
<path d="M414.816 631.404L404.624 637.866L392.016 610.398L402.208 603.936L414.816 631.404Z" fill="#FFB573"/>
<path d="M403.392 635.598L415.264 629.028C415.361 628.968 415.467 628.93 415.576 628.917C415.686 628.903 415.797 628.915 415.902 628.95C416.008 628.985 416.107 629.043 416.192 629.122C416.277 629.2 416.348 629.297 416.4 629.406L421.584 639.648C421.831 640.202 421.873 640.844 421.703 641.433C421.532 642.023 421.162 642.513 420.672 642.798C416.496 644.994 414.4 645.822 409.184 648.702C405.984 650.502 398.32 654.912 393.888 657.378C389.456 659.844 387.488 654.822 389.088 653.328C396.64 646.668 400.032 641.628 401.888 637.326C402.197 636.572 402.729 635.962 403.392 635.598Z" fill="#263238"/>
<path opacity="0.2" d="M402.208 603.936L392.016 610.398L398.512 624.564L409.024 618.768L402.208 603.936Z" fill="black"/>
<path d="M393.904 334.674C393.904 334.674 360.992 409.104 351.12 445.446C340.32 485.244 391.632 619.938 391.632 619.938L410.368 610.704C410.368 610.704 376.768 477.306 382.608 462.51C398.608 421.65 435.984 335.538 435.984 335.538L393.904 334.674Z" fill="#263238"/>
<path opacity="0.3" d="M406.288 379.296C397.312 396.234 393.488 426.762 392.928 446.616C398 434.34 403.44 421.56 408.528 409.68C411.952 398.358 415.28 387.45 418.384 378.108C417.696 371.646 413.088 366.426 406.288 379.296Z" fill="black"/>
<path d="M412.784 612.27L392.32 624.33L386.448 616.536L410.672 602.028L412.784 612.27Z" fill="#850000"/>
<path d="M400.544 639.738C401.479 639.184 402.358 638.52 403.168 637.758C403.213 637.723 403.246 637.672 403.263 637.614C403.281 637.555 403.281 637.492 403.264 637.434C403.251 637.376 403.223 637.325 403.183 637.286C403.143 637.247 403.093 637.224 403.04 637.218C402.592 637.128 398.592 636.48 397.552 637.776C397.434 637.922 397.351 638.099 397.309 638.291C397.267 638.482 397.268 638.683 397.312 638.874C397.363 639.17 397.478 639.447 397.649 639.68C397.82 639.913 398.039 640.094 398.288 640.206C399.066 640.369 399.869 640.202 400.544 639.738ZM402.32 637.722C400.608 639.198 399.2 639.9 398.464 639.63C398.301 639.554 398.158 639.431 398.051 639.273C397.945 639.115 397.877 638.927 397.856 638.73C397.829 638.638 397.824 638.54 397.841 638.446C397.858 638.351 397.896 638.263 397.952 638.19C398.512 637.506 400.704 637.524 402.32 637.722Z" fill="#850000"/>
<path d="M403.2 637.794C403.239 637.774 403.272 637.743 403.296 637.704C403.324 637.659 403.338 637.606 403.338 637.551C403.338 637.497 403.324 637.443 403.296 637.398C403.296 637.254 402 633.708 400.416 633.132C400.216 633.057 400.004 633.036 399.795 633.07C399.587 633.105 399.388 633.194 399.216 633.33C399.005 633.45 398.837 633.647 398.741 633.89C398.645 634.133 398.626 634.406 398.688 634.662C399.008 636.084 401.664 637.704 403.024 637.83L403.2 637.794ZM399.648 633.78C399.748 633.727 399.857 633.7 399.968 633.7C400.079 633.7 400.188 633.727 400.288 633.78C401.232 634.122 402.16 636.03 402.624 637.164C401.328 636.804 399.424 635.508 399.248 634.554C399.248 634.374 399.248 634.14 399.536 633.906L399.648 633.78Z" fill="#850000"/>
<path d="M416.16 234.882C414.112 239.544 412.048 243.648 409.76 247.86C407.472 252.072 405.152 256.122 402.592 260.118C401.344 262.134 400.016 264.096 398.72 266.076C397.424 268.056 396 269.982 394.528 271.872C391.642 275.77 388.549 279.467 385.264 282.942C384.464 283.842 383.52 284.742 382.656 285.552C381.789 286.45 380.881 287.297 379.936 288.09L377.04 290.502C376.72 290.736 376.8 290.718 375.824 291.438C375.058 291.978 374.243 292.425 373.392 292.77C371.679 293.456 369.851 293.701 368.043 293.486C366.234 293.271 364.492 292.602 362.944 291.528C362.157 290.972 361.427 290.32 360.768 289.584C360.443 289.209 360.138 288.813 359.856 288.396C359.621 288.078 359.407 287.741 359.216 287.388C358.483 285.984 357.842 284.522 357.296 283.014C356.362 280.421 355.613 277.749 355.056 275.022C354.09 270.101 353.443 265.108 353.12 260.082C352.786 255.189 352.701 250.28 352.864 245.376C352.909 243.982 353.4 242.653 354.247 241.633C355.093 240.613 356.238 239.971 357.471 239.824C358.705 239.677 359.943 240.036 360.961 240.835C361.978 241.633 362.705 242.817 363.008 244.17V244.368C364.795 253.019 367.088 261.527 369.872 269.838C370.488 271.608 371.232 273.317 372.096 274.95C372.415 275.582 372.779 276.184 373.184 276.75C373.296 276.93 373.184 276.588 373.008 276.444C372.89 276.261 372.761 276.087 372.624 275.922C372.342 275.579 372.019 275.283 371.664 275.04C371.011 274.553 370.266 274.244 369.488 274.14C368.735 274.037 367.971 274.117 367.248 274.374C366.576 274.536 365.472 275.49 366.208 274.788L368.128 272.736C369.392 271.332 370.672 269.82 371.904 268.29C376.912 261.657 381.494 254.631 385.616 247.266C387.728 243.522 389.824 239.706 391.84 235.872C393.856 232.038 395.904 228.006 397.696 224.37L397.824 224.118C399.097 221.392 401.281 219.347 403.894 218.432C406.508 217.517 409.337 217.808 411.76 219.24C414.183 220.672 416.001 223.129 416.814 226.069C417.628 229.009 417.369 232.192 416.096 234.918L416.16 234.882Z" fill="#263238"/>
<path opacity="0.3" d="M387.904 266.4C386.915 271.731 386.379 277.155 386.304 282.6C386.832 282.024 387.328 281.448 387.824 280.8C391.759 276.28 395.42 271.47 398.784 266.4C400.181 264.336 401.525 262.236 402.816 260.1C403.616 257.814 404.416 255.528 405.024 253.206C405.248 252.432 405.456 251.694 405.664 250.92C400.464 248.004 391.024 250.866 387.904 266.4Z" fill="black"/>
<path d="M361.696 239.526L360.4 230.22L350.112 235.62C350.889 238.69 351.928 241.668 353.216 244.512C353.512 245.18 353.945 245.759 354.478 246.202C355.012 246.645 355.632 246.939 356.286 247.06C356.94 247.181 357.611 247.126 358.243 246.899C358.874 246.672 359.449 246.28 359.92 245.754C360.645 244.958 361.187 243.974 361.496 242.888C361.806 241.803 361.874 240.648 361.696 239.526Z" fill="#FFB573"/>
<path d="M354.608 223.974L346.928 229.932L350.112 235.548L360.4 230.22L354.608 223.974Z" fill="#FFB573"/>
<path d="M382.144 648.864L370.672 645.912L375.28 615.618L386.752 618.57L382.144 648.864Z" fill="#FFB573"/>
<path d="M370.368 644.256L383.264 647.586C383.373 647.608 383.476 647.653 383.569 647.72C383.662 647.787 383.742 647.875 383.804 647.977C383.867 648.079 383.911 648.194 383.933 648.315C383.956 648.437 383.957 648.562 383.936 648.684L382.224 660.33C382.105 660.937 381.778 661.467 381.313 661.804C380.849 662.141 380.285 662.258 379.744 662.13C375.28 660.87 373.2 660.024 367.52 658.53C364.032 657.63 354.336 655.56 349.52 654.318C344.704 653.076 345.936 647.748 348.08 647.784C357.68 647.982 364.416 646.56 368.24 644.526C368.903 644.172 369.652 644.077 370.368 644.256Z" fill="#263238"/>
<path opacity="0.2" d="M386.752 618.588L375.264 615.618L372.896 631.242L384.384 634.194L386.752 618.588Z" fill="black"/>
<path d="M416.896 335.142C416.896 335.142 397.936 423.882 392.256 461.34C386.048 502.344 368.736 626.256 368.736 626.256L389.76 631.656C389.76 631.656 416 513.522 425.424 473.76C435.664 430.56 456.88 378.36 456.88 335.97C444.176 335.97 416.896 335.142 416.896 335.142Z" fill="#263238"/>
<path d="M390.608 631.89L364.976 625.284L365.552 615.978L393.248 624.6L390.608 631.89Z" fill="#850000"/>
<path d="M365.84 645.462C366.893 645.697 367.966 645.806 369.04 645.786C369.093 645.786 369.145 645.769 369.191 645.737C369.236 645.705 369.272 645.66 369.296 645.606C369.326 645.556 369.342 645.496 369.342 645.435C369.342 645.374 369.326 645.315 369.296 645.264C368.992 644.886 366.256 641.556 364.72 641.808C364.545 641.84 364.38 641.921 364.24 642.044C364.1 642.167 363.99 642.327 363.92 642.51C363.785 642.769 363.714 643.064 363.714 643.365C363.714 643.666 363.785 643.961 363.92 644.22C364.408 644.878 365.089 645.318 365.84 645.462ZM368.352 645.156C366.208 645.156 364.704 644.634 364.288 643.896C364.201 643.723 364.155 643.528 364.155 643.329C364.155 643.13 364.201 642.935 364.288 642.762C364.323 642.674 364.376 642.597 364.443 642.538C364.51 642.478 364.588 642.438 364.672 642.42C365.52 642.276 367.216 643.86 368.352 645.156Z" fill="#850000"/>
<path d="M368.944 645.786H369.072C369.117 645.775 369.158 645.751 369.192 645.717C369.226 645.682 369.251 645.637 369.264 645.588C369.264 645.444 370.32 641.79 369.408 640.188C369.295 639.988 369.142 639.821 368.962 639.699C368.781 639.578 368.578 639.505 368.368 639.486C368.137 639.431 367.897 639.467 367.687 639.588C367.477 639.709 367.31 639.909 367.216 640.152C366.656 641.484 367.824 644.616 368.816 645.678L368.944 645.786ZM368.432 640.134C368.54 640.16 368.642 640.21 368.733 640.281C368.824 640.352 368.901 640.443 368.96 640.548C369.358 641.947 369.358 643.451 368.96 644.85C368.075 643.601 367.656 642.013 367.792 640.422C367.792 640.26 367.984 640.062 368.384 640.116L368.432 640.134Z" fill="#850000"/>
<path d="M400.608 227.142C401.254 224.938 402.414 222.97 403.968 221.443C405.522 219.917 407.412 218.888 409.44 218.466C412.357 217.744 415.312 217.239 418.288 216.954C427.213 216.558 436.15 216.738 445.056 217.494C449.712 217.854 454.464 218.592 458.256 219.294H458.384C459.375 219.478 460.324 219.883 461.173 220.487C462.022 221.091 462.755 221.88 463.328 222.809C463.901 223.737 464.302 224.785 464.509 225.891C464.715 226.998 464.721 228.139 464.528 229.248C461.27 246.928 459.041 264.828 457.856 282.834C456.512 309.024 457.424 329.634 456.88 335.952L393.904 334.656C391.104 270.612 396.528 241.632 400.608 227.142Z" fill="white"/>
<path d="M443.28 216.216C440.08 230.022 419.856 254.484 417.408 292.914C418.304 313.992 417.552 328.374 419.856 342.486L458.416 341.334C459.008 334.656 454.64 313.182 457.504 291.42C460.288 270.324 464.24 241.632 466.48 228.816C466.674 227.653 466.663 226.458 466.446 225.3C466.23 224.142 465.813 223.043 465.218 222.067C464.624 221.09 463.864 220.255 462.982 219.61C462.1 218.964 461.114 218.52 460.08 218.304H459.936C455.936 217.566 450.928 216.774 446.016 216.414L443.28 216.216Z" fill="#263238"/>
<path opacity="0.2" d="M452.272 320.58C452.21 320.579 452.149 320.562 452.094 320.531C452.039 320.5 451.99 320.455 451.952 320.4C447.946 314.448 444.803 307.82 442.64 300.762C442.623 300.705 442.615 300.645 442.619 300.585C442.622 300.526 442.636 300.467 442.66 300.413C442.684 300.36 442.717 300.312 442.758 300.273C442.798 300.234 442.845 300.204 442.896 300.186C443 300.152 443.112 300.165 443.207 300.222C443.303 300.279 443.375 300.376 443.408 300.492C445.534 307.456 448.635 313.995 452.592 319.86C452.656 319.956 452.683 320.076 452.668 320.194C452.653 320.312 452.597 320.418 452.512 320.49C452.441 320.544 452.358 320.575 452.272 320.58Z" fill="white"/>
<path opacity="0.3" d="M457.104 244.962C454.352 257.562 455.296 275.004 457.584 290.916C459.936 273.06 463.12 249.876 465.376 235.512C462.704 233.46 459.28 234.918 457.104 244.962Z" fill="black"/>
<path d="M397.376 227.394C398.089 224.937 399.358 222.731 401.058 220.992C402.758 219.253 404.83 218.041 407.072 217.476C411.279 216.819 415.515 216.416 419.76 216.27C416.176 229.338 418.272 267.588 419.856 297.774C415.056 313.002 415.424 324.18 415.344 342.486L388.96 339.894C386.08 272.736 393.424 239.598 397.376 227.394Z" fill="#263238"/>
<path d="M419.552 216.864C427.376 214.956 428.832 209.664 428.4 203.616C428.303 202.123 428.121 200.637 427.856 199.17L437.76 190.17L445.024 183.636C442.88 193.284 440.352 210.924 446.08 217.512C446.08 217.512 441.104 226.35 427.808 225.27C416.56 224.442 419.552 216.864 419.552 216.864Z" fill="#FFB573"/>
<path d="M431.232 223.128L429.024 225.432L435.84 228.33L435.024 225.396L431.232 223.128Z" fill="#E0E0E0"/>
<path d="M433.712 232.29C433.712 232.29 433.712 224.748 431.232 223.128C436.314 221.763 440.981 218.899 444.752 214.83L448.8 216.63C448.8 216.63 447.312 225.342 433.712 232.29Z" fill="#F5F5F5"/>
<path d="M427.472 222.534L429.024 225.432L421.776 226.134L423.28 223.56L427.472 222.534Z" fill="#E0E0E0"/>
<path d="M421.312 230.742C421.683 228.92 422.435 227.225 423.507 225.797C424.578 224.369 425.938 223.25 427.472 222.534C423.568 221.22 423.456 215.118 423.456 215.118L419.632 215.946C419.632 215.946 415.712 224.082 421.312 230.742Z" fill="#F5F5F5"/>
<path opacity="0.2" d="M427.856 199.17C428.122 200.637 428.304 202.122 428.4 203.616C432.048 202.86 436.976 198.612 437.552 194.436C437.762 193.057 437.831 191.656 437.76 190.26L427.856 199.17Z" fill="black"/>
<path d="M414.496 155.052C413.355 157.428 412.804 160.106 412.899 162.804C412.995 165.502 413.734 168.122 415.04 170.388L422.88 159.408L414.496 155.052Z" fill="#263238"/>
<path d="M446.128 167.238C445.568 180.414 445.84 188.118 440.032 195.192C438.167 197.505 435.775 199.202 433.116 200.098C430.456 200.995 427.63 201.057 424.941 200.279C422.252 199.501 419.803 197.912 417.858 195.683C415.913 193.455 414.546 190.671 413.904 187.632C411.264 175.968 412.608 156.384 423.952 150.534C426.379 149.197 429.077 148.6 431.773 148.805C434.47 149.009 437.072 150.007 439.318 151.699C441.564 153.391 443.375 155.717 444.57 158.444C445.765 161.171 446.303 164.204 446.128 167.238Z" fill="#FFB573"/>
<path d="M453.328 153.666C448.272 135.45 397.856 126.036 417.408 156.852L438.848 153.558L439.648 159.75C440.74 164.595 442.207 169.323 444.032 173.88L443.136 179.478L444.064 188.586C444.064 188.586 452.976 177.462 457.488 172.188C464.24 164.34 457.392 153.216 453.328 153.666Z" fill="#263238"/>
<path d="M414.912 157.266C420.512 161.91 435.152 162.792 435.152 162.792C434.151 160.358 432.615 158.252 430.688 156.672C436.56 160.956 441.776 165.888 451.584 166.302C450.272 162.226 448.237 158.494 445.601 155.331C442.966 152.168 439.787 149.642 436.256 147.906C424.448 141.948 404.4 148.572 414.912 157.266Z" fill="#263238"/>
<path d="M450.976 137.538C450.976 137.538 448.8 139.194 448.304 144.954C447.808 150.714 452.992 158.148 452.992 158.148L454.272 154.458C449.424 147.42 450.976 137.538 450.976 137.538Z" fill="#263238"/>
<path d="M449.408 177.174C448.409 179.799 446.634 181.954 444.384 183.276C441.52 184.86 440 181.944 440.736 178.38C441.392 175.176 443.696 170.496 446.608 170.388C449.52 170.28 450.656 173.862 449.408 177.174Z" fill="#FFB573"/>
<path d="M428.24 172.134C428.24 173.196 427.76 174.096 427.152 174.132C426.544 174.168 426.016 173.322 426 172.242C425.984 171.162 426.48 170.28 427.104 170.244C427.728 170.208 428.224 171 428.24 172.134Z" fill="#263238"/>
<path d="M417.6 172.8C417.6 173.88 417.12 174.762 416.496 174.798C415.872 174.834 415.36 173.988 415.36 172.998C415.36 172.008 415.84 171.036 416.448 171C417.056 170.964 417.504 171.648 417.6 172.8Z" fill="#263238"/>
<path d="M421.184 172.8C420.092 176.14 418.607 179.3 416.768 182.196C417.432 182.683 418.184 183.001 418.969 183.125C419.754 183.25 420.554 183.178 421.312 182.916L421.184 172.8Z" fill="#ED893E"/>
<path d="M425.216 185.58C426.306 185.393 427.35 184.958 428.285 184.302C429.221 183.646 430.027 182.782 430.656 181.764C430.694 181.694 430.706 181.61 430.691 181.53C430.677 181.45 430.635 181.379 430.576 181.332C430.545 181.309 430.51 181.294 430.473 181.288C430.437 181.281 430.399 181.283 430.363 181.293C430.327 181.303 430.294 181.321 430.264 181.346C430.235 181.372 430.21 181.404 430.192 181.44C429.478 182.513 428.56 183.393 427.506 184.015C426.451 184.638 425.286 184.988 424.096 185.04C424.021 185.049 423.952 185.089 423.901 185.152C423.851 185.215 423.824 185.297 423.824 185.382C423.832 185.462 423.866 185.535 423.919 185.588C423.972 185.641 424.041 185.67 424.112 185.67C424.481 185.669 424.85 185.639 425.216 185.58Z" fill="#263238"/>
<path d="M433.072 167.544C433.165 167.526 433.253 167.482 433.328 167.418C433.442 167.313 433.514 167.161 433.529 166.996C433.544 166.83 433.501 166.665 433.408 166.536C432.875 165.752 432.179 165.126 431.381 164.715C430.584 164.304 429.708 164.12 428.832 164.178C428.753 164.177 428.674 164.196 428.601 164.232C428.529 164.268 428.464 164.321 428.411 164.387C428.358 164.453 428.318 164.532 428.294 164.617C428.27 164.702 428.262 164.792 428.271 164.881C428.28 164.969 428.306 165.055 428.347 165.131C428.388 165.208 428.442 165.274 428.507 165.325C428.573 165.376 428.647 165.411 428.725 165.427C428.803 165.444 428.883 165.441 428.96 165.42C429.642 165.379 430.322 165.521 430.945 165.834C431.568 166.147 432.116 166.622 432.544 167.22C432.592 167.328 432.669 167.417 432.763 167.475C432.857 167.533 432.965 167.557 433.072 167.544Z" fill="#263238"/>
<path d="M412.8 168.966C412.89 168.949 412.975 168.907 413.048 168.844C413.12 168.781 413.178 168.7 413.216 168.606C413.503 167.856 413.942 167.192 414.497 166.667C415.053 166.142 415.71 165.771 416.416 165.582C416.488 165.569 416.557 165.54 416.619 165.496C416.68 165.453 416.734 165.396 416.775 165.329C416.817 165.262 416.847 165.186 416.862 165.105C416.877 165.025 416.878 164.942 416.864 164.862C416.84 164.697 416.76 164.55 416.64 164.452C416.52 164.354 416.37 164.314 416.224 164.34C415.356 164.58 414.548 165.043 413.865 165.692C413.182 166.342 412.643 167.16 412.288 168.084C412.247 168.187 412.231 168.301 412.242 168.413C412.253 168.525 412.291 168.632 412.352 168.722C412.412 168.813 412.493 168.883 412.586 168.926C412.679 168.968 412.781 168.982 412.88 168.966H412.8Z" fill="#263238"/>
<path d="M468.272 226.116C469.344 228.816 470.256 231.264 471.136 233.838C472.016 236.412 472.896 238.968 473.728 241.542C475.328 246.69 476.928 251.928 478.208 257.238C481.08 268.066 482.936 279.203 483.744 290.466C484.28 301.348 484.28 312.254 483.744 323.136C483.28 333.936 482.528 344.502 481.264 355.176C481.097 356.576 480.48 357.859 479.531 358.784C478.582 359.709 477.365 360.212 476.11 360.199C474.854 360.186 473.646 359.657 472.712 358.712C471.779 357.767 471.184 356.471 471.04 355.068C470 344.556 469.184 334.008 468.336 323.55C467.92 318.318 467.472 313.116 466.992 307.944C466.56 302.778 465.984 297.648 465.392 292.77C463.859 282.986 461.633 273.355 458.736 263.97C457.296 259.164 455.808 254.34 454.224 249.57C452.64 244.8 450.944 239.904 449.424 235.386L449.328 235.134C448.404 232.324 448.48 229.221 449.54 226.472C450.601 223.723 452.563 221.541 455.018 220.381C457.474 219.22 460.233 219.17 462.72 220.242C465.207 221.314 467.23 223.425 468.368 226.134L468.272 226.116Z" fill="#263238"/>
<path d="M471.2 354.276L464.528 357.876L475.84 362.43C475.84 362.43 483.504 359.712 479.904 354.96L477.888 354.24C474.608 352.998 472.992 353.124 471.2 354.276Z" fill="#FFB573"/>
<path d="M460.704 365.94L472.656 368.514L475.84 362.358L464.528 357.804L460.704 365.94Z" fill="#FFB573"/>
<path d="M279.712 54.198H226.032V56.214H279.712V54.198Z" fill="#850000"/>
<path d="M196.352 64.8L195.04 63.414C197.502 60.4668 200.477 58.1225 203.781 56.5275C207.084 54.9325 210.645 54.1211 214.24 54.144V56.142C210.889 56.1209 207.57 56.879 204.492 58.3689C201.414 59.8588 198.642 62.0483 196.352 64.8Z" fill="#850000"/>
<path d="M214.304 61.2H316.928C322.709 61.3062 328.247 63.8357 332.458 68.2934C336.669 72.7512 339.25 78.8164 339.696 85.302L343.584 154.422L344.832 176.85L323.648 154.44H219.552C213.775 154.334 208.241 151.806 204.032 147.352C199.824 142.897 197.245 136.837 196.8 130.356L194.272 85.356C194.057 82.259 194.416 79.1454 195.327 76.213C196.239 73.2806 197.682 70.5933 199.566 68.3219C201.449 66.0504 203.732 64.2444 206.269 63.0183C208.807 61.7923 211.543 61.1731 214.304 61.2Z" fill="#850000"/>
<path d="M219.728 94.23H316.704C317.163 94.2338 317.618 94.1307 318.04 93.9269C318.463 93.7232 318.843 93.4234 319.157 93.0464C319.471 92.6693 319.712 92.2232 319.866 91.7361C320.019 91.249 320.081 90.7314 320.048 90.216C319.969 89.1348 319.535 88.1253 318.831 87.3835C318.128 86.6418 317.204 86.2207 316.24 86.202H219.28C218.821 86.1982 218.366 86.3014 217.943 86.5051C217.521 86.7088 217.141 87.0086 216.827 87.3856C216.513 87.7627 216.272 88.2088 216.118 88.6959C215.965 89.183 215.903 89.7006 215.936 90.216C216.011 91.2957 216.442 92.305 217.143 93.0471C217.844 93.7892 218.765 94.211 219.728 94.23Z" fill="white"/>
<path d="M220.8 112.734H317.776C318.235 112.738 318.69 112.635 319.112 112.431C319.534 112.227 319.915 111.927 320.229 111.55C320.543 111.173 320.784 110.727 320.937 110.24C321.091 109.753 321.153 109.235 321.12 108.72C321.044 107.637 320.612 106.625 319.907 105.883C319.203 105.14 318.277 104.721 317.312 104.706H220.32C219.86 104.699 219.404 104.801 218.98 105.004C218.557 105.206 218.176 105.506 217.861 105.884C217.547 106.261 217.305 106.709 217.153 107.197C217.001 107.685 216.94 108.204 216.976 108.72C217.052 109.806 217.486 110.82 218.194 111.563C218.902 112.306 219.832 112.724 220.8 112.734Z" fill="white"/>
<path d="M254.832 131.238H318.832C319.293 131.242 319.749 131.138 320.172 130.934C320.596 130.729 320.977 130.427 321.291 130.048C321.605 129.669 321.846 129.221 321.999 128.732C322.151 128.242 322.211 127.723 322.176 127.206C322.104 126.125 321.675 125.113 320.973 124.37C320.271 123.627 319.347 123.207 318.384 123.192H254.4C253.94 123.188 253.485 123.291 253.063 123.495C252.641 123.699 252.261 123.999 251.947 124.376C251.633 124.753 251.391 125.199 251.238 125.686C251.085 126.173 251.023 126.691 251.056 127.206C251.124 128.287 251.549 129.301 252.248 130.047C252.947 130.793 253.868 131.218 254.832 131.238Z" fill="white"/>
<path d="M250.704 176.868H148.08C145.32 176.832 142.583 177.442 140.044 178.659C137.504 179.876 135.218 181.675 133.33 183.94C131.441 186.205 129.992 188.887 129.075 191.815C128.157 194.744 127.791 197.856 128 200.952L130.88 251.64L132.128 274.05L150.8 251.64H254.896C257.655 251.671 260.391 251.057 262.928 249.837C265.466 248.616 267.75 246.816 269.636 244.55C271.523 242.284 272.97 239.601 273.886 236.673C274.803 233.744 275.168 230.634 274.96 227.538L273.472 200.952C273.026 194.468 270.445 188.405 266.233 183.95C262.022 179.495 256.484 176.97 250.704 176.868Z" fill="#850000"/>
<path opacity="0.5" d="M250.704 176.868H148.08C145.32 176.832 142.583 177.442 140.044 178.659C137.504 179.876 135.218 181.675 133.33 183.94C131.441 186.205 129.992 188.887 129.075 191.815C128.157 194.744 127.791 197.856 128 200.952L130.88 251.64L132.128 274.05L150.8 251.64H254.896C257.655 251.671 260.391 251.057 262.928 249.837C265.466 248.616 267.75 246.816 269.636 244.55C271.523 242.284 272.97 239.601 273.886 236.673C274.803 233.744 275.168 230.634 274.96 227.538L273.472 200.952C273.026 194.468 270.445 188.405 266.233 183.95C262.022 179.495 256.484 176.97 250.704 176.868Z" fill="white"/>
<path d="M248.992 209.88H152C151.037 209.861 150.116 209.439 149.415 208.697C148.714 207.955 148.283 206.946 148.208 205.866C148.175 205.351 148.237 204.833 148.39 204.346C148.544 203.859 148.785 203.413 149.099 203.036C149.413 202.659 149.793 202.359 150.215 202.155C150.637 201.951 151.093 201.848 151.552 201.852H248.512C249.477 201.867 250.403 202.286 251.107 203.029C251.812 203.772 252.244 204.783 252.32 205.866C252.353 206.38 252.291 206.896 252.139 207.382C251.987 207.868 251.747 208.313 251.434 208.69C251.122 209.067 250.744 209.367 250.323 209.572C249.903 209.776 249.45 209.881 248.992 209.88Z" fill="white"/>
<path d="M217.008 228.42H153.008C152.044 228.401 151.12 227.98 150.416 227.238C149.713 226.497 149.279 225.487 149.2 224.406C149.167 223.891 149.229 223.373 149.382 222.886C149.535 222.399 149.777 221.953 150.091 221.576C150.405 221.199 150.785 220.899 151.207 220.695C151.629 220.491 152.084 220.388 152.544 220.392H216.544C217.509 220.403 218.434 220.822 219.137 221.566C219.84 222.309 220.268 223.323 220.336 224.406C220.369 224.92 220.307 225.436 220.155 225.922C220.002 226.408 219.763 226.853 219.45 227.23C219.138 227.607 218.76 227.907 218.339 228.112C217.919 228.316 217.466 228.421 217.008 228.42Z" fill="white"/>
<path d="M226.272 274.05H328.88C334.662 274.152 340.203 276.68 344.414 281.139C348.626 285.597 351.206 291.665 351.648 298.152L354.688 352.152L355.952 374.562L334.768 352.152H230.656C224.875 352.046 219.336 349.516 215.125 345.059C210.914 340.601 208.333 334.536 207.888 328.05L206.208 298.08C206.009 294.99 206.381 291.887 207.302 288.967C208.222 286.047 209.671 283.374 211.557 281.116C213.442 278.858 215.723 277.064 218.256 275.848C220.789 274.632 223.518 274.019 226.272 274.05Z" fill="#850000"/>
<path d="M272.08 310.248C272.228 312.531 273.132 314.669 274.613 316.239C276.094 317.808 278.045 318.696 280.08 318.726C281.052 318.739 282.015 318.525 282.91 318.096C283.804 317.668 284.609 317.035 285.274 316.238C285.939 315.44 286.449 314.496 286.773 313.465C287.096 312.434 287.225 311.338 287.152 310.248C286.997 307.968 286.091 305.835 284.611 304.267C283.131 302.698 281.184 301.808 279.152 301.77C278.179 301.754 277.215 301.967 276.319 302.394C275.424 302.822 274.618 303.455 273.952 304.252C273.286 305.05 272.776 305.996 272.454 307.028C272.131 308.06 272.004 309.157 272.08 310.248Z" fill="white"/>
<path d="M246.944 313.092C247.092 315.375 247.996 317.513 249.477 319.083C250.958 320.652 252.909 321.54 254.944 321.57C255.915 321.583 256.878 321.369 257.772 320.94C258.665 320.512 259.469 319.878 260.133 319.081C260.797 318.283 261.306 317.339 261.627 316.308C261.949 315.277 262.075 314.181 262 313.092C261.845 310.812 260.939 308.679 259.459 307.111C257.979 305.542 256.032 304.652 254 304.614C253.029 304.601 252.066 304.815 251.172 305.244C250.279 305.672 249.474 306.306 248.811 307.103C248.147 307.901 247.638 308.845 247.317 309.876C246.995 310.907 246.868 312.003 246.944 313.092Z" fill="white"/>
<path d="M297.76 317.358C297.915 319.638 298.821 321.771 300.301 323.339C301.781 324.908 303.727 325.798 305.76 325.836C306.731 325.849 307.694 325.635 308.588 325.206C309.481 324.778 310.285 324.144 310.949 323.347C311.613 322.549 312.122 321.605 312.443 320.574C312.765 319.543 312.892 318.447 312.816 317.358C312.668 315.075 311.764 312.937 310.283 311.367C308.801 309.798 306.851 308.91 304.816 308.88C303.845 308.869 302.884 309.086 301.991 309.515C301.099 309.945 300.296 310.578 299.632 311.375C298.969 312.172 298.46 313.116 298.138 314.145C297.815 315.175 297.687 316.269 297.76 317.358Z" fill="white"/>
</g>
<defs>
<clipPath id="clip0_437_1167">
<rect width="800" height="671" fill="white"/>
</clipPath>
</defs>
</svg>
