<svg width="800" height="592" viewBox="0 0 800 592" fill="none" xmlns="http://www.w3.org/2000/svg">
<path d="M800 519.797H0V520.194H800V519.797Z" fill="#EBEBEB"/>
<path d="M719.84 545.343H666.848V545.739H719.84V545.343Z" fill="#EBEBEB"/>
<path d="M529.952 549.661H516.048V550.058H529.952V549.661Z" fill="#EBEBEB"/>
<path d="M665.248 530.609H634.544V531.006H665.248V530.609Z" fill="#EBEBEB"/>
<path d="M153.04 533.276H83.936V533.673H153.04V533.276Z" fill="#EBEBEB"/>
<path d="M177.424 533.276H167.296V533.673H177.424V533.276Z" fill="#EBEBEB"/>
<path d="M360.24 539.976H210.352V540.373H360.24V539.976Z" fill="#EBEBEB"/>
<path d="M379.2 448.988H70.256C67.8357 448.984 65.5161 448.027 63.8062 446.327C62.0963 444.627 61.136 442.324 61.136 439.922V8.98611C61.1571 6.59832 62.1267 4.3152 63.8343 2.63267C65.5419 0.950143 67.8495 0.00409041 70.256 0H379.2C381.623 0 383.947 0.955112 385.66 2.65522C387.373 4.35533 388.336 6.66117 388.336 9.06549V439.922C388.336 442.327 387.373 444.633 385.66 446.333C383.947 448.033 381.623 448.988 379.2 448.988ZM70.256 0.317532C67.9418 0.321737 65.7239 1.23688 64.089 2.8621C62.4542 4.48732 61.536 6.68981 61.536 8.98611V439.922C61.536 442.219 62.4542 444.421 64.089 446.046C65.7239 447.672 67.9418 448.587 70.256 448.591H379.2C381.516 448.587 383.735 447.672 385.373 446.047C387.01 444.423 387.932 442.22 387.936 439.922V8.98611C387.932 6.68835 387.01 4.4859 385.373 2.86113C383.735 1.23637 381.516 0.321728 379.2 0.317532H70.256Z" fill="#EBEBEB"/>
<path d="M725.296 448.988H416.336C413.914 448.984 411.593 448.027 409.881 446.328C408.168 444.629 407.204 442.325 407.2 439.922V8.98611C407.225 6.59687 408.198 4.31377 409.909 2.63168C411.619 0.949588 413.928 0.0040458 416.336 0H725.296C727.7 0.00826293 730.003 0.956162 731.707 2.63824C733.411 4.32033 734.379 6.60106 734.4 8.98611V439.922C734.4 442.321 733.442 444.622 731.735 446.321C730.029 448.021 727.713 448.979 725.296 448.988ZM416.336 0.317532C414.02 0.321728 411.801 1.23637 410.163 2.86113C408.526 4.4859 407.604 6.68835 407.6 8.98611V439.922C407.604 442.22 408.526 444.423 410.163 446.047C411.801 447.672 414.02 448.587 416.336 448.591H725.296C727.612 448.587 729.831 447.672 731.469 446.047C733.106 444.423 734.028 442.22 734.032 439.922V8.98611C734.028 6.68835 733.106 4.4859 731.469 2.86113C729.831 1.23637 727.612 0.321728 725.296 0.317532H416.336Z" fill="#EBEBEB"/>
<path d="M688 351.57H638.928V519.781H688V351.57Z" fill="#E0E0E0"/>
<path d="M440.624 519.797H677.536L689.184 347.172H452.288L440.624 519.797Z" fill="#E6E6E6"/>
<path d="M436.608 519.797H673.52L685.184 347.172H448.272L436.608 519.797Z" fill="#F0F0F0"/>
<path d="M451.12 509.716H660.368L670.672 357.238H461.424L451.12 509.716Z" fill="white"/>
<path d="M314.464 511.764H344.512V352.935H314.464V511.764Z" fill="#F0F0F0"/>
<path d="M106.832 519.797H340.352V511.764H106.832V519.797Z" fill="#E6E6E6"/>
<path d="M314.464 352.935H102.672V511.764H314.464V352.935Z" fill="#FAFAFA"/>
<path d="M277.152 367.795H139.984C132.8 367.795 126.976 373.574 126.976 380.703V410.313C126.976 417.441 132.8 423.22 139.984 423.22H277.152C284.336 423.22 290.16 417.441 290.16 410.313V380.703C290.16 373.574 284.336 367.795 277.152 367.795Z" fill="#F0F0F0"/>
<path d="M277.152 439.145H139.984C132.8 439.145 126.976 444.923 126.976 452.052V481.662C126.976 488.791 132.8 494.569 139.984 494.569H277.152C284.336 494.569 290.16 488.791 290.16 481.662V452.052C290.16 444.923 284.336 439.145 277.152 439.145Z" fill="#F0F0F0"/>
<path d="M102.672 352.935H314.464V345.473H102.672V352.935Z" fill="#F0F0F0"/>
<path d="M344.512 345.473H314.464V352.935H344.512V345.473Z" fill="#E6E6E6"/>
<path d="M187.92 345.473H235.088V324.246H187.92V345.473Z" fill="#F0F0F0"/>
<path d="M253.856 324.23H235.072V345.457H253.856V324.23Z" fill="#E6E6E6"/>
<path d="M187.92 323.04H235.088V317.387H187.92V323.04Z" fill="#F0F0F0"/>
<path d="M253.856 317.403H235.072V323.055H253.856V317.403Z" fill="#E6E6E6"/>
<path d="M481.744 263.185H655.84V37.7861L481.744 37.7861V263.185Z" fill="#E6E6E6"/>
<path d="M473.728 263.185H652.096V37.7861L473.728 37.7861V263.185Z" fill="#F0F0F0"/>
<path d="M481.744 270.583H655.84V263.185H481.744V270.583Z" fill="#E6E6E6"/>
<path d="M470.832 270.583H649.2V263.185H470.832V270.583Z" fill="#F0F0F0"/>
<path d="M640.832 252.024V48.9314L484.96 48.9314V252.024H640.832Z" fill="#FAFAFA"/>
<path d="M529.056 252.024L572.928 48.9314H604.096L560.208 252.024H529.056Z" fill="white"/>
<path d="M534 252.024L577.888 48.9314H609.04L565.152 252.024H534Z" fill="white"/>
<path d="M566.912 252.024L610.784 48.9314H622.928L579.056 252.024H566.912Z" fill="white"/>
<path d="M486.4 252.024V48.9314H484.976V252.024H486.4Z" fill="#E6E6E6"/>
<path opacity="0.6" d="M471.056 57.3459H645.152L646.176 53.2656H472.096L471.056 57.3459Z" fill="#EBEBEB"/>
<path opacity="0.6" d="M471.056 64.0141H645.152L646.176 59.9497H472.096L471.056 64.0141Z" fill="#EBEBEB"/>
<path opacity="0.6" d="M471.056 70.6982H645.152L646.176 66.6338H472.096L471.056 70.6982Z" fill="#EBEBEB"/>
<path opacity="0.6" d="M471.056 77.382H645.152L646.176 73.3018H472.096L471.056 77.382Z" fill="#EBEBEB"/>
<path opacity="0.6" d="M471.056 84.0661H645.152L646.176 79.9858H472.096L471.056 84.0661Z" fill="#EBEBEB"/>
<path opacity="0.6" d="M471.056 90.7343H645.152L646.176 86.6699H472.096L471.056 90.7343Z" fill="#EBEBEB"/>
<path d="M690.32 19.0518H439.248V25.069H690.32V19.0518Z" fill="#F0F0F0"/>
<path opacity="0.8" d="M685.776 13.9873H672.576V312.767H685.776V13.9873Z" fill="#FAFAFA"/>
<path opacity="0.8" d="M676 13.9873H672.576V312.767H676V13.9873Z" fill="#F0F0F0"/>
<path opacity="0.8" d="M672.576 13.9873H659.376V312.767H672.576V13.9873Z" fill="#FAFAFA"/>
<path opacity="0.8" d="M662.8 13.9873H659.376V312.767H662.8V13.9873Z" fill="#F0F0F0"/>
<path opacity="0.8" d="M659.376 13.9873H646.176V312.767H659.376V13.9873Z" fill="#FAFAFA"/>
<path opacity="0.8" d="M481.744 13.9873H468.544V312.767H481.744V13.9873Z" fill="#FAFAFA"/>
<path opacity="0.8" d="M471.968 13.9873H468.544V312.767H471.968V13.9873Z" fill="#F0F0F0"/>
<path opacity="0.8" d="M468.56 13.9873H455.36V312.767H468.56V13.9873Z" fill="#FAFAFA"/>
<path opacity="0.8" d="M458.784 13.9873H455.36V312.767H458.784V13.9873Z" fill="#F0F0F0"/>
<path opacity="0.8" d="M455.36 13.9873H442.16V312.767H455.36V13.9873Z" fill="#FAFAFA"/>
<path d="M136.544 263.185H310.64V37.7861L136.544 37.7861L136.544 263.185Z" fill="#E6E6E6"/>
<path d="M128.512 263.185H306.88V37.7861L128.512 37.7861L128.512 263.185Z" fill="#F0F0F0"/>
<path d="M136.544 270.583H310.64V263.185H136.544V270.583Z" fill="#E6E6E6"/>
<path d="M125.616 270.583H303.984V263.185H125.616V270.583Z" fill="#F0F0F0"/>
<path d="M295.632 252.024V48.9314L139.76 48.9314V252.024H295.632Z" fill="#FAFAFA"/>
<path d="M183.856 252.024L227.728 48.9314H258.896L215.008 252.024H183.856Z" fill="white"/>
<path d="M188.8 252.024L232.672 48.9314H263.84L219.952 252.024H188.8Z" fill="white"/>
<path d="M221.696 252.024L265.584 48.9314H277.728L233.856 252.024H221.696Z" fill="white"/>
<path d="M141.184 252.024V48.9314H139.76V252.024H141.184Z" fill="#E6E6E6"/>
<path opacity="0.6" d="M125.856 57.3459H299.952L300.976 53.2656H126.896L125.856 57.3459Z" fill="#EBEBEB"/>
<path opacity="0.6" d="M125.856 64.0141H299.952L300.976 59.9497H126.896L125.856 64.0141Z" fill="#EBEBEB"/>
<path opacity="0.6" d="M125.856 70.6982H299.952L300.976 66.6338H126.896L125.856 70.6982Z" fill="#EBEBEB"/>
<path opacity="0.6" d="M125.856 77.382H299.952L300.976 73.3018H126.896L125.856 77.382Z" fill="#EBEBEB"/>
<path opacity="0.6" d="M125.856 84.0661H299.952L300.976 79.9858H126.896L125.856 84.0661Z" fill="#EBEBEB"/>
<path opacity="0.6" d="M125.856 90.7343H299.952L300.976 86.6699H126.896L125.856 90.7343Z" fill="#EBEBEB"/>
<path d="M345.12 19.0518H94.0481V25.069H345.12V19.0518Z" fill="#F0F0F0"/>
<path opacity="0.8" d="M340.576 13.9873H327.376V312.767H340.576V13.9873Z" fill="#FAFAFA"/>
<path opacity="0.8" d="M330.8 13.9873H327.376V312.767H330.8V13.9873Z" fill="#F0F0F0"/>
<path opacity="0.8" d="M327.376 13.9873H314.176V312.767H327.376V13.9873Z" fill="#FAFAFA"/>
<path opacity="0.8" d="M317.6 13.9873H314.176V312.767H317.6V13.9873Z" fill="#F0F0F0"/>
<path opacity="0.8" d="M314.176 13.9873H300.976V312.767H314.176V13.9873Z" fill="#FAFAFA"/>
<path opacity="0.8" d="M136.544 13.9873H123.344V312.767H136.544V13.9873Z" fill="#FAFAFA"/>
<path opacity="0.8" d="M126.768 13.9873H123.344V312.767H126.768V13.9873Z" fill="#F0F0F0"/>
<path opacity="0.8" d="M123.344 13.9873H110.144V312.767H123.344V13.9873Z" fill="#FAFAFA"/>
<path opacity="0.8" d="M113.568 13.9873H110.144V312.767H113.568V13.9873Z" fill="#F0F0F0"/>
<path opacity="0.8" d="M110.144 13.9873H96.9441V312.767H110.144V13.9873Z" fill="#FAFAFA"/>
<path d="M252.688 323.04H189.072V324.23H252.688V323.04Z" fill="#E0E0E0"/>
<path d="M379.714 591.496C551.046 591.496 689.938 583.449 689.938 573.523C689.938 563.598 551.046 555.551 379.714 555.551C208.382 555.551 69.4895 563.598 69.4895 573.523C69.4895 583.449 208.382 591.496 379.714 591.496Z" fill="#F5F5F5"/>
<path d="M367.713 124.107C373.169 124.361 386.433 129.473 376.545 149.827C366.657 170.181 368.449 174.801 379.345 174.515C379.345 174.515 368.673 187.804 331.233 179.278C301.345 172.451 348.833 147.715 348.833 147.715L367.713 124.107Z" fill="#263238"/>
<path d="M354.945 131.68C363.393 127.108 371.841 131.601 370.241 123.138C367.713 109.818 331.745 109.278 330.337 131.251C328.737 154.939 322.417 162.242 317.793 157.146C313.169 152.05 316.817 149.065 316.817 149.065C316.817 149.065 297.345 161.417 314.337 172.165C331.329 182.913 351.137 184.12 353.633 164.052C354.865 153.907 354.945 131.68 354.945 131.68Z" fill="#263238"/>
<path d="M320.145 194.773C319.617 196.996 319.089 198.854 318.465 200.854C317.841 202.854 317.201 204.744 316.513 206.665C315.153 210.507 313.537 214.27 311.793 217.985C308.3 225.559 303.848 232.66 298.545 239.116C297.185 240.704 295.697 242.292 294.193 243.879L293.009 245.007C292.625 245.372 292.225 245.753 291.729 246.15C290.828 246.928 289.882 247.654 288.897 248.325C285.237 250.703 281.305 252.643 277.185 254.104C273.302 255.486 269.331 256.61 265.297 257.47C263.313 257.93 261.329 258.295 259.313 258.597C257.297 258.899 255.345 259.184 253.233 259.359C252.384 259.427 251.539 259.186 250.856 258.681C250.173 258.176 249.699 257.441 249.522 256.614C249.346 255.787 249.479 254.924 249.897 254.188C250.315 253.451 250.989 252.891 251.793 252.612H251.905C259.035 250.247 265.986 247.382 272.705 244.038C275.809 242.499 278.743 240.642 281.457 238.497C283.976 236.27 286.246 233.779 288.225 231.067C290.387 228.202 292.348 225.195 294.097 222.065C295.917 218.893 297.567 215.629 299.041 212.285C300.561 208.935 301.873 205.49 303.153 202.013C303.777 200.283 304.369 198.52 304.929 196.774C305.489 195.027 306.033 193.186 306.433 191.646V191.487C306.952 189.771 308.117 188.32 309.686 187.434C311.255 186.548 313.107 186.295 314.858 186.728C316.61 187.161 318.126 188.246 319.093 189.759C320.059 191.272 320.402 193.096 320.049 194.853L320.145 194.773Z" fill="#FFC3BD"/>
<path d="M251.569 251.881L237.713 251.452L246.369 262.312C246.369 262.312 255.057 260.867 256.881 255.501L251.569 251.881Z" fill="#FFC3BD"/>
<path d="M228.401 258.216L236.145 266.932L246.369 262.312L237.713 251.452L228.401 258.216Z" fill="#FFC3BD"/>
<path d="M262.129 545.311L248.561 543.231L250.497 492.918L269.121 495.76L262.129 545.311Z" fill="#FFC3BD"/>
<path d="M320.657 557.742L307.089 555.71L306.465 505.524L325.425 507.938L320.657 557.742Z" fill="#FFC3BD"/>
<path d="M306.017 552.868H321.441C321.707 552.866 321.964 552.96 322.164 553.132C322.364 553.305 322.494 553.544 322.529 553.805L324.273 565.919C324.312 566.224 324.284 566.534 324.194 566.829C324.103 567.123 323.951 567.396 323.747 567.628C323.543 567.86 323.293 568.047 323.011 568.176C322.729 568.306 322.424 568.375 322.113 568.38C316.737 568.284 314.113 567.967 307.361 567.951C303.185 567.951 297.089 568.38 291.361 568.364C285.633 568.348 285.297 562.696 287.697 562.188C298.465 559.917 300.161 556.742 303.793 553.726C304.415 553.197 305.199 552.895 306.017 552.868Z" fill="#263238"/>
<path d="M247.649 541.755L262.945 539.897C263.209 539.861 263.476 539.922 263.697 540.068C263.918 540.215 264.077 540.436 264.145 540.691L267.345 552.503C267.415 552.803 267.42 553.113 267.361 553.415C267.301 553.717 267.179 554.003 267.001 554.254C266.822 554.506 266.593 554.717 266.327 554.875C266.061 555.033 265.765 555.134 265.457 555.17C260.113 555.726 257.457 555.726 250.769 556.536C246.625 557.044 238.113 558.504 232.401 559.203C226.689 559.901 225.681 554.329 228.001 553.535C238.401 549.947 242.209 546.295 245.441 542.866C246.019 542.245 246.803 541.85 247.649 541.755Z" fill="#263238"/>
<path d="M306.913 188.55C304.801 197.298 302.113 217.445 301.073 263.868L355.889 273.949C358.881 253.151 361.281 239.863 377.121 202.934C377.596 201.825 377.835 200.631 377.825 199.426C377.814 198.222 377.554 197.032 377.06 195.932C376.566 194.831 375.85 193.843 374.955 193.029C374.059 192.216 373.005 191.593 371.857 191.201C367.921 189.867 363.057 188.359 358.065 187.184C349.891 185.07 341.577 183.532 333.185 182.58C326.993 182.009 320.241 181.834 315.585 181.802C313.582 181.779 311.63 182.435 310.053 183.662C308.476 184.889 307.369 186.613 306.913 188.55Z" fill="#850000"/>
<path d="M360.801 158.924C357.745 166.592 353.457 180.85 358.065 187.184C349.695 193.274 340.385 197.976 330.497 201.108C325.057 187.184 333.185 182.612 333.185 182.612C342.513 182.136 343.505 175.515 343.105 169.053L360.801 158.924Z" fill="#FFC3BD"/>
<path opacity="0.2" d="M353.585 163.068L343.121 169.053C343.258 170.559 343.258 172.073 343.121 173.578C346.625 173.721 352.017 170.863 353.041 167.386C353.49 165.992 353.674 164.528 353.585 163.068Z" fill="black"/>
<path d="M368.321 142.968C365.857 155.241 365.121 160.432 357.905 165.973C347.121 174.245 332.481 168.545 331.201 155.796C330.049 144.318 334.289 126.187 347.201 122.916C350.035 122.192 353.009 122.197 355.841 122.931C358.672 123.665 361.268 125.104 363.383 127.112C365.498 129.12 367.061 131.63 367.925 134.404C368.789 137.179 368.926 140.127 368.321 142.968Z" fill="#FFC3BD"/>
<path d="M366.241 127.933C358.001 139.555 341.633 122.36 334.337 131.902C334.337 131.902 336.577 117.153 349.841 117.613C363.105 118.074 369.265 123.694 366.241 127.933Z" fill="#263238"/>
<path d="M301.073 263.868C301.073 263.868 267.985 351.776 257.969 392.15C251.713 434.255 249.217 494.252 249.217 494.252L270.177 497.427C270.177 497.427 279.169 443.955 287.777 402.327C302.609 358.444 341.137 271.235 341.137 271.235L301.073 263.868Z" fill="#263238"/>
<path d="M269.121 506.461L248.561 505.524L247.713 489.727L272.401 492.474L269.121 506.461Z" fill="#850000"/>
<path opacity="0.2" d="M317.745 311.402C301.873 329.835 295.905 360.477 294.673 383.402C303.745 359.27 316.081 329.644 325.761 306.909C324.209 305.671 321.649 306.862 317.745 311.402Z" fill="black"/>
<path d="M315.537 266.519C315.537 266.519 305.057 373.051 304.337 409.313C303.393 452.37 305.729 507.747 305.729 507.747L326.449 508.795C326.449 508.795 332.017 445.178 335.009 421.839C343.105 358.984 364.865 306.671 355.953 273.997L315.537 266.519Z" fill="#263238"/>
<path d="M326.641 512.113L305.185 511.049L304.017 495.999L328.961 498.031L326.641 512.113Z" fill="#850000"/>
<path d="M347.713 144.032C347.569 145.032 346.929 145.778 346.257 145.619C345.585 145.461 345.169 144.635 345.313 143.635C345.457 142.635 346.097 141.888 346.769 142.047C347.441 142.206 347.793 143.016 347.713 144.032Z" fill="#263238"/>
<path d="M345.185 156.082C345.041 157.082 344.385 157.829 343.729 157.749C343.073 157.67 342.641 156.765 342.785 155.765C342.929 154.764 343.569 154.002 344.225 154.098C344.881 154.193 345.313 155.082 345.185 156.082Z" fill="#263238"/>
<path d="M336.177 142.476C336.033 143.476 335.393 144.223 334.721 144.064C334.049 143.905 333.633 143.095 333.777 142.079C333.921 141.063 334.561 140.333 335.217 140.412C335.873 140.492 336.321 141.46 336.177 142.476Z" fill="#263238"/>
<path d="M335.505 140.571L333.169 139.555C333.169 139.555 334.161 141.603 335.505 140.571Z" fill="#263238"/>
<path d="M339.489 144.477C338.271 146.654 336.752 148.653 334.977 150.414C335.445 150.852 336.005 151.183 336.616 151.383C337.227 151.584 337.874 151.648 338.513 151.573L339.489 144.477Z" fill="#ED847E"/>
<path d="M363.137 129.203C354.561 132.775 354.241 151.891 365.905 149.636C377.569 147.382 374.385 124.488 363.137 129.203Z" fill="#263238"/>
<path d="M370.673 153.034C370.03 154.046 369.191 154.922 368.205 155.611C367.219 156.3 366.106 156.79 364.929 157.051C361.729 157.733 360.385 154.875 361.409 152.018C362.353 149.446 365.121 146 368.209 146.604C368.883 146.747 369.511 147.055 370.034 147.501C370.557 147.946 370.959 148.514 371.204 149.154C371.449 149.793 371.529 150.483 371.436 151.161C371.344 151.839 371.081 152.482 370.673 153.034Z" fill="#FFC3BD"/>
<path d="M351.793 137.157C351.712 137.163 351.63 137.152 351.552 137.125C351.475 137.097 351.405 137.054 351.345 136.999C350.819 136.461 350.172 136.055 349.458 135.812C348.743 135.569 347.981 135.497 347.233 135.601C347.076 135.635 346.913 135.605 346.778 135.518C346.643 135.432 346.548 135.297 346.513 135.141C346.484 134.986 346.516 134.825 346.602 134.692C346.688 134.56 346.823 134.464 346.977 134.427C347.921 134.282 348.887 134.362 349.793 134.66C350.7 134.958 351.523 135.466 352.193 136.141C352.28 136.222 352.34 136.326 352.366 136.44C352.392 136.555 352.383 136.674 352.34 136.784C352.297 136.893 352.222 136.987 352.124 137.054C352.027 137.12 351.912 137.156 351.793 137.157Z" fill="#263238"/>
<path d="M333.089 136.364C332.93 136.367 332.776 136.31 332.657 136.205C332.547 136.092 332.485 135.941 332.485 135.784C332.485 135.627 332.547 135.476 332.657 135.363C333.273 134.638 334.055 134.071 334.937 133.709C335.82 133.347 336.778 133.201 337.729 133.283C337.886 133.307 338.028 133.391 338.122 133.517C338.217 133.644 338.257 133.802 338.233 133.958C338.21 134.114 338.125 134.254 337.998 134.348C337.87 134.442 337.71 134.481 337.553 134.458C336.799 134.409 336.043 134.537 335.348 134.832C334.653 135.127 334.038 135.581 333.553 136.157C333.496 136.223 333.424 136.275 333.344 136.311C333.264 136.346 333.177 136.364 333.089 136.364Z" fill="#263238"/>
<path d="M378.753 200.505C379.857 204.458 380.705 208.252 381.553 212.142C382.401 216.032 383.153 219.906 383.761 223.827C385.125 231.763 385.911 239.785 386.113 247.833C386.232 252.08 385.98 256.33 385.361 260.534V260.947C385.361 261.058 385.265 261.455 385.217 261.693C385.077 262.284 384.89 262.862 384.657 263.423C384.152 264.619 383.406 265.699 382.465 266.599C380.932 268.061 379.003 269.049 376.913 269.441C375.487 269.724 374.03 269.831 372.577 269.758C371.37 269.704 370.167 269.572 368.977 269.361C364.788 268.539 360.704 267.256 356.801 265.535C353.049 263.979 349.413 262.159 345.921 260.089C345.161 259.68 344.581 259.005 344.294 258.195C344.007 257.385 344.034 256.498 344.369 255.707C344.704 254.915 345.323 254.276 346.107 253.912C346.89 253.548 347.782 253.486 348.609 253.739H348.721C352.337 254.723 356.113 255.66 359.729 256.485C361.553 256.882 363.377 257.232 365.169 257.486C366.868 257.779 368.583 257.965 370.305 258.041C371.553 258.151 372.81 258.038 374.017 257.708C374.321 257.597 374.097 257.47 373.585 257.898C373.34 258.134 373.135 258.408 372.977 258.708C372.977 258.835 372.865 258.978 372.833 259.041C372.833 259.2 372.801 259.105 372.833 259.041V258.787C373.114 255.284 373.114 251.764 372.833 248.261C372.641 244.641 372.209 240.958 371.713 237.259C371.217 233.56 370.625 229.845 369.937 226.145C368.529 218.763 366.929 211.221 365.137 204.029C364.751 202.271 365.066 200.432 366.015 198.898C366.965 197.364 368.475 196.254 370.231 195.801C371.986 195.347 373.851 195.585 375.433 196.465C377.016 197.345 378.194 198.798 378.721 200.521L378.753 200.505Z" fill="#FFC3BD"/>
<path d="M298.545 554.376C298.364 554.158 298.235 553.902 298.168 553.627C298.102 553.351 298.099 553.065 298.161 552.789C298.181 552.596 298.25 552.411 298.362 552.253C298.474 552.094 298.625 551.967 298.801 551.884C300.401 551.169 304.577 553.852 305.041 554.154C305.094 554.191 305.135 554.242 305.16 554.301C305.186 554.36 305.194 554.424 305.185 554.487C305.17 554.549 305.138 554.605 305.093 554.65C305.048 554.694 304.991 554.726 304.929 554.741C303.153 555.154 299.985 555.678 298.689 554.503L298.545 554.376ZM304.017 554.297C302.321 553.265 299.921 552.122 299.073 552.487C298.961 552.487 298.849 552.63 298.801 552.9C298.755 553.103 298.761 553.315 298.82 553.515C298.878 553.715 298.988 553.897 299.137 554.043C299.825 554.678 301.633 554.757 304.017 554.297Z" fill="#850000"/>
<path d="M302.913 553.202C301.87 552.238 301.24 550.914 301.153 549.502C301.202 549.251 301.337 549.025 301.536 548.863C301.734 548.701 301.984 548.612 302.241 548.613C302.488 548.58 302.74 548.601 302.978 548.675C303.215 548.749 303.434 548.874 303.617 549.042C305.105 550.344 305.121 554.281 305.121 554.44C305.12 554.497 305.105 554.553 305.077 554.603C305.049 554.652 305.009 554.695 304.961 554.726C304.911 554.75 304.857 554.762 304.801 554.762C304.746 554.762 304.691 554.75 304.641 554.726C303.992 554.305 303.41 553.792 302.913 553.202ZM303.329 549.677L303.185 549.518C303.069 549.414 302.932 549.336 302.783 549.29C302.634 549.243 302.476 549.229 302.321 549.248C301.905 549.248 301.809 549.486 301.793 549.629C301.601 550.566 303.153 552.805 304.449 553.821C304.486 552.37 304.121 550.936 303.393 549.677H303.329Z" fill="#850000"/>
<path d="M242.817 544.739C241.665 544.984 240.464 544.832 239.409 544.311C239.168 544.144 238.971 543.92 238.837 543.66C238.703 543.399 238.636 543.11 238.641 542.818C238.627 542.641 238.66 542.463 238.735 542.301C238.811 542.14 238.928 542.001 239.073 541.897C240.673 540.786 246.401 542.882 247.073 543.136C247.138 543.154 247.194 543.194 247.232 543.249C247.27 543.304 247.288 543.371 247.281 543.437C247.284 543.505 247.263 543.572 247.222 543.627C247.182 543.682 247.124 543.721 247.057 543.739C245.68 544.206 244.26 544.541 242.817 544.739ZM240.049 542.231C239.84 542.248 239.637 542.313 239.457 542.421C239.398 542.465 239.35 542.522 239.319 542.589C239.288 542.656 239.275 542.729 239.281 542.802C239.277 542.994 239.32 543.184 239.406 543.356C239.493 543.527 239.62 543.675 239.777 543.787C240.705 544.422 242.977 544.279 245.921 543.406C244.042 542.699 242.058 542.303 240.049 542.231Z" fill="#850000"/>
<path d="M246.993 543.755H246.913C245.201 543.215 241.633 540.691 241.697 539.135C241.697 538.77 241.905 538.278 242.785 538.087C243.101 538.014 243.429 538.005 243.748 538.062C244.068 538.12 244.372 538.242 244.641 538.42C246.529 539.627 247.297 543.183 247.329 543.374C247.339 543.431 247.335 543.489 247.318 543.544C247.301 543.599 247.272 543.649 247.233 543.691L246.993 543.755ZM243.057 538.659H242.865C242.289 538.802 242.273 539.04 242.273 539.119C242.273 540.056 244.705 542.072 246.481 542.882C246.168 541.357 245.379 539.968 244.225 538.913C243.879 538.691 243.465 538.601 243.057 538.659Z" fill="#850000"/>
<path d="M357.313 270.901L357.809 276.029C357.921 276.442 357.409 276.744 356.769 276.633L300.353 266.249C299.857 266.154 299.505 265.837 299.521 265.535L299.937 260.565C299.937 260.232 300.449 260.026 300.993 260.121L356.497 270.33C356.671 270.349 356.836 270.412 356.979 270.512C357.122 270.612 357.237 270.746 357.313 270.901Z" fill="#850000"/>
<path opacity="0.2" d="M357.313 270.901L357.809 276.029C357.921 276.442 357.409 276.744 356.769 276.633L300.353 266.249C299.857 266.154 299.505 265.837 299.521 265.535L299.937 260.565C299.937 260.232 300.449 260.026 300.993 260.121L356.497 270.33C356.671 270.349 356.836 270.412 356.979 270.512C357.122 270.612 357.237 270.746 357.313 270.901Z" fill="black"/>
<path d="M348.689 275.696L350.177 275.966C350.481 275.966 350.737 275.966 350.737 275.728L351.233 269.266C351.233 269.075 351.009 268.885 350.721 268.821L349.233 268.552C348.929 268.552 348.673 268.552 348.673 268.806L348.177 275.251C348.161 275.442 348.401 275.632 348.689 275.696Z" fill="#263238"/>
<path d="M304.417 267.551L305.905 267.821C306.209 267.821 306.449 267.821 306.465 267.583L306.961 261.121C306.961 260.931 306.737 260.74 306.449 260.677L304.961 260.407C304.657 260.407 304.401 260.407 304.385 260.645L303.905 267.107C303.889 267.297 304.129 267.488 304.417 267.551Z" fill="#263238"/>
<path d="M326.561 271.616L328.049 271.901C328.337 271.901 328.593 271.901 328.609 271.647L329.089 265.201C329.089 265.011 328.881 264.805 328.577 264.757L327.089 264.487C326.801 264.487 326.545 264.487 326.529 264.725L326.049 271.171C326.033 271.362 326.257 271.568 326.561 271.616Z" fill="#263238"/>
<path d="M350.001 254.024L339.425 243.705L338.369 257.517C338.369 257.517 345.729 262.28 350.753 259.597L350.001 254.024Z" fill="#FFC3BD"/>
<path d="M327.969 242.387L327.697 253.993L340.321 258.549L339.425 243.673L327.969 242.387Z" fill="#FFC3BD"/>
<path d="M346.977 142.127L344.641 141.111C344.641 141.111 345.633 143.159 346.977 142.127Z" fill="#263238"/>
<path d="M449.697 166.005C451.553 167.275 453.137 168.418 454.769 169.688C456.401 170.958 457.969 172.196 459.569 173.482C462.769 176.054 465.793 178.722 468.769 181.548C471.745 184.374 474.673 187.279 477.409 190.423C478.817 192.01 480.145 193.598 481.489 195.186C482.833 196.773 484.097 198.52 485.297 200.33L486.225 201.663C486.529 202.124 486.769 202.425 487.249 203.251L487.873 204.331L488.353 205.347C488.654 205.987 488.916 206.644 489.137 207.315C489.916 209.636 490.452 212.03 490.737 214.46C491.233 218.717 491.351 223.01 491.089 227.288C490.633 235.393 489.401 243.436 487.409 251.309L478.657 250.198C478.497 242.625 478.225 234.877 477.505 227.558C477.22 224.037 476.686 220.541 475.905 217.095C475.571 215.678 475.099 214.295 474.497 212.967C474.39 212.724 474.261 212.49 474.113 212.269L473.937 211.967L473.793 211.793L472.305 209.983C467.582 204.418 462.419 199.237 456.865 194.487C454.081 192.026 451.169 189.645 448.257 187.279C445.345 184.914 442.273 182.516 439.489 180.468L449.697 166.005Z" fill="#FF8B7B"/>
<path d="M480.801 246.276L473.841 254.929L486.641 258.104C486.641 258.104 490.577 251.198 486.641 246.991L480.801 246.276Z" fill="#FF8B7B"/>
<path d="M472.513 266.281L482.001 268.377L486.577 258.136L473.841 254.929L472.513 266.281Z" fill="#FF8B7B"/>
<path d="M390.913 132.87C391.185 133.902 390.913 134.871 390.177 135.045C389.441 135.22 388.737 134.522 388.465 133.458C388.193 132.394 388.545 131.457 389.217 131.283C389.889 131.108 390.625 131.854 390.913 132.87Z" fill="#263238"/>
<path d="M390.913 134.855C390.494 138.306 389.595 141.683 388.241 144.889C389.078 145.209 389.975 145.345 390.87 145.288C391.765 145.23 392.637 144.98 393.425 144.556L390.913 134.855Z" fill="#FF5652"/>
<path d="M393.089 126.25C392.965 126.29 392.83 126.29 392.705 126.25C391.979 125.947 391.192 125.816 390.405 125.868C389.619 125.921 388.856 126.155 388.177 126.552C388.112 126.611 388.035 126.656 387.951 126.683C387.867 126.711 387.779 126.72 387.691 126.711C387.603 126.702 387.518 126.675 387.442 126.63C387.365 126.586 387.299 126.527 387.248 126.455C387.196 126.384 387.161 126.303 387.144 126.217C387.126 126.131 387.128 126.042 387.147 125.957C387.167 125.871 387.205 125.791 387.259 125.721C387.312 125.651 387.38 125.593 387.457 125.551C388.299 125.024 389.256 124.706 390.248 124.626C391.24 124.546 392.237 124.705 393.153 125.091C393.23 125.121 393.301 125.165 393.36 125.222C393.42 125.279 393.467 125.347 393.5 125.423C393.533 125.498 393.55 125.579 393.551 125.661C393.552 125.743 393.536 125.825 393.505 125.901C393.469 125.988 393.413 126.065 393.34 126.126C393.268 126.186 393.182 126.229 393.089 126.25Z" fill="#263238"/>
<path d="M423.697 135.76C425.185 145.445 427.281 160.289 435.857 164.036C435.857 164.036 436.689 174.102 419.745 180.151C401.121 186.803 407.521 174.165 407.521 174.165C416.817 168.116 413.841 160.734 409.521 154.336L423.697 135.76Z" fill="#FF8B7B"/>
<path d="M436.289 163.893C436.545 160.892 436.785 157.542 433.745 157.542C430.401 157.542 414.545 158.987 409.585 162.893C404.625 166.799 407.441 174.832 407.441 174.832L436.289 163.893Z" fill="#850000"/>
<path d="M539.617 529.021C538.785 529.878 537.841 530.609 537.089 530.498C536.785 530.498 536.369 530.275 536.161 529.577C536.099 529.402 536.078 529.215 536.1 529.03C536.122 528.846 536.187 528.669 536.289 528.513C537.201 527.005 541.089 526.227 541.217 526.195C541.271 526.185 541.327 526.189 541.378 526.209C541.429 526.229 541.473 526.263 541.505 526.306C541.536 526.351 541.552 526.403 541.552 526.457C541.552 526.511 541.536 526.563 541.505 526.608C540.968 527.479 540.335 528.289 539.617 529.021ZM536.993 528.529C536.906 528.608 536.83 528.698 536.769 528.799C536.71 528.889 536.671 528.992 536.658 529.099C536.644 529.207 536.655 529.316 536.689 529.418C536.833 529.91 537.073 529.942 537.153 529.958C537.985 530.053 539.665 528.37 540.673 526.894C539.338 527.156 538.08 527.715 536.993 528.529Z" fill="#850000"/>
<path d="M541.473 526.656H541.361C540.033 527.069 536.561 526.957 535.777 525.878C535.665 525.706 535.613 525.502 535.63 525.298C535.648 525.094 535.733 524.901 535.873 524.751C535.999 524.577 536.162 524.433 536.35 524.329C536.538 524.225 536.746 524.163 536.961 524.147C538.705 523.941 541.345 526.084 541.457 526.179C541.493 526.214 541.521 526.256 541.538 526.303C541.554 526.35 541.56 526.4 541.553 526.449C541.55 526.525 541.522 526.597 541.473 526.656ZM536.401 525.068L536.321 525.163C536.097 525.449 536.193 525.592 536.241 525.64C536.689 526.275 539.137 526.561 540.625 526.322C539.619 525.438 538.361 524.883 537.025 524.735C536.782 524.763 536.559 524.882 536.401 525.068Z" fill="#850000"/>
<path d="M442.833 562.203C441.329 562.203 439.873 561.997 439.377 561.33C439.252 561.153 439.185 560.943 439.185 560.727C439.185 560.511 439.252 560.3 439.377 560.123C439.579 559.799 439.901 559.565 440.273 559.472C442.225 558.949 446.337 561.267 446.513 561.378C446.562 561.406 446.6 561.449 446.623 561.5C446.646 561.551 446.653 561.608 446.641 561.663C446.63 561.718 446.603 561.768 446.563 561.808C446.523 561.847 446.473 561.874 446.417 561.886C445.234 562.092 444.035 562.198 442.833 562.203ZM440.961 559.949C440.786 559.924 440.609 559.924 440.433 559.949C440.321 559.971 440.214 560.016 440.12 560.082C440.027 560.147 439.948 560.232 439.889 560.33C439.681 560.679 439.761 560.854 439.889 560.949C440.433 561.695 443.409 561.711 445.601 561.409C444.165 560.628 442.589 560.132 440.961 559.949Z" fill="#850000"/>
<path d="M446.386 561.886H446.273C444.849 561.251 442.033 558.71 442.257 557.408C442.257 557.091 442.529 556.71 443.297 556.631C443.583 556.596 443.872 556.62 444.148 556.702C444.423 556.784 444.678 556.922 444.897 557.107C446.401 558.329 446.705 561.473 446.721 561.6C446.728 561.648 446.721 561.697 446.701 561.742C446.681 561.787 446.65 561.826 446.609 561.854C446.542 561.893 446.462 561.904 446.386 561.886ZM443.521 557.123H443.345C442.849 557.123 442.817 557.361 442.801 557.424C442.673 558.218 444.593 560.203 446.001 561.06C445.855 559.729 445.296 558.475 444.401 557.472C444.151 557.274 443.842 557.162 443.521 557.154V557.123Z" fill="#850000"/>
<path d="M459.313 561.616H447.553L446.385 534.61H458.129L459.313 561.616Z" fill="#FF8B7B"/>
<path d="M553.489 522.052L542.609 525.973L528.801 501.777L539.681 497.856L553.489 522.052Z" fill="#FF8B7B"/>
<path d="M540.897 524.909L550.081 515.494C550.244 515.326 550.458 515.218 550.691 515.186C550.923 515.154 551.159 515.201 551.361 515.32L560.481 520.876C560.702 521.013 560.888 521.198 561.027 521.416C561.165 521.634 561.253 521.881 561.282 522.137C561.311 522.394 561.281 522.653 561.196 522.897C561.11 523.14 560.969 523.362 560.785 523.544C557.585 526.719 555.777 528.196 551.729 532.339C549.249 534.88 541.857 543.453 538.433 547.041C535.009 550.629 531.041 547.644 532.129 545.898C537.009 538.071 539.953 530.625 540.129 526.846C540.132 526.128 540.406 525.437 540.897 524.909Z" fill="#263238"/>
<path d="M447.633 560.266H460.433C460.668 560.264 460.895 560.342 461.079 560.486C461.262 560.631 461.39 560.833 461.441 561.06L463.761 571.427C463.817 571.677 463.815 571.937 463.755 572.186C463.695 572.435 463.579 572.668 463.416 572.866C463.253 573.065 463.047 573.224 462.813 573.332C462.579 573.44 462.324 573.495 462.065 573.491C457.441 573.491 450.753 573.158 444.929 573.158C438.113 573.158 435.153 573.523 427.169 573.523C422.369 573.523 421.009 568.681 423.025 568.236C432.225 566.252 436.817 566.029 444.769 561.171C445.62 560.609 446.612 560.296 447.633 560.266Z" fill="#263238"/>
<path d="M412.945 192.82C409.553 195.567 406.241 197.805 402.817 200.171C399.393 202.536 395.873 204.616 392.289 206.68C388.705 208.744 385.009 210.649 381.281 212.507C379.393 213.396 377.489 214.269 375.553 215.095L373.953 215.809C373.274 216.091 372.573 216.319 371.857 216.492C370.704 216.758 369.513 216.822 368.337 216.682C366.748 216.502 365.233 215.916 363.94 214.981C362.647 214.046 361.621 212.794 360.961 211.348C360.357 210.027 360.01 208.605 359.937 207.157C359.866 205.62 359.973 204.08 360.257 202.568C360.465 201.298 360.737 200.155 361.025 199.059C361.601 196.869 362.257 194.836 362.961 192.852C364.401 188.899 365.921 185.12 367.585 181.421C370.885 174.044 374.559 166.837 378.593 159.829L386.673 163.337C384.385 170.847 382.065 178.42 379.889 185.85C378.833 189.597 377.761 193.296 376.929 196.964C376.513 198.774 376.113 200.568 375.857 202.251C375.713 203.092 375.617 203.838 375.569 204.585C375.499 205.026 375.499 205.476 375.569 205.918C375.569 205.918 375.665 205.664 375.217 204.616C374.821 203.767 374.236 203.018 373.505 202.425C372.527 201.638 371.347 201.137 370.097 200.981C369.42 200.902 368.734 200.929 368.065 201.06C367.832 201.114 367.602 201.183 367.377 201.266C367.281 201.266 367.377 201.266 367.377 201.266L367.537 201.187L367.841 201.012L368.465 200.663C370.065 199.774 371.761 198.821 373.409 197.869C376.609 195.964 379.921 193.916 383.153 191.867C386.385 189.819 389.553 187.66 392.753 185.517C394.353 184.453 395.953 183.358 397.473 182.246L402.033 178.976L412.945 192.82Z" fill="#FF8B7B"/>
<path d="M443.713 159.575C455.009 158.956 475.425 184.152 475.425 184.152L458.337 204.68C450.871 198.656 443.885 192.069 437.441 184.977C427.441 173.641 432.241 160.194 443.713 159.575Z" fill="#263238"/>
<path opacity="0.3" d="M441.473 179.992L459.217 203.696L458.417 204.664C458.417 204.664 452.305 199.901 445.233 193.011L441.473 179.992Z" fill="black"/>
<path d="M395.713 177.579C394.785 185.755 408.513 221.922 411.713 264.899L474.273 258.787C473.841 250.563 469.249 215.92 460.977 176.817C458.689 166.02 450.257 157.765 439.361 159.876H439.057C430.354 161.568 421.758 163.762 413.313 166.449C408.505 168.182 403.822 170.241 399.297 172.609C398.327 173.072 397.49 173.769 396.863 174.638C396.237 175.507 395.841 176.518 395.713 177.579Z" fill="#263238"/>
<path opacity="0.3" d="M402.113 207.617C403.169 211.983 404.273 216.714 405.313 221.747C410.763 213.653 413.974 204.28 414.625 194.567L402.113 207.617Z" fill="black"/>
<path d="M424.657 186.708C422.145 203.537 393.057 215.016 393.057 215.016L383.457 189.264C383.457 189.264 385.793 183.659 395.713 175.166C408.273 164.417 426.433 174.642 424.657 186.708Z" fill="#263238"/>
<path d="M387.393 160.956L388.641 153.875L373.633 153.43C373.633 153.43 372.289 162.956 378.753 168.577L381.617 167.624C383.096 167.132 384.414 166.253 385.43 165.079C386.447 163.905 387.125 162.481 387.393 160.956Z" fill="#FF8B7B"/>
<path d="M385.617 141.507L373.233 145.619L373.633 153.431L388.625 153.875L385.617 141.507Z" fill="#FF8B7B"/>
<path opacity="0.2" d="M446.385 534.61L447.041 549.788H458.801L458.145 534.61H446.385Z" fill="black"/>
<path opacity="0.2" d="M539.681 497.856L528.801 501.777L536.449 515.177L546.817 510.335L539.681 497.856Z" fill="black"/>
<path d="M424.833 121.931C427.313 134.728 429.425 142.111 424.673 150.208C417.537 162.401 400.353 160.607 394.065 148.795C388.417 138.157 385.313 119.01 396.465 110.818C398.914 109.002 401.789 107.838 404.819 107.436C407.848 107.034 410.931 107.408 413.774 108.522C416.617 109.636 419.125 111.452 421.061 113.8C422.997 116.147 424.295 118.946 424.833 121.931Z" fill="#FF8B7B"/>
<path d="M403.313 133.887C396.641 133.283 392.113 125.726 395.137 122.36C395.137 122.36 382.081 125.535 382.705 114.422C383.217 105.372 390.833 98.0215 403.681 101.07C414.577 103.642 426.689 104.07 424.769 99.6567C432.033 100.403 435.313 110.596 428.113 113.946C438.817 118.836 428.497 127.091 429.105 136.443C429.425 141.206 429.025 148.604 421.553 150.065C413.777 151.557 399.569 149.318 403.313 133.887Z" fill="#263238"/>
<path d="M408.513 129.727C408.739 132.96 407.89 136.178 406.097 138.888C403.697 142.428 400.417 140.904 399.361 137.173C398.401 133.823 398.497 127.933 401.745 125.71C404.993 123.487 408.161 125.837 408.513 129.727Z" fill="#FF8B7B"/>
<path d="M433.985 262.661C433.985 262.661 456.065 350.061 466.641 382.592C478.241 418.203 528.513 511.605 528.513 511.605L548.241 503.079C548.241 503.079 510.193 418.044 502.065 382.418C493.313 343.838 474.353 258.787 474.353 258.787L433.985 262.661Z" fill="#850000"/>
<path d="M523.713 507.747L529.089 514.351L551.233 504.635L547.841 498.11L523.713 507.747Z" fill="#263238"/>
<path opacity="0.3" d="M445.505 293.446C461.153 294.922 465.169 351.887 466.225 381.29C459.713 361.064 449.329 321.96 442.113 294.192C443.127 293.57 444.322 293.307 445.505 293.446Z" fill="black"/>
<path d="M411.793 264.82C411.793 264.82 414.337 354.554 419.121 389.832C424.097 426.523 442.497 543.834 442.497 543.834H462.401C462.401 543.834 457.809 425.348 455.105 389.102C452.145 349.585 452.913 260.756 452.913 260.756L411.793 264.82Z" fill="#850000"/>
<path d="M438.769 537.96C438.689 537.96 439.905 546.168 439.905 546.168H464.113L464.769 538.849L438.769 537.96Z" fill="#263238"/>
<path d="M360.273 44.4542L358.929 43.581C365.137 34.1821 376.289 27.5457 389.537 25.3706L389.793 26.9583C376.993 29.0222 366.241 35.4046 360.273 44.4542Z" fill="#850000"/>
<path d="M438.033 59.4575C438.033 75.6197 420.433 83.4469 398.817 83.4469C379.873 83.4469 375.681 104.785 375.681 104.785C375.681 104.785 359.681 85.9077 359.681 59.4575C359.681 43.2793 377.281 30.1653 398.897 30.1653C420.513 30.1653 438.033 43.2793 438.033 59.4575Z" fill="#850000"/>
<path d="M403.969 58.5683C403.969 59.5794 403.667 60.5678 403.101 61.4085C402.535 62.2492 401.73 62.9045 400.789 63.2914C399.847 63.6783 398.812 63.7796 397.812 63.5823C396.813 63.385 395.895 62.8982 395.174 62.1832C394.454 61.4682 393.963 60.5573 393.764 59.5656C393.565 58.574 393.668 57.5461 394.057 56.6119C394.447 55.6778 395.108 54.8794 395.955 54.3176C396.802 53.7559 397.798 53.4561 398.817 53.4561C400.184 53.4561 401.494 53.9947 402.46 54.9534C403.427 55.9121 403.969 57.2124 403.969 58.5683Z" fill="white"/>
<path d="M414.449 63.6805C417.294 63.6805 419.601 61.3917 419.601 58.5683C419.601 55.7449 417.294 53.4561 414.449 53.4561C411.604 53.4561 409.297 55.7449 409.297 58.5683C409.297 61.3917 411.604 63.6805 414.449 63.6805Z" fill="white"/>
<path d="M388.337 58.5683C388.337 59.5794 388.035 60.5678 387.469 61.4085C386.903 62.2492 386.098 62.9045 385.157 63.2914C384.215 63.6783 383.179 63.7796 382.18 63.5823C381.181 63.385 380.263 62.8982 379.542 62.1832C378.822 61.4682 378.331 60.5573 378.132 59.5656C377.933 58.574 378.035 57.5461 378.425 56.6119C378.815 55.6778 379.476 54.8794 380.323 54.3176C381.17 53.7559 382.166 53.4561 383.185 53.4561C384.552 53.4561 385.862 53.9947 386.828 54.9534C387.794 55.9121 388.337 57.2124 388.337 58.5683Z" fill="white"/>
</svg>
