<svg width="864" height="900" viewBox="0 0 864 900" fill="none" xmlns="http://www.w3.org/2000/svg">
<path d="M0 0H824C846.091 0 864 17.9086 864 40V860C864 882.091 846.091 900 824 900H0V0Z" fill="#F7ECEC"/>
<path d="M832 673.797H32V674.194H832V673.797Z" fill="#EBEBEB"/>
<path d="M751.84 699.343H698.848V699.739H751.84V699.343Z" fill="#EBEBEB"/>
<path d="M561.952 703.661H548.048V704.058H561.952V703.661Z" fill="#EBEBEB"/>
<path d="M697.248 684.609H666.544V685.006H697.248V684.609Z" fill="#EBEBEB"/>
<path d="M185.04 687.276H115.936V687.673H185.04V687.276Z" fill="#EBEBEB"/>
<path d="M209.424 687.276H199.296V687.673H209.424V687.276Z" fill="#EBEBEB"/>
<path d="M392.24 693.976H242.352V694.373H392.24V693.976Z" fill="#EBEBEB"/>
<path d="M411.2 602.988H102.256C99.8357 602.984 97.5161 602.027 95.8062 600.327C94.0963 598.627 93.136 596.324 93.136 593.922V162.986C93.1571 160.598 94.1267 158.315 95.8343 156.633C97.5419 154.95 99.8495 154.004 102.256 154H411.2C413.623 154 415.947 154.955 417.66 156.655C419.374 158.355 420.336 160.661 420.336 163.065V593.922C420.336 596.327 419.374 598.633 417.66 600.333C415.947 602.033 413.623 602.988 411.2 602.988ZM102.256 154.318C99.9418 154.322 97.7239 155.237 96.089 156.862C94.4542 158.487 93.536 160.69 93.536 162.986V593.922C93.536 596.219 94.4542 598.421 96.089 600.046C97.7239 601.672 99.9418 602.587 102.256 602.591H411.2C413.516 602.587 415.735 601.672 417.373 600.047C419.01 598.423 419.932 596.22 419.936 593.922V162.986C419.932 160.688 419.01 158.486 417.373 156.861C415.735 155.236 413.516 154.322 411.2 154.318H102.256Z" fill="#EBEBEB"/>
<path d="M757.296 602.988H448.336C445.914 602.984 443.593 602.027 441.881 600.328C440.168 598.629 439.204 596.325 439.2 593.922V162.986C439.225 160.597 440.198 158.314 441.909 156.632C443.619 154.95 445.928 154.004 448.336 154H757.296C759.7 154.008 762.003 154.956 763.707 156.638C765.411 158.32 766.379 160.601 766.4 162.986V593.922C766.4 596.321 765.442 598.622 763.735 600.321C762.029 602.021 759.713 602.979 757.296 602.988ZM448.336 154.318C446.02 154.322 443.801 155.236 442.163 156.861C440.526 158.486 439.604 160.688 439.6 162.986V593.922C439.604 596.22 440.526 598.423 442.163 600.047C443.801 601.672 446.02 602.587 448.336 602.591H757.296C759.612 602.587 761.831 601.672 763.469 600.047C765.106 598.423 766.028 596.22 766.032 593.922V162.986C766.028 160.688 765.106 158.486 763.469 156.861C761.831 155.236 759.612 154.322 757.296 154.318H448.336Z" fill="#EBEBEB"/>
<path d="M720 505.57H670.928V673.781H720V505.57Z" fill="#E0E0E0"/>
<path d="M472.624 673.797H709.536L721.184 501.172H484.288L472.624 673.797Z" fill="#E6E6E6"/>
<path d="M468.608 673.797H705.52L717.184 501.172H480.272L468.608 673.797Z" fill="#F0F0F0"/>
<path d="M483.12 663.716H692.368L702.672 511.238H493.424L483.12 663.716Z" fill="white"/>
<path d="M346.464 665.764H376.512V506.935H346.464V665.764Z" fill="#F0F0F0"/>
<path d="M138.832 673.797H372.352V665.764H138.832V673.797Z" fill="#E6E6E6"/>
<path d="M346.464 506.935H134.672V665.764H346.464V506.935Z" fill="#FAFAFA"/>
<path d="M309.152 521.795H171.984C164.8 521.795 158.976 527.574 158.976 534.703V564.313C158.976 571.441 164.8 577.22 171.984 577.22H309.152C316.336 577.22 322.16 571.441 322.16 564.313V534.703C322.16 527.574 316.336 521.795 309.152 521.795Z" fill="#F0F0F0"/>
<path d="M309.152 593.144H171.984C164.8 593.144 158.976 598.923 158.976 606.052V635.662C158.976 642.79 164.8 648.569 171.984 648.569H309.152C316.336 648.569 322.16 642.79 322.16 635.662V606.052C322.16 598.923 316.336 593.144 309.152 593.144Z" fill="#F0F0F0"/>
<path d="M134.672 506.935H346.464V499.473H134.672V506.935Z" fill="#F0F0F0"/>
<path d="M376.512 499.473H346.464V506.935H376.512V499.473Z" fill="#E6E6E6"/>
<path d="M219.92 499.473H267.088V478.246H219.92V499.473Z" fill="#F0F0F0"/>
<path d="M285.856 478.23H267.072V499.457H285.856V478.23Z" fill="#E6E6E6"/>
<path d="M219.92 477.04H267.088V471.387H219.92V477.04Z" fill="#F0F0F0"/>
<path d="M285.856 471.403H267.072V477.055H285.856V471.403Z" fill="#E6E6E6"/>
<path d="M513.744 417.185H687.84V191.786L513.744 191.786V417.185Z" fill="#E6E6E6"/>
<path d="M505.728 417.185H684.096V191.786L505.728 191.786V417.185Z" fill="#F0F0F0"/>
<path d="M513.744 424.583H687.84V417.185H513.744V424.583Z" fill="#E6E6E6"/>
<path d="M502.832 424.583H681.2V417.185H502.832V424.583Z" fill="#F0F0F0"/>
<path d="M672.832 406.024V202.931H516.96V406.024H672.832Z" fill="#FAFAFA"/>
<path d="M561.056 406.024L604.928 202.931H636.096L592.208 406.024H561.056Z" fill="white"/>
<path d="M566 406.024L609.888 202.931H641.04L597.152 406.024H566Z" fill="white"/>
<path d="M598.912 406.024L642.784 202.931H654.928L611.056 406.024H598.912Z" fill="white"/>
<path d="M518.4 406.024V202.931H516.976V406.024H518.4Z" fill="#E6E6E6"/>
<path opacity="0.6" d="M503.056 211.346H677.152L678.176 207.266H504.096L503.056 211.346Z" fill="#EBEBEB"/>
<path opacity="0.6" d="M503.056 218.014H677.152L678.176 213.95H504.096L503.056 218.014Z" fill="#EBEBEB"/>
<path opacity="0.6" d="M503.056 224.698H677.152L678.176 220.634H504.096L503.056 224.698Z" fill="#EBEBEB"/>
<path opacity="0.6" d="M503.056 231.382H677.152L678.176 227.302H504.096L503.056 231.382Z" fill="#EBEBEB"/>
<path opacity="0.6" d="M503.056 238.066H677.152L678.176 233.986H504.096L503.056 238.066Z" fill="#EBEBEB"/>
<path opacity="0.6" d="M503.056 244.734H677.152L678.176 240.67H504.096L503.056 244.734Z" fill="#EBEBEB"/>
<path d="M722.32 173.052H471.248V179.069H722.32V173.052Z" fill="#F0F0F0"/>
<path opacity="0.8" d="M717.776 167.987H704.576V466.767H717.776V167.987Z" fill="#FAFAFA"/>
<path opacity="0.8" d="M708 167.987H704.576V466.767H708V167.987Z" fill="#F0F0F0"/>
<path opacity="0.8" d="M704.576 167.987H691.376V466.767H704.576V167.987Z" fill="#FAFAFA"/>
<path opacity="0.8" d="M694.8 167.987H691.376V466.767H694.8V167.987Z" fill="#F0F0F0"/>
<path opacity="0.8" d="M691.376 167.987H678.176V466.767H691.376V167.987Z" fill="#FAFAFA"/>
<path opacity="0.8" d="M513.744 167.987H500.544V466.767H513.744V167.987Z" fill="#FAFAFA"/>
<path opacity="0.8" d="M503.968 167.987H500.544V466.767H503.968V167.987Z" fill="#F0F0F0"/>
<path opacity="0.8" d="M500.56 167.987H487.36V466.767H500.56V167.987Z" fill="#FAFAFA"/>
<path opacity="0.8" d="M490.784 167.987H487.36V466.767H490.784V167.987Z" fill="#F0F0F0"/>
<path opacity="0.8" d="M487.36 167.987H474.16V466.767H487.36V167.987Z" fill="#FAFAFA"/>
<path d="M168.544 417.185H342.64V191.786L168.544 191.786L168.544 417.185Z" fill="#E6E6E6"/>
<path d="M160.512 417.185H338.88V191.786L160.512 191.786L160.512 417.185Z" fill="#F0F0F0"/>
<path d="M168.544 424.583H342.64V417.185H168.544V424.583Z" fill="#E6E6E6"/>
<path d="M157.616 424.583H335.984V417.185H157.616V424.583Z" fill="#F0F0F0"/>
<path d="M327.632 406.024V202.931H171.76V406.024H327.632Z" fill="#FAFAFA"/>
<path d="M215.856 406.024L259.728 202.931H290.896L247.008 406.024H215.856Z" fill="white"/>
<path d="M220.8 406.024L264.672 202.931H295.84L251.952 406.024H220.8Z" fill="white"/>
<path d="M253.696 406.024L297.584 202.931H309.728L265.856 406.024H253.696Z" fill="white"/>
<path d="M173.184 406.024V202.931H171.76V406.024H173.184Z" fill="#E6E6E6"/>
<path opacity="0.6" d="M157.856 211.346H331.952L332.976 207.266H158.896L157.856 211.346Z" fill="#EBEBEB"/>
<path opacity="0.6" d="M157.856 218.014H331.952L332.976 213.95H158.896L157.856 218.014Z" fill="#EBEBEB"/>
<path opacity="0.6" d="M157.856 224.698H331.952L332.976 220.634H158.896L157.856 224.698Z" fill="#EBEBEB"/>
<path opacity="0.6" d="M157.856 231.382H331.952L332.976 227.302H158.896L157.856 231.382Z" fill="#EBEBEB"/>
<path opacity="0.6" d="M157.856 238.066H331.952L332.976 233.986H158.896L157.856 238.066Z" fill="#EBEBEB"/>
<path opacity="0.6" d="M157.856 244.734H331.952L332.976 240.67H158.896L157.856 244.734Z" fill="#EBEBEB"/>
<path d="M377.12 173.052H126.048V179.069H377.12V173.052Z" fill="#F0F0F0"/>
<path opacity="0.8" d="M372.576 167.987H359.376V466.767H372.576V167.987Z" fill="#FAFAFA"/>
<path opacity="0.8" d="M362.8 167.987H359.376V466.767H362.8V167.987Z" fill="#F0F0F0"/>
<path opacity="0.8" d="M359.376 167.987H346.176V466.767H359.376V167.987Z" fill="#FAFAFA"/>
<path opacity="0.8" d="M349.6 167.987H346.176V466.767H349.6V167.987Z" fill="#F0F0F0"/>
<path opacity="0.8" d="M346.176 167.987H332.976V466.767H346.176V167.987Z" fill="#FAFAFA"/>
<path opacity="0.8" d="M168.544 167.987H155.344V466.767H168.544V167.987Z" fill="#FAFAFA"/>
<path opacity="0.8" d="M158.768 167.987H155.344V466.767H158.768V167.987Z" fill="#F0F0F0"/>
<path opacity="0.8" d="M155.344 167.987H142.144V466.767H155.344V167.987Z" fill="#FAFAFA"/>
<path opacity="0.8" d="M145.568 167.987H142.144V466.767H145.568V167.987Z" fill="#F0F0F0"/>
<path opacity="0.8" d="M142.144 167.987H128.944V466.767H142.144V167.987Z" fill="#FAFAFA"/>
<path d="M284.688 477.04H221.072V478.23H284.688V477.04Z" fill="#E0E0E0"/>
<path d="M411.714 745.496C583.046 745.496 721.938 737.449 721.938 727.523C721.938 717.598 583.046 709.551 411.714 709.551C240.382 709.551 101.49 717.598 101.49 727.523C101.49 737.449 240.382 745.496 411.714 745.496Z" fill="#F5F5F5"/>
<path d="M399.713 278.107C405.169 278.361 418.433 283.473 408.545 303.827C398.657 324.18 400.449 328.8 411.345 328.515C411.345 328.515 400.673 341.803 363.233 333.278C333.345 326.451 380.833 301.715 380.833 301.715L399.713 278.107Z" fill="#263238"/>
<path d="M386.945 285.68C395.393 281.107 403.841 285.6 402.241 277.138C399.713 263.818 363.745 263.278 362.337 285.251C360.737 308.939 354.417 316.242 349.793 311.146C345.169 306.049 348.817 303.065 348.817 303.065C348.817 303.065 329.345 315.417 346.337 326.165C363.329 336.913 383.137 338.12 385.633 318.052C386.865 307.907 386.945 285.68 386.945 285.68Z" fill="#263238"/>
<path d="M352.145 348.773C351.617 350.996 351.089 352.853 350.465 354.854C349.841 356.854 349.201 358.744 348.513 360.665C347.153 364.507 345.537 368.269 343.793 371.985C340.3 379.558 335.848 386.659 330.545 393.116C329.185 394.704 327.697 396.292 326.193 397.879L325.009 399.006C324.625 399.372 324.225 399.753 323.729 400.15C322.828 400.927 321.882 401.654 320.897 402.325C317.237 404.703 313.305 406.643 309.185 408.104C305.302 409.485 301.331 410.61 297.297 411.469C295.313 411.93 293.329 412.295 291.313 412.597C289.297 412.898 287.345 413.184 285.233 413.359C284.384 413.427 283.539 413.186 282.856 412.681C282.173 412.175 281.699 411.441 281.522 410.614C281.346 409.786 281.479 408.924 281.897 408.187C282.315 407.451 282.989 406.89 283.793 406.611H283.905C291.035 404.247 297.986 401.382 304.705 398.038C307.809 396.499 310.743 394.642 313.457 392.497C315.976 390.27 318.246 387.778 320.225 385.067C322.387 382.202 324.348 379.194 326.097 376.065C327.917 372.893 329.567 369.629 331.041 366.285C332.561 362.935 333.873 359.49 335.153 356.013C335.777 354.282 336.369 352.52 336.929 350.774C337.489 349.027 338.033 347.185 338.433 345.645V345.487C338.952 343.771 340.117 342.32 341.686 341.434C343.255 340.548 345.107 340.295 346.858 340.728C348.61 341.161 350.126 342.246 351.093 343.759C352.059 345.272 352.402 347.096 352.049 348.852L352.145 348.773Z" fill="#FFC3BD"/>
<path d="M283.569 405.881L269.713 405.452L278.369 416.312C278.369 416.312 287.057 414.867 288.881 409.501L283.569 405.881Z" fill="#FFC3BD"/>
<path d="M260.401 412.216L268.145 420.932L278.369 416.312L269.713 405.452L260.401 412.216Z" fill="#FFC3BD"/>
<path d="M294.129 699.311L280.561 697.231L282.497 646.918L301.121 649.76L294.129 699.311Z" fill="#FFC3BD"/>
<path d="M352.657 711.742L339.089 709.71L338.465 659.524L357.425 661.937L352.657 711.742Z" fill="#FFC3BD"/>
<path d="M338.017 706.868H353.441C353.707 706.866 353.964 706.96 354.164 707.132C354.364 707.305 354.494 707.544 354.529 707.805L356.273 719.918C356.312 720.224 356.284 720.534 356.194 720.829C356.103 721.123 355.951 721.395 355.747 721.628C355.543 721.86 355.293 722.047 355.011 722.176C354.729 722.306 354.424 722.375 354.113 722.379C348.737 722.284 346.113 721.967 339.361 721.951C335.185 721.951 329.089 722.379 323.361 722.363C317.633 722.348 317.297 716.696 319.697 716.187C330.465 713.917 332.161 710.742 335.793 707.725C336.415 707.197 337.199 706.895 338.017 706.868Z" fill="#263238"/>
<path d="M279.649 695.754L294.945 693.897C295.209 693.861 295.476 693.922 295.697 694.068C295.918 694.214 296.077 694.436 296.145 694.691L299.345 706.503C299.415 706.802 299.42 707.113 299.361 707.415C299.301 707.717 299.179 708.003 299.001 708.254C298.822 708.506 298.593 708.717 298.327 708.875C298.061 709.033 297.765 709.133 297.457 709.17C292.113 709.726 289.457 709.726 282.769 710.535C278.625 711.044 270.113 712.504 264.401 713.203C258.689 713.901 257.681 708.329 260.001 707.535C270.401 703.947 274.209 700.295 277.441 696.866C278.019 696.245 278.803 695.85 279.649 695.754Z" fill="#263238"/>
<path d="M338.913 342.549C336.801 351.297 334.113 371.445 333.073 417.868L387.889 427.949C390.881 407.151 393.281 393.862 409.121 356.934C409.596 355.825 409.835 354.631 409.825 353.426C409.814 352.222 409.554 351.032 409.06 349.932C408.566 348.831 407.85 347.843 406.955 347.029C406.059 346.215 405.005 345.593 403.857 345.201C399.921 343.867 395.057 342.359 390.065 341.184C381.891 339.07 373.577 337.532 365.185 336.58C358.993 336.008 352.241 335.834 347.585 335.802C345.582 335.779 343.63 336.435 342.053 337.662C340.476 338.889 339.369 340.613 338.913 342.549Z" fill="#850000"/>
<path d="M392.801 312.924C389.745 320.592 385.457 334.849 390.065 341.184C381.695 347.274 372.385 351.976 362.497 355.108C357.057 341.184 365.185 336.612 365.185 336.612C374.513 336.135 375.505 329.515 375.105 323.053L392.801 312.924Z" fill="#FFC3BD"/>
<path opacity="0.2" d="M385.585 317.068L375.121 323.053C375.258 324.558 375.258 326.073 375.121 327.578C378.625 327.721 384.017 324.863 385.041 321.386C385.49 319.992 385.674 318.528 385.585 317.068Z" fill="black"/>
<path d="M400.321 296.968C397.857 309.241 397.121 314.432 389.905 319.973C379.121 328.245 364.481 322.545 363.201 309.796C362.049 298.318 366.289 280.187 379.201 276.916C382.035 276.192 385.009 276.197 387.841 276.931C390.672 277.665 393.268 279.104 395.383 281.112C397.498 283.12 399.061 285.63 399.925 288.404C400.789 291.179 400.926 294.127 400.321 296.968Z" fill="#FFC3BD"/>
<path d="M398.241 281.933C390.001 293.555 373.633 276.36 366.337 285.902C366.337 285.902 368.577 271.153 381.841 271.613C395.105 272.074 401.265 277.694 398.241 281.933Z" fill="#263238"/>
<path d="M333.073 417.868C333.073 417.868 299.985 505.776 289.969 546.15C283.713 588.254 281.217 648.252 281.217 648.252L302.177 651.427C302.177 651.427 311.169 597.955 319.777 556.327C334.609 512.444 373.137 425.234 373.137 425.234L333.073 417.868Z" fill="#263238"/>
<path d="M301.121 660.461L280.561 659.524L279.713 643.727L304.401 646.474L301.121 660.461Z" fill="#850000"/>
<path opacity="0.2" d="M349.745 465.402C333.873 483.835 327.905 514.476 326.673 537.402C335.745 513.27 348.081 483.644 357.761 460.909C356.209 459.671 353.649 460.861 349.745 465.402Z" fill="black"/>
<path d="M347.537 420.519C347.537 420.519 337.057 527.05 336.337 563.312C335.393 606.37 337.729 661.747 337.729 661.747L358.449 662.795C358.449 662.795 364.017 599.178 367.009 575.839C375.105 512.984 396.865 460.671 387.953 427.997L347.537 420.519Z" fill="#263238"/>
<path d="M358.641 666.113L337.185 665.049L336.017 649.998L360.961 652.03L358.641 666.113Z" fill="#850000"/>
<path d="M379.713 298.032C379.569 299.032 378.929 299.778 378.257 299.619C377.585 299.461 377.169 298.635 377.313 297.635C377.457 296.635 378.097 295.888 378.769 296.047C379.441 296.206 379.793 297.016 379.713 298.032Z" fill="#263238"/>
<path d="M377.185 310.082C377.041 311.082 376.385 311.829 375.729 311.749C375.073 311.67 374.641 310.765 374.785 309.765C374.929 308.764 375.569 308.002 376.225 308.098C376.881 308.193 377.313 309.082 377.185 310.082Z" fill="#263238"/>
<path d="M368.177 296.476C368.033 297.476 367.393 298.222 366.721 298.064C366.049 297.905 365.633 297.095 365.777 296.079C365.921 295.063 366.561 294.333 367.217 294.412C367.873 294.491 368.321 295.46 368.177 296.476Z" fill="#263238"/>
<path d="M367.505 294.571L365.169 293.555C365.169 293.555 366.161 295.603 367.505 294.571Z" fill="#263238"/>
<path d="M371.489 298.476C370.271 300.654 368.752 302.653 366.977 304.414C367.445 304.852 368.005 305.183 368.616 305.383C369.227 305.583 369.874 305.648 370.513 305.573L371.489 298.476Z" fill="#ED847E"/>
<path d="M395.137 283.203C386.561 286.775 386.241 305.891 397.905 303.636C409.569 301.382 406.385 278.488 395.137 283.203Z" fill="#263238"/>
<path d="M402.673 307.034C402.03 308.046 401.191 308.922 400.205 309.611C399.219 310.3 398.106 310.79 396.929 311.051C393.729 311.733 392.385 308.875 393.409 306.018C394.353 303.446 397.121 300 400.209 300.604C400.883 300.747 401.511 301.055 402.034 301.501C402.557 301.946 402.959 302.514 403.204 303.154C403.449 303.793 403.529 304.483 403.436 305.161C403.344 305.839 403.081 306.482 402.673 307.034Z" fill="#FFC3BD"/>
<path d="M383.793 291.157C383.712 291.163 383.63 291.152 383.552 291.124C383.475 291.097 383.405 291.054 383.345 290.998C382.819 290.461 382.172 290.054 381.458 289.812C380.743 289.569 379.981 289.497 379.233 289.601C379.076 289.634 378.913 289.605 378.778 289.518C378.643 289.432 378.548 289.296 378.513 289.141C378.484 288.986 378.516 288.825 378.602 288.692C378.688 288.559 378.823 288.464 378.977 288.426C379.921 288.282 380.887 288.362 381.793 288.66C382.7 288.958 383.523 289.466 384.193 290.141C384.28 290.221 384.34 290.326 384.366 290.44C384.392 290.555 384.383 290.674 384.34 290.784C384.297 290.893 384.222 290.987 384.124 291.054C384.027 291.12 383.912 291.156 383.793 291.157Z" fill="#263238"/>
<path d="M365.089 290.363C364.93 290.367 364.776 290.31 364.657 290.205C364.547 290.092 364.485 289.941 364.485 289.784C364.485 289.627 364.547 289.476 364.657 289.363C365.273 288.638 366.055 288.071 366.937 287.709C367.82 287.347 368.778 287.201 369.729 287.283C369.886 287.307 370.028 287.391 370.122 287.517C370.217 287.644 370.257 287.802 370.233 287.958C370.21 288.114 370.125 288.254 369.998 288.348C369.87 288.442 369.71 288.481 369.553 288.458C368.799 288.409 368.043 288.537 367.348 288.832C366.653 289.127 366.038 289.581 365.553 290.157C365.496 290.223 365.424 290.275 365.344 290.311C365.264 290.346 365.177 290.364 365.089 290.363Z" fill="#263238"/>
<path d="M410.753 354.505C411.857 358.458 412.705 362.252 413.553 366.142C414.401 370.032 415.153 373.906 415.761 377.827C417.125 385.763 417.911 393.785 418.113 401.832C418.232 406.08 417.98 410.329 417.361 414.534V414.946C417.361 415.058 417.265 415.454 417.217 415.693C417.077 416.283 416.89 416.862 416.657 417.423C416.152 418.619 415.406 419.699 414.465 420.598C412.932 422.061 411.003 423.048 408.913 423.44C407.487 423.724 406.03 423.83 404.577 423.758C403.37 423.704 402.167 423.572 400.977 423.361C396.788 422.539 392.704 421.256 388.801 419.535C385.049 417.979 381.413 416.159 377.921 414.089C377.161 413.68 376.581 413.005 376.294 412.195C376.007 411.385 376.034 410.498 376.369 409.707C376.704 408.915 377.323 408.275 378.107 407.912C378.89 407.548 379.782 407.486 380.609 407.738H380.721C384.337 408.723 388.113 409.66 391.729 410.485C393.553 410.882 395.377 411.231 397.169 411.485C398.868 411.779 400.583 411.964 402.305 412.041C403.553 412.151 404.81 412.038 406.017 411.708C406.321 411.596 406.097 411.469 405.585 411.898C405.34 412.134 405.135 412.407 404.977 412.708C404.977 412.835 404.865 412.978 404.833 413.041C404.801 413.105 404.833 413.2 404.833 413.041V412.787C405.114 409.284 405.114 405.764 404.833 402.261C404.641 398.641 404.209 394.958 403.713 391.259C403.217 387.559 402.625 383.844 401.937 380.145C400.529 372.763 398.929 365.221 397.137 358.029C396.751 356.27 397.066 354.431 398.015 352.898C398.965 351.364 400.475 350.254 402.231 349.8C403.986 349.347 405.851 349.585 407.433 350.465C409.016 351.345 410.194 352.798 410.721 354.52L410.753 354.505Z" fill="#FFC3BD"/>
<path d="M330.545 708.376C330.364 708.158 330.235 707.902 330.168 707.626C330.102 707.351 330.099 707.065 330.161 706.789C330.181 706.596 330.25 706.411 330.362 706.253C330.474 706.094 330.625 705.967 330.801 705.884C332.401 705.169 336.577 707.852 337.041 708.154C337.094 708.191 337.135 708.242 337.16 708.301C337.186 708.359 337.194 708.424 337.185 708.487C337.17 708.549 337.138 708.605 337.093 708.649C337.048 708.694 336.991 708.726 336.929 708.741C335.153 709.154 331.985 709.678 330.689 708.503L330.545 708.376ZM336.017 708.297C334.321 707.265 331.921 706.122 331.073 706.487C330.961 706.487 330.849 706.63 330.801 706.9C330.755 707.103 330.761 707.315 330.82 707.515C330.878 707.715 330.988 707.896 331.137 708.043C331.825 708.678 333.633 708.757 336.017 708.297Z" fill="#850000"/>
<path d="M334.913 707.201C333.87 706.238 333.24 704.914 333.153 703.502C333.202 703.251 333.337 703.025 333.536 702.863C333.734 702.7 333.984 702.612 334.241 702.613C334.488 702.58 334.74 702.601 334.978 702.675C335.215 702.749 335.434 702.874 335.617 703.042C337.105 704.344 337.121 708.281 337.121 708.44C337.12 708.497 337.105 708.552 337.077 708.602C337.049 708.652 337.009 708.694 336.961 708.725C336.911 708.749 336.857 708.762 336.801 708.762C336.746 708.762 336.691 708.749 336.641 708.725C335.992 708.305 335.41 707.791 334.913 707.201ZM335.329 703.677L335.185 703.518C335.069 703.414 334.932 703.336 334.783 703.29C334.634 703.243 334.476 703.229 334.321 703.248C333.905 703.248 333.809 703.486 333.793 703.629C333.601 704.566 335.153 706.804 336.449 707.82C336.486 706.369 336.121 704.936 335.393 703.677H335.329Z" fill="#850000"/>
<path d="M274.817 698.739C273.665 698.983 272.464 698.832 271.409 698.31C271.168 698.144 270.971 697.92 270.837 697.66C270.703 697.399 270.636 697.11 270.641 696.818C270.627 696.641 270.66 696.463 270.735 696.301C270.811 696.14 270.928 696.001 271.073 695.897C272.673 694.786 278.401 696.882 279.073 697.136C279.138 697.154 279.194 697.194 279.232 697.249C279.27 697.304 279.288 697.371 279.281 697.437C279.284 697.505 279.263 697.572 279.222 697.627C279.182 697.682 279.124 697.721 279.057 697.739C277.68 698.206 276.26 698.541 274.817 698.739ZM272.049 696.231C271.84 696.248 271.637 696.313 271.457 696.421C271.398 696.464 271.35 696.522 271.319 696.589C271.288 696.656 271.275 696.729 271.281 696.802C271.277 696.994 271.32 697.184 271.406 697.356C271.493 697.527 271.62 697.675 271.777 697.787C272.705 698.422 274.977 698.279 277.921 697.406C276.042 696.699 274.058 696.303 272.049 696.231Z" fill="#850000"/>
<path d="M278.993 697.755H278.913C277.201 697.215 273.633 694.691 273.697 693.135C273.697 692.77 273.905 692.277 274.785 692.087C275.101 692.013 275.429 692.005 275.748 692.062C276.068 692.12 276.372 692.242 276.641 692.42C278.529 693.627 279.297 697.183 279.329 697.374C279.339 697.431 279.335 697.489 279.318 697.543C279.301 697.598 279.272 697.649 279.233 697.691L278.993 697.755ZM275.057 692.658H274.865C274.289 692.801 274.273 693.04 274.273 693.119C274.273 694.056 276.705 696.072 278.481 696.882C278.168 695.356 277.379 693.968 276.225 692.913C275.879 692.691 275.465 692.601 275.057 692.658Z" fill="#850000"/>
<path d="M389.313 424.901L389.809 430.029C389.921 430.442 389.409 430.744 388.769 430.632L332.353 420.249C331.857 420.154 331.505 419.836 331.521 419.535L331.937 414.565C331.937 414.232 332.449 414.026 332.993 414.121L388.497 424.329C388.671 424.349 388.836 424.412 388.979 424.512C389.122 424.612 389.237 424.745 389.313 424.901Z" fill="#850000"/>
<path opacity="0.2" d="M389.313 424.901L389.809 430.029C389.921 430.442 389.409 430.744 388.769 430.632L332.353 420.249C331.857 420.154 331.505 419.836 331.521 419.535L331.937 414.565C331.937 414.232 332.449 414.026 332.993 414.121L388.497 424.329C388.671 424.349 388.836 424.412 388.979 424.512C389.122 424.612 389.237 424.745 389.313 424.901Z" fill="black"/>
<path d="M380.689 429.696L382.177 429.966C382.481 429.966 382.737 429.966 382.737 429.727L383.233 423.266C383.233 423.075 383.009 422.885 382.721 422.821L381.233 422.551C380.929 422.551 380.673 422.551 380.673 422.805L380.177 429.251C380.161 429.442 380.401 429.632 380.689 429.696Z" fill="#263238"/>
<path d="M336.417 421.551L337.905 421.821C338.209 421.821 338.449 421.821 338.465 421.583L338.961 415.121C338.961 414.931 338.737 414.74 338.449 414.677L336.961 414.407C336.657 414.407 336.401 414.407 336.385 414.645L335.905 421.107C335.889 421.297 336.129 421.488 336.417 421.551Z" fill="#263238"/>
<path d="M358.561 425.616L360.049 425.901C360.337 425.901 360.593 425.901 360.609 425.647L361.089 419.201C361.089 419.011 360.881 418.804 360.577 418.757L359.089 418.487C358.801 418.487 358.545 418.487 358.529 418.725L358.049 425.171C358.033 425.361 358.257 425.568 358.561 425.616Z" fill="#263238"/>
<path d="M382.001 408.024L371.425 397.705L370.369 411.517C370.369 411.517 377.729 416.28 382.753 413.597L382.001 408.024Z" fill="#FFC3BD"/>
<path d="M359.969 396.387L359.697 407.993L372.321 412.549L371.425 397.673L359.969 396.387Z" fill="#FFC3BD"/>
<path d="M378.977 296.127L376.641 295.11C376.641 295.11 377.633 297.159 378.977 296.127Z" fill="#263238"/>
<path d="M481.697 320.005C483.553 321.275 485.137 322.418 486.769 323.688C488.401 324.958 489.969 326.197 491.569 327.483C494.769 330.055 497.793 332.722 500.769 335.548C503.745 338.374 506.673 341.279 509.409 344.423C510.817 346.011 512.145 347.598 513.489 349.186C514.833 350.774 516.097 352.52 517.297 354.33L518.225 355.664C518.529 356.124 518.769 356.426 519.249 357.251L519.873 358.331L520.353 359.347C520.654 359.987 520.916 360.644 521.137 361.316C521.916 363.636 522.452 366.03 522.737 368.46C523.233 372.718 523.351 377.01 523.089 381.288C522.633 389.393 521.401 397.436 519.409 405.309L510.657 404.198C510.497 396.625 510.225 388.877 509.505 381.558C509.22 378.038 508.686 374.541 507.905 371.096C507.571 369.678 507.099 368.296 506.497 366.968C506.39 366.724 506.261 366.49 506.113 366.269L505.937 365.967L505.793 365.793L504.305 363.983C499.582 358.418 494.419 353.237 488.865 348.487C486.081 346.026 483.169 343.645 480.257 341.279C477.345 338.914 474.273 336.516 471.489 334.468L481.697 320.005Z" fill="#FF8B7B"/>
<path d="M512.801 400.276L505.841 408.929L518.641 412.105C518.641 412.105 522.577 405.198 518.641 400.991L512.801 400.276Z" fill="#FF8B7B"/>
<path d="M504.513 420.281L514.001 422.377L518.577 412.136L505.841 408.929L504.513 420.281Z" fill="#FF8B7B"/>
<path d="M422.913 286.871C423.185 287.902 422.913 288.871 422.177 289.046C421.441 289.22 420.737 288.522 420.465 287.458C420.193 286.394 420.545 285.458 421.217 285.283C421.889 285.108 422.625 285.854 422.913 286.871Z" fill="#263238"/>
<path d="M422.913 288.855C422.494 292.306 421.595 295.683 420.241 298.889C421.078 299.209 421.975 299.345 422.87 299.288C423.765 299.23 424.637 298.98 425.425 298.556L422.913 288.855Z" fill="#FF5652"/>
<path d="M425.089 280.25C424.965 280.29 424.83 280.29 424.705 280.25C423.979 279.947 423.192 279.816 422.405 279.868C421.619 279.921 420.856 280.155 420.177 280.552C420.112 280.611 420.035 280.656 419.951 280.683C419.867 280.711 419.779 280.72 419.691 280.711C419.603 280.702 419.518 280.675 419.442 280.63C419.365 280.586 419.299 280.527 419.248 280.455C419.196 280.384 419.161 280.303 419.144 280.217C419.126 280.131 419.128 280.042 419.147 279.957C419.167 279.871 419.205 279.791 419.259 279.721C419.312 279.651 419.38 279.593 419.457 279.551C420.299 279.024 421.256 278.706 422.248 278.626C423.24 278.546 424.237 278.705 425.153 279.091C425.23 279.121 425.301 279.165 425.36 279.222C425.42 279.279 425.467 279.347 425.5 279.423C425.533 279.498 425.55 279.579 425.551 279.661C425.552 279.743 425.536 279.825 425.505 279.901C425.469 279.988 425.413 280.065 425.34 280.126C425.268 280.186 425.182 280.229 425.089 280.25Z" fill="#263238"/>
<path d="M455.697 289.76C457.185 299.445 459.281 314.289 467.857 318.036C467.857 318.036 468.689 328.102 451.745 334.151C433.121 340.803 439.521 328.165 439.521 328.165C448.817 322.116 445.841 314.734 441.521 308.336L455.697 289.76Z" fill="#FF8B7B"/>
<path d="M468.289 317.893C468.545 314.893 468.785 311.543 465.745 311.543C462.401 311.543 446.545 312.987 441.585 316.893C436.625 320.799 439.441 328.832 439.441 328.832L468.289 317.893Z" fill="#850000"/>
<path d="M571.617 683.021C570.785 683.879 569.841 684.609 569.089 684.498C568.785 684.498 568.369 684.276 568.161 683.577C568.099 683.402 568.078 683.215 568.1 683.03C568.122 682.846 568.187 682.669 568.289 682.513C569.201 681.005 573.089 680.227 573.217 680.195C573.271 680.185 573.327 680.19 573.378 680.209C573.429 680.229 573.473 680.263 573.505 680.307C573.536 680.351 573.552 680.404 573.552 680.457C573.552 680.511 573.536 680.564 573.505 680.608C572.968 681.48 572.335 682.289 571.617 683.021ZM568.993 682.529C568.906 682.608 568.83 682.699 568.769 682.799C568.71 682.89 568.671 682.992 568.658 683.1C568.644 683.207 568.655 683.316 568.689 683.418C568.833 683.91 569.073 683.942 569.153 683.958C569.985 684.053 571.665 682.37 572.673 680.894C571.338 681.156 570.08 681.715 568.993 682.529Z" fill="#850000"/>
<path d="M573.473 680.656H573.361C572.033 681.069 568.561 680.957 567.777 679.878C567.665 679.706 567.613 679.502 567.63 679.298C567.648 679.094 567.733 678.901 567.873 678.751C567.999 678.577 568.162 678.433 568.35 678.329C568.538 678.225 568.746 678.163 568.961 678.147C570.705 677.941 573.345 680.084 573.457 680.179C573.493 680.214 573.521 680.256 573.538 680.303C573.554 680.35 573.56 680.4 573.553 680.449C573.55 680.525 573.522 680.597 573.473 680.656ZM568.401 679.068L568.321 679.163C568.097 679.449 568.193 679.592 568.241 679.64C568.689 680.275 571.137 680.561 572.625 680.322C571.619 679.438 570.361 678.883 569.025 678.735C568.782 678.763 568.559 678.882 568.401 679.068Z" fill="#850000"/>
<path d="M474.833 716.203C473.329 716.203 471.873 715.997 471.377 715.33C471.252 715.153 471.185 714.943 471.185 714.727C471.185 714.511 471.252 714.3 471.377 714.123C471.579 713.799 471.901 713.565 472.273 713.472C474.225 712.949 478.337 715.267 478.513 715.378C478.562 715.406 478.6 715.449 478.623 715.5C478.646 715.551 478.653 715.608 478.641 715.663C478.63 715.718 478.603 715.768 478.563 715.808C478.523 715.847 478.473 715.874 478.417 715.886C477.234 716.092 476.035 716.198 474.833 716.203ZM472.961 713.949C472.786 713.924 472.609 713.924 472.433 713.949C472.321 713.971 472.214 714.016 472.12 714.082C472.027 714.147 471.948 714.232 471.889 714.33C471.681 714.679 471.761 714.854 471.889 714.949C472.433 715.695 475.409 715.711 477.601 715.409C476.165 714.628 474.589 714.132 472.961 713.949Z" fill="#850000"/>
<path d="M478.386 715.886H478.273C476.849 715.251 474.033 712.71 474.257 711.409C474.257 711.091 474.529 710.71 475.297 710.631C475.583 710.596 475.872 710.62 476.148 710.702C476.423 710.784 476.678 710.922 476.897 711.107C478.401 712.329 478.705 715.473 478.721 715.6C478.728 715.648 478.721 715.698 478.701 715.742C478.681 715.787 478.65 715.826 478.609 715.854C478.542 715.893 478.462 715.904 478.386 715.886ZM475.521 711.123H475.345C474.849 711.123 474.817 711.361 474.801 711.424C474.673 712.218 476.593 714.203 478.001 715.06C477.855 713.729 477.296 712.475 476.401 711.472C476.151 711.274 475.842 711.163 475.521 711.155V711.123Z" fill="#850000"/>
<path d="M491.313 715.616H479.553L478.385 688.61H490.129L491.313 715.616Z" fill="#FF8B7B"/>
<path d="M585.489 676.052L574.609 679.973L560.801 655.777L571.681 651.856L585.489 676.052Z" fill="#FF8B7B"/>
<path d="M572.897 678.909L582.081 669.495C582.244 669.327 582.458 669.218 582.691 669.186C582.923 669.154 583.159 669.202 583.361 669.32L592.481 674.877C592.702 675.014 592.888 675.198 593.027 675.416C593.165 675.635 593.253 675.881 593.282 676.138C593.311 676.394 593.281 676.654 593.196 676.897C593.11 677.141 592.969 677.362 592.785 677.544C589.585 680.719 587.777 682.196 583.729 686.34C581.249 688.88 573.857 697.453 570.433 701.041C567.009 704.629 563.041 701.645 564.129 699.898C569.009 692.071 571.953 684.625 572.129 680.846C572.132 680.128 572.406 679.437 572.897 678.909Z" fill="#263238"/>
<path d="M479.633 714.266H492.433C492.668 714.264 492.895 714.342 493.079 714.487C493.262 714.631 493.39 714.833 493.441 715.06L495.761 725.428C495.817 725.678 495.815 725.937 495.755 726.186C495.695 726.435 495.579 726.668 495.416 726.866C495.253 727.065 495.047 727.224 494.813 727.332C494.579 727.441 494.324 727.495 494.065 727.492C489.441 727.492 482.753 727.158 476.929 727.158C470.113 727.158 467.153 727.523 459.169 727.523C454.369 727.523 453.009 722.681 455.025 722.236C464.225 720.252 468.817 720.03 476.769 715.171C477.62 714.61 478.612 714.296 479.633 714.266Z" fill="#263238"/>
<path d="M444.945 346.82C441.553 349.567 438.241 351.805 434.817 354.171C431.393 356.537 427.873 358.617 424.289 360.68C420.705 362.744 417.009 364.65 413.281 366.507C411.393 367.396 409.489 368.269 407.553 369.095L405.953 369.809C405.274 370.091 404.573 370.32 403.857 370.492C402.704 370.758 401.513 370.823 400.337 370.683C398.748 370.502 397.233 369.916 395.94 368.981C394.647 368.046 393.621 366.794 392.961 365.348C392.357 364.027 392.01 362.605 391.937 361.157C391.866 359.62 391.973 358.081 392.257 356.568C392.465 355.298 392.737 354.155 393.025 353.06C393.601 350.869 394.257 348.837 394.961 346.852C396.401 342.899 397.921 339.12 399.585 335.421C402.885 328.044 406.559 320.837 410.593 313.829L418.673 317.338C416.385 324.847 414.065 332.42 411.889 339.85C410.833 343.597 409.761 347.297 408.929 350.964C408.513 352.774 408.113 354.568 407.857 356.251C407.713 357.092 407.617 357.839 407.569 358.585C407.499 359.027 407.499 359.477 407.569 359.918C407.569 359.918 407.665 359.664 407.217 358.617C406.821 357.767 406.236 357.018 405.505 356.426C404.527 355.638 403.347 355.138 402.097 354.981C401.42 354.902 400.734 354.929 400.065 355.06C399.832 355.115 399.602 355.184 399.377 355.267C399.281 355.267 399.377 355.267 399.377 355.267L399.537 355.187L399.841 355.013L400.465 354.663C402.065 353.774 403.761 352.822 405.409 351.869C408.609 349.964 411.921 347.916 415.153 345.868C418.385 343.82 421.553 341.66 424.753 339.517C426.353 338.453 427.953 337.358 429.473 336.246L434.033 332.976L444.945 346.82Z" fill="#FF8B7B"/>
<path d="M475.713 313.575C487.009 312.956 507.425 338.152 507.425 338.152L490.337 358.68C482.871 352.656 475.885 346.069 469.441 338.977C459.441 327.641 464.241 314.194 475.713 313.575Z" fill="#263238"/>
<path opacity="0.3" d="M473.473 333.992L491.217 357.696L490.417 358.664C490.417 358.664 484.305 353.901 477.233 347.011L473.473 333.992Z" fill="black"/>
<path d="M427.713 331.579C426.785 339.755 440.513 375.922 443.713 418.9L506.273 412.787C505.841 404.563 501.249 369.921 492.977 330.817C490.689 320.021 482.257 311.765 471.361 313.877H471.057C462.354 315.568 453.758 317.763 445.313 320.449C440.505 322.183 435.822 324.241 431.297 326.609C430.327 327.072 429.49 327.77 428.863 328.638C428.237 329.507 427.841 330.518 427.713 331.579Z" fill="#263238"/>
<path opacity="0.3" d="M434.113 361.617C435.169 365.983 436.273 370.714 437.313 375.747C442.763 367.653 445.974 358.28 446.625 348.567L434.113 361.617Z" fill="black"/>
<path d="M456.657 340.708C454.145 357.537 425.057 369.016 425.057 369.016L415.457 343.264C415.457 343.264 417.793 337.66 427.713 329.166C440.273 318.417 458.433 328.642 456.657 340.708Z" fill="#263238"/>
<path d="M419.393 314.956L420.641 307.875L405.633 307.431C405.633 307.431 404.289 316.957 410.753 322.577L413.617 321.624C415.096 321.132 416.414 320.253 417.43 319.079C418.447 317.905 419.125 316.481 419.393 314.956Z" fill="#FF8B7B"/>
<path d="M417.617 295.507L405.233 299.619L405.633 307.431L420.625 307.875L417.617 295.507Z" fill="#FF8B7B"/>
<path opacity="0.2" d="M478.385 688.61L479.041 703.788H490.801L490.145 688.61H478.385Z" fill="black"/>
<path opacity="0.2" d="M571.681 651.856L560.801 655.777L568.449 669.177L578.817 664.335L571.681 651.856Z" fill="black"/>
<path d="M456.833 275.932C459.313 288.728 461.425 296.111 456.673 304.208C449.537 316.401 432.353 314.607 426.065 302.795C420.417 292.157 417.313 273.01 428.465 264.818C430.914 263.002 433.789 261.838 436.819 261.436C439.848 261.035 442.931 261.408 445.774 262.522C448.617 263.636 451.125 265.453 453.061 267.8C454.997 270.147 456.295 272.946 456.833 275.932Z" fill="#FF8B7B"/>
<path d="M435.313 287.887C428.641 287.283 424.113 279.726 427.137 276.36C427.137 276.36 414.081 279.536 414.705 268.422C415.217 259.372 422.833 252.022 435.681 255.07C446.577 257.642 458.689 258.071 456.769 253.657C464.033 254.403 467.313 264.596 460.113 267.946C470.817 272.836 460.497 281.091 461.105 290.443C461.425 295.206 461.025 302.604 453.553 304.065C445.777 305.557 431.569 303.319 435.313 287.887Z" fill="#263238"/>
<path d="M440.513 283.727C440.739 286.96 439.89 290.178 438.097 292.888C435.697 296.428 432.417 294.904 431.361 291.173C430.401 287.823 430.497 281.933 433.745 279.71C436.993 277.487 440.161 279.837 440.513 283.727Z" fill="#FF8B7B"/>
<path d="M465.985 416.661C465.985 416.661 488.065 504.061 498.641 536.592C510.241 572.203 560.513 665.605 560.513 665.605L580.241 657.079C580.241 657.079 542.193 572.045 534.065 536.418C525.313 497.838 506.353 412.787 506.353 412.787L465.985 416.661Z" fill="#850000"/>
<path d="M555.713 661.747L561.089 668.352L583.233 658.635L579.841 652.11L555.713 661.747Z" fill="#263238"/>
<path opacity="0.3" d="M477.505 447.446C493.153 448.922 497.169 505.887 498.225 535.29C491.713 515.064 481.329 475.96 474.113 448.192C475.127 447.571 476.322 447.308 477.505 447.446Z" fill="black"/>
<path d="M443.793 418.82C443.793 418.82 446.337 508.554 451.121 543.832C456.097 580.523 474.497 697.834 474.497 697.834H494.401C494.401 697.834 489.809 579.348 487.105 543.102C484.145 503.585 484.913 414.756 484.913 414.756L443.793 418.82Z" fill="#850000"/>
<path d="M470.769 691.96C470.689 691.96 471.905 700.168 471.905 700.168H496.113L496.769 692.849L470.769 691.96Z" fill="#263238"/>
<path d="M392.273 198.454L390.929 197.581C397.137 188.182 408.289 181.546 421.537 179.371L421.793 180.958C408.993 183.022 398.241 189.405 392.273 198.454Z" fill="#850000"/>
<path d="M470.033 213.458C470.033 229.62 452.433 237.447 430.817 237.447C411.873 237.447 407.681 258.785 407.681 258.785C407.681 258.785 391.681 239.908 391.681 213.458C391.681 197.279 409.281 184.165 430.897 184.165C452.513 184.165 470.033 197.279 470.033 213.458Z" fill="#850000"/>
<path d="M435.969 212.569C435.969 213.58 435.667 214.568 435.101 215.409C434.535 216.249 433.73 216.905 432.789 217.292C431.847 217.679 430.812 217.78 429.812 217.583C428.813 217.385 427.895 216.898 427.174 216.183C426.454 215.468 425.963 214.558 425.764 213.566C425.565 212.574 425.668 211.546 426.057 210.612C426.447 209.678 427.108 208.88 427.955 208.318C428.802 207.756 429.798 207.456 430.817 207.456C432.184 207.456 433.494 207.995 434.46 208.954C435.427 209.912 435.969 211.213 435.969 212.569Z" fill="white"/>
<path d="M446.449 217.681C449.294 217.681 451.601 215.392 451.601 212.569C451.601 209.745 449.294 207.456 446.449 207.456C443.604 207.456 441.297 209.745 441.297 212.569C441.297 215.392 443.604 217.681 446.449 217.681Z" fill="white"/>
<path d="M420.337 212.569C420.337 213.58 420.035 214.568 419.469 215.409C418.903 216.249 418.098 216.905 417.157 217.292C416.215 217.679 415.179 217.78 414.18 217.583C413.181 217.385 412.263 216.898 411.542 216.183C410.822 215.468 410.331 214.558 410.132 213.566C409.933 212.574 410.035 211.546 410.425 210.612C410.815 209.678 411.476 208.88 412.323 208.318C413.17 207.756 414.166 207.456 415.185 207.456C416.552 207.456 417.862 207.995 418.828 208.954C419.794 209.912 420.337 211.213 420.337 212.569Z" fill="white"/>
</svg>
