<svg width="192" height="56" viewBox="0 0 192 56" fill="none" xmlns="http://www.w3.org/2000/svg">
<path fill-rule="evenodd" clip-rule="evenodd" d="M29.6796 15.6508C26.4191 12.3903 21.9969 10.5585 17.3859 10.5585C12.7748 10.5585 8.35266 12.3903 5.09215 15.6508C1.83165 18.9113 -8.39233e-05 23.3335 -8.39233e-05 27.9445C-8.39233e-05 35.1423 5.48616 42.684 16.2268 50.7395C16.5612 50.9903 16.9679 51.1258 17.3859 51.1258C17.8039 51.1258 18.2106 50.9903 18.545 50.7395C29.2856 42.684 34.7719 35.1423 34.7719 27.9445C34.7719 23.3335 32.9401 18.9113 29.6796 15.6508ZM17.386 41.9498C25.2276 41.9498 31.5845 35.5929 31.5845 27.7513C31.5845 19.9096 25.2276 13.5527 17.386 13.5527C9.54432 13.5527 3.18742 19.9096 3.18742 27.7513C3.18742 35.5929 9.54432 41.9498 17.386 41.9498Z" fill="#850000"/>
<g clip-path="url(#clip0_206_1491)">
<path d="M23.5059 27.9052L23.6796 30.9348C23.7053 31.3759 23.4416 31.7849 22.8885 32.1621C22.3353 32.5392 21.5796 32.838 20.6212 33.0585C19.6629 33.279 18.6241 33.3893 17.505 33.3893C16.3858 33.3893 15.347 33.279 14.3887 33.0585C13.4303 32.838 12.6746 32.5392 12.1214 32.1621C11.5683 31.7849 11.3046 31.3759 11.3303 30.9348L11.504 27.9052L17.0419 29.6405C17.1834 29.6853 17.3377 29.7076 17.505 29.7076C17.6722 29.7076 17.8265 29.6853 17.968 29.6405L23.5059 27.9052ZM28.6193 24.7988C28.6193 24.9458 28.5485 25.0449 28.407 25.096L17.6014 28.4708C17.5757 28.4772 17.5435 28.4804 17.505 28.4804C17.4664 28.4804 17.4342 28.4772 17.4085 28.4708L11.1181 26.4958C10.8415 26.7131 10.6132 27.0695 10.4331 27.5648C10.253 28.0602 10.1436 28.6306 10.105 29.2762C10.5103 29.5063 10.7129 29.8546 10.7129 30.3212C10.7129 30.7623 10.5263 31.1042 10.1533 31.3471L10.7129 35.4985C10.7257 35.588 10.7 35.6679 10.6357 35.7382C10.5778 35.8085 10.5006 35.8437 10.4041 35.8437H8.55174C8.45527 35.8437 8.37808 35.8085 8.3202 35.7382C8.25588 35.6679 8.23015 35.588 8.24301 35.4985L8.80259 31.3471C8.42954 31.1042 8.24301 30.7623 8.24301 30.3212C8.24301 29.8546 8.45205 29.4999 8.87012 29.257C8.94087 27.9339 9.25604 26.8793 9.81561 26.0931L6.60288 25.096C6.46138 25.0449 6.39062 24.9458 6.39062 24.7988C6.39062 24.6518 6.46138 24.5527 6.60288 24.5016L17.4085 21.1268C17.4342 21.1204 17.4664 21.1172 17.505 21.1172C17.5435 21.1172 17.5757 21.1204 17.6014 21.1268L28.407 24.5016C28.5485 24.5527 28.6193 24.6518 28.6193 24.7988Z" fill="#850000"/>
</g>
<path d="M47.9114 34.3668C46.1998 34.3668 44.5595 34.1426 42.9905 33.6944C41.4215 33.2257 40.1582 32.6246 39.2005 31.8911L40.8816 28.1622C41.7985 28.8142 42.8784 29.3542 44.1214 29.7821C45.3847 30.1896 46.6582 30.3934 47.9419 30.3934C48.92 30.3934 49.7045 30.3017 50.2954 30.1183C50.9067 29.9146 51.355 29.6395 51.6402 29.2931C51.9255 28.9467 52.0681 28.5493 52.0681 28.1011C52.0681 27.5305 51.844 27.0823 51.3957 26.7562C50.9474 26.4098 50.3565 26.1348 49.623 25.931C48.8894 25.7069 48.0744 25.5031 47.1778 25.3197C46.3017 25.1159 45.4153 24.8714 44.5187 24.5862C43.6426 24.3009 42.8377 23.9341 42.1041 23.4858C41.3706 23.0376 40.7695 22.4467 40.3008 21.7131C39.8526 20.9796 39.6284 20.0423 39.6284 18.9012C39.6284 17.6786 39.9545 16.5681 40.6065 15.5697C41.2789 14.5509 42.2773 13.746 43.6018 13.1551C44.9466 12.5438 46.6277 12.2381 48.6449 12.2381C49.9898 12.2381 51.3142 12.4012 52.6183 12.7272C53.9224 13.0328 55.0736 13.5015 56.0721 14.1331L54.5439 17.8926C53.5454 17.322 52.547 16.9043 51.5485 16.6394C50.5501 16.3542 49.572 16.2115 48.6144 16.2115C47.6567 16.2115 46.8722 16.3236 46.2609 16.5477C45.6496 16.7719 45.2115 17.0673 44.9466 17.4341C44.6817 17.7805 44.5493 18.188 44.5493 18.6567C44.5493 19.2068 44.7734 19.6551 45.2217 20.0015C45.67 20.3275 46.2609 20.5924 46.9945 20.7962C47.728 20.9999 48.5329 21.2037 49.409 21.4075C50.3056 21.6112 51.192 21.8456 52.0681 22.1104C52.9647 22.3753 53.7797 22.7319 54.5133 23.1802C55.2468 23.6285 55.8378 24.2194 56.286 24.9529C56.7547 25.6865 56.989 26.6136 56.989 27.7343C56.989 28.9365 56.6528 30.0368 55.9804 31.0353C55.308 32.0337 54.2993 32.8386 52.9545 33.4498C51.6301 34.0611 49.949 34.3668 47.9114 34.3668ZM70.7337 34.3668C69.0628 34.3668 67.504 34.0917 66.0573 33.5415C64.631 32.9914 63.388 32.2171 62.3285 31.2186C61.2893 30.2202 60.4742 29.0486 59.8833 27.7037C59.3128 26.3589 59.0275 24.8918 59.0275 23.3025C59.0275 21.7131 59.3128 20.246 59.8833 18.9012C60.4742 17.5564 61.2995 16.3847 62.359 15.3863C63.4186 14.3878 64.6615 13.6135 66.0879 13.0634C67.5142 12.5132 69.0628 12.2381 70.7337 12.2381C72.4249 12.2381 73.9735 12.5132 75.3795 13.0634C76.8058 13.6135 78.0386 14.3878 79.0778 15.3863C80.1373 16.3643 80.9626 17.5258 81.5535 18.8706C82.1444 20.2155 82.4398 21.6927 82.4398 23.3025C82.4398 24.8918 82.1444 26.3691 81.5535 27.7343C80.9626 29.0791 80.1373 30.2508 79.0778 31.2492C78.0386 32.2273 76.8058 32.9914 75.3795 33.5415C73.9735 34.0917 72.4249 34.3668 70.7337 34.3668ZM77.7329 38.9209C76.8975 38.9209 76.1028 38.8292 75.3489 38.6458C74.6154 38.4624 73.8818 38.1669 73.1483 37.7594C72.4351 37.3519 71.6812 36.8017 70.8865 36.1089C70.1122 35.4162 69.2666 34.5603 68.3497 33.5415L73.5456 32.2273C74.0958 32.9812 74.6052 33.5823 75.0738 34.0306C75.5425 34.4788 75.9908 34.7947 76.4187 34.9781C76.8669 35.1614 77.3356 35.2531 77.8246 35.2531C79.1287 35.2531 80.2901 34.7234 81.309 33.6638L83.5096 36.2923C82.0629 38.0447 80.1373 38.9209 77.7329 38.9209ZM70.7337 30.1489C71.6914 30.1489 72.5675 29.9859 73.3622 29.6599C74.1773 29.3338 74.8904 28.8652 75.5017 28.2539C76.113 27.6426 76.5817 26.9192 76.9077 26.0838C77.2541 25.228 77.4273 24.3009 77.4273 23.3025C77.4273 22.2836 77.2541 21.3565 76.9077 20.5211C76.5817 19.6857 76.113 18.9623 75.5017 18.351C74.8904 17.7397 74.1773 17.2711 73.3622 16.9451C72.5675 16.619 71.6914 16.456 70.7337 16.456C69.776 16.456 68.8896 16.619 68.0746 16.9451C67.2595 17.2711 66.5464 17.7397 65.9351 18.351C65.3442 18.9623 64.8755 19.6857 64.5291 20.5211C64.2031 21.3565 64.0401 22.2836 64.0401 23.3025C64.0401 24.3009 64.2031 25.228 64.5291 26.0838C64.8755 26.9192 65.3442 27.6426 65.9351 28.2539C66.5464 28.8652 67.2595 29.3338 68.0746 29.6599C68.8896 29.9859 69.776 30.1489 70.7337 30.1489ZM86.1611 34V12.6049H91.1125V29.9655H101.841V34H86.1611ZM103.66 27.3064V23.4858H112.309V27.3064H103.66ZM119.695 34V16.6394H112.848V12.6049H131.493V16.6394H124.646V34H119.695ZM138.874 34L131.874 12.6049H137.009L143.092 31.5548H140.524L146.882 12.6049H151.466L157.579 31.5548H155.103L161.338 12.6049H166.076L159.077 34H153.759L148.349 17.373H149.755L144.192 34H138.874ZM178.993 34.3668C177.302 34.3668 175.733 34.0917 174.286 33.5415C172.86 32.9914 171.617 32.2171 170.557 31.2186C169.518 30.2202 168.703 29.0486 168.112 27.7037C167.542 26.3589 167.257 24.8918 167.257 23.3025C167.257 21.7131 167.542 20.246 168.112 18.9012C168.703 17.5564 169.528 16.3847 170.588 15.3863C171.648 14.3878 172.891 13.6135 174.317 13.0634C175.743 12.5132 177.292 12.2381 178.963 12.2381C180.654 12.2381 182.203 12.5132 183.608 13.0634C185.035 13.6135 186.268 14.3878 187.307 15.3863C188.366 16.3847 189.192 17.5564 189.782 18.9012C190.373 20.2256 190.669 21.6927 190.669 23.3025C190.669 24.8918 190.373 26.3691 189.782 27.7343C189.192 29.0791 188.366 30.2508 187.307 31.2492C186.268 32.2273 185.035 32.9914 183.608 33.5415C182.203 34.0917 180.664 34.3668 178.993 34.3668ZM178.963 30.1489C179.92 30.1489 180.797 29.9859 181.591 29.6599C182.406 29.3338 183.119 28.8652 183.731 28.2539C184.342 27.6426 184.811 26.9192 185.137 26.0838C185.483 25.2484 185.656 24.3213 185.656 23.3025C185.656 22.2836 185.483 21.3565 185.137 20.5211C184.811 19.6857 184.342 18.9623 183.731 18.351C183.14 17.7397 182.437 17.2711 181.622 16.9451C180.807 16.619 179.92 16.456 178.963 16.456C178.005 16.456 177.119 16.619 176.304 16.9451C175.509 17.2711 174.806 17.7397 174.195 18.351C173.583 18.9623 173.105 19.6857 172.758 20.5211C172.432 21.3565 172.269 22.2836 172.269 23.3025C172.269 24.3009 172.432 25.228 172.758 26.0838C173.105 26.9192 173.573 27.6426 174.164 28.2539C174.775 28.8652 175.489 29.3338 176.304 29.6599C177.119 29.9859 178.005 30.1489 178.963 30.1489Z" fill="#850000"/>
<path d="M42.2959 51.1116C41.3356 51.1116 40.582 50.8415 40.0352 50.3014C39.4951 49.7612 39.225 48.981 39.225 47.9607V44.0096H40.5254V47.9107C40.5254 48.6309 40.6787 49.1544 40.9855 49.4812C41.2989 49.8079 41.739 49.9713 42.3059 49.9713C42.8727 49.9713 43.3095 49.8079 43.6163 49.4812C43.923 49.1544 44.0764 48.6309 44.0764 47.9107V44.0096H45.3568V47.9607C45.3568 48.981 45.0833 49.7612 44.5365 50.3014C43.9964 50.8415 43.2495 51.1116 42.2959 51.1116ZM50.0971 45.61C50.5239 45.61 50.904 45.6934 51.2374 45.8601C51.5775 46.0268 51.8443 46.2836 52.0376 46.6303C52.231 46.9704 52.3277 47.4106 52.3277 47.9507V51.0116H51.0774V48.1108C51.0774 47.6373 50.964 47.2839 50.7373 47.0505C50.5172 46.817 50.2071 46.7003 49.807 46.7003C49.5136 46.7003 49.2535 46.7604 49.0268 46.8804C48.8 47.0004 48.6233 47.1805 48.4966 47.4206C48.3766 47.654 48.3166 47.9507 48.3166 48.3108V51.0116H47.0662V45.6701H48.2566V47.1105L48.0465 46.6703C48.2332 46.3302 48.5033 46.0702 48.8567 45.8901C49.2168 45.7034 49.6303 45.61 50.0971 45.61ZM53.9222 51.0116V43.5894H55.1726V51.0116H53.9222ZM59.2227 51.0816C58.6759 51.0816 58.1891 50.9649 57.7623 50.7315C57.3355 50.4914 56.9987 50.1647 56.752 49.7512C56.5053 49.3378 56.3819 48.8676 56.3819 48.3408C56.3819 47.8073 56.5053 47.3372 56.752 46.9304C56.9987 46.517 57.3355 46.1935 57.7623 45.9601C58.1891 45.7267 58.6759 45.61 59.2227 45.61C59.7762 45.61 60.2664 45.7267 60.6931 45.9601C61.1266 46.1935 61.4634 46.5136 61.7034 46.9204C61.9502 47.3272 62.0735 47.8007 62.0735 48.3408C62.0735 48.8676 61.9502 49.3378 61.7034 49.7512C61.4634 50.1647 61.1266 50.4914 60.6931 50.7315C60.2664 50.9649 59.7762 51.0816 59.2227 51.0816ZM59.2227 50.0113C59.5295 50.0113 59.8029 49.9446 60.043 49.8112C60.283 49.6779 60.4697 49.4845 60.6031 49.2311C60.7432 48.9777 60.8132 48.6809 60.8132 48.3408C60.8132 47.9941 60.7432 47.6973 60.6031 47.4506C60.4697 47.1972 60.283 47.0038 60.043 46.8704C59.8029 46.737 59.5328 46.6703 59.2327 46.6703C58.926 46.6703 58.6526 46.737 58.4125 46.8704C58.1791 47.0038 57.9924 47.1972 57.8523 47.4506C57.7123 47.6973 57.6423 47.9941 57.6423 48.3408C57.6423 48.6809 57.7123 48.9777 57.8523 49.2311C57.9924 49.4845 58.1791 49.6779 58.4125 49.8112C58.6526 49.9446 58.9226 50.0113 59.2227 50.0113ZM65.7282 51.0816C65.1681 51.0816 64.6679 50.9649 64.2278 50.7315C63.7944 50.4914 63.4543 50.1647 63.2075 49.7512C62.9608 49.3378 62.8374 48.8676 62.8374 48.3408C62.8374 47.8073 62.9608 47.3372 63.2075 46.9304C63.4543 46.517 63.7944 46.1935 64.2278 45.9601C64.6679 45.7267 65.1681 45.61 65.7282 45.61C66.2484 45.61 66.7052 45.7167 67.0986 45.9301C67.4988 46.1369 67.8022 46.4436 68.0089 46.8504L67.0486 47.4106C66.8886 47.1571 66.6919 46.9704 66.4585 46.8504C66.2317 46.7304 65.985 46.6703 65.7182 46.6703C65.4115 46.6703 65.1347 46.737 64.888 46.8704C64.6413 47.0038 64.4479 47.1972 64.3078 47.4506C64.1678 47.6973 64.0978 47.9941 64.0978 48.3408C64.0978 48.6876 64.1678 48.9877 64.3078 49.2411C64.4479 49.4878 64.6413 49.6779 64.888 49.8112C65.1347 49.9446 65.4115 50.0113 65.7182 50.0113C65.985 50.0113 66.2317 49.9513 66.4585 49.8313C66.6919 49.7112 66.8886 49.5245 67.0486 49.2711L68.0089 49.8313C67.8022 50.2314 67.4988 50.5415 67.0986 50.7615C66.7052 50.9749 66.2484 51.0816 65.7282 51.0816ZM70.0696 49.8213L70.0996 48.2508L72.8904 45.6701H74.3908L72.0201 48.0507L71.3599 48.6009L70.0696 49.8213ZM69.0493 51.0116V43.5894H70.2996V51.0116H69.0493ZM73.0804 51.0116L71.1299 48.6009L71.9201 47.6006L74.6009 51.0116H73.0804ZM78.6298 53.0222C78.3697 53.0222 78.1096 52.9788 77.8496 52.8921C77.5895 52.8054 77.3728 52.6854 77.1994 52.532L77.6995 51.6118C77.8262 51.7251 77.9696 51.8152 78.1297 51.8818C78.2897 51.9485 78.4531 51.9819 78.6198 51.9819C78.8465 51.9819 79.0299 51.9252 79.17 51.8118C79.31 51.6985 79.44 51.5084 79.5601 51.2417L79.8702 50.5415L79.9702 50.3914L81.9908 45.6701H83.1911L80.6904 51.4417C80.5237 51.8418 80.337 52.1586 80.1302 52.392C79.9302 52.6254 79.7034 52.7888 79.45 52.8821C79.2033 52.9755 78.9299 53.0222 78.6298 53.0222ZM79.7301 51.2017L77.3194 45.6701H78.6198L80.5804 50.2814L79.7301 51.2017ZM86.2351 51.0816C85.6883 51.0816 85.2015 50.9649 84.7747 50.7315C84.3479 50.4914 84.0111 50.1647 83.7644 49.7512C83.5176 49.3378 83.3943 48.8676 83.3943 48.3408C83.3943 47.8073 83.5176 47.3372 83.7644 46.9304C84.0111 46.517 84.3479 46.1935 84.7747 45.9601C85.2015 45.7267 85.6883 45.61 86.2351 45.61C86.7886 45.61 87.2787 45.7267 87.7055 45.9601C88.139 46.1935 88.4757 46.5136 88.7158 46.9204C88.9625 47.3272 89.0859 47.8007 89.0859 48.3408C89.0859 48.8676 88.9625 49.3378 88.7158 49.7512C88.4757 50.1647 88.139 50.4914 87.7055 50.7315C87.2787 50.9649 86.7886 51.0816 86.2351 51.0816ZM86.2351 50.0113C86.5418 50.0113 86.8153 49.9446 87.0553 49.8112C87.2954 49.6779 87.4821 49.4845 87.6155 49.2311C87.7555 48.9777 87.8256 48.6809 87.8256 48.3408C87.8256 47.9941 87.7555 47.6973 87.6155 47.4506C87.4821 47.1972 87.2954 47.0038 87.0553 46.8704C86.8153 46.737 86.5452 46.6703 86.2451 46.6703C85.9383 46.6703 85.6649 46.737 85.4249 46.8704C85.1915 47.0038 85.0047 47.1972 84.8647 47.4506C84.7247 47.6973 84.6546 47.9941 84.6546 48.3408C84.6546 48.6809 84.7247 48.9777 84.8647 49.2311C85.0047 49.4845 85.1915 49.6779 85.4249 49.8112C85.6649 49.9446 85.935 50.0113 86.2351 50.0113ZM92.5506 51.0816C92.0971 51.0816 91.697 50.9983 91.3502 50.8315C91.0035 50.6582 90.7334 50.3981 90.54 50.0513C90.3466 49.6979 90.2499 49.2544 90.2499 48.7209V45.6701H91.5003V48.5509C91.5003 49.031 91.607 49.3911 91.8204 49.6312C92.0404 49.8646 92.3505 49.9813 92.7506 49.9813C93.044 49.9813 93.2975 49.9213 93.5108 49.8012C93.7309 49.6812 93.901 49.5012 94.021 49.2611C94.1477 49.021 94.211 48.7243 94.211 48.3708V45.6701H95.4614V51.0116H94.2711V49.5712L94.4811 50.0113C94.3011 50.3581 94.0377 50.6248 93.6909 50.8115C93.3441 50.9916 92.964 51.0816 92.5506 51.0816ZM97.1069 51.0116V45.6701H98.2972V47.1405L98.1572 46.7104C98.3172 46.3502 98.5673 46.0768 98.9074 45.8901C99.2541 45.7034 99.6843 45.61 100.198 45.61V46.8004C100.144 46.787 100.094 46.7804 100.048 46.7804C100.001 46.7737 99.9543 46.7704 99.9077 46.7704C99.4342 46.7704 99.0574 46.9104 98.7773 47.1905C98.4973 47.4639 98.3572 47.874 98.3572 48.4208V51.0116H97.1069ZM107.049 51.0816C106.616 51.0816 106.219 50.9816 105.859 50.7815C105.506 50.5815 105.222 50.2814 105.009 49.8813C104.802 49.4745 104.699 48.961 104.699 48.3408C104.699 47.714 104.799 47.2005 104.999 46.8004C105.205 46.4003 105.486 46.1035 105.839 45.9101C106.192 45.7101 106.596 45.61 107.049 45.61C107.576 45.61 108.04 45.7234 108.44 45.9501C108.846 46.1769 109.167 46.4936 109.4 46.9004C109.64 47.3072 109.76 47.7873 109.76 48.3408C109.76 48.8943 109.64 49.3778 109.4 49.7912C109.167 50.198 108.846 50.5148 108.44 50.7415C108.04 50.9683 107.576 51.0816 107.049 51.0816ZM104.088 52.9522V45.6701H105.279V46.9304L105.239 48.3508L105.339 49.7712V52.9522H104.088ZM106.909 50.0113C107.209 50.0113 107.476 49.9446 107.709 49.8112C107.95 49.6779 108.14 49.4845 108.28 49.2311C108.42 48.9777 108.49 48.6809 108.49 48.3408C108.49 47.9941 108.42 47.6973 108.28 47.4506C108.14 47.1972 107.95 47.0038 107.709 46.8704C107.476 46.737 107.209 46.6703 106.909 46.6703C106.609 46.6703 106.339 46.737 106.099 46.8704C105.859 47.0038 105.669 47.1972 105.529 47.4506C105.389 47.6973 105.319 47.9941 105.319 48.3408C105.319 48.6809 105.389 48.9777 105.529 49.2311C105.669 49.4845 105.859 49.6779 106.099 49.8112C106.339 49.9446 106.609 50.0113 106.909 50.0113ZM113.355 51.0816C112.808 51.0816 112.321 50.9649 111.894 50.7315C111.468 50.4914 111.131 50.1647 110.884 49.7512C110.637 49.3378 110.514 48.8676 110.514 48.3408C110.514 47.8073 110.637 47.3372 110.884 46.9304C111.131 46.517 111.468 46.1935 111.894 45.9601C112.321 45.7267 112.808 45.61 113.355 45.61C113.908 45.61 114.399 45.7267 114.825 45.9601C115.259 46.1935 115.596 46.5136 115.836 46.9204C116.082 47.3272 116.206 47.8007 116.206 48.3408C116.206 48.8676 116.082 49.3378 115.836 49.7512C115.596 50.1647 115.259 50.4914 114.825 50.7315C114.399 50.9649 113.908 51.0816 113.355 51.0816ZM113.355 50.0113C113.662 50.0113 113.935 49.9446 114.175 49.8112C114.415 49.6779 114.602 49.4845 114.735 49.2311C114.875 48.9777 114.945 48.6809 114.945 48.3408C114.945 47.9941 114.875 47.6973 114.735 47.4506C114.602 47.1972 114.415 47.0038 114.175 46.8704C113.935 46.737 113.665 46.6703 113.365 46.6703C113.058 46.6703 112.785 46.737 112.545 46.8704C112.311 47.0038 112.125 47.1972 111.985 47.4506C111.844 47.6973 111.774 47.9941 111.774 48.3408C111.774 48.6809 111.844 48.9777 111.985 49.2311C112.125 49.4845 112.311 49.6779 112.545 49.8112C112.785 49.9446 113.055 50.0113 113.355 50.0113ZM119.42 51.0816C118.833 51.0816 118.38 50.9316 118.06 50.6315C117.74 50.3247 117.58 49.8746 117.58 49.2811V44.4897H118.83V49.2511C118.83 49.5045 118.894 49.7012 119.02 49.8413C119.154 49.9813 119.337 50.0513 119.57 50.0513C119.85 50.0513 120.084 49.978 120.271 49.8313L120.621 50.7215C120.474 50.8415 120.294 50.9316 120.081 50.9916C119.867 51.0516 119.647 51.0816 119.42 51.0816ZM116.7 46.7104V45.7101H120.261V46.7104H116.7ZM123.992 51.0816C123.399 51.0816 122.879 50.9649 122.432 50.7315C121.992 50.4914 121.648 50.1647 121.402 49.7512C121.162 49.3378 121.042 48.8676 121.042 48.3408C121.042 47.8073 121.158 47.3372 121.392 46.9304C121.632 46.517 121.959 46.1935 122.372 45.9601C122.792 45.7267 123.269 45.61 123.802 45.61C124.323 45.61 124.786 45.7234 125.193 45.9501C125.6 46.1769 125.92 46.497 126.153 46.9104C126.387 47.3239 126.503 47.8107 126.503 48.3708C126.503 48.4242 126.5 48.4842 126.493 48.5509C126.493 48.6176 126.49 48.6809 126.483 48.7409H122.032V47.9107H125.823L125.333 48.1708C125.34 47.864 125.276 47.5939 125.143 47.3605C125.009 47.1271 124.826 46.9438 124.593 46.8104C124.366 46.677 124.103 46.6103 123.802 46.6103C123.496 46.6103 123.226 46.677 122.992 46.8104C122.765 46.9438 122.585 47.1305 122.452 47.3705C122.325 47.6039 122.262 47.8807 122.262 48.2008V48.4008C122.262 48.7209 122.335 49.0043 122.482 49.2511C122.629 49.4978 122.835 49.6879 123.102 49.8213C123.369 49.9546 123.676 50.0213 124.022 50.0213C124.323 50.0213 124.593 49.9746 124.833 49.8813C125.073 49.7879 125.286 49.6412 125.473 49.4411L126.143 50.2114C125.903 50.4914 125.6 50.7082 125.233 50.8616C124.873 51.0083 124.459 51.0816 123.992 51.0816ZM130.743 45.61C131.17 45.61 131.55 45.6934 131.884 45.8601C132.224 46.0268 132.491 46.2836 132.684 46.6303C132.877 46.9704 132.974 47.4106 132.974 47.9507V51.0116H131.724V48.1108C131.724 47.6373 131.61 47.2839 131.384 47.0505C131.164 46.817 130.853 46.7003 130.453 46.7003C130.16 46.7003 129.9 46.7604 129.673 46.8804C129.446 47.0004 129.27 47.1805 129.143 47.4206C129.023 47.654 128.963 47.9507 128.963 48.3108V51.0116H127.713V45.6701H128.903V47.1105L128.693 46.6703C128.88 46.3302 129.15 46.0702 129.503 45.8901C129.863 45.7034 130.277 45.61 130.743 45.61ZM136.579 51.0816C135.992 51.0816 135.539 50.9316 135.219 50.6315C134.899 50.3247 134.739 49.8746 134.739 49.2811V44.4897H135.989V49.2511C135.989 49.5045 136.052 49.7012 136.179 49.8413C136.312 49.9813 136.496 50.0513 136.729 50.0513C137.009 50.0513 137.243 49.978 137.429 49.8313L137.78 50.7215C137.633 50.8415 137.453 50.9316 137.239 50.9916C137.026 51.0516 136.806 51.0816 136.579 51.0816ZM133.858 46.7104V45.7101H137.419V46.7104H133.858ZM138.816 51.0116V45.6701H140.067V51.0116H138.816ZM139.447 44.7898C139.213 44.7898 139.02 44.7164 138.866 44.5697C138.72 44.423 138.646 44.2463 138.646 44.0396C138.646 43.8262 138.72 43.6495 138.866 43.5094C139.02 43.3627 139.213 43.2894 139.447 43.2894C139.68 43.2894 139.87 43.3594 140.017 43.4994C140.17 43.6328 140.247 43.8028 140.247 44.0096C140.247 44.2296 140.174 44.4164 140.027 44.5697C139.88 44.7164 139.687 44.7898 139.447 44.7898ZM145.007 51.0116V49.9313L144.937 49.7012V47.8107C144.937 47.4439 144.827 47.1605 144.607 46.9604C144.387 46.7537 144.054 46.6503 143.607 46.6503C143.307 46.6503 143.01 46.697 142.717 46.7904C142.43 46.8837 142.186 47.0138 141.986 47.1805L141.496 46.2702C141.783 46.0502 142.123 45.8868 142.516 45.7801C142.917 45.6667 143.33 45.61 143.757 45.61C144.53 45.61 145.127 45.7968 145.547 46.1702C145.974 46.537 146.188 47.1071 146.188 47.8807V51.0116H145.007ZM143.327 51.0816C142.927 51.0816 142.576 51.0149 142.276 50.8816C141.976 50.7415 141.743 50.5515 141.576 50.3114C141.416 50.0647 141.336 49.7879 141.336 49.4812C141.336 49.1811 141.406 48.911 141.546 48.6709C141.693 48.4308 141.93 48.2408 142.256 48.1008C142.583 47.9607 143.017 47.8907 143.557 47.8907H145.107V48.7209H143.647C143.22 48.7209 142.933 48.791 142.787 48.931C142.64 49.0644 142.566 49.2311 142.566 49.4311C142.566 49.6579 142.657 49.8379 142.837 49.9713C143.017 50.1047 143.267 50.1714 143.587 50.1714C143.894 50.1714 144.167 50.1013 144.407 49.9613C144.654 49.8213 144.83 49.6145 144.937 49.3411L145.147 50.0913C145.027 50.4048 144.81 50.6482 144.497 50.8215C144.19 50.9949 143.8 51.0816 143.327 51.0816ZM147.801 51.0116V43.5894H149.051V51.0116H147.801ZM155.484 51.0816C154.897 51.0816 154.443 50.9316 154.123 50.6315C153.803 50.3247 153.643 49.8746 153.643 49.2811V44.4897H154.894V49.2511C154.894 49.5045 154.957 49.7012 155.084 49.8413C155.217 49.9813 155.4 50.0513 155.634 50.0513C155.914 50.0513 156.147 49.978 156.334 49.8313L156.684 50.7215C156.537 50.8415 156.357 50.9316 156.144 50.9916C155.931 51.0516 155.71 51.0816 155.484 51.0816ZM152.763 46.7104V45.7101H156.324V46.7104H152.763ZM159.946 51.0816C159.399 51.0816 158.912 50.9649 158.485 50.7315C158.059 50.4914 157.722 50.1647 157.475 49.7512C157.228 49.3378 157.105 48.8676 157.105 48.3408C157.105 47.8073 157.228 47.3372 157.475 46.9304C157.722 46.517 158.059 46.1935 158.485 45.9601C158.912 45.7267 159.399 45.61 159.946 45.61C160.499 45.61 160.99 45.7267 161.416 45.9601C161.85 46.1935 162.187 46.5136 162.427 46.9204C162.673 47.3272 162.797 47.8007 162.797 48.3408C162.797 48.8676 162.673 49.3378 162.427 49.7512C162.187 50.1647 161.85 50.4914 161.416 50.7315C160.99 50.9649 160.499 51.0816 159.946 51.0816ZM159.946 50.0113C160.253 50.0113 160.526 49.9446 160.766 49.8112C161.006 49.6779 161.193 49.4845 161.326 49.2311C161.466 48.9777 161.536 48.6809 161.536 48.3408C161.536 47.9941 161.466 47.6973 161.326 47.4506C161.193 47.1972 161.006 47.0038 160.766 46.8704C160.526 46.737 160.256 46.6703 159.956 46.6703C159.649 46.6703 159.376 46.737 159.136 46.8704C158.902 47.0038 158.716 47.1972 158.575 47.4506C158.435 47.6973 158.365 47.9941 158.365 48.3408C158.365 48.6809 158.435 48.9777 158.575 49.2311C158.716 49.4845 158.902 49.6779 159.136 49.8112C159.376 49.9446 159.646 50.0113 159.946 50.0113ZM166.261 51.0816C165.748 51.0816 165.284 50.9683 164.871 50.7415C164.464 50.5081 164.144 50.188 163.911 49.7812C163.677 49.3745 163.561 48.8943 163.561 48.3408C163.561 47.7873 163.677 47.3072 163.911 46.9004C164.144 46.4936 164.464 46.1769 164.871 45.9501C165.284 45.7234 165.748 45.61 166.261 45.61C166.708 45.61 167.108 45.7101 167.462 45.9101C167.815 46.1035 168.095 46.4003 168.302 46.8004C168.509 47.2005 168.612 47.714 168.612 48.3408C168.612 48.961 168.512 49.4745 168.312 49.8813C168.112 50.2814 167.835 50.5815 167.482 50.7815C167.128 50.9816 166.721 51.0816 166.261 51.0816ZM166.411 50.0113C166.711 50.0113 166.978 49.9446 167.212 49.8112C167.452 49.6779 167.642 49.4845 167.782 49.2311C167.928 48.9777 168.002 48.6809 168.002 48.3408C168.002 47.9941 167.928 47.6973 167.782 47.4506C167.642 47.1972 167.452 47.0038 167.212 46.8704C166.978 46.737 166.711 46.6703 166.411 46.6703C166.111 46.6703 165.841 46.737 165.601 46.8704C165.368 47.0038 165.178 47.1972 165.031 47.4506C164.891 47.6973 164.821 47.9941 164.821 48.3408C164.821 48.6809 164.891 48.9777 165.031 49.2311C165.178 49.4845 165.368 49.6779 165.601 49.8112C165.841 49.9446 166.111 50.0113 166.411 50.0113ZM168.032 51.0116V49.7512L168.082 48.3308L167.982 46.9104V43.5894H169.222V51.0116H168.032ZM174.167 51.0116V49.9313L174.097 49.7012V47.8107C174.097 47.4439 173.987 47.1605 173.767 46.9604C173.547 46.7537 173.214 46.6503 172.767 46.6503C172.467 46.6503 172.17 46.697 171.877 46.7904C171.59 46.8837 171.346 47.0138 171.146 47.1805L170.656 46.2702C170.943 46.0502 171.283 45.8868 171.676 45.7801C172.077 45.6667 172.49 45.61 172.917 45.61C173.69 45.61 174.287 45.7968 174.707 46.1702C175.134 46.537 175.348 47.1071 175.348 47.8807V51.0116H174.167ZM172.487 51.0816C172.087 51.0816 171.737 51.0149 171.436 50.8816C171.136 50.7415 170.903 50.5515 170.736 50.3114C170.576 50.0647 170.496 49.7879 170.496 49.4812C170.496 49.1811 170.566 48.911 170.706 48.6709C170.853 48.4308 171.09 48.2408 171.416 48.1008C171.743 47.9607 172.177 47.8907 172.717 47.8907H174.267V48.7209H172.807C172.38 48.7209 172.093 48.791 171.947 48.931C171.8 49.0644 171.726 49.2311 171.726 49.4311C171.726 49.6579 171.817 49.8379 171.997 49.9713C172.177 50.1047 172.427 50.1714 172.747 50.1714C173.054 50.1714 173.327 50.1013 173.567 49.9613C173.814 49.8213 173.99 49.6145 174.097 49.3411L174.307 50.0913C174.187 50.4048 173.97 50.6482 173.657 50.8215C173.35 50.9949 172.96 51.0816 172.487 51.0816ZM177.303 53.0222C177.043 53.0222 176.783 52.9788 176.523 52.8921C176.263 52.8054 176.046 52.6854 175.873 52.532L176.373 51.6118C176.499 51.7251 176.643 51.8152 176.803 51.8818C176.963 51.9485 177.126 51.9819 177.293 51.9819C177.52 51.9819 177.703 51.9252 177.843 51.8118C177.983 51.6985 178.113 51.5084 178.233 51.2417L178.543 50.5415L178.643 50.3914L180.664 45.6701H181.864L179.364 51.4417C179.197 51.8418 179.01 52.1586 178.803 52.392C178.603 52.6254 178.377 52.7888 178.123 52.8821C177.877 52.9755 177.603 53.0222 177.303 53.0222ZM178.403 51.2017L175.993 45.6701H177.293L179.254 50.2814L178.403 51.2017Z" fill="#15181E"/>
<defs>
<clipPath id="clip0_206_1491">
<rect width="22.2287" height="14.7265" fill="white" transform="translate(6.39062 21.1172)"/>
</clipPath>
</defs>
</svg>
