<svg width="24" height="24" viewBox="0 0 24 24" fill="none" xmlns="http://www.w3.org/2000/svg">
<mask id="mask0_633_5676" style="mask-type:alpha" maskUnits="userSpaceOnUse" x="0" y="0" width="24" height="24">
<rect width="24" height="24" fill="#D9D9D9"/>
</mask>
<g mask="url(#mask0_633_5676)">
<path d="M7.00026 20V8.975C7.00026 8.425 7.20026 7.95833 7.60026 7.575C8.00026 7.19167 8.47526 7 9.02526 7H20.0003C20.5503 7 21.0211 7.19583 21.4128 7.5875C21.8044 7.97917 22.0003 8.45 22.0003 9V17L17.0003 22H9.00026C8.45026 22 7.97942 21.8042 7.58776 21.4125C7.19609 21.0208 7.00026 20.55 7.00026 20ZM2.02526 6.25C1.92526 5.7 2.03359 5.20417 2.35026 4.7625C2.66692 4.32083 3.10026 4.05 3.65026 3.95L14.5003 2.025C15.0503 1.925 15.5461 2.03333 15.9878 2.35C16.4294 2.66667 16.7003 3.1 16.8003 3.65L17.0503 5H15.0003L14.8253 4L4.00026 5.925L5.00026 11.575V18.55C4.73359 18.4 4.50442 18.2 4.31276 17.95C4.12109 17.7 4.00026 17.4167 3.95026 17.1L2.02526 6.25ZM9.00026 9V20H16.0003L20.0003 16V9H9.00026ZM13.5003 18.5H15.5003V15.5H18.5003V13.5H15.5003V10.5H13.5003V13.5H10.5003V15.5H13.5003V18.5Z" fill="#850000"/>
</g>
</svg>
