<svg width="20" height="20" viewBox="0 0 20 20" fill="none" xmlns="http://www.w3.org/2000/svg">
<mask id="mask0_1108_2590" style="mask-type:alpha" maskUnits="userSpaceOnUse" x="0" y="0" width="20" height="20">
<rect width="20" height="20" fill="#D9D9D9"/>
</mask>
<g mask="url(#mask0_1108_2590)">
<path d="M3.3335 15.8332V14.1665H5.00016V8.33317C5.00016 7.18039 5.34738 6.15609 6.04183 5.26025C6.73627 4.36442 7.63905 3.77762 8.75016 3.49984V2.9165C8.75016 2.56928 8.87169 2.27414 9.11475 2.03109C9.3578 1.78803 9.65294 1.6665 10.0002 1.6665C10.3474 1.6665 10.6425 1.78803 10.8856 2.03109C11.1286 2.27414 11.2502 2.56928 11.2502 2.9165V3.49984C12.3613 3.77762 13.2641 4.36442 13.9585 5.26025C14.6529 6.15609 15.0002 7.18039 15.0002 8.33317V14.1665H16.6668V15.8332H3.3335ZM10.0002 18.3332C9.54183 18.3332 9.14947 18.17 8.82308 17.8436C8.49669 17.5172 8.3335 17.1248 8.3335 16.6665H11.6668C11.6668 17.1248 11.5036 17.5172 11.1772 17.8436C10.8509 18.17 10.4585 18.3332 10.0002 18.3332ZM6.66683 14.1665H13.3335V8.33317C13.3335 7.4165 13.0071 6.63178 12.3543 5.979C11.7016 5.32623 10.9168 4.99984 10.0002 4.99984C9.0835 4.99984 8.29877 5.32623 7.646 5.979C6.99322 6.63178 6.66683 7.4165 6.66683 8.33317V14.1665Z" fill="#570000"/>
</g>
</svg>
