<svg width="20" height="20" viewBox="0 0 20 20" fill="none" xmlns="http://www.w3.org/2000/svg">
<mask id="mask0_1280_2083" style="mask-type:alpha" maskUnits="userSpaceOnUse" x="0" y="0" width="20" height="20">
<rect width="20" height="20" fill="#D9D9D9"/>
</mask>
<g mask="url(#mask0_1280_2083)">
<path d="M8.75016 12.4998H11.2502L10.771 9.81234C11.0488 9.67345 11.2675 9.47206 11.4272 9.20817C11.587 8.94428 11.6668 8.65262 11.6668 8.33317C11.6668 7.87484 11.5036 7.48248 11.1772 7.15609C10.8509 6.8297 10.4585 6.6665 10.0002 6.6665C9.54183 6.6665 9.14947 6.8297 8.82308 7.15609C8.49669 7.48248 8.3335 7.87484 8.3335 8.33317C8.3335 8.65262 8.41336 8.94428 8.57308 9.20817C8.7328 9.47206 8.95155 9.67345 9.22933 9.81234L8.75016 12.4998ZM10.0002 18.3332C8.06961 17.8471 6.47586 16.7394 5.21891 15.0103C3.96197 13.2811 3.3335 11.3609 3.3335 9.24984V4.1665L10.0002 1.6665L16.6668 4.1665V9.24984C16.6668 11.3609 16.0384 13.2811 14.7814 15.0103C13.5245 16.7394 11.9307 17.8471 10.0002 18.3332ZM10.0002 16.5832C11.4446 16.1248 12.6391 15.2082 13.5835 13.8332C14.5279 12.4582 15.0002 10.9304 15.0002 9.24984V5.31234L10.0002 3.43734L5.00016 5.31234V9.24984C5.00016 10.9304 5.47238 12.4582 6.41683 13.8332C7.36127 15.2082 8.55572 16.1248 10.0002 16.5832Z" fill="#570000"/>
</g>
</svg>
