<svg width="20" height="20" viewBox="0 0 20 20" fill="none" xmlns="http://www.w3.org/2000/svg">
<mask id="mask0_869_5938" style="mask-type:alpha" maskUnits="userSpaceOnUse" x="0" y="0" width="20" height="20">
<rect width="20" height="20" fill="#D9D9D9"/>
</mask>
<g mask="url(#mask0_869_5938)">
<path d="M3.33268 17.5C2.87435 17.5 2.48199 17.3368 2.1556 17.0104C1.82921 16.684 1.66602 16.2916 1.66602 15.8333V6.66663C1.66602 6.20829 1.82921 5.81593 2.1556 5.48954C2.48199 5.16315 2.87435 4.99996 3.33268 4.99996H6.66602V3.33329C6.66602 2.87496 6.82921 2.4826 7.1556 2.15621C7.48199 1.82982 7.87435 1.66663 8.33268 1.66663H11.666C12.1243 1.66663 12.5167 1.82982 12.8431 2.15621C13.1695 2.4826 13.3327 2.87496 13.3327 3.33329V4.99996H16.666C17.1243 4.99996 17.5167 5.16315 17.8431 5.48954C18.1695 5.81593 18.3327 6.20829 18.3327 6.66663V15.8333C18.3327 16.2916 18.1695 16.684 17.8431 17.0104C17.5167 17.3368 17.1243 17.5 16.666 17.5H3.33268ZM3.33268 15.8333H16.666V6.66663H3.33268V15.8333ZM8.33268 4.99996H11.666V3.33329H8.33268V4.99996Z" fill="#570000"/>
</g>
</svg>
