<svg width="20" height="20" viewBox="0 0 20 20" fill="none" xmlns="http://www.w3.org/2000/svg">
<mask id="mask0_1179_216" style="mask-type:alpha" maskUnits="userSpaceOnUse" x="0" y="0" width="20" height="20">
<rect width="20" height="20" fill="#D9D9D9"/>
</mask>
<g mask="url(#mask0_1179_216)">
<path d="M6.25065 18.3333C5.4451 18.3333 4.7576 18.0486 4.18815 17.4791C3.61871 16.9097 3.33398 16.2222 3.33398 15.4166V4.58329C3.33398 3.77774 3.61871 3.09024 4.18815 2.52079C4.7576 1.95135 5.4451 1.66663 6.25065 1.66663H16.6673V14.1666C16.3201 14.1666 16.025 14.2882 15.7819 14.5312C15.5388 14.7743 15.4173 15.0694 15.4173 15.4166C15.4173 15.7638 15.5388 16.059 15.7819 16.302C16.025 16.5451 16.3201 16.6666 16.6673 16.6666V18.3333H6.25065ZM5.00065 12.7708C5.1951 12.6736 5.39648 12.6041 5.60482 12.5625C5.81315 12.5208 6.02843 12.5 6.25065 12.5H6.66732V3.33329H6.25065C5.90343 3.33329 5.60829 3.45482 5.36523 3.69788C5.12218 3.94093 5.00065 4.23607 5.00065 4.58329V12.7708ZM8.33398 12.5H15.0007V3.33329H8.33398V12.5ZM6.25065 16.6666H14.0215C13.9382 16.4722 13.8722 16.2743 13.8236 16.0729C13.775 15.8715 13.7507 15.6527 13.7507 15.4166C13.7507 15.1944 13.7715 14.9791 13.8132 14.7708C13.8548 14.5625 13.9243 14.3611 14.0215 14.1666H6.25065C5.88954 14.1666 5.59093 14.2882 5.35482 14.5312C5.11871 14.7743 5.00065 15.0694 5.00065 15.4166C5.00065 15.7777 5.11871 16.0763 5.35482 16.3125C5.59093 16.5486 5.88954 16.6666 6.25065 16.6666Z" fill="#FCFBFB"/>
</g>
</svg>
